<svg xmlns="http://www.w3.org/2000/svg" xmlns:xlink="http://www.w3.org/1999/xlink" xml:space="preserve"
  style="shape-rendering:geometricPrecision;text-rendering:geometricPrecision;image-rendering:optimizeQuality;"
  viewBox="0 0 173.397 216.74624999999997" x="0px" y="0px" fill-rule="evenodd" clip-rule="evenodd">
  <defs>
    <style type="text/css">
      .fil1 {
        fill: none
      }

      .fil0 {
        fill: #eca009
      }
    </style>
  </defs>
  <g>
    <g>
      <path class="fil0"
        d="M24.1678 131.246c-1.9054,0 -3.7173,-0.8435 -5.3886,-2.5089 -5.2341,-5.2161 -8.6193,-18.2761 -8.6193,-33.2727 0.0006,-14.9969 3.3846,-28.0566 8.6193,-33.2721 1.6721,-1.6658 3.4828,-2.51 5.3918,-2.51 0.0362,0 0.07,0.0003 0.1051,0.0028l0.2977 0.0184 124.636 -0.0212c0.0064,0 0.0167,0 0.0236,0 1.9025,0 3.7171,0.8444 5.3885,2.51 5.2358,5.2151 8.6157,18.2756 8.6157,33.2721 0,14.9964 -3.3813,28.0567 -8.6157,33.2727 -1.6781,1.6718 -3.507,2.5172 -5.4164,2.5095 -0.0302,-0.0006 -0.0665,-0.0014 -0.0978,-0.0038l-0.2864 -0.0227 -77.8319 0c-0.7411,0 -1.3436,-0.6004 -1.3436,-1.342 0.0014,-0.7414 0.6013,-1.3425 1.3426,-1.3425l77.8816 0c0.0361,0 0.0662,0.0014 0.1011,0.0039l0.2875 0.0213c1.1613,-0.0102 2.3281,-0.5905 3.4679,-1.7259 4.6828,-4.6656 7.8256,-17.2719 7.8256,-31.3705 0.0012,-14.0993 -3.1432,-26.7054 -7.8256,-31.37 -1.1533,-1.1502 -2.3495,-1.72 -3.5107,-1.7267l-124.684 0.021c-0.0172,-0.0031 -0.0596,-0.0004 -0.0875,-0.0022l-0.2964 -0.019c-1.1612,0.0078 -2.3331,0.5887 -3.4731,1.7269 -4.6807,4.6639 -7.8289,17.2714 -7.8289,31.37 0.0011,14.0979 3.147,26.7056 7.8289,31.3705 1.1506,1.1453 2.3252,1.7262 3.4967,1.7262 0.0048,-0.0003 0.0106,0 0.014,0l14.1665 -0.0255c0.003,0 0.002,0 0.002,0 0.7421,0 1.3427,0.5994 1.3427,1.3403 0.0006,0.7407 -0.598,1.3435 -1.3391,1.3449l-14.1641 0.0252c-0.0078,0 -0.0184,0.0006 -0.0252,0z" />
      <path class="fil0"
        d="M54.6734 118.565c-8.5489,0 -15.5051,6.9559 -15.5051,15.5045 0.0014,8.549 6.955,15.5039 15.5043,15.5039 8.5496,-0.0001 15.5043,-6.9548 15.5043,-15.5039 0.0002,-8.5487 -6.9549,-15.504 -15.5035,-15.5045zm0 33.6935c-10.0327,0 -18.1905,-8.1595 -18.1905,-18.189 0.0008,-10.0303 8.1576,-18.1893 18.1897,-18.1893 10.0287,-0.0003 18.1897,8.1597 18.1897,18.1893 0.0008,10.0288 -8.1612,18.1893 -18.1889,18.189z" />
      <path class="fil0"
        d="M54.6734 132.247c-1.0071,0 -1.8227,0.8175 -1.8227,1.8221 0.0006,1.004 0.8148,1.8217 1.8219,1.8217 1.0046,-0.0003 1.8217,-0.8171 1.8217,-1.8217 0.0012,-1.0046 -0.8182,-1.8219 -1.8209,-1.8221zm0 6.3287c-2.4862,0 -4.5081,-2.0212 -4.5081,-4.5066 0,-2.4861 2.0211,-4.5072 4.5073,-4.5072 2.4838,0 4.5071,2.0217 4.5071,4.5072 0.0002,2.4854 -2.0245,4.5072 -4.5063,4.5066z" />
      <path class="fil0"
        d="M54.6734 132.273c-0.7411,0 -1.3436,-0.6012 -1.3436,-1.3426l0.0014 -13.7009c0,-0.7411 0.6001,-1.342 1.3414,-1.342 0.7419,-0.0001 1.3427,0.601 1.3427,1.3426l0.0002 13.6999c0,0.7412 -0.6016,1.3432 -1.3421,1.343z" />
      <path class="fil0"
        d="M71.5098 135.411l-13.7004 0c-0.7411,0 -1.3433,-0.601 -1.3433,-1.3423 0.001,-0.7418 0.6018,-1.3427 1.3431,-1.3427l13.7006 -0.0002c0.7412,0 1.3421,0.6013 1.3421,1.3429 0.0002,0.7412 -0.6015,1.3427 -1.3421,1.3423z" />
      <path class="fil0"
        d="M54.6734 152.25c-0.7411,0 -1.3436,-0.6006 -1.3436,-1.3422l0.0014 -13.7005c0,-0.7411 0.6001,-1.3422 1.3414,-1.3422 0.7419,0 1.3427,0.6011 1.3427,1.3424l0.0002 13.7003c0,0.7412 -0.6016,1.3427 -1.3421,1.3422z" />
      <path class="fil0"
        d="M51.5326 135.411l-13.6988 0c-0.7411,0 -1.3441,-0.601 -1.3441,-1.3423 0.0002,-0.7418 0.6016,-1.3427 1.3429,-1.3427l13.7 -0.0002c0.7412,0 1.3427,0.6013 1.3427,1.3429 0.0012,0.7412 -0.6015,1.3427 -1.3427,1.3423z" />
      <path class="fil0"
        d="M133.488 152.258l-6.969 0c-0.4344,0 -0.84,-0.2091 -1.0917,-0.562l-15.0383 -21.05c-0.4311,-0.6035 -0.291,-1.4416 0.3101,-1.8728 0.6058,-0.4308 1.4408,-0.2915 1.8743,0.3121l14.638 20.4875 4.9329 0 0 -19.7073c0,-0.7412 0.6015,-1.3426 1.3429,-1.3426 0.742,-0.0004 1.3426,0.6014 1.3426,1.3428l0.0004 21.0493c0,0.7419 -0.6018,1.3433 -1.3422,1.343z" />
      <path class="fil0"
        d="M138.152 62.3763c-0.7412,0 -1.3431,-0.6003 -1.3431,-1.3419l0.0008 -5.6302c0,-2.3634 -1.9239,-4.2865 -4.2876,-4.2865l-51.6109 -0.0006c-2.3635,0 -4.2869,1.9239 -4.2869,4.2876l0.0006 5.6295c0,0.7411 -0.602,1.3428 -1.3434,1.3428 -0.7399,-0.0007 -1.3428,-0.601 -1.3428,-1.3426l0.0002 -5.6302c0,-3.8441 3.126,-6.9715 6.9723,-6.9715l51.6109 -0.0007c3.8471,0 6.9723,3.1281 6.9723,6.9727l0.0014 5.6295c0,0.7411 -0.603,1.3428 -1.3438,1.3421z" />
      <path class="fil0"
        d="M87.5345 23.824c-6.7835,0 -12.3051,5.5201 -12.3051,12.3044 0.0002,6.7845 5.5212,12.3043 12.3047,12.3043 6.7836,-0.0007 12.3049,-5.5197 12.3049,-12.3043 0.0002,-6.7846 -5.5213,-12.3039 -12.3045,-12.3044zm0 27.2931c-8.2625,0 -14.9905,-6.7235 -14.9905,-14.9887 0.0012,-8.2653 6.7276,-14.9893 14.9901,-14.9893 8.2676,-0.0003 14.9906,6.7241 14.9906,14.9893 0.0004,8.2652 -6.7242,14.9893 -14.9902,14.9887z" />
      <path class="fil0"
        d="M87.5345 33.8259c-1.2684,0 -2.3012,1.0331 -2.3012,2.3025 0.0006,1.2693 1.0316,2.3021 2.3008,2.3021 1.2703,-0.0006 2.3045,-1.0327 2.3045,-2.3021 0.0009,-1.2695 -1.035,-2.3022 -2.3041,-2.3025zm0 7.2901c-2.7474,0 -4.9865,-2.2373 -4.9865,-4.9876 0,-2.7509 2.2379,-4.9875 4.9861,-4.9875 2.7523,-0.0002 4.99,2.2373 4.99,4.9875 0,2.7501 -2.2381,4.9876 -4.9896,4.9876z" />
      <path class="fil0"
        d="M128.754 34.9644c-3.7134,0 -6.7353,3.021 -6.7353,6.734 0.0008,3.7124 3.0211,6.7343 6.7345,6.7343 3.7143,-0.0007 6.7347,-3.0212 6.7347,-6.7343 0.0008,-3.7137 -3.0211,-6.7338 -6.7339,-6.734zm0 16.1527c-5.1926,0 -9.421,-4.2247 -9.421,-9.4187 0.0004,-5.1944 4.2276,-9.4192 9.4202,-9.4192 5.1966,0 9.4202,4.2253 9.4202,9.4192 0.0012,5.1939 -4.224,9.4193 -9.4202,9.4193l0.0008 -0.0006z" />
      <path class="fil0"
        d="M128.754 34.9644c-0.1148,0 -0.2351,-0.0147 -0.3505,-0.0465l-34.3469 -9.2876c-0.7174,-0.1936 -1.1408,-0.9304 -0.9483,-1.6464 0.1962,-0.7154 0.9301,-1.1391 1.6467,-0.9454l34.3483 9.287c0.7176,0.1936 1.1394,0.931 0.9473,1.6468 -0.1603,0.5979 -0.7029,0.9926 -1.2966,0.9921z" />
      <path class="fil0"
        d="M128.883 43.0529l-0.2549 0c-0.7491,0 -1.3575,-0.6063 -1.3575,-1.3545 0.0012,-0.7485 0.6082,-1.3551 1.3567,-1.3551l0.2557 0c0.749,0 1.3528,0.6067 1.3528,1.3551 0.0004,0.7479 -0.605,1.3549 -1.3528,1.3545z" />
      <path class="fil0"
        d="M87.5345 33.8259c-0.7413,0 -1.3429,-0.6009 -1.3429,-1.3424l0.0006 -10.0018c0,-0.7419 0.6007,-1.3426 1.3419,-1.3426 0.7414,-0.0003 1.3428,0.6012 1.3428,1.3427l0.0012 10.0011c0,0.7419 -0.6026,1.3433 -1.3436,1.343z" />
      <path class="fil0"
        d="M101.183 37.4709l-10.0012 0c-0.7444,0 -1.3432,-0.601 -1.3432,-1.3425 0.0009,-0.7416 0.598,-1.3426 1.3428,-1.3426l10.0016 0c0.741,0 1.3417,0.6011 1.3417,1.3426 0.0004,0.7414 -0.6016,1.3427 -1.3417,1.3425z" />
      <path class="fil0"
        d="M87.5345 51.1171c-0.7413,0 -1.3429,-0.6005 -1.3429,-1.3421l0.0006 -10.002c0,-0.7419 0.6007,-1.3425 1.3419,-1.3425 0.7414,-0.0006 1.3428,0.6013 1.3428,1.3428l0.0012 10.0016c0,0.7411 -0.6026,1.3428 -1.3436,1.3422z" />
      <path class="fil0"
        d="M83.8917 37.4709l-10.0042 0c-0.7413,0 -1.3435,-0.601 -1.3435,-1.3425 0.0012,-0.7416 0.6015,-1.3426 1.3429,-1.3426l10.0048 0c0.7412,0 1.3416,0.6011 1.3416,1.3426 0.0006,0.7414 -0.6012,1.3427 -1.3416,1.3425z" />
      <path class="fil0"
        d="M149.401 131.243c-0.741,0 -1.3432,-0.6005 -1.3432,-1.3421l0.0011 -68.8732c0,-0.7411 0.6005,-1.3421 1.3417,-1.3421 0.7448,0 1.3427,0.601 1.3427,1.3426l0 68.8726c0,0.7411 -0.5979,1.3428 -1.3423,1.3422z" />
      <path class="fil0"
        d="M24.3158 131.246c-0.7427,0 -1.344,-0.6007 -1.344,-1.3424l0.0002 -68.8712c0,-0.7411 0.6011,-1.3421 1.3424,-1.3421 0.7425,-0.0002 1.3428,0.6015 1.3428,1.3428l0.0008 68.87c0,0.7419 -0.6023,1.3431 -1.3436,1.3431l0.0014 -0.0002z" />
      <path class="fil0"
        d="M36.6647 62.3873c-0.7412,0 -1.3427,-0.6005 -1.3427,-1.3421l0.0004 -11.8273c0,-0.7419 0.6009,-1.3423 1.3423,-1.3423 0.7427,-0.0007 1.3427,0.6011 1.3427,1.3427l0.001 11.8269c0,0.7411 -0.6024,1.3426 -1.3437,1.3421zm17.1731 0c-0.7411,0 -1.3437,-0.6005 -1.3437,-1.3421l0 -11.8273c0,-0.7419 0.6014,-1.3423 1.3427,-1.3423 0.7421,-0.0007 1.3429,0.6011 1.3429,1.3427l0.0004 11.8269c0,0.7411 -0.602,1.3426 -1.3423,1.3421z" />
      <path class="fil0"
        d="M31.8827 47.8749l26.7386 0 0 -16.8097 -26.7386 0 0 16.8097zm28.0808 2.686l-29.4245 0c-0.7411,0 -1.3432,-0.6013 -1.3432,-1.3426l0.001 -19.4961c0,-0.7411 0.6003,-1.3421 1.3416,-1.3421l29.4251 -0.0001c0.7411,0 1.3422,0.6012 1.3422,1.3427l0 19.4952c0,0.7411 -0.6015,1.3432 -1.3422,1.343z" />
      <path class="fil0"
        d="M59.9635 37.5637l-29.4245 0c-0.7411,0 -1.3432,-0.6009 -1.3432,-1.3424 0.001,-0.7416 0.6013,-1.3428 1.3426,-1.3428l29.4251 0c0.7411,0 1.3422,0.6013 1.3422,1.3428 0,0.7414 -0.6015,1.3426 -1.3422,1.3424z" />
      <path class="fil0"
        d="M59.9635 44.0623l-29.4245 0c-0.7411,0 -1.3432,-0.6009 -1.3432,-1.3424 0.001,-0.7417 0.6013,-1.3428 1.3426,-1.3428l29.4251 0c0.7411,0 1.3422,0.6012 1.3422,1.3428 0,0.7414 -0.6015,1.3426 -1.3422,1.3424z" />
      <path class="fil0"
        d="M137.268 75.9116l-38.4311 0c-0.7428,0 -1.3442,-0.6011 -1.3442,-1.3428 0.0004,-0.7413 0.6014,-1.3427 1.343,-1.3427l38.4323 -0.0005c0.7412,0 1.3423,0.602 1.3423,1.3432 0,0.7417 -0.6014,1.3428 -1.3423,1.3428z" />
      <path class="fil0"
        d="M137.268 89.8364l-38.4311 0c-0.7428,0 -1.3442,-0.6011 -1.3442,-1.3428 0.0004,-0.7414 0.6014,-1.3422 1.343,-1.3422l38.4323 -0.0002c0.7412,0 1.3423,0.6012 1.3423,1.3424 0,0.7416 -0.6014,1.3429 -1.3423,1.3428z" />
      <path class="fil0"
        d="M137.268 103.761l-38.4311 0c-0.7428,0 -1.3442,-0.6008 -1.3442,-1.3421 0.0004,-0.7419 0.6014,-1.3427 1.343,-1.3427l38.4323 -0.0003c0.7412,0 1.3423,0.6013 1.3423,1.343 0,0.7411 -0.6014,1.3426 -1.3423,1.3421z" />
      <path class="fil0"
        d="M137.268 117.686l-38.4311 0c-0.7428,0 -1.3442,-0.6005 -1.3442,-1.3421 0.0004,-0.742 0.6014,-1.3429 1.343,-1.3429l38.4323 -0.0003c0.7412,0 1.3423,0.6015 1.3423,1.3432 0,0.741 -0.6014,1.3427 -1.3423,1.3421z" />
      <path class="fil0"
        d="M38.5261 87.5682l32.2945 0c-0.6844,-8.3081 -7.6651,-14.86 -16.148,-14.86 -8.482,-0.0003 -15.4657,6.5519 -16.1477,14.8606l0.0012 -0.0006zm33.6934 2.6859l-35.0922 0c-0.7412,0 -1.3438,-0.6013 -1.3438,-1.3426 0,-10.4154 8.4724,-18.8886 18.8891,-18.8886 10.4142,-0.0001 18.8889,8.4734 18.8889,18.8886 0.0002,0.7407 -0.6013,1.3428 -1.342,1.3426z" />
      <path class="fil0"
        d="M54.6734 90.2541c-0.3431,0 -0.6896,-0.131 -0.9519,-0.3931 -0.5241,-0.5243 -0.5245,-1.3746 0,-1.8992l7.8297 -7.8285c0.5239,-0.5239 1.3734,-0.5237 1.898,0.0005 0.5251,0.5243 0.5245,1.3746 0,1.899l-7.8286 7.828c-0.2627,0.2619 -0.6054,0.3935 -0.9472,0.3933z" />
    </g>
  </g>
  <rect class="fil1" width="173.397" height="173.397" /><text x="0" y="188.397" fill="#000000" font-size="5px"
    font-weight="bold" font-family="'Helvetica Neue', Helvetica, Arial-Unicode, Arial, Sans-serif">Created by Muhammad
    Atiq</text><text x="0" y="193.397" fill="#000000" font-size="5px" font-weight="bold"
    font-family="'Helvetica Neue', Helvetica, Arial-Unicode, Arial, Sans-serif">from the Noun Project</text>
</svg>