<svg width="512" height="512" viewBox="0 0 512 512" fill="none" xmlns="http://www.w3.org/2000/svg">
<path d="M308.717 267.962V301.702H59.1973V275.882C79.0293 271.948 60.9433 275.544 160.557 255.722L211.257 259.902L308.717 267.962Z" fill="#7D7B79"/>
<path d="M495.197 291.162V355.562H450.697C443.917 344.862 431.937 337.762 418.277 337.762C404.617 337.762 392.657 344.862 385.817 355.562H340.697V217.982C340.697 212.442 345.177 207.982 350.697 207.982H429.997C432.35 207.979 434.628 208.806 436.432 210.316C438.235 211.827 439.448 213.925 439.857 216.242L442.837 233.322L450.457 276.762L450.637 276.782L486.417 281.242C488.839 281.54 491.068 282.712 492.686 284.54C494.303 286.367 495.196 288.722 495.197 291.162Z" fill="#F0C020"/>
<path d="M379.345 342.554H358.693C357.367 342.554 356.096 342.027 355.158 341.09C354.22 340.152 353.693 338.88 353.693 337.554C353.693 336.228 354.22 334.956 355.158 334.018C356.096 333.081 357.367 332.554 358.693 332.554H379.345C380.671 332.554 381.943 333.081 382.881 334.018C383.819 334.956 384.345 336.228 384.345 337.554C384.345 338.88 383.819 340.152 382.881 341.09C381.943 342.027 380.671 342.554 379.345 342.554ZM477.187 342.554H456.723C455.397 342.554 454.126 342.027 453.188 341.09C452.25 340.152 451.723 338.88 451.723 337.554C451.723 336.228 452.25 334.956 453.188 334.018C454.126 333.081 455.397 332.554 456.723 332.554H472.187V298.228C472.187 296.902 472.714 295.63 473.652 294.693C474.59 293.755 475.861 293.228 477.187 293.228C478.513 293.228 479.785 293.755 480.723 294.693C481.661 295.63 482.187 296.902 482.187 298.228V337.554C482.187 338.88 481.661 340.152 480.723 341.09C479.785 342.027 478.513 342.554 477.187 342.554Z" fill="#F8E5B0"/>
<path d="M450.628 276.774H372.668V233.314H442.848L450.468 276.754L450.628 276.774Z" fill="#72C2E9"/>
<path d="M340.698 301.682V355.562H253.338C246.538 344.862 234.578 337.762 220.918 337.762C207.258 337.762 195.298 344.862 188.458 355.562H149.238C142.458 344.862 130.478 337.762 116.818 337.762C103.158 337.762 91.1982 344.862 84.3582 355.562H57.1582C54.506 355.562 51.9625 354.509 50.0871 352.633C48.2118 350.758 47.1582 348.214 47.1582 345.562V311.682C47.1582 309.03 48.2118 306.486 50.0871 304.611C51.9625 302.736 54.506 301.682 57.1582 301.682H340.698Z" fill="#AFAFAF"/>
<path d="M308.71 327.39H102.35C101.693 327.39 101.043 327.261 100.436 327.01C99.8296 326.758 99.2784 326.39 98.8141 325.926C98.3498 325.461 97.9815 324.91 97.7302 324.304C97.4789 323.697 97.3496 323.047 97.3496 322.39C97.3496 321.734 97.4789 321.083 97.7302 320.477C97.9815 319.87 98.3498 319.319 98.8141 318.855C99.2784 318.39 99.8296 318.022 100.436 317.771C101.043 317.519 101.693 317.39 102.35 317.39H308.71C309.366 317.39 310.016 317.519 310.623 317.771C311.23 318.022 311.781 318.39 312.245 318.855C312.709 319.319 313.078 319.87 313.329 320.477C313.58 321.083 313.71 321.734 313.71 322.39C313.71 323.047 313.58 323.697 313.329 324.304C313.078 324.91 312.709 325.461 312.245 325.926C311.781 326.39 311.23 326.758 310.623 327.01C310.016 327.261 309.366 327.39 308.71 327.39ZM82.3496 327.39H78.3496C77.693 327.39 77.0428 327.261 76.4362 327.01C75.8296 326.758 75.2784 326.39 74.8141 325.926C74.3498 325.461 73.9815 324.91 73.7302 324.304C73.4789 323.697 73.3496 323.047 73.3496 322.39C73.3496 321.734 73.4789 321.083 73.7302 320.477C73.9815 319.87 74.3498 319.319 74.8141 318.855C75.2784 318.39 75.8296 318.022 76.4362 317.771C77.0428 317.519 77.693 317.39 78.3496 317.39H82.3496C83.0062 317.39 83.6564 317.519 84.263 317.771C84.8697 318.022 85.4209 318.39 85.8851 318.855C86.3494 319.319 86.7177 319.87 86.969 320.477C87.2203 321.083 87.3496 321.734 87.3496 322.39C87.3496 323.047 87.2203 323.697 86.969 324.304C86.7177 324.91 86.3494 325.461 85.8851 325.926C85.4209 326.39 84.8697 326.758 84.263 327.01C83.6564 327.261 83.0062 327.39 82.3496 327.39Z" fill="#EFEFEF"/>
<path d="M456.718 376.202C456.718 397.422 439.518 414.662 418.278 414.662C397.058 414.662 379.818 397.422 379.818 376.202C379.818 368.582 382.018 361.522 385.818 355.562C392.658 344.862 404.618 337.762 418.278 337.762C431.938 337.762 443.918 344.862 450.698 355.562C454.518 361.522 456.718 368.582 456.718 376.202Z" fill="#4C4944"/>
<path d="M435.046 376.208C435.046 385.472 427.536 392.994 418.272 392.994C409.008 392.994 401.486 385.472 401.486 376.208C401.486 366.962 408.994 359.434 418.272 359.434C427.596 359.434 435.046 367.006 435.046 376.208Z" fill="#AFAFAF"/>
<path d="M259.357 376.202C259.357 397.422 242.157 414.662 220.917 414.662C199.677 414.662 182.438 397.422 182.438 376.202C182.438 368.582 184.657 361.522 188.457 355.562C195.297 344.862 207.257 337.762 220.917 337.762C234.577 337.762 246.537 344.862 253.337 355.562C257.137 361.522 259.357 368.582 259.357 376.202Z" fill="#4C4944"/>
<path d="M237.681 376.208C237.681 385.472 230.171 392.994 220.907 392.994C211.643 392.994 204.121 385.472 204.121 376.208C204.121 366.962 211.629 359.434 220.907 359.434C230.231 359.434 237.681 367.006 237.681 376.208Z" fill="#AFAFAF"/>
<path d="M155.257 376.202C155.257 397.422 138.057 414.662 116.817 414.662C95.5974 414.662 78.3574 397.422 78.3574 376.202C78.3574 368.582 80.5574 361.522 84.3574 355.562C91.1974 344.862 103.157 337.762 116.817 337.762C130.477 337.762 142.457 344.862 149.237 355.562C153.057 361.522 155.257 368.582 155.257 376.202Z" fill="#4C4944"/>
<path d="M133.585 376.208C133.585 385.472 126.075 392.994 116.811 392.994C107.547 392.994 100.025 385.472 100.025 376.208C100.025 366.962 107.533 359.434 116.811 359.434C126.135 359.434 133.585 367.006 133.585 376.208Z" fill="#AFAFAF"/>
<path d="M211.257 259.902C56.7013 290.676 82.7453 285.496 59.1973 290.162V275.882C79.0293 271.948 60.9433 275.544 160.557 255.722L211.257 259.902Z" fill="#4C4944"/>
<path d="M287.548 154.386L308.438 226.282L160.558 255.722C66.4604 274.446 80.1164 271.732 59.1984 275.882L43.2784 279.042L16.8184 187.962L327.296 97.7319C328.557 97.3654 329.878 97.2508 331.184 97.3947C332.489 97.5387 333.753 97.9383 334.904 98.5709C336.055 99.2035 337.07 100.057 337.891 101.081C338.713 102.106 339.324 103.283 339.69 104.544L343.408 117.336C343.775 118.597 343.889 119.918 343.745 121.224C343.601 122.529 343.201 123.793 342.569 124.944C341.936 126.095 341.083 127.11 340.058 127.931C339.032 128.753 337.856 129.364 336.594 129.73L294.364 141.992C291.817 142.732 289.668 144.453 288.39 146.777C287.111 149.102 286.809 151.839 287.548 154.386Z" fill="#F0C020"/>
<path d="M66.9243 256.48C66.7961 255.836 66.7961 255.173 66.9241 254.529C67.0521 253.885 67.3057 253.273 67.6705 252.727C68.0352 252.181 68.504 251.712 69.0499 251.347C69.5959 250.982 70.2083 250.728 70.8523 250.6L278.55 209.27L257.32 136.198C256.951 134.925 257.102 133.556 257.741 132.394C258.379 131.232 259.453 130.371 260.726 130L319.53 112.924C320.804 112.554 322.172 112.705 323.334 113.344C324.497 113.983 325.357 115.058 325.727 116.331C326.097 117.605 325.946 118.973 325.307 120.135C324.668 121.297 323.594 122.158 322.32 122.528L268.318 138.21L289.674 211.714C289.868 212.38 289.92 213.078 289.83 213.765C289.739 214.452 289.506 215.112 289.147 215.704C288.787 216.297 288.309 216.808 287.741 217.205C287.174 217.603 286.53 217.878 285.85 218.014L72.8043 260.408C71.5038 260.666 70.1538 260.398 69.0512 259.661C67.9486 258.925 67.1836 257.781 66.9243 256.48Z" fill="#F8E5B0"/>
<path d="M211.249 259.904C56.6935 290.678 82.7375 285.498 59.1895 290.164V275.884C79.0215 271.95 60.9355 275.546 160.549 255.724L211.249 259.904Z" fill="#4C4944"/>
<path d="M500.188 291.158C500.188 283.618 494.528 277.218 487.028 276.278L454.758 272.26C449.546 242.55 451.75 255.132 444.788 215.38C444.179 211.903 442.363 208.753 439.659 206.484C436.955 204.216 433.537 202.975 430.008 202.98H350.688C342.448 203 335.708 209.72 335.688 217.98V296.68H313.72V267.966C313.72 266.711 313.248 265.502 312.398 264.579C311.548 263.655 310.382 263.085 309.132 262.982L196.39 253.668L309.41 231.18C312.31 230.634 314.036 227.678 313.25 224.9L292.35 153C291.566 150.324 293.142 147.536 295.75 146.8L337.99 134.54C345.76 132.268 350.574 123.976 348.208 115.94L344.49 103.16C342.238 95.4399 334.058 90.5759 325.888 92.9399L149.788 144.12C149.157 144.303 148.568 144.609 148.056 145.02C147.544 145.431 147.117 145.939 146.801 146.515C146.486 147.09 146.287 147.723 146.216 148.376C146.145 149.029 146.203 149.69 146.388 150.32C147.128 152.88 149.968 154.46 152.59 153.72L328.69 102.54C331.342 101.764 334.146 103.312 334.89 105.94L338.61 118.74C338.977 120.016 338.823 121.385 338.182 122.547C337.541 123.71 336.465 124.57 335.19 124.94L292.97 137.2C285.248 139.452 280.384 147.642 282.752 155.8L302.112 222.44L46.8117 273.24L23.0137 191.36L114.174 164.88C116.788 164.104 118.37 161.368 117.574 158.68C116.834 156.1 113.994 154.52 111.392 155.28L15.4277 183.158C14.1543 183.53 13.0799 184.391 12.4391 185.553C11.7983 186.714 11.6432 188.082 12.0077 189.358L38.4657 280.438C39.2377 283.074 42.0257 284.494 44.2477 283.938L54.1977 281.958V296.974C47.3457 298.352 42.1677 304.428 42.1677 311.678V345.558C42.1677 353.838 48.8857 360.558 57.1457 360.558H76.2777C74.3485 365.549 73.3586 370.853 73.3577 376.204C73.3577 400.168 92.8537 419.664 116.818 419.664C140.772 419.664 160.258 400.168 160.258 376.204C160.258 370.8 159.248 365.508 157.334 360.558H180.372C178.436 365.547 177.441 370.852 177.438 376.204C177.438 400.168 196.944 419.664 220.918 419.664C244.872 419.664 264.358 400.168 264.358 376.204C264.358 370.816 263.344 365.524 261.424 360.558H274.568C275.894 360.558 277.166 360.031 278.103 359.093C279.041 358.156 279.568 356.884 279.568 355.558C279.568 354.232 279.041 352.96 278.103 352.022C277.166 351.085 275.894 350.558 274.568 350.558H255.976C251.947 345.039 246.672 340.551 240.58 337.459C234.487 334.366 227.75 332.758 220.918 332.764C214.082 332.763 207.342 334.373 201.245 337.465C195.148 340.557 189.866 345.042 185.828 350.558H151.888C143.408 338.95 130.258 332.758 116.83 332.758C109.992 332.763 103.252 334.377 97.1544 337.469C91.0564 340.561 85.7718 345.045 81.7277 350.558H57.1477C54.4097 350.558 52.1697 348.318 52.1477 345.558V311.678C52.1697 308.938 54.4097 306.678 57.1477 306.678C59.3557 306.678 59.1977 306.704 59.1977 306.704H308.72C308.806 306.704 308.886 306.684 308.972 306.678H335.688V350.558H314.568C311.828 350.558 309.568 352.798 309.568 355.558C309.568 358.318 311.828 360.558 314.568 360.558H377.738C375.808 365.549 374.818 370.853 374.818 376.204C374.818 400.168 394.314 419.664 418.276 419.664C442.23 419.664 461.718 400.168 461.718 376.204C461.718 370.802 460.708 365.508 458.792 360.558H495.206C497.926 360.558 500.186 358.36 500.186 355.558V351.158C500.186 349.884 499.7 348.658 498.827 347.731C497.954 346.803 496.76 346.244 495.488 346.168C494.217 346.091 492.964 346.503 491.986 347.319C491.008 348.135 490.378 349.293 490.226 350.558H453.348C449.319 345.034 444.041 340.541 437.944 337.448C431.847 334.354 425.105 332.747 418.268 332.758C411.434 332.768 404.699 334.384 398.606 337.476C392.512 340.568 387.231 345.049 383.188 350.558H345.688V217.978C345.688 215.238 347.948 212.978 350.688 212.978H430.008C432.448 212.978 434.508 214.718 434.928 217.098L436.892 228.314H372.668C371.342 228.314 370.07 228.841 369.132 229.778C368.194 230.716 367.668 231.988 367.668 233.314V276.774C367.668 278.1 368.194 279.372 369.132 280.309C370.07 281.247 371.342 281.774 372.668 281.774H450.222L485.808 286.198C488.308 286.518 490.208 288.638 490.188 291.158V311.158C490.188 313.918 492.448 316.158 495.208 316.158C497.948 316.158 500.188 313.918 500.188 311.158V291.158ZM116.818 409.662C98.3657 409.662 83.3577 394.652 83.3577 376.202C83.3577 357.766 98.3057 342.762 116.818 342.762C135.766 342.762 150.258 358.2 150.258 376.202C150.258 394.652 135.258 409.662 116.818 409.662ZM220.918 409.662C202.458 409.662 187.438 394.652 187.438 376.202C187.438 357.728 202.494 342.762 220.918 342.762C239.418 342.762 254.358 357.808 254.358 376.202C254.358 394.652 239.358 409.662 220.918 409.662ZM303.718 296.678H64.1977V279.988L160.846 260.764L303.72 272.566V296.678H303.718ZM418.278 409.662C399.828 409.662 384.82 394.652 384.82 376.202C384.82 357.53 400.004 342.762 418.278 342.762C437.184 342.762 451.72 358.16 451.72 376.202C451.718 394.652 436.716 409.662 418.278 409.662ZM377.668 238.314H438.644L444.504 271.774H377.668V238.314Z" fill="black"/>
<path d="M495.208 326.158C492.448 326.158 490.188 328.398 490.188 331.158C490.188 333.918 492.448 336.158 495.208 336.158C497.948 336.158 500.188 333.918 500.188 331.158C500.188 328.396 497.948 326.158 495.208 326.158ZM372.668 302.036C371.342 302.036 370.07 302.563 369.133 303.501C368.195 304.438 367.668 305.71 367.668 307.036C367.668 308.362 368.195 309.634 369.133 310.572C370.07 311.509 371.342 312.036 372.668 312.036H386.026C387.352 312.036 388.624 311.509 389.562 310.572C390.499 309.634 391.026 308.362 391.026 307.036C391.026 305.71 390.499 304.438 389.562 303.501C388.624 302.563 387.352 302.036 386.026 302.036H372.668ZM289.588 355.558C289.588 356.884 290.115 358.156 291.053 359.094C291.99 360.031 293.262 360.558 294.588 360.558C297.328 360.558 299.568 358.318 299.568 355.558C299.568 352.798 297.328 350.558 294.588 350.558C293.262 350.558 291.99 351.085 291.053 352.023C290.115 352.96 289.588 354.232 289.588 355.558ZM418.272 354.434C406.26 354.434 396.486 364.202 396.486 376.208C396.486 388.22 406.26 397.994 418.272 397.994C430.278 397.994 440.046 388.22 440.046 376.208C440.046 364.202 430.278 354.434 418.272 354.434ZM418.272 387.994C415.147 387.99 412.152 386.748 409.942 384.538C407.733 382.329 406.49 379.333 406.486 376.208C406.486 369.716 411.774 364.434 418.272 364.434C421.394 364.438 424.386 365.68 426.593 367.887C428.801 370.094 430.042 373.087 430.046 376.208C430.046 382.706 424.764 387.994 418.272 387.994ZM220.908 354.434C208.894 354.434 199.12 364.202 199.12 376.208C199.12 388.22 208.894 397.994 220.908 397.994C232.914 397.994 242.682 388.22 242.682 376.208C242.682 364.202 232.914 354.434 220.908 354.434ZM220.908 387.994C217.783 387.991 214.787 386.748 212.577 384.539C210.367 382.329 209.124 379.333 209.12 376.208C209.12 369.716 214.408 364.434 220.908 364.434C224.03 364.438 227.022 365.68 229.229 367.887C231.437 370.094 232.678 373.087 232.682 376.208C232.682 382.706 227.4 387.994 220.908 387.994ZM116.814 354.434C104.8 354.434 95.0261 364.202 95.0261 376.208C95.0261 388.22 104.8 397.994 116.814 397.994C128.818 397.994 138.586 388.22 138.586 376.208C138.586 364.202 128.818 354.434 116.814 354.434ZM116.814 387.994C113.689 387.991 110.693 386.748 108.483 384.539C106.273 382.329 105.03 379.333 105.026 376.208C105.026 369.716 110.314 364.434 116.814 364.434C119.935 364.438 122.927 365.68 125.134 367.887C127.341 370.095 128.582 373.087 128.586 376.208C128.586 382.706 123.304 387.994 116.814 387.994ZM64.6421 191.76C64.0114 191.943 63.423 192.249 62.9105 192.66C62.398 193.07 61.9715 193.578 61.6552 194.154C61.3389 194.729 61.1391 195.361 61.0672 196.014C60.9953 196.667 61.0527 197.328 61.2361 197.958L73.0561 238.638C73.2353 239.273 73.5385 239.867 73.9482 240.384C74.3578 240.901 74.8659 241.333 75.443 241.653C76.0201 241.973 76.6549 242.176 77.3108 242.249C77.9666 242.323 78.6305 242.266 79.2643 242.081C79.898 241.897 80.4889 241.589 81.0031 241.176C81.5172 240.762 81.9443 240.25 82.2598 239.671C82.5753 239.091 82.773 238.455 82.8413 237.798C82.9097 237.142 82.8474 236.478 82.6581 235.846L70.8381 195.166C70.4676 193.893 69.6068 192.819 68.445 192.181C67.2832 191.542 65.9154 191.391 64.6421 191.76ZM113.978 182.628C113.608 181.355 112.748 180.281 111.586 179.642C110.424 179.003 109.056 178.851 107.783 179.221C106.51 179.591 105.436 180.451 104.797 181.613C104.158 182.775 104.006 184.143 104.376 185.416L117.276 229.836C117.45 230.477 117.75 231.076 118.159 231.599C118.567 232.122 119.075 232.559 119.654 232.884C120.233 233.209 120.871 233.415 121.53 233.491C122.19 233.566 122.857 233.51 123.495 233.325C124.132 233.14 124.726 232.83 125.243 232.413C125.759 231.996 126.187 231.48 126.502 230.896C126.817 230.311 127.012 229.67 127.077 229.01C127.142 228.349 127.074 227.682 126.878 227.048L113.978 182.628ZM167.694 224.424C168.325 224.241 168.913 223.936 169.426 223.525C169.938 223.115 170.365 222.607 170.681 222.032C170.997 221.456 171.197 220.824 171.269 220.172C171.341 219.519 171.284 218.859 171.1 218.228L157.12 170.088C156.937 169.458 156.632 168.869 156.221 168.357C155.811 167.845 155.303 167.418 154.728 167.102C154.153 166.785 153.521 166.585 152.868 166.513C152.216 166.441 151.556 166.498 150.925 166.681C150.295 166.864 149.706 167.17 149.194 167.58C148.682 167.99 148.255 168.498 147.939 169.073C147.622 169.648 147.422 170.28 147.35 170.933C147.278 171.585 147.335 172.246 147.518 172.876L161.498 221.016C161.681 221.647 161.987 222.235 162.397 222.748C162.807 223.26 163.315 223.687 163.89 224.003C164.466 224.32 165.098 224.52 165.75 224.592C166.403 224.664 167.063 224.607 167.694 224.424ZM211.892 215.644C212.523 215.461 213.111 215.156 213.624 214.745C214.136 214.335 214.563 213.827 214.879 213.252C215.196 212.677 215.396 212.045 215.468 211.392C215.54 210.739 215.483 210.079 215.3 209.448L200.24 157.568C200.057 156.937 199.752 156.349 199.341 155.836C198.931 155.324 198.423 154.897 197.848 154.58C197.272 154.264 196.64 154.064 195.987 153.991C195.334 153.919 194.674 153.976 194.043 154.159C193.412 154.342 192.824 154.648 192.311 155.058C191.799 155.469 191.372 155.976 191.055 156.552C190.739 157.127 190.538 157.759 190.466 158.412C190.394 159.065 190.451 159.725 190.634 160.356L205.696 212.236C205.879 212.867 206.185 213.455 206.595 213.968C207.005 214.48 207.513 214.907 208.088 215.223C208.664 215.54 209.296 215.74 209.948 215.812C210.601 215.884 211.261 215.827 211.892 215.644ZM256.114 206.824C256.745 206.641 257.333 206.336 257.846 205.925C258.358 205.515 258.785 205.007 259.101 204.432C259.418 203.857 259.618 203.225 259.69 202.572C259.762 201.919 259.705 201.259 259.522 200.628L243.38 145.028C243.01 143.755 242.15 142.68 240.988 142.041C239.826 141.402 238.458 141.25 237.184 141.62C235.911 141.99 234.836 142.85 234.197 144.012C233.558 145.174 233.406 146.543 233.776 147.816L249.918 203.416C250.101 204.047 250.407 204.635 250.817 205.148C251.227 205.66 251.735 206.087 252.31 206.403C252.886 206.72 253.518 206.92 254.17 206.992C254.823 207.064 255.484 207.007 256.114 206.824ZM133.368 159.298C134.641 158.926 135.716 158.065 136.357 156.903C136.997 155.742 137.153 154.374 136.788 153.098C136.028 150.518 133.168 148.938 130.588 149.698C129.956 149.879 129.366 150.184 128.853 150.595C128.339 151.005 127.912 151.513 127.596 152.09C127.28 152.666 127.081 153.299 127.011 153.953C126.941 154.607 127.001 155.268 127.188 155.898C127.868 158.302 130.398 160.074 133.368 159.298Z" fill="black"/>
</svg>
