<svg width="512" height="348" viewBox="0 0 512 348" fill="none" xmlns="http://www.w3.org/2000/svg">
    <path
        d="M426.778 38.9815L403.481 50.5735L380.184 38.9815V31.2155C380.184 18.3495 390.614 7.91846 403.481 7.91846C416.347 7.91846 426.778 18.3485 426.778 31.2155V38.9815Z"
        fill="#F25D5D" />
    <path
        d="M476.993 258.931H356.384L348.059 246.894L326.59 230.211V60.5181L353.85 38.9829H450.661C454.861 38.9832 458.954 40.3055 462.36 42.7623C465.767 45.2191 468.313 48.6859 469.639 52.671L474.474 70.0462L463.097 108.874L496.082 147.703V205.064L476.993 258.931Z"
        fill="#FFC169" />
    <path d="M496.081 246.892L476.993 258.93L457.906 246.892V205.062H496.081V246.892Z" fill="#FDDF7D" />
    <path
        d="M362.059 38.9819H332.059C324.327 38.9819 318.059 45.25 318.059 52.982V246.893L333.59 258.93L348.059 246.893V52.982C348.059 45.25 354.327 38.9819 362.059 38.9819Z"
        fill="#FFA85F" />
    <path d="M496.081 147.701H364.652V70.0449H474.473L496.081 147.701Z" fill="#D5EAFC" />
    <path
        d="M242.767 246.746L225.892 258.931H113.267L95.3837 246.746C78.8816 246.746 31.6282 227.784 20.1991 200.76C20.1991 200.76 33.0902 181.849 33.0902 171.453V135.811C33.0902 126.317 19.2461 108.866 19.2461 108.866C30.0852 80.5922 71.4235 60.5181 89.6156 60.5181H242.767C274.855 60.5181 302.255 80.5912 313.094 108.866C316.301 117.233 302.961 126.317 302.961 135.811V171.453C302.961 181.673 316.023 191.418 312.334 200.303C301.013 227.569 274.129 246.746 242.767 246.746Z"
        fill="#F25D5D" />
    <path
        d="M44.2169 200.76C44.2169 200.76 57.108 181.849 57.108 171.453V135.811C57.108 126.317 43.2639 108.866 43.2639 108.866C54.103 80.5922 81.5032 60.5181 113.591 60.5181H83.5912C51.503 60.5181 24.1028 80.5912 13.2637 108.866C13.2637 108.866 27.1078 126.317 27.1078 135.811V171.453C27.1078 180.252 16.8707 195.931 14.0347 200.299L14.2167 200.76C25.6468 227.783 52.405 246.746 83.5922 246.746L101.475 258.931H131.476L113.592 246.746C82.4052 246.746 55.647 227.783 44.2169 200.76Z"
        fill="#D84D4D" />
    <path
        d="M43.2829 108.872C40.0749 117.238 13.2646 126.314 13.2646 135.809V171.452C13.2646 181.672 40.3459 191.412 44.0359 200.298H312.324C316.12 191.155 318.069 181.351 318.059 171.452V135.809C318.064 126.601 316.375 117.47 313.077 108.872H43.2829Z"
        fill="#FFFFF1" />
    <path
        d="M497.5 277.956H247.469C245.612 277.956 243.832 277.218 242.519 275.906C241.206 274.593 240.469 272.812 240.469 270.956V253.893C240.469 252.036 241.206 250.256 242.519 248.943C243.832 247.63 245.612 246.893 247.469 246.893H302.527L318.058 258.93L333.589 246.893H497.5C499.356 246.893 501.137 247.63 502.45 248.943C503.762 250.256 504.5 252.036 504.5 253.893V270.955C504.5 271.874 504.319 272.784 503.967 273.634C503.616 274.483 503.1 275.255 502.45 275.905C501.8 276.555 501.028 277.071 500.179 277.423C499.329 277.775 498.419 277.956 497.5 277.956Z"
        fill="#755E68" />
    <path
        d="M138.585 293.487C138.585 319.22 117.724 340.08 91.9924 340.08C66.2604 340.08 45.3994 319.219 45.3994 293.487C45.3994 288.041 46.3334 282.813 48.0504 277.956C54.4464 259.859 71.7054 254.145 91.9924 254.145C112.278 254.145 129.536 259.858 135.933 277.953C137.695 282.942 138.592 288.195 138.585 293.487Z"
        fill="#5D4B54" />
    <path
        d="M91.9929 309.018C100.57 309.018 107.524 302.064 107.524 293.487C107.524 284.909 100.57 277.956 91.9929 277.956C83.4154 277.956 76.4619 284.909 76.4619 293.487C76.4619 302.064 83.4154 309.018 91.9929 309.018Z"
        fill="#FFFFF1" />
    <path
        d="M231.773 293.486C231.773 319.219 210.912 340.079 185.18 340.079C159.448 340.079 138.587 319.218 138.587 293.486C138.587 288.039 139.522 282.811 141.239 277.952C147.636 259.857 164.894 256.114 185.18 256.114C205.469 256.114 222.729 259.86 229.124 277.959C230.883 282.947 231.779 288.198 231.773 293.486Z"
        fill="#5D4B54" />
    <path
        d="M185.18 309.018C193.758 309.018 200.711 302.064 200.711 293.487C200.711 284.909 193.758 277.956 185.18 277.956C176.603 277.956 169.649 284.909 169.649 293.487C169.649 302.064 176.603 309.018 185.18 309.018Z"
        fill="#FFFFF1" />
    <path
        d="M269.201 309.018H238.138L229.138 277.956H48.0513L38.5622 309.018H7.5L25.8501 246.893H251.1L269.201 309.018Z"
        fill="#FFC169" />
    <path
        d="M411.312 340.08C437.044 340.08 457.905 319.219 457.905 293.487C457.905 267.754 437.044 246.894 411.312 246.894C385.579 246.894 364.719 267.754 364.719 293.487C364.719 319.219 385.579 340.08 411.312 340.08Z"
        fill="#5D4B54" />
    <path
        d="M411.312 309.018C419.89 309.018 426.843 302.064 426.843 293.487C426.843 284.909 419.89 277.956 411.312 277.956C402.735 277.956 395.781 284.909 395.781 293.487C395.781 302.064 402.735 309.018 411.312 309.018Z"
        fill="#FFFFF1" />
    <path d="M302.527 246.893H333.589V309.018H302.527V246.893Z" fill="#FFFFF1" />
    <path
        d="M38.3008 171.452V135.81C38.2957 126.602 39.9844 117.471 43.2828 108.873H13.2828C9.98394 117.47 8.29516 126.601 8.3008 135.81V171.452C8.3008 181.672 10.3468 191.412 14.0358 200.298H44.0358C40.24 191.155 38.2909 181.352 38.3008 171.452Z"
        fill="#F4ECD9" />
    <path
        d="M302.527 277.956H260.061M367.322 277.956H333.657M247.469 246.893H497.5C499.357 246.893 501.137 247.63 502.45 248.943C503.763 250.256 504.5 252.036 504.5 253.893V270.955C504.5 272.811 503.763 274.592 502.45 275.905C501.137 277.217 499.357 277.955 497.5 277.955H455.304M138.586 293.487C138.586 319.22 117.725 340.08 91.9928 340.08C66.2606 340.08 45.3994 319.219 45.3994 293.487C45.3994 288.106 46.3114 282.939 47.9894 278.13"
        stroke="black" stroke-width="15.0001" stroke-miterlimit="10" stroke-linecap="round" stroke-linejoin="round" />
    <path
        d="M91.9929 309.018C100.57 309.018 107.524 302.064 107.524 293.487C107.524 284.909 100.57 277.956 91.9929 277.956C83.4154 277.956 76.4619 284.909 76.4619 293.487C76.4619 302.064 83.4154 309.018 91.9929 309.018Z"
        stroke="black" stroke-width="15.0001" stroke-miterlimit="10" stroke-linecap="round" stroke-linejoin="round" />
    <path
        d="M164.85 335.422C149.304 327.871 138.587 311.93 138.587 293.486V277.955M229.012 277.648C230.845 282.727 231.779 288.086 231.773 293.485C231.773 314.939 217.273 333.006 197.539 338.421"
        stroke="black" stroke-width="15.0001" stroke-miterlimit="10" stroke-linecap="round" stroke-linejoin="round" />
    <path
        d="M185.18 309.018C193.758 309.018 200.711 302.064 200.711 293.487C200.711 284.909 193.758 277.956 185.18 277.956C176.603 277.956 169.649 284.909 169.649 293.487C169.649 302.064 176.603 309.018 185.18 309.018Z"
        stroke="black" stroke-width="15.0001" stroke-miterlimit="10" stroke-linecap="round" stroke-linejoin="round" />
    <path
        d="M269.201 309.018H238.138L229.138 277.956H48.0513L38.5622 309.018H7.5L25.8501 246.893H251.1L269.201 309.018Z"
        stroke="black" stroke-width="15.0001" stroke-miterlimit="10" stroke-linecap="round" stroke-linejoin="round" />
    <path
        d="M411.312 340.08C437.044 340.08 457.905 319.219 457.905 293.487C457.905 267.754 437.044 246.894 411.312 246.894C385.579 246.894 364.719 267.754 364.719 293.487C364.719 319.219 385.579 340.08 411.312 340.08Z"
        stroke="black" stroke-width="15.0001" stroke-miterlimit="10" stroke-linecap="round" stroke-linejoin="round" />
    <path
        d="M411.312 309.018C419.89 309.018 426.843 302.064 426.843 293.487C426.843 284.909 419.89 277.956 411.312 277.956C402.735 277.956 395.781 284.909 395.781 293.487C395.781 302.064 402.735 309.018 411.312 309.018Z"
        stroke="black" stroke-width="15.0001" stroke-miterlimit="10" stroke-linecap="round" stroke-linejoin="round" />
    <path
        d="M302.527 246.893V309.018M302.527 309.018H333.59V246.893M302.527 309.018H269.201M318.058 137.296V52.982C318.058 45.25 324.326 38.9819 332.058 38.9819H450.66C454.86 38.9822 458.953 40.3045 462.36 42.7613C465.766 45.2182 468.313 48.6849 469.638 52.67L496.082 147.701M496.082 147.701V246.893M496.082 147.701H364.653M318.058 246.893V169.974M364.653 38.9819V246.893M364.653 70.0452H474.474M318.057 171.453C318.057 213.035 284.348 246.746 242.765 246.746M83.5904 246.746C42.0081 246.746 8.29785 213.036 8.29785 171.453V135.811C8.29785 94.2284 42.0071 60.5181 83.5904 60.5181H242.765C284.348 60.5181 318.057 94.2274 318.057 135.811M117.462 108.872H309.31M16.3409 108.872H84.7755M16.3409 200.299H312.138"
        stroke="black" stroke-width="15.0001" stroke-miterlimit="10" stroke-linecap="round" stroke-linejoin="round" />
    <path
        d="M69.9902 61.7459V29.4556H256.365V61.7459M116.584 29.4556V60.5179M163.178 29.4556V60.5179M209.771 29.4556V60.5179M380.184 38.9817V31.2156C380.184 18.3495 390.614 7.91846 403.481 7.91846C416.347 7.91846 426.778 18.3485 426.778 31.2156V38.9817M395.781 178.763H419.209M457.906 204.915H496.083V246.745H457.906V204.915Z"
        stroke="black" stroke-width="15.0001" stroke-miterlimit="10" stroke-linecap="round" stroke-linejoin="round" />
</svg>