<svg width="24" height="25" viewBox="0 0 24 25" fill="none" xmlns="http://www.w3.org/2000/svg">
    <path
        d="M0 14.2614C0 12.7111 0.504556 11.2483 1.46138 10.0103C1.42854 9.78171 1.41195 9.55112 1.41171 9.32022C1.41171 6.59598 3.62861 4.37908 6.35285 4.37908C7.40201 4.37908 8.39603 4.70515 9.2315 5.31175C10.1317 3.85935 11.7118 2.9673 13.4116 2.9673C15.3597 2.9673 17.1092 4.12263 17.9006 5.88592C21.3557 6.36091 24 9.33683 24 12.8497C24 14.3883 23.4954 15.8469 22.5358 17.0877C22.5703 17.3262 22.5882 17.5585 22.5882 17.7909C22.5882 20.5151 20.3713 22.732 17.6471 22.732C17.0019 22.732 16.3718 22.6024 15.7679 22.3459C14.8263 23.4821 13.4572 24.1438 12 24.1438C10.0713 24.1438 8.34652 23.0195 7.54275 21.2927C7.38143 21.31 7.22154 21.3203 7.05886 21.3203C3.16681 21.3203 0 18.1534 0 14.2614ZM19.7647 2.26144C19.7647 3.42918 20.7146 4.37908 21.8824 4.37908C23.0501 4.37908 24 3.42918 24 2.26144C24 1.09371 23.0501 0.143799 21.8824 0.143799C20.7146 0.143799 19.7647 1.09371 19.7647 2.26144ZM15.5294 0.849653C15.5284 0.942983 15.546 1.03558 15.581 1.12209C15.616 1.2086 15.6679 1.2873 15.7335 1.35365C15.7992 1.41999 15.8773 1.47266 15.9635 1.5086C16.0496 1.54454 16.142 1.56304 16.2354 1.56304C16.3287 1.56303 16.4211 1.54452 16.5072 1.50857C16.5934 1.47262 16.6715 1.41994 16.7372 1.35359C16.8028 1.28724 16.8546 1.20853 16.8897 1.12202C16.9247 1.0355 16.9422 0.942903 16.9412 0.849573C16.9392 0.663656 16.864 0.486028 16.7318 0.355264C16.5996 0.2245 16.4212 0.151159 16.2353 0.15117C16.0494 0.15118 15.8709 0.224541 15.7388 0.35532C15.6066 0.486099 15.5314 0.663736 15.5294 0.849653ZM7.05886 2.26144C7.05788 2.35477 7.07541 2.44737 7.11044 2.53388C7.14548 2.62039 7.19732 2.69909 7.26297 2.76544C7.32862 2.83178 7.40678 2.88444 7.49291 2.92039C7.57905 2.95633 7.67146 2.97483 7.7648 2.97483C7.85813 2.97482 7.95054 2.95631 8.03667 2.92035C8.1228 2.8844 8.20095 2.83173 8.26659 2.76538C8.33224 2.69903 8.38407 2.62032 8.4191 2.53381C8.45412 2.44729 8.47165 2.35469 8.47065 2.26136C8.46867 2.07544 8.39342 1.89782 8.26124 1.76705C8.12907 1.63629 7.95064 1.56295 7.76472 1.56296C7.57879 1.56297 7.40037 1.63633 7.26821 1.76711C7.13605 1.89789 7.06082 2.07552 7.05886 2.26144ZM2.11764 4.37908C3.28538 4.37908 4.23529 3.42918 4.23529 2.26144C4.23529 1.09371 3.28538 0.143799 2.11764 0.143799C0.949908 0.143799 0 1.09371 0 2.26144C0 3.42918 0.949908 4.37908 2.11764 4.37908Z"
        fill="#ECF4FF" />
</svg>