<svg width="513" height="512" viewBox="0 0 513 512" fill="none" xmlns="http://www.w3.org/2000/svg">
    <path
        d="M512.385 334.641V358.206C511.63 359.162 510.547 359.59 509.464 360.018C500.419 363.58 491.403 367.221 482.441 370.98C477.975 372.853 473.382 373.425 468.671 373.626C465.991 373.739 463.306 373.648 460.617 373.661C459.294 373.713 457.976 373.744 456.657 373.687C455.129 373.752 453.601 373.766 452.078 373.766C397.9 373.766 343.726 373.766 289.549 373.766C288.387 373.766 287.222 373.787 286.06 373.687C284.497 373.792 282.93 373.718 281.363 373.696C280.276 373.831 279.184 373.761 278.097 373.761C245.272 373.761 212.447 373.766 179.617 373.761C178.316 373.761 177.002 373.883 175.718 373.539C174.457 373.106 174.531 372.08 174.614 371.05C174.793 368.828 175.09 366.619 175.387 364.41C175.841 361.38 175.779 358.346 175.43 355.312C174.797 352.448 174.413 349.541 173.994 346.642C174.064 343.433 172.929 340.512 171.833 337.583C171.3 336.478 170.549 335.4 171.479 334.147C172.021 333.973 172.531 334.147 173.047 334.278C176.893 334.702 180.752 334.51 184.594 334.444C238.331 333.497 292.072 334.13 345.809 333.946C347.699 333.942 349.603 333.829 351.475 334.104C353.187 334.357 353.671 333.527 353.68 332.017C353.693 329.179 353.61 326.341 353.724 323.508C353.78 322.142 353.802 320.666 355.522 320.155C355.976 320.422 355.989 320.863 355.928 321.299C354.671 330.065 356.317 338.823 356.007 347.589C355.924 349.907 357.059 350.924 359.386 350.951C367.371 351.047 375.356 351.047 383.345 350.951C385.65 350.924 386.479 350.021 386.75 347.31C387.09 343.909 386.785 340.491 386.911 337.081C386.973 335.444 386.815 333.715 388.125 332.379C389.47 333.863 391.216 333.959 393.071 333.955C431.445 333.929 469.815 333.933 508.189 333.951C509.613 333.951 511.123 333.628 512.389 334.649L512.385 334.641Z"
        fill="#FE9703" />
    <path
        d="M512.385 334.64C472.029 334.64 431.673 334.632 391.317 334.684C389.531 334.684 388.256 334.501 387.999 332.475C387.191 331.65 387.366 330.593 387.348 329.598C387.313 327.498 387.383 325.403 386.964 323.325C386.458 320.845 385.894 320.36 383.437 319.989C379.184 319.352 374.906 319.627 370.641 319.601C365.664 319.566 360.678 319.356 355.745 320.269C354.497 320.893 354.392 322.045 354.392 323.237C354.388 326.507 354.34 329.781 354.405 333.051C354.436 334.736 353.689 335.404 352.144 334.946C350.987 334.601 349.847 334.645 348.69 334.645C298.948 334.64 249.21 334.531 199.468 334.758C191.204 334.798 182.922 334.915 174.649 335.059C173.885 335.073 173.034 335.343 172.379 334.649C173.195 333.833 174.26 333.964 175.26 333.959C190.959 333.898 206.654 333.23 222.357 333.51C222.868 333.518 223.374 333.51 223.885 333.51C226.33 333.504 227.556 332.312 227.565 329.934C227.57 327.533 227.626 325.132 227.556 322.735C227.343 315.536 228.22 308.363 228.045 301.164C227.98 298.515 228.774 297.868 231.442 297.742C231.66 297.733 231.878 297.724 232.097 297.729C243.364 298.017 254.619 297.048 265.887 297.27C269.196 297.336 269.17 297.249 270.401 294.075C270.89 292.809 271.134 291.381 272.379 290.525C273.54 290.844 273.112 291.713 272.968 292.403C272.741 293.463 272.23 294.437 271.872 295.463C271.409 296.786 271.842 297.362 273.234 297.353C276.273 297.331 279.307 297.379 282.345 297.375C283.961 297.397 285.567 297.305 287.178 297.214C288.479 297.336 289.789 297.34 291.094 297.345C292.111 297.235 293.133 297.266 294.15 297.266C345.652 297.266 397.154 297.266 448.655 297.266C449.672 297.266 450.694 297.253 451.707 297.34C452.886 297.305 454.069 297.336 455.243 297.157C457.133 297.227 459.019 297.48 460.918 297.34C461.962 297.305 462.992 297.34 463.904 297.943C470.501 297.995 477.097 298.034 483.694 298.1C493.259 298.196 502.824 298.309 512.394 298.414V334.636L512.385 334.64Z"
        fill="#FEB601" />
    <path
        d="M303.389 89.2818C305.013 89.9191 305.353 91.5344 306.008 92.8529C308.252 97.3626 308.763 102.296 309.374 107.203C312.413 131.716 315.456 156.225 318.485 180.738C320.729 198.908 322.93 217.082 325.2 235.248C325.505 237.705 325.802 240.146 325.754 242.625C325.741 243.28 325.676 243.966 326.448 244.298C326.496 244.394 326.54 244.49 326.588 244.586C326.492 244.782 326.343 244.913 326.13 244.965C324.623 244.808 324.798 243.612 324.584 242.582C324.392 241.656 325.182 240.539 324.047 239.818C322.021 240.997 319.778 241.643 317.595 242.377C308.75 245.35 300.001 248.602 291.134 251.51C290.095 251.85 289.131 252.33 288.153 252.797C283.586 253.902 279.295 255.827 274.842 257.272C274.156 257.495 273.51 257.827 272.79 257.945C270.917 258.25 269.175 258.918 267.538 259.874C263.657 261.721 259.553 262.472 255.275 262.472C227.007 262.463 198.735 262.467 170.468 262.463C168.94 262.463 167.416 262.476 165.892 262.581C161.483 262.267 157.061 262.607 152.651 262.363C151.158 262.175 150.591 261.162 150.403 259.822C150.281 258.953 150.307 258.08 150.307 257.207C150.307 250.226 150.407 243.245 150.272 236.265C150.18 231.528 150.866 226.831 150.731 222.107C149.814 189.399 150.556 156.683 150.285 123.971C150.259 120.557 150.102 117.139 149.914 113.729C149.709 110.01 149.971 106.312 150.46 102.636C151.206 97.0133 154.485 93.2632 159.558 91.0062C162.588 89.6572 165.766 89.1071 169.106 89.1071C210.195 89.1421 251.28 89.129 292.37 89.129C294.697 89.129 297.024 89.1988 299.333 88.7972C300.73 88.5527 302.07 88.867 303.393 89.2861L303.389 89.2818Z"
        fill="#666666" />
    <path
        d="M303.388 89.2817C300.777 89.4563 298.171 89.7881 295.56 89.7881C252.811 89.823 210.063 89.7488 167.314 89.8885C159.836 89.9147 152.406 94.1537 151.166 102.304C150.589 106.089 150.384 109.94 150.568 113.79C150.729 117.126 150.961 120.461 150.965 123.797C151 152.946 150.939 182.096 151.044 211.245C151.061 216.165 151.729 221.103 151.375 226.018C150.585 236.976 151.223 247.943 151.013 258.901C150.991 260.149 150.707 261.69 152.737 261.764C151.581 265.449 152.279 269.243 152.087 272.984C152.026 274.198 152.305 275.473 151.524 276.577C151.249 276.734 151.009 276.695 150.795 276.459C150.205 275.547 150.314 274.512 150.306 273.504C150.28 270.605 150.314 267.71 150.284 264.812C150.271 263.65 150.101 262.581 148.621 262.493C146.425 262.367 145.923 260.992 145.931 259.084C145.966 249.816 145.879 240.543 145.975 231.275C145.901 228.096 145.936 224.914 145.953 221.736C146.11 218.911 145.696 216.078 146.097 213.258C146.123 212.315 146.171 211.372 146.171 210.429C146.158 174.897 146.289 139.36 146.027 103.828C145.949 93.0667 150.978 84.9116 161.499 81.6068C161.918 81.5457 162.342 81.489 162.761 81.4278C163.394 81.5239 163.962 81.3187 164.52 81.0699C165.682 81.048 166.838 81.0262 168 81C181.961 81.0306 195.922 81.0742 209.884 81.0829C229.665 81.096 249.445 81.0829 269.222 81.0829C272.64 81.0829 276.059 81.1484 279.477 81.0873C284.558 81 289.631 80.9258 294.573 82.4232C298.088 83.9643 301.227 85.9899 303.379 89.2773L303.388 89.2817Z"
        fill="#4B4B4B" />
    <path
        d="M463.897 297.947C462.845 297.921 461.793 297.894 460.741 297.864C459.54 297.864 459.007 297.13 458.558 296.109C455.021 288.093 450.669 280.558 445.221 273.674C434.499 260.136 421.07 250.313 404.974 244.061C396.29 240.687 387.275 238.661 378.046 238.006C367.115 237.229 356.257 238.15 345.684 241.333C335.306 244.454 325.536 248.824 316.722 255.224C302.346 265.663 291.244 278.716 284.42 295.24C284.014 296.227 283.8 297.388 282.534 297.728C277.889 298.108 278.714 297.034 280.12 293.891C284.281 284.575 289.292 275.787 296.016 268.033C302.97 260.014 310.985 253.286 320.066 247.816C321.493 246.956 322.925 246.091 324.366 245.249C324.977 244.716 325.829 245.183 326.466 244.751H326.483C328.465 243.577 330.513 242.533 332.726 241.844C336.079 241.154 339.17 239.683 342.409 238.648C347.264 237.094 352.11 235.636 357.248 235.404C358.767 235.339 360.265 234.998 361.749 234.645C364.517 234.496 367.281 234.44 370.044 234.671C373.825 235.361 377.645 234.758 381.434 235.011C381.683 235.02 381.932 235.059 382.176 235.112C383.324 235.561 384.529 235.404 385.717 235.448C386.188 235.457 386.655 235.505 387.118 235.614C391.759 236.408 396.382 237.29 400.831 238.879C405.323 240.482 409.868 241.953 414.072 244.258C419.297 246.925 424.54 249.558 429.146 253.273C429.482 253.544 429.932 254.072 430.377 253.338C435.201 256.613 439.41 260.594 443.396 264.816C452.498 274.455 459.156 285.614 463.901 297.955L463.897 297.947Z"
        fill="#272728" />
    <path
        d="M342.178 238.194C345.548 236.396 349.302 235.924 352.957 235.239C369.315 232.174 385.45 233.279 401.345 238.164C401.612 238.247 401.843 238.43 402.092 238.565C401.944 238.775 401.752 238.915 401.503 238.984C399.176 238.81 397.058 237.801 394.814 237.291C392.911 236.858 390.981 236.583 389.087 236.107C379.26 234.802 369.415 234.239 359.522 235.147C354.065 235.885 348.621 236.71 343.374 238.469C342.933 238.618 342.527 238.513 342.182 238.194H342.178Z"
        fill="#2A2A2B" />
    <path
        d="M401.533 238.688C401.721 238.648 401.904 238.605 402.092 238.565C411.002 241.167 419.083 245.472 426.758 250.602C428.011 251.44 429.168 252.418 430.373 253.334C430.678 255.308 429.447 254.125 429.05 253.871C427.714 253.029 426.487 252.016 425.213 251.082C421.759 248.554 417.747 247.044 414.181 244.747C411.662 242.791 408.619 241.953 405.729 240.788C404.284 240.203 402.55 240.15 401.533 238.692V238.688Z"
        fill="#242425" />
    <path
        d="M342.177 238.194C345.748 237.417 349.315 236.609 352.895 235.876C354.999 235.444 357.125 235.129 359.243 234.767C359.902 235.177 360.727 234.649 361.369 235.143C358.893 236.361 356.152 235.872 353.55 236.317C346.958 237.456 340.697 239.626 334.498 242.027C333.874 242.267 333.249 242.957 332.564 242.119C332.28 241.263 333.28 241.643 333.437 241.211C333.773 240.979 334.04 240.578 334.542 240.739C335.367 240.556 336.201 240.399 336.886 239.844L336.847 239.866C337.746 239.591 338.645 239.334 339.545 239.072C340.422 238.779 341.3 238.487 342.177 238.19V238.194Z"
        fill="#1F1F20" />
    <path
        d="M333.437 241.215C333.145 241.517 332.857 241.822 332.564 242.123C330.534 243.001 328.5 243.874 326.47 244.752C326.461 244.599 326.452 244.446 326.443 244.293C328.748 243.21 330.883 241.739 333.437 241.215Z"
        fill="#2A2A2B" />
    <path
        d="M339.546 239.076C338.751 239.7 337.869 240.015 336.848 239.871C337.651 239.286 338.502 238.858 339.546 239.076Z"
        fill="#2A2A2B" />
    <path
        d="M336.887 239.849C336.346 240.77 335.49 240.87 334.543 240.744C335.241 240.228 336.014 239.905 336.887 239.849Z"
        fill="#2A2A2B" />
    <path
        d="M0.425106 337.705C1.34626 336.443 0.390181 335.199 0.394546 333.946C0.42074 319.784 0.446934 305.622 0.468762 291.46C1.78719 287.5 4.69035 286.077 8.66747 286.203C11.1734 286.282 13.7098 286.605 16.172 285.793C18.3549 284.518 20.7341 285.278 23.0261 285.129C24.1219 285.116 25.222 285.051 26.3178 285.147C26.6802 285.147 27.0425 285.151 27.4049 285.199C31.0982 285.688 31.6439 286.278 31.6527 290.084C31.6788 301.894 31.657 313.703 31.657 325.512C31.657 326.236 31.5784 326.961 31.8666 327.651C31.9757 327.882 32.0106 328.131 31.9801 328.384C31.0589 331.126 31.8447 333.968 31.5173 336.749C31.4213 337.583 32.2333 337.5 32.7877 337.513C34.4467 337.544 36.11 337.487 37.7689 337.544C38.7032 337.574 39.6767 337.565 40.2792 338.5C40.3316 338.98 40.4931 339.543 39.6505 339.403C39.441 339.124 39.2402 338.6 39.0262 338.596C36.3501 338.526 32.9929 337.5 31.1462 338.731C27.6799 341.045 24.3009 339.787 20.9481 339.958C14.8099 340.263 8.64564 340.067 2.49443 340.014C1.82648 340.01 0.866037 340.569 0.473128 339.434C1.50779 338.827 2.6123 339.264 3.67316 339.259C11.3698 339.216 19.0708 339.229 26.7675 339.25C27.4442 339.25 28.1951 338.971 28.5836 339.299C19.3633 338.993 9.90295 339.53 0.464397 339.015C0.455665 338.583 0.442568 338.146 0.433837 337.714L0.425106 337.705Z"
        fill="#4B4B4B" />
    <path
        d="M23.1482 285.697C20.8257 286.003 18.4988 285.872 16.1719 285.793C17.4074 280.039 19.1405 274.451 21.546 269.06C25.5449 260.097 31.7966 253.173 39.9516 247.799C55.4017 237.618 72.4408 231.118 90.0475 225.875C108.444 220.396 127.16 216.327 146.103 213.267C146.963 215.965 146.434 218.719 146.413 221.452C143.492 222.666 140.344 222.827 137.288 223.391C120.336 226.512 103.585 230.445 87.1138 235.566C73.8117 239.705 60.9504 244.822 49.0191 252.095C43.1647 255.666 37.6422 259.66 33.3682 265.144C29.2339 270.448 26.8939 276.625 24.6194 282.842C24.2483 283.855 24.0824 284.977 23.1438 285.697H23.1482Z"
        fill="#FECC01" />
    <path
        d="M102.109 430.279C101.826 430.235 101.542 430.196 101.258 430.152C98.1192 429.785 95.037 428.925 91.8064 429.362C90.8678 429.488 89.8026 429.17 88.9819 428.489C89.1172 428.314 89.3006 428.209 89.5014 428.122C90.3178 427.777 91.6056 428.733 91.9767 427.114C92.4045 425.249 91.4223 422.014 89.9598 421.002C88.7898 420.19 87.5281 420.089 86.2752 420.77C85.1314 421.395 84.8869 422.503 84.769 423.713C84.6599 424.848 85.258 425.996 84.673 427.105C81.4904 425.385 78.107 424.18 74.6363 423.206C75.8587 420.932 76.0595 418.531 75.4963 416.047C75.1602 414.554 74.2783 413.554 72.7111 413.41C71.1525 413.266 70.0742 414.1 69.4106 415.435C68.7994 416.667 68.5331 418.033 68.0485 419.316C66.7519 417.802 65.1017 416.71 63.5388 415.51C62.3557 414.597 61.0766 413.873 59.7669 413.187C61.1945 411.332 61.5088 409.066 62.0196 406.896C62.4911 404.901 61.7489 403.535 60.1642 403.024C58.2695 402.413 56.497 403.199 55.5802 404.945C55.0694 405.914 55.3488 407.136 54.5106 407.975C53.2664 405.643 51.5071 403.687 49.918 401.605C49.3417 400.85 48.6999 400.221 47.8792 399.763C47.9403 399.566 48.0364 399.387 48.1673 399.226C49.5643 397.711 50.5335 395.912 51.4459 394.096C52.4238 392.145 52.1357 390.634 50.7736 389.578C49.4377 388.543 47.8705 388.709 46.2115 390.036C45.4432 390.647 44.8407 391.599 43.6358 391.372C42.588 388.705 41.5708 386.02 40.0952 383.544C40.3091 382.531 41.1255 382.012 41.8633 381.444C43.0115 380.558 44.0985 379.602 44.9586 378.436C45.9801 377.057 45.9146 375.232 44.8407 374.04C43.6489 372.717 42.2824 372.678 40.7239 373.429C39.7896 373.879 39.1261 374.922 37.9124 374.761C37.3405 371.709 37.2488 368.57 36.2578 365.593C37.5762 364.423 39.1741 363.746 40.7501 363.03C41.7498 362.576 42.6753 362.043 43.3127 361.114C44.1597 359.878 44.0069 358.656 43.256 357.464C42.4658 356.211 41.2783 355.87 39.8726 356.119C38.6109 356.342 37.2488 356.879 36.6027 355.106C36.9607 353.941 36.2971 352.662 37.0043 351.535C37.7858 351.78 37.7727 351.217 37.812 350.728C37.8993 349.689 37.7421 348.628 38.0783 347.606C39.2919 346.026 41.2041 346.305 42.8325 345.877C45.8142 345.092 46.731 343.756 46.1897 340.674C43.937 338.028 45.5872 335.989 47.2942 334.038C48.5602 332.593 49.56 330.833 51.4983 330.096C51.6686 329.982 51.8476 329.882 52.0266 329.781C53.0088 329.257 53.572 328.393 53.5153 327.332C53.4018 325.193 54.5499 323.787 56.0779 322.622C58.5445 320.736 60.5309 318.334 62.9189 316.37C63.1415 316.121 63.3816 315.894 63.6523 315.693C73.3877 308.071 84.4503 303.531 96.648 301.876C109.906 300.082 122.733 301.719 134.939 307.416C139.423 309.511 143.771 311.847 147.792 314.759C148.739 315.444 149.708 316.086 150.328 317.108C152.913 319.487 155.414 321.954 157.933 324.403C159.326 325.756 160.391 327.184 160.5 329.179C160.945 330.301 161.64 331.204 162.761 331.733C166.079 333.806 167.686 336.967 168.437 340.674C168.293 341.337 167.821 341.809 167.45 342.341C166.184 344.175 166.202 345.17 167.489 346.628C168.847 348.161 170.096 348.396 171.964 347.576C172.803 347.205 173.396 346.283 174.47 346.445C174.946 349.326 175.426 352.203 175.902 355.085C174.907 356.691 173.056 356.966 171.589 357.835C170.598 358.42 169.445 358.843 168.956 359.992C168.384 361.327 168.358 362.703 169.262 363.908C170.091 365.021 171.314 365.099 172.602 364.964C173.719 364.846 174.68 363.86 175.906 364.379C175.972 367.265 174.968 370.068 175.278 372.971C175.321 373.464 175.631 373.997 175.046 374.385C172.497 374.045 170.17 374.979 167.869 375.804C166.402 376.332 165.874 377.694 166.123 379.196C166.381 380.759 167.415 381.488 169.009 381.641C170.292 381.763 171.593 381.078 172.842 381.772C171.388 385.173 169.939 388.574 168.838 392.114C166.468 390.446 163.844 390.979 161.299 391.376C159.863 391.599 159.457 392.808 159.448 394.183C159.439 395.834 160.107 396.925 161.692 397.501C162.77 397.894 164.054 397.445 164.984 398.361C162.897 401.068 160.653 403.622 159.081 406.739C158.221 408.442 156.562 409.812 154.912 410.974C154.34 409.795 155.344 409.254 155.938 408.608C157.999 406.359 158.016 406.377 155.03 405.416C154.131 405.128 153.257 404.757 152.31 404.644C150.341 404.403 149.32 405.098 148.77 407.023C148.202 409.014 148.656 410.061 150.455 410.908C151.293 411.306 152.28 411.467 152.808 412.362C150.568 414.51 147.77 415.999 145.74 418.387C144.273 417.919 143.029 417.046 141.754 416.23C140.837 415.645 139.899 415.091 138.846 414.794C137.436 414.392 136.258 414.824 135.38 415.964C134.559 417.033 134.559 418.151 135.07 419.43C135.659 420.906 137.428 421.281 137.917 422.774C134.935 423.931 131.931 425.04 129.168 426.677C127.644 425.442 126.409 423.931 125.064 422.517C124.06 421.46 122.938 420.495 121.27 420.989C118.978 421.665 118.192 423.905 119.354 426.254C119.777 427.109 120.803 427.742 120.432 428.925C117.507 429.213 114.569 429.384 111.753 430.34L111.583 430.322L111.413 430.331C111.212 430.261 111.042 430.152 110.897 429.999C109.928 428.458 109.282 426.747 108.37 425.18C107.178 423.132 105.467 422.381 103.664 423.071C102.083 423.678 101.489 425.485 102.101 427.755C102.306 428.519 102.764 429.222 102.686 430.06C102.62 430.139 102.555 430.218 102.485 430.296L102.306 430.266L102.127 430.274L102.109 430.279Z"
        fill="#666666" />
    <path
        d="M285.782 373.084C286.432 373.049 287.083 372.988 287.733 372.988C343.618 372.988 399.507 372.988 455.392 372.997C455.898 372.997 456.405 373.049 456.911 373.08C456.488 376.437 454.523 379.135 452.829 381.851C443.36 397.043 430.695 408.905 414.809 417.169C403.589 423.006 391.544 426.201 378.954 427.31C362.521 428.755 346.857 425.747 331.822 419.125C321.864 414.741 313.181 408.542 305.331 401.029C297.595 393.625 291.003 385.422 286.371 375.721C285.982 374.905 285.275 374.119 285.782 373.084Z"
        fill="#666666" />
    <path
        d="M165.835 262.096C166.678 261.459 167.66 261.725 168.577 261.725C196.897 261.712 225.217 261.669 253.533 261.756C258.549 261.773 263.338 261.11 267.922 259.071C269.55 258.547 271.196 258.067 272.776 257.408C277.242 255.814 281.717 254.234 286.175 252.614C286.821 252.379 287.393 252.208 287.995 252.649C288.777 253.313 288.536 254.234 288.628 255.081C289.261 261.075 288.026 266.327 284.044 271.221C279.836 276.394 277.081 282.571 274.392 288.696C274.06 289.452 273.951 290.443 272.846 290.595C271.393 292.219 271.043 294.332 270.38 296.293C269.965 297.515 269.389 298.043 268.053 298.004C256.58 297.646 245.124 298.602 233.651 298.445C227.959 298.366 228.801 297.698 228.675 303.409C228.461 313.057 228.063 322.701 228.273 332.353C228.303 333.781 227.832 334.392 226.404 334.204C226.26 334.187 226.112 334.204 225.968 334.204C208.099 333.92 190.239 334.619 172.375 334.649C172.109 334.51 171.838 334.374 171.572 334.235C170.205 333.68 169.983 332.305 169.472 331.179C168.939 330.009 168.424 328.852 167.59 327.852C165.639 324.901 165.063 321.688 165.089 318.143C165.211 300.715 165.137 283.287 165.159 265.86C165.159 264.581 164.879 263.218 165.84 262.101L165.835 262.096Z"
        fill="#FECC01" />
    <path
        d="M285.782 373.084C289.231 381.082 294.016 388.216 299.848 394.655C307.553 403.164 316.241 410.463 326.4 415.898C335.834 420.945 345.875 424.18 356.436 425.839C361.386 426.616 366.355 427.157 371.379 427.118C384.31 427.013 396.735 424.394 408.645 419.413C419.982 414.672 429.884 407.735 438.493 399.029C445.613 391.826 451.891 383.95 456.021 374.564C456.252 374.04 456.614 373.573 456.916 373.076C458.265 373.076 459.614 373.067 460.967 373.062C459.103 378.301 456.191 382.994 453.061 387.522C437.515 410.022 416.28 423.936 389.453 429.297C388.816 429.423 388.183 429.585 387.55 429.733C382.708 430.161 377.867 430.584 373.03 431.008C372.2 431.025 371.375 431.047 370.546 431.065C369.856 431.047 369.162 431.03 368.472 431.012C365.966 430.873 363.46 430.733 360.954 430.593C351.76 429.441 342.793 427.38 334.197 423.839C315.608 416.186 300.595 404.137 289.375 387.426C288.807 386.779 288.641 385.889 288.035 385.269C287.157 383.824 286.275 382.379 285.398 380.934C284.333 379.061 283.555 377.035 282.399 375.21C282.032 374.529 281.521 373.905 281.525 373.071C282.949 373.071 284.367 373.08 285.791 373.084H285.782Z"
        fill="#121213" />
    <path
        d="M355.741 320.269C357.134 319.4 358.666 318.998 360.295 319.011C367.991 319.072 375.692 318.776 383.384 319.238C386.279 319.413 387.156 320.256 387.632 323.124C388.147 326.232 387.632 329.362 387.995 332.471C387.152 337.072 387.58 341.717 387.466 346.345C387.357 350.802 386.51 351.719 382.084 351.736C374.754 351.762 367.424 351.749 360.089 351.701C356.121 351.675 355.2 350.71 355.134 346.825C355.012 339.657 354.894 332.484 354.733 325.315C354.693 323.538 354.925 321.853 355.737 320.264L355.741 320.269Z"
        fill="#4B4B4B" />
    <path
        d="M201.446 358.992C205.881 358.992 210.321 358.992 214.757 358.992C216.232 358.992 217.704 359.136 217.734 361.03C217.765 362.978 216.298 363.353 214.718 363.353C205.842 363.366 196.971 363.357 188.096 363.353C187.808 363.353 187.511 363.353 187.227 363.305C185.839 363.087 184.865 362.379 184.996 360.865C185.118 359.433 186.166 358.987 187.48 358.987C192.134 358.992 196.788 358.987 201.446 358.987V358.992Z"
        fill="#4C4B4A" />
    <path
        d="M175.898 364.388C174.96 364.751 174.039 365.187 173.074 365.462C170.882 366.082 169.119 365.353 168.315 363.585C167.372 361.507 167.975 359.276 169.957 358.141C171.886 357.036 173.912 356.098 175.894 355.089C176.645 358.189 176.754 361.289 175.894 364.388H175.898Z"
        fill="#131314" />
    <path
        d="M174.466 346.445C173.763 346.947 173.099 347.528 172.344 347.934C169.965 349.209 168.323 348.807 166.678 346.642C165.451 345.022 165.647 343.538 167.345 341.595C167.581 341.324 167.795 341.027 168.018 340.744C169.192 339.25 170.083 337.417 172.305 337.181C173.322 340.198 174.819 343.105 174.466 346.441V346.445Z"
        fill="#141314" />
    <path
        d="M172.306 337.186C170.878 338.373 169.446 339.561 168.019 340.748C167.032 337.251 165.631 334.025 162.348 332.012C164.823 331.454 166.98 330.375 168.464 328.214C169.97 329.978 170.228 332.384 171.568 334.23C171.21 335.365 171.817 336.26 172.306 337.186Z"
        fill="#4C4B4A" />
    <path
        d="M452.105 297.886C442.802 297.908 433.503 297.943 424.2 297.947C380.596 297.96 336.987 297.964 293.383 297.964C292.44 297.964 291.501 297.882 290.558 297.838C290.174 296.969 290.698 296.279 291.073 295.611C293.54 291.185 296.098 286.81 299.464 282.977C300.088 282.414 300.599 281.772 300.953 281.004C305.956 274.381 312.168 269.033 318.887 264.262C328.229 257.626 338.467 252.88 349.617 250.147C359.88 247.633 370.279 247.022 380.779 248.048C400.093 249.933 416.913 257.626 431.451 270.291C439.855 277.612 446.517 286.417 451.786 296.249C452.061 296.76 452.363 297.275 452.101 297.89L452.105 297.886Z"
        fill="#666666" />
    <path
        d="M452.105 297.886C446.949 288.19 440.593 279.376 432.451 271.971C419.467 260.171 404.41 252.474 387.031 249.48C369.93 246.533 353.328 248.292 337.258 254.78C327.404 258.761 318.603 264.445 310.675 271.544C307.253 274.608 304.188 277.983 301.167 281.414C300.708 281.982 300.246 282.541 299.822 283.134C296.352 287.793 293.003 292.529 290.558 297.838C289.393 298.117 288.236 298.296 287.127 297.646C286.699 295.363 288.175 293.634 289.057 291.835C293.553 282.619 299.394 274.259 306.685 267.078C317.625 256.303 330.452 248.541 345.216 243.996C355.506 240.831 366.01 239.657 376.662 240.329C390.017 241.172 402.699 244.621 414.499 251.169C422.707 255.723 430.15 261.249 436.642 267.981C444.011 275.621 450.018 284.256 454.423 293.948C454.947 295.101 455.772 296.236 455.397 297.65C454.34 298.279 453.223 298.087 452.105 297.89V297.886Z"
        fill="#CDCCCD" />
    <path
        d="M507.046 303.313C506.946 305.194 506.819 307.076 506.753 308.962C506.705 310.381 505.732 310.315 504.754 310.302C500.026 310.228 495.302 310.202 490.574 310.071C475.6 309.665 460.63 309.198 445.656 308.792C418.183 308.045 390.706 307.312 363.232 306.596C345.713 306.137 328.194 305.784 310.679 305.277C294.836 304.819 278.997 304.208 263.159 303.666C263.019 303.339 263.119 303.125 263.464 303.033C264.263 302.985 265.062 303.007 265.865 303.007C345.346 303.007 424.823 303.007 504.304 303.02C505.212 303.02 506.186 302.71 507.042 303.313H507.046Z"
        fill="#FEFEFD" />
    <path
        d="M455.397 297.646C444.762 272.875 427.095 255.168 401.634 246.131C373.144 236.02 345.946 239.679 320.721 256.343C305.528 266.375 294.614 280.127 287.385 296.812C287.271 297.079 287.21 297.367 287.127 297.642C285.573 298.179 283.993 297.987 282.417 297.781L282.373 297.607C283.844 296.533 284.023 294.739 284.665 293.25C288.332 284.706 293.392 277.11 299.486 270.112C308.039 260.293 318.084 252.453 329.802 246.821C339.995 241.923 350.691 238.753 362.029 237.706C381.439 235.911 399.683 239.648 416.779 248.917C423.999 252.833 430.605 257.622 436.568 263.345C446.448 272.827 453.93 283.894 459.248 296.467C459.575 297.24 460.143 297.515 460.745 297.869C458.951 298.096 457.17 298.004 455.402 297.65L455.397 297.646Z"
        fill="#666666" />
    <path
        d="M282.373 297.606L282.417 297.781C278.898 298.244 275.37 297.79 271.852 297.912C270.49 297.96 270.494 297.344 270.891 296.297C271.603 294.419 272.201 292.499 272.851 290.595C276.204 283.27 279.465 275.844 284.481 269.496C287.393 265.811 288.563 261.983 288.092 257.442C287.926 255.858 288.022 254.251 287.996 252.653C288.376 251.846 289.14 251.579 289.899 251.317C300.447 247.663 310.994 244.005 321.542 240.36C322.502 240.028 323.471 239.74 324.257 239.054C325.327 241.176 325.017 243.394 324.694 245.607C320.158 248.44 315.534 251.121 311.282 254.395C300.953 262.345 292.475 271.866 285.996 283.204C283.94 286.806 282.465 290.661 280.531 294.306C278.898 297.384 278.976 297.423 282.373 297.606Z"
        fill="#4B4B4B" />
    <path
        d="M507.047 303.312C506.03 303.277 505.013 303.212 504 303.212C451.136 303.208 398.272 303.208 345.409 303.212C317.997 303.212 290.58 303.212 263.168 303.212C261.466 303.806 259.658 303.059 257.956 303.635C256.637 303.635 255.323 303.631 254.005 303.627C253.817 303.264 252.913 303.653 253.162 302.828C257.235 302.797 261.304 302.745 265.377 302.745C344.998 302.745 424.619 302.749 504.24 302.788C505.17 302.788 506.287 302.247 507.051 303.312H507.047Z"
        fill="#FEDA7E" />
    <path
        d="M252.252 303.635C250.222 303.548 248.14 303.985 246.197 302.832H249.677C250.428 303.452 251.729 302.291 252.252 303.635Z"
        fill="#FECD51" />
    <path
        d="M252.253 303.635C251.586 302.753 250.359 303.666 249.678 302.832C250.839 302.832 251.996 302.832 253.157 302.832C253.437 303.098 253.72 303.365 254 303.631C253.419 303.631 252.834 303.635 252.253 303.64V303.635Z"
        fill="#FED468" />
    <path
        d="M137.908 422.783C134.769 421.05 133.569 418.985 134.359 416.675C134.996 414.807 136.76 413.558 138.576 414.148C141.243 415.012 143.644 416.479 145.736 418.391C145.164 418.836 144.627 419.325 144.016 419.718C142.121 421.015 140.309 422.482 137.917 422.779L137.908 422.783Z"
        fill="#141415" />
    <path
        d="M120.423 428.939C119.703 427.476 118.358 426.367 118.214 424.56C118.075 422.805 118.799 421.604 120.218 420.788C121.585 420.002 123.03 419.937 124.235 421.094C126.029 422.818 128.098 424.311 129.155 426.69C126.404 428.07 123.523 428.93 120.419 428.939H120.423Z"
        fill="#131314" />
    <path
        d="M164.979 398.366C164.044 398.348 163.088 398.444 162.176 398.292C159.578 397.851 158.583 396.414 158.819 393.629C158.998 391.512 160.15 390.512 162.678 390.446C164.193 390.407 165.716 390.499 167.231 390.569C168.192 390.612 168.93 390.962 168.834 392.127C167.856 394.397 166.917 396.694 164.979 398.37V398.366Z"
        fill="#131314" />
    <path
        d="M172.833 381.781C171.576 382.143 170.297 382.256 168.992 382.283C167.084 382.318 165.927 381.344 165.543 379.615C165.154 377.873 165.551 376.201 167.306 375.354C169.402 374.342 171.746 374.101 173.981 373.538C174.628 373.377 174.842 373.909 175.034 374.394C174.348 376.869 174.274 379.532 172.833 381.781Z"
        fill="#141415" />
    <path
        d="M152.801 412.371C152.124 412.114 151.447 411.865 150.779 411.598C148.055 410.524 147.461 409.311 148.33 406.613C149.085 404.26 150.587 403.548 153.272 404.286C153.971 404.478 154.652 404.718 155.341 404.941C157.891 405.753 158.198 407.144 156.263 409.114C155.73 409.66 154.931 410.053 154.909 410.983C154.32 411.62 153.866 412.458 152.805 412.375L152.801 412.371Z"
        fill="#131314" />
    <path
        d="M282.389 375.215C283.869 376.869 284.724 378.856 285.388 380.938C283.965 379.253 283.078 377.284 282.389 375.215Z"
        fill="#6A6A6A" />
    <path
        d="M288.025 385.273C288.894 385.732 289.204 386.531 289.366 387.43C288.523 386.959 288.169 386.181 288.025 385.273Z"
        fill="#6F6F6F" />
    <path
        d="M144.008 419.723C144.335 418.963 144.907 418.522 145.728 418.4C145.414 419.177 144.837 419.609 144.008 419.723Z"
        fill="#666666" />
    <path
        d="M68.0573 419.321C67.5684 417.3 68.8999 414.139 70.633 413.222C72.7897 412.074 75.2912 413.165 75.9897 415.497C76.6838 417.806 76.1905 420.081 75.9373 422.368C75.85 423.18 75.1952 423.115 74.6451 423.206C72.2265 422.285 70 421.041 68.0573 419.317V419.321Z"
        fill="#131314" />
    <path
        d="M54.5254 407.975C54.3726 404.019 56.4594 401.74 59.7555 402.264C61.6764 402.57 62.9424 403.963 62.7853 405.883C62.5975 408.21 61.6764 410.376 61.0346 412.598C60.8425 413.261 60.2619 413.126 59.7773 413.183C57.7779 411.694 56.0054 409.978 54.5254 407.97V407.975Z"
        fill="#131314" />
    <path
        d="M84.6819 427.11C84.3588 426.001 84.2104 424.879 84.2191 423.709C84.2322 421.84 84.8827 420.443 86.7425 419.854C88.5804 419.273 90.5973 420.111 91.5883 421.853C91.942 422.473 92.1864 423.176 92.3742 423.87C92.7409 425.21 92.9068 426.638 92.4833 427.939C91.7542 430.165 90.0822 427.76 88.9864 428.493C87.537 428.07 85.9872 427.965 84.6775 427.114L84.6819 427.11Z"
        fill="#131314" />
    <path
        d="M45.9455 397.423C45.9062 397.148 45.867 396.873 45.832 396.593C47.539 396.82 48.0629 397.986 48.1415 399.505C48.0585 399.592 47.9756 399.675 47.8926 399.763C47.2421 398.981 46.596 398.204 45.9455 397.423Z"
        fill="#666666" />
    <path
        d="M48.1412 399.51C47.3815 398.532 47.0148 397.244 45.8317 396.598C44.8756 394.952 43.793 393.363 43.6445 391.376C44.5177 390.866 45.238 390.193 45.9758 389.504C47.4383 388.133 49.1758 387.866 50.9483 388.962C52.5592 389.958 53.1791 391.813 52.2056 393.69C51.1185 395.786 50.455 398.244 48.1455 399.51H48.1412Z"
        fill="#131314" />
    <path
        d="M37.9141 374.761C38.7349 374.185 39.525 373.547 40.3894 373.037C42.3758 371.875 44.1133 372.155 45.4187 373.779C46.6411 375.298 46.6629 377.463 45.3357 378.987C43.8078 380.742 41.9523 382.152 40.1013 383.549C38.6563 380.799 37.6172 377.944 37.9141 374.761Z"
        fill="#131314" />
    <path
        d="M36.5995 355.106C37.3984 355.857 38.193 356.019 39.3411 355.661C41.6026 354.958 43.2921 355.849 44.1259 357.844C44.9597 359.848 44.4097 361.742 42.3185 362.794C40.3365 363.79 38.468 365.069 36.259 365.593C36.211 362.384 36.1586 359.175 36.1193 355.966C36.1149 355.6 36.2066 355.259 36.6039 355.106H36.5995Z"
        fill="#141415" />
    <path
        d="M46.676 340.325C47.6015 343.987 46.449 345.668 42.6945 346.485C41.2451 346.799 39.6342 346.659 38.3944 347.733C38.1717 347.89 37.9752 347.86 37.805 347.646C37.757 347.078 37.6042 346.506 37.9403 345.969C38.08 345.389 38.2197 344.813 38.3551 344.232C38.9619 342.665 39.2238 341.01 39.6473 339.395C40.062 339.264 40.097 338.919 40.1188 338.565C40.2585 338.386 40.4375 338.264 40.6514 338.185C41.0749 338.054 41.5158 338.028 41.9567 338.024C42.8386 338.024 43.6855 338.185 44.5019 338.517C45.4493 338.845 46.174 339.452 46.676 340.32V340.325Z"
        fill="#131314" />
    <path
        d="M0.454914 339.006C1.64674 338.29 2.83856 339.05 4.03039 339.037C12.4867 338.954 20.9473 338.993 29.4123 339.425H0.468011C0.385063 339.29 0.380697 339.15 0.454914 339.006Z"
        fill="#252525" />
    <path
        d="M38.0259 347.659C38.1482 347.681 38.2704 347.702 38.3926 347.733C38.3534 349.078 38.349 350.427 38.2529 351.767C38.2268 352.147 38.0434 352.727 37.5588 352.705C36.8254 352.67 37.1877 351.937 37 351.535C37.0393 351.287 37.0742 351.033 37.1135 350.785C37.5326 349.776 37.0218 348.497 38.0259 347.659Z"
        fill="#484849" />
    <path
        d="M39.6516 339.395C39.6734 341.128 39.3504 342.769 38.3594 344.232C38.4336 342.525 38.9313 340.931 39.6516 339.395Z"
        fill="#4B4B4B" />
    <path
        d="M38.0278 347.659C37.7222 348.702 37.4166 349.741 37.1154 350.785C37.0805 349.126 37.2638 347.506 37.9405 345.969C37.9711 346.532 37.9972 347.096 38.0278 347.659Z"
        fill="#666666" />
    <path
        d="M111.405 430.34C108.427 430.785 105.446 431.13 102.473 430.301C102.525 430.24 102.577 430.174 102.634 430.113C105.489 429.192 108.344 429.183 111.195 430.122C111.265 430.196 111.335 430.266 111.405 430.34Z"
        fill="#666666" />
    <path
        d="M245.666 104.221C246.539 100.388 248.884 98.445 252.948 98.4275C261.893 98.3795 270.839 98.3271 279.784 98.4406C285.084 98.5061 290.384 97.8163 295.684 98.4319C299.862 98.9165 302.014 100.61 302.808 104.841C303.612 109.115 304.057 113.463 304.581 117.789C306.764 135.885 308.933 153.985 311.081 172.089C312.177 181.318 313.216 190.556 314.281 199.794C314.858 201.474 313.644 201.776 312.553 201.662C310.269 201.422 309.069 202.365 308.685 204.544C307.436 204.627 307.637 203.609 307.549 202.933C305.161 184.038 302.11 165.24 299.438 146.384C297.683 134.008 295.867 121.635 294.016 109.272C293.649 106.818 293.448 106.626 290.973 106.604C288.502 106.583 286.027 106.574 283.556 106.604C281.329 106.635 281.085 106.91 281.617 109.032C282.962 114.388 284.337 119.741 285.699 125.097C291.13 146.445 296.679 167.763 302.066 189.124C302.9 192.438 303.887 195.712 304.638 199.047C304.838 199.933 305.314 200.872 304.511 201.728C303.415 202.221 302.245 202.195 301.084 202.225C283.752 202.636 266.726 200.475 249.966 196.105C246.986 195.328 245.497 193.395 245.5 190.307C245.5 162.406 245.5 134.501 245.509 106.6C245.509 105.81 245.348 105.002 245.671 104.229L245.666 104.221Z"
        fill="#B6E8E9" />
    <path
        d="M236.153 103.767C236.751 104.535 236.537 105.443 236.537 106.29C236.524 148.532 236.506 190.779 236.471 233.021C236.467 238.836 234.018 241.268 228.251 241.29C222.851 241.307 217.594 240.08 212.286 239.329C200.725 237.697 189.178 235.955 177.631 234.257C172.68 233.527 167.739 232.737 162.775 232.104C161.186 231.903 161.413 230.917 161.413 229.926C161.408 221.854 161.408 213.786 161.413 205.714C161.421 179.756 161.421 153.797 161.478 127.839C161.478 126.927 160.871 126.028 161.4 125.111C162.456 125.434 162.701 126.434 163.089 127.25C167.167 135.815 172.331 143.674 178.421 150.938C186.406 160.468 195.77 168.414 206.104 175.263C211.129 178.594 216.324 181.633 221.829 184.113C222.571 184.449 223.195 184.933 223.628 185.641C224.802 189.474 224.981 193.473 225.588 197.397C227.125 207.408 228.618 217.427 229.875 227.477C229.958 228.127 229.993 228.773 230.002 229.411C230.002 229.542 230.002 229.686 230.002 229.83C230.002 229.83 230.015 229.738 230.002 229.546C229.678 223.351 229.892 217.156 229.836 210.961C229.827 209.879 229.836 208.8 229.478 207.753C229.281 202.151 229.39 196.555 229.412 190.958C229.421 188.552 230.246 188.055 232.612 188.793C233.027 188.924 233.429 189.103 233.852 189.212C234.743 189.439 235.249 189.12 235.349 188.181C235.441 187.313 235.411 186.439 235.411 185.566C235.411 159.613 235.406 133.659 235.428 107.705C235.428 106.365 235.07 104.915 236.157 103.758L236.153 103.767Z"
        fill="#7ECCCE" />
    <path
        d="M223.052 185.348C217.084 182.528 211.322 179.354 205.799 175.73C201.551 172.95 197.439 169.994 193.632 166.65C190.912 164.262 188.04 162.057 185.486 159.464C176.414 150.257 168.678 140.111 163.094 128.402C162.562 127.289 161.963 126.206 161.396 125.111C161.396 119.003 161.387 112.896 161.413 106.788C161.44 100.986 163.771 98.4933 169.616 98.4758C189.541 98.4103 209.471 98.4365 229.395 98.4714C232.993 98.4758 235.232 100.327 236.158 103.771C236.145 121.212 236.127 138.653 236.119 156.094C236.11 166.921 236.066 177.752 236.158 188.579C236.175 190.447 235.538 190.674 234.054 190.146C233.918 190.098 233.774 190.067 233.639 190.019C231.203 189.172 229.988 190.027 229.993 192.582C230.011 197.742 230.028 202.902 230.042 208.063C230.242 208.84 230.434 209.621 229.911 210.359C228.492 209.595 228.924 208.215 228.92 207.067C228.876 197.471 229.133 187.871 228.828 178.289C228.522 168.772 228.81 159.246 228.356 149.75C227.981 141.897 228.33 134.056 227.977 126.22C227.736 120.845 227.527 115.48 227.588 110.106C227.605 108.578 226.903 107.805 225.427 107.683C221.738 107.373 218.027 107.578 214.33 107.194C212.531 107.006 212.758 108.534 212.919 109.682C213.513 113.93 214.124 118.174 214.736 122.417C217.578 142.202 220.393 161.987 223.201 181.777C223.366 182.956 223.903 184.2 223.061 185.361L223.052 185.348Z"
        fill="#B6E8E9" />
    <path
        d="M308.544 204.6C308.552 204.242 308.627 203.871 308.557 203.526C308.155 201.422 309.19 201.025 311.067 201.012C312.145 201.007 313.992 202.151 314.276 199.785C314.686 202.933 315.132 206.076 315.498 209.228C316.446 217.44 317.288 225.665 318.349 233.863C318.554 235.465 318.039 235.92 316.734 236.264C304.532 239.512 292.343 242.795 280.145 246.052C274.051 247.681 268.03 249.619 261.783 250.627C258.478 251.16 255.134 251.217 251.821 250.798C247.7 250.278 245.604 247.55 245.325 242.612C245.264 241.525 245.285 240.434 245.285 239.342C245.272 195.943 245.259 152.544 245.277 109.15C245.277 107.508 244.967 105.814 245.674 104.221C245.683 123.857 245.696 143.49 245.704 163.127C245.704 172.583 245.761 182.034 245.652 191.49C245.63 193.485 246.106 194.406 248.154 194.939C257.265 197.318 266.476 199.082 275.819 200.287C285.41 201.523 295.019 201.588 304.65 201.522C305.475 202.046 305.593 202.95 305.82 203.771C307.548 210.053 309.26 216.34 310.7 222.692C310.932 223.958 311.207 225.219 311.255 225.922C310.993 224.32 310.77 222.111 310.233 219.954C309.303 215.484 308.854 210.939 308.177 206.434C308.081 205.788 308.015 205.129 308.552 204.6H308.544Z"
        fill="#7FCCCE" />
    <path
        d="M40.599 338.543C40.4375 338.552 40.2803 338.561 40.1188 338.569C38.0408 337.6 35.8405 338.246 33.7013 338.089C32.6317 338.011 31.549 338.076 30.4707 338.076C31.37 335.265 30.9946 332.514 30.82 329.816C30.7545 328.79 30.8985 328.511 31.8197 328.52C31.9288 328.502 32.0336 328.485 32.1428 328.467C33.4175 328.315 34.7054 328.341 35.9758 328.424C37.7352 328.537 38.6869 327.874 38.7349 326.066C41.0662 318.06 45.0127 310.935 50.3737 304.557C59.8734 293.25 72.4858 287.64 86.5694 284.758C97.0819 282.606 107.734 282.004 118.447 282.087C128.113 282.161 137.779 282.012 147.44 282.506C150.736 282.672 150.749 282.51 150.819 279.31C150.841 278.371 150.727 277.402 151.417 276.612C151.426 272.452 151.495 268.291 151.408 264.131C151.382 262.952 151.788 262.271 152.744 261.773C156.263 261.764 159.781 261.764 163.305 261.747C164.169 261.747 165.029 261.721 165.832 262.105C165.832 274.285 165.841 286.47 165.828 298.65C165.819 306.194 165.841 313.738 165.732 321.277C165.693 324.032 167.723 325.848 168.465 328.223C167.766 330.781 165.714 332.056 162.349 332.021C161.174 331.523 160.423 330.672 160.161 329.406C159.524 327.083 160.834 325.403 162.039 323.691C163.92 321.02 163.903 320.574 161.75 318.055C161.611 317.889 161.467 317.723 161.309 317.575C160.515 316.824 160.013 315.763 159.144 315.152C157.747 314.17 157.97 316.872 156.678 316.401C156.324 316.047 156.293 315.576 156.485 315.204C157.616 313.022 156.28 311.738 154.826 310.481C153.801 309.59 152.587 308.948 151.561 308.049C150.164 306.368 148.636 304.832 146.859 303.548C145.017 302.221 144.934 302.217 144.397 304.378C143.904 306.368 142.93 307.8 140.76 308.206C138.298 308.669 136.386 307.407 136.12 304.906C135.919 303.033 135.91 301.134 136.168 299.261C136.36 297.873 135.853 296.965 134.57 296.572C132.321 295.882 130.357 294.184 127.786 294.633C126.153 293.52 124.367 292.922 122.368 292.857C120.766 292.804 120.303 293.481 120.635 294.952C121.049 296.773 121.307 298.645 122.717 300.064C123.005 300.352 123.337 300.706 122.983 301.182C121.228 301.754 120.648 300.449 120.115 299.274C119.233 297.345 118.906 295.249 118.757 293.158C118.661 291.783 118.037 291.215 116.732 291.18C115.357 291.141 113.981 291.22 112.611 291.137C111.454 291.071 110.908 291.713 110.502 292.63C110.319 292.774 110.078 292.835 109.913 292.691C109.026 291.918 108.607 290.613 107.031 290.678C105.263 290.748 103.534 290.765 102.054 291.905C98.9679 290.586 95.8552 291.185 92.7643 291.835C92.0483 291.983 93.0524 292.582 92.7075 292.944C90.4767 292.765 88.3157 292.97 86.2071 293.848C85.3208 294.219 84.5088 294.594 83.9195 295.363C80.7849 293.983 78.589 296.441 76.0176 297.336C75.3846 297.558 75.7644 298.388 75.5461 298.903C73.2891 298.807 71.4555 299.955 69.5128 300.855C68.1856 301.466 67.6006 302.221 68.1551 303.644C66.0465 303.273 64.3176 303.919 62.8246 305.465C61.6764 306.648 60.1834 307.643 61.9908 309.407C59.6857 309.494 57.5509 309.87 55.7741 311.642C54.7088 312.707 54.1107 313.607 54.9359 315.012C51.9061 315.292 50.854 317.872 49.3042 319.867C48.6362 320.731 48.2302 321.753 47.6234 322.657C46.0168 323.931 45.4187 325.844 44.5456 327.577C44.0348 328.59 44.5892 328.725 45.4798 328.891C47.6059 329.284 49.8149 328.965 51.893 329.703C52.0021 329.825 52.0414 329.952 52.0152 330.083C51.989 330.214 51.9585 330.279 51.9235 330.279C49.9066 331.082 47.8155 331.026 45.7549 330.628C43.9082 330.27 42.7426 330.764 41.9917 332.571C41.1884 334.505 40.2847 336.369 40.599 338.548V338.543Z"
        fill="#272728" />
    <path
        d="M162.779 243.437C162.849 241.359 164.163 240.137 166.193 240.455C170.253 241.093 174.305 241.783 178.339 242.551C180.465 242.957 181.464 244.415 181.089 246.209C180.761 247.781 178.954 248.685 176.955 248.379C173.532 247.855 170.105 247.384 166.678 246.904C163.936 246.519 162.714 245.445 162.784 243.437H162.779Z"
        fill="#4B4B4B" />
    <path
        d="M324.692 245.607C324.727 243.411 324.806 241.211 324.256 239.055C324.54 238.103 324.989 238.094 325.107 239.05C325.264 240.329 325.164 241.639 325.16 242.936C325.16 243.861 325.221 244.717 326.456 244.747C325.867 245.035 325.282 245.324 324.692 245.612V245.607Z"
        fill="#313132" />
    <path
        d="M272.776 257.408C271.327 258.447 269.694 258.966 267.922 259.071C269.406 258.132 271.048 257.639 272.776 257.408Z"
        fill="#BA9E2E" />
    <path
        d="M31.8633 328.1C30.3441 327.878 30.9029 326.677 30.9029 325.865C30.8549 313.951 30.8505 302.037 30.8374 290.123C30.8374 287.647 29.6514 286.229 27.2794 285.871C26.9214 285.819 26.5634 285.749 26.2098 285.688C25.5157 284.741 26.1356 283.859 26.4194 283.012C30.2175 271.53 37.7613 263.266 48.2608 257.486C63.5275 249.082 80.1126 244.467 96.9029 240.442C112.253 236.758 127.751 233.78 143.34 231.318C144.393 231.152 145.48 230.729 146.492 231.471C146.523 240.682 146.593 249.894 146.545 259.101C146.536 260.957 146.82 262.004 148.994 261.712C150.339 261.533 151.116 262.105 151.072 263.711C150.959 267.99 150.993 272.268 150.972 276.546C150.085 277.895 148.675 277.59 147.409 277.625C138.901 277.852 130.414 276.848 121.905 277.205C108.983 277.751 96.0472 278.201 83.3694 281.178C72.4552 283.745 62.3487 288.054 53.6873 295.284C45.2048 302.365 39.1365 311.236 34.8844 321.408C33.9414 323.66 33.5398 326.171 31.8677 328.096L31.8633 328.1Z"
        fill="#FECC01" />
    <path
        d="M146.487 231.471C133.115 233.405 119.847 235.916 106.659 238.832C95.9541 241.198 85.3018 243.796 74.8155 247.031C64.7876 250.121 55.1177 254.077 46.0895 259.455C35.9394 265.502 29.3559 274.312 26.2083 285.693C25.1911 285.867 24.1739 285.955 23.1523 285.702C25.6757 277.948 28.3737 270.286 33.6561 263.851C38.4016 258.071 44.5135 254.029 50.8612 250.322C64.0542 242.617 78.3037 237.478 92.9112 233.231C110.011 228.258 127.343 224.351 144.919 221.513C145.408 221.435 145.915 221.47 146.417 221.452C146.439 224.792 146.465 228.132 146.487 231.471Z"
        fill="#FEFEFE" />
    <path
        d="M31.8631 328.1C37.7261 309.546 48.5923 295.109 66.3648 286.443C74.7163 282.37 83.6267 280.104 92.7945 278.786C106.769 276.782 120.84 276.446 134.919 276.743C139.053 276.83 143.187 276.887 147.322 277.018C148.561 277.057 149.784 276.965 150.967 276.546C151.12 276.564 151.273 276.581 151.425 276.599C151.443 277.978 151.364 279.371 151.5 280.737C151.696 282.728 150.797 283.23 148.95 283.16C136.451 282.689 123.944 282.484 111.44 282.759C100.299 283.003 89.2584 284.138 78.5319 287.386C61.925 292.42 49.5833 302.443 42.3057 318.396C41.127 320.98 40.0094 323.578 39.2497 326.315C38.8132 328.218 37.6956 329.057 35.6961 328.751C34.4388 328.559 33.1291 328.934 31.8718 328.537L31.8281 328.506C31.85 328.371 31.863 328.231 31.8674 328.092L31.8631 328.1Z"
        fill="#9A9997" />
    <path
        d="M401.533 238.687C405.506 240.303 409.492 241.896 413.429 243.586C413.661 243.686 415.416 243.446 414.18 244.738C410.683 243.324 407.235 241.796 403.681 240.499C398.586 238.639 393.439 237.155 388.065 236.43C387.738 236.387 387.432 236.16 387.113 236.016C387.842 235.68 388.571 235.684 389.3 236.011C393.09 236.195 396.63 237.513 400.258 238.434C400.677 238.539 401.105 238.605 401.529 238.687H401.533Z"
        fill="#1F1F20" />
    <path
        d="M389.304 236.011C388.575 236.011 387.846 236.011 387.117 236.016C386.68 236.016 386.248 236.016 385.812 236.011C384.703 235.409 383.428 236.155 382.319 235.575C382.175 235.575 382.027 235.575 381.883 235.575C379.032 235.077 376.155 235.496 373.291 235.343C372.226 235.287 371.134 235.579 370.095 235.138C367.188 235.138 364.276 235.138 361.368 235.138C360.657 235.025 359.853 235.418 359.242 234.763C364.931 234.025 370.654 234.125 376.351 234.326C380.695 234.479 385.061 234.881 389.3 236.007L389.304 236.011Z"
        fill="#19191A" />
    <path
        d="M370.1 235.143C373.352 235.143 376.605 235.13 379.853 235.152C380.547 235.156 381.32 234.916 381.883 235.579C378.631 235.579 375.383 235.593 372.13 235.566C371.436 235.562 370.663 235.802 370.096 235.143H370.1Z"
        fill="#1F1F20" />
    <path
        d="M382.32 235.575C383.477 235.762 384.739 235.138 385.813 236.011C384.656 235.824 383.394 236.444 382.32 235.575Z"
        fill="#1F1F20" />
    <path
        d="M144.02 366.842C142.772 372.002 141.073 376.974 138.083 381.427C124.501 401.658 95.928 404.408 78.8758 387.028C72.4495 380.48 69.0181 372.465 68.1319 363.349C68.062 362.651 68.0402 361.943 67.9922 361.24C69.9611 354.36 73.3358 348.205 78.2995 343.097C86.9435 334.204 97.5913 329.629 109.99 331.161C124.27 332.925 135.114 340.163 141.152 353.679C142.632 356.997 144.051 360.35 144.173 364.065C144.203 364.995 144.43 365.938 144.02 366.842Z"
        fill="#FECC01" />
    <path
        d="M144.02 366.841C143.588 359.057 140.654 352.216 136.009 346.083C129.666 337.709 120.921 333.178 110.763 331.763C102.459 330.607 94.4612 332.327 87.1487 336.736C78.5134 341.94 72.9166 349.553 69.2539 358.778C68.9177 359.621 68.778 360.612 67.9922 361.245C68.0271 349.929 71.8995 340.211 80.2029 332.427C86.5681 326.459 94.1687 323.194 102.865 322.39C121.157 320.696 137.341 332.117 142.706 349.038C144.544 354.845 144.915 360.812 144.02 366.846V366.841Z"
        fill="#FE9703" />
    <path
        d="M61.9495 309.333C60.471 308.343 60.3982 307.182 61.7312 305.849C62.242 305.338 62.7135 304.758 63.3028 304.36C64.761 303.378 66.1754 301.798 68.0658 303.662C69.0306 303.596 69.6723 304.26 70.3927 304.718C71.2527 305.264 72.1171 305.797 73.0863 306.124C74.5182 306.609 75.8323 306.464 76.8407 305.251C77.8099 304.081 77.7706 302.051 76.832 300.785C76.3605 300.156 75.6183 299.72 75.4874 298.855C74.7452 297.951 74.4134 297.209 75.9108 296.655C77.6571 296.009 79.3684 295.24 81.0536 294.446C82.3196 293.848 83.2277 293.992 83.7821 295.358C84.7382 295.537 85.1529 296.349 85.6856 297.013C86.55 298.091 87.4842 299.117 88.759 299.68C90.1735 300.305 91.6141 300.274 92.7885 299.152C93.9454 298.047 93.8057 296.72 93.2076 295.358C92.902 294.664 92.2122 294.075 92.5003 293.184C91.8368 291.931 92.0332 291.246 93.6092 290.997C95.5345 290.691 97.4554 290.569 99.3981 290.517C100.629 290.482 101.45 290.931 102.092 291.892C102.17 291.953 102.245 292.01 102.327 292.067C102.755 292.717 102.969 293.481 103.388 294.136C103.663 294.642 103.925 295.157 104.244 295.642C106.117 298.502 108.383 298.502 110.317 295.642C111.054 294.791 110.522 293.9 110.395 293.023C110.4 292.931 110.404 292.835 110.413 292.743C109.849 290.975 110.404 290.307 112.32 290.512C114.041 290.7 115.809 290.46 117.529 290.639C118.568 290.744 119.554 290.805 119.367 292.726C119.144 295.013 119.821 297.441 120.851 299.628C121.283 300.549 121.955 301.147 123.06 301.055C123.497 300.728 124.02 300.863 124.505 300.78C126.679 300.418 127.701 299.174 127.736 296.965C127.749 296.144 127.234 295.284 127.867 294.494C128.002 293.503 128.587 293.603 129.29 293.883C131.368 294.721 133.468 295.507 135.533 296.375C136.663 296.851 137.144 297.646 136.807 298.982C136.323 300.894 136.576 302.88 136.628 304.827C136.668 306.342 137.471 307.525 139.069 307.7C140.654 307.875 142.291 307.752 143.199 306.111C143.688 305.229 143.998 304.255 144.015 303.212C144.037 301.71 144.522 301.099 145.953 302.199C148.167 303.902 150.655 305.316 151.873 308.023C151.969 308.625 151.773 309.189 151.515 309.695C150.267 312.153 149.939 314.742 150.323 317.444C150.245 317.518 150.171 317.593 150.092 317.667C147.87 314.877 144.722 313.257 141.754 311.568C134.878 307.652 127.631 304.539 119.777 303.085C108.88 301.069 98.1102 301.461 87.3838 304.404C78.6568 306.801 70.8991 310.974 63.6739 316.287C63.412 315.977 63.4163 315.619 63.5604 315.279C64.4423 313.24 64.0319 311.516 62.3293 310.088C62.1066 309.9 62.0019 309.625 61.9538 309.333H61.9495Z"
        fill="#4B4B4B" />
    <path
        d="M51.9215 330.275L51.904 329.825C51.7425 329.437 51.9608 329.153 52.1529 328.852C53.8206 326.202 53.5412 325.032 50.8344 323.285C50.1796 322.901 49.4462 323.002 48.7389 322.936C48.2936 322.879 47.8702 322.783 47.582 322.395C48.3722 319.247 50.7035 317.104 52.7029 314.781C53.2356 314.161 54.1698 315.205 54.9731 315.008C55.0735 315.008 55.1783 314.999 55.2787 314.995C56.0907 315.152 56.8809 315.401 57.7016 315.541C59.4479 316.418 61.539 315.676 63.2504 316.711C60.6746 319.086 58.1207 321.482 55.5188 323.831C54.5496 324.704 54.0214 325.639 54.0869 327.014C54.1567 328.529 53.6809 329.873 51.9259 330.275H51.9215Z"
        fill="#4A4A4A" />
    <path
        d="M156.68 316.322C156.746 316.287 156.802 316.248 156.872 316.217C157.907 315.781 157.239 313.751 158.688 313.974C159.753 314.135 160.103 315.515 160.823 316.309C165.621 321.613 164.774 320.701 161.508 325.372C160.653 326.599 160.321 327.957 160.164 329.397C158.972 324.521 154.558 322.308 151.489 318.99C151.061 318.527 150.446 318.221 150.088 317.654L150.201 317.54C150.324 317.457 150.481 317.348 150.586 317.396C152.878 318.479 154.807 317.575 156.68 316.318V316.322Z"
        fill="#4A4A4A" />
    <path
        d="M63.2475 316.715C61.1695 316.798 59.0827 316.929 57.1618 315.877C56.472 315.484 55.6819 315.353 54.9746 315.012C53.1498 314.065 53.4117 313.096 54.7956 311.878C56.865 310.053 58.8208 308.093 61.9509 309.337C65.0069 311.406 65.3125 312.65 63.671 316.287C63.5313 316.431 63.3872 316.575 63.2475 316.715Z"
        fill="#121213" />
    <path
        d="M40.5973 338.543C39.8159 337.395 39.4535 336.242 40.3791 334.963C40.6628 334.57 40.7152 334.02 40.916 333.557C42.5532 329.807 42.5532 329.855 46.7224 330.226C48.4424 330.379 50.1843 330.27 51.9175 330.279C49.106 331.977 47.4383 334.706 45.6091 337.29C45.1813 337.897 45.0241 338.412 45.8405 338.888C46.3426 339.18 46.7136 339.661 46.67 340.324C45.8929 339.975 45.5131 338.997 44.5308 338.967C43.7013 338.434 42.8544 338.028 41.8634 338.556C41.4399 338.552 41.0165 338.547 40.5886 338.543H40.5973Z"
        fill="#4A4A4A" />
    <path
        d="M111.194 430.122C108.339 430.235 105.488 430.366 102.633 430.113C101.821 429.135 101.476 427.952 101.284 426.743C100.991 424.926 101.537 423.276 103.261 422.586C104.995 421.892 106.92 421.962 108.103 423.774C109.391 425.747 110.548 427.821 111.194 430.122Z"
        fill="#151515" />
    <path
        d="M371.196 323.325C377.945 323.316 383.572 328.908 383.607 335.653C383.642 342.276 377.936 348.231 371.257 348.047C364.115 347.851 359.007 342.739 358.841 335.719C358.684 329.079 364.551 323.333 371.191 323.325H371.196Z"
        fill="#9A9997" />
    <path
        d="M41.873 338.556C42.8902 337.862 43.7896 337.928 44.5405 338.967C43.6542 338.831 42.7636 338.692 41.873 338.556Z"
        fill="#272728" />
    <path
        d="M308.544 204.6C309.278 209.835 310.007 215.069 310.74 220.304C310.788 221.207 311.609 222.233 310.313 222.914C308.427 215.781 306.536 208.652 304.65 201.518C301.188 188.046 297.718 174.578 294.269 161.105C289.794 143.63 285.337 126.145 280.871 108.665C280.414 106.878 281.09 105.982 282.901 105.976C286.026 105.967 289.161 106.037 292.282 105.928C293.662 105.88 294.33 106.417 294.513 107.678C295.426 113.974 296.312 120.273 297.224 126.569C298.324 134.152 299.446 141.726 300.542 149.309C301.629 156.818 302.686 164.336 303.786 171.845C305 180.14 306.17 188.443 307.514 196.716C307.942 199.34 307.732 202.033 308.553 204.596L308.544 204.6Z"
        fill="#FEFEFE" />
    <path
        d="M223.051 185.348C221.611 175.486 220.148 165.624 218.743 155.757C217.507 147.1 216.359 138.435 215.128 129.777C214.194 123.198 213.189 116.628 212.22 110.053C212.212 109.984 212.185 109.914 212.172 109.839C211.579 106.443 211.819 105.95 215.154 106.487C219.053 107.111 222.986 106.386 226.867 107.181C228.02 107.417 228.308 107.879 228.26 108.892C228.22 109.691 228.251 110.49 228.26 111.293C228.356 122.766 228.574 134.243 228.84 145.712C229.028 153.771 228.762 161.839 229.198 169.885C229.897 182.742 229.325 195.598 229.596 208.451C229.609 209.093 229.465 209.774 229.958 210.324C230.508 211.655 230.181 213.044 230.194 214.401C230.246 218.837 230.237 223.268 230.185 227.703C230.176 228.284 230.753 229.223 229.574 229.45C228.207 219.902 226.841 210.354 225.47 200.807C224.82 196.284 224.165 191.765 223.492 187.243C223.396 186.601 223.204 185.977 223.056 185.344L223.051 185.348Z"
        fill="#FEFEFE" />
    <path
        d="M75.4887 298.855C77.2044 299.986 78.4922 301.317 78.1255 303.635C77.737 306.119 75.6415 307.499 73.2491 306.748C71.2758 306.128 69.6518 304.932 68.0671 303.662C66.5871 302.238 67.0324 301.339 68.7961 300.64C69.9225 300.195 71.075 299.68 72.0223 298.951C73.236 298.017 74.3318 298.637 75.4843 298.855H75.4887Z"
        fill="#121213" />
    <path
        d="M92.5058 293.184C92.9249 293.861 93.3789 294.516 93.7587 295.214C94.6144 296.79 94.5402 298.344 93.2305 299.602C91.8204 300.951 90.0916 301.012 88.4021 300.156C86.324 299.104 85.0973 297.174 83.7832 295.358C83.8312 295.005 83.7439 294.498 83.9491 294.324C85.1715 293.254 86.8479 293.28 88.2667 292.66C89.7773 292.001 91.2485 291.761 92.5058 293.184Z"
        fill="#121213" />
    <path
        d="M127.863 294.489C128.845 298.274 128.129 300.256 125.545 301.156C124.659 301.461 123.868 301.496 123.056 301.051C120.28 299.113 120.31 296.031 119.856 293.154C119.791 292.726 120.101 292.534 120.455 292.381C122.266 291.608 126.763 292.883 127.859 294.489H127.863Z"
        fill="#131314" />
    <path
        d="M156.681 316.322C154.677 318.837 153.245 319.107 150.203 317.544C148.771 314.021 150.159 310.992 151.87 308.019C154.263 308.857 155.86 310.669 157.454 312.502C157.982 313.105 157.533 313.554 157.367 314.069C157.122 314.816 156.908 315.571 156.681 316.322Z"
        fill="#131314" />
    <path
        d="M47.5836 322.399C48.0115 322.408 48.4393 322.416 48.8671 322.425C49.5176 322.953 50.3951 322.342 51.0456 322.862C54.4639 324.66 54.7521 326.992 51.9056 329.829C49.3605 330.109 46.8677 329.393 44.3356 329.401C43.9078 329.401 43.5148 329.432 43.5236 328.738C43.541 327.428 46.3045 322.997 47.5793 322.403L47.5836 322.399Z"
        fill="#131314" />
    <path
        d="M110.825 295.773C110.122 297.458 108.93 298.558 107.035 298.331C104.59 298.034 103.656 296.131 102.975 294.066C102.626 293.363 102.53 292.556 102.098 291.883C102.098 291.883 102.098 291.888 102.098 291.892C102.106 291.202 102.259 290.757 103.093 290.517C104.865 290.006 106.651 290.071 108.428 290.194C109.917 290.299 109.362 292.184 110.414 292.748C110.659 293.743 111.397 294.673 110.829 295.777L110.825 295.773Z"
        fill="#121213" />
    <path
        d="M31.8672 328.546C32.9586 328.541 34.0631 328.411 35.1327 328.559C37.1103 328.834 38.4637 328.157 39.2451 326.324C39.2713 328.192 38.4462 329.218 36.4861 328.982C34.9493 328.795 33.3297 329.506 31.8672 328.546Z"
        fill="#4B4B4B" />
    <path
        d="M106.262 340.259C117.347 340.289 126.388 349.313 126.41 360.367C126.427 371.451 117.233 380.523 106.018 380.484C95.0162 380.445 85.9313 371.246 86.0142 360.232C86.0972 349.134 95.1254 340.228 106.267 340.259H106.262Z"
        fill="#666666" />
    <path
        d="M110.823 295.773C110.683 294.764 110.548 293.752 110.408 292.743C111.229 293.66 111.692 294.625 110.823 295.773Z"
        fill="#272728" />
    <path
        d="M102.097 291.883C102.821 292.437 103.018 293.201 102.974 294.066C102.311 293.485 102.079 292.734 102.097 291.883Z"
        fill="#272728" />
    <path
        d="M54.9688 315.008C55.8288 314.964 56.5884 315.178 57.1559 315.872C56.3003 315.907 55.5407 315.685 54.9688 315.008Z"
        fill="#272728" />
    <path
        d="M51.0437 322.858C50.3059 322.77 49.4764 323.137 48.8652 322.421C49.6074 322.486 50.4325 322.146 51.0437 322.858Z"
        fill="#272728" />
    <path
        d="M380.33 334.531C380.749 338.517 379.561 341.787 376.073 343.839C372.711 345.816 369.21 345.755 365.966 343.603C362.788 341.494 361.872 338.238 362.094 334.453C364.26 337.893 366.8 340.556 371.236 340.407C375.466 340.268 378.234 338.046 380.33 334.527V334.531Z"
        fill="#FDFDFD" />
</svg>