<svg width="512" height="512" viewBox="0 0 512 512" fill="none" xmlns="http://www.w3.org/2000/svg">
<path d="M23.7328 315.085C23.6365 300.091 23.3187 285.091 23.5257 270.096C23.6461 261.371 23.1598 252.612 24.2143 243.906C25.9623 229.523 33.3441 218.842 45.7434 211.586C48.3581 210.054 51.1943 208.855 54.0161 207.724C55.9518 206.949 56.5923 205.803 56.5874 203.732C56.5248 171.407 56.7512 139.077 56.443 106.752C56.313 92.6772 68.0093 83.9664 79.0074 84.0001C120.322 84.1301 161.633 84.0242 202.948 84.1446C217.013 84.1831 226.345 93.3899 226.369 106.762C224.983 107.942 223.307 107.523 221.747 107.523C179.632 107.547 137.518 107.542 95.4034 107.537C93.3136 107.537 91.243 107.624 89.1676 107.942C82.3299 108.991 79.4504 112.222 79.4456 119.079C79.4311 154.053 79.4359 189.026 79.4456 223.995C79.4456 225.097 79.2674 226.258 80.0186 227.231C81.1117 228.242 82.4647 227.866 83.7071 227.866C131.744 227.885 179.777 227.881 227.814 227.881C228.377 227.881 228.936 227.881 229.499 227.881C234.382 227.885 234.286 227.914 235.697 232.638C238.571 242.273 244.778 248.793 258.049 248.957C261.738 249 265.426 248.972 269.115 248.972C304.16 248.972 339.201 248.972 374.247 248.991C375.72 248.991 377.333 248.577 378.561 249.882C378.58 278.388 378.6 306.89 378.624 335.396C378.624 336.513 378.686 337.635 378.72 338.752C378.994 341.367 378.238 343.818 377.222 346.134C374.487 352.375 370.134 357.05 363.634 359.501C360.961 359.665 358.284 359.829 355.611 359.993C354.384 358.924 354.812 357.469 354.793 356.16C354.644 345.614 352.799 335.435 348.466 325.766C341.729 310.723 331.029 299.407 316.497 291.688C307.435 286.877 297.775 284.205 287.528 283.593C276.631 282.943 265.753 283.276 254.847 283.512C241.87 283.791 228.868 284.138 215.891 283.242C214.687 283.16 213.488 283.174 212.285 283.174C170.329 283.174 128.378 283.117 86.4229 283.194C62.5054 283.242 42.7965 292.328 27.7969 311.17C26.8964 312.302 26.0249 313.453 25.0859 314.546C24.7585 314.931 24.3973 315.519 23.7039 315.066L23.7328 315.085Z" fill="#F4C244"/>
<path d="M23.7338 315.085C27.2008 311.006 30.4319 306.735 34.2937 302.984C46.8279 290.806 61.8516 284.296 79.201 282.852C82.8077 282.553 86.4047 282.51 90.0113 282.514C131.163 282.539 172.319 282.514 213.47 282.664C222.369 282.697 231.272 282.861 240.171 282.837C254.285 282.799 268.398 282.543 282.512 282.625C299.23 282.722 314.451 287.657 327.665 297.991C342.732 309.774 351.587 325.308 354.601 344.193C355.439 349.437 355.545 354.715 355.637 360.002C354.722 365.698 353.999 371.438 352.083 376.918C342.447 404.476 322.955 420.467 294.511 425.933C288.738 427.04 282.878 427.228 277.027 427.223C212.445 427.175 147.857 427.084 83.2747 427.007C50.2034 426.968 20.0598 401.909 13.5254 369.44C9.79358 350.916 12.962 333.792 22.4481 317.652C22.9345 316.828 23.3101 315.937 23.7386 315.08L23.7338 315.085Z" fill="#667C89"/>
<path d="M79.2195 228.189C78.1456 227.409 78.6272 226.267 78.6272 225.3C78.5935 190.345 78.5935 155.391 78.5935 120.437C78.5935 110.932 82.1616 107.214 91.6814 106.824C93.7616 106.738 95.8514 106.747 97.9316 106.747C140.744 106.747 183.557 106.757 226.37 106.757C227.487 123.957 228.618 141.157 229.711 158.358C230.593 172.279 231.426 186.204 232.278 200.13C233.284 208.278 234.286 216.42 234.007 224.664C233.886 228.184 233.814 228.314 230.366 228.314C180.86 228.314 131.354 228.314 81.8534 228.309C80.977 228.309 80.0862 228.425 79.2195 228.189Z" fill="#3A474E"/>
<path d="M400.298 338.791C400.337 337.669 400.404 336.547 400.404 335.43C400.414 293.484 400.419 251.538 400.423 209.592C400.423 205.466 400.481 205.408 404.55 205.408C409.765 205.408 414.98 205.47 420.19 205.379C422.188 205.345 422.911 206.135 422.901 208.066C422.858 218.491 423.277 228.906 423.965 239.303C425.925 268.873 429.647 298.15 439.398 326.334C444.329 340.578 450.82 354.065 459.95 366.132C468.112 376.918 477.983 385.677 490.729 390.772C492.954 391.663 495.265 392.371 497.576 393.001C499.503 393.526 500.384 394.634 500.369 396.613C500.331 402.069 500.312 407.52 500.34 412.975C500.35 414.781 499.517 415.648 497.764 415.71C497.124 415.734 496.483 415.734 495.838 415.734C465.357 415.734 434.882 415.734 404.401 415.734C400.65 415.734 400.399 415.489 400.399 411.839C400.404 399.728 400.399 387.618 400.433 375.508C400.443 371.26 400.582 367.013 400.611 362.766C400.616 361.736 400.414 360.705 400.308 359.675C400.004 353.381 399.335 347.102 399.561 340.785C399.586 340.048 399.793 339.369 400.293 338.801L400.298 338.791Z" fill="#F4C244"/>
<path d="M79.2207 228.189C80.2608 228.16 81.3009 228.102 82.341 228.102C131.582 228.102 180.823 228.102 230.064 228.102C233.237 228.102 233.204 228.102 233.228 225.039C233.286 217.518 232.785 210.025 232.217 202.533C232.154 201.743 232.26 200.939 232.284 200.14C232.79 200.857 232.611 201.69 232.65 202.47C232.838 206.072 232.823 206.019 236.329 205.783C244.337 205.249 252.359 205.706 260.371 205.644C269.27 205.571 278.164 205.456 287.063 205.355C289.201 205.331 289.388 203.92 289.393 202.225C289.398 189.796 289.437 177.363 289.499 164.935C289.499 164.035 289.099 162.985 290.072 162.263C291.03 163.346 290.78 164.685 290.78 165.942C290.804 177.489 290.785 189.04 290.799 200.587C290.799 204.026 291.04 204.151 294.367 204.652C298.696 205.306 302.992 205.157 307.306 204.632C310.051 204.3 310.436 203.958 310.441 201.165C310.47 189.777 310.441 178.389 310.47 167.001C310.47 165.672 310.176 164.247 311.221 163.101C311.799 163.895 311.529 164.81 311.534 165.667C311.582 177.859 311.669 190.056 311.587 202.249C311.572 204.416 312.246 204.835 314.279 204.95C328.464 205.749 342.669 205.412 356.86 205.812C365.099 206.043 371.272 209.684 375.49 216.671C378.033 220.879 378.302 225.68 378.461 230.394C378.683 236.885 378.563 243.386 378.587 249.882C341.677 249.862 304.768 249.853 267.859 249.814C263.29 249.809 258.729 249.621 254.16 249.439C244.91 249.073 236.858 241.662 234.759 232.185C233.936 228.473 233.955 228.468 230.088 228.468C180.741 228.468 131.394 228.468 82.0473 228.454C81.1083 228.454 80.1212 228.733 79.2303 228.184L79.2207 228.189Z" fill="#667C89"/>
<path d="M311.212 163.101C311.197 176.078 311.096 189.06 311.241 202.032C311.265 204.372 310.432 205.066 308.428 205.336C302.684 206.106 296.978 206.01 291.267 204.994C289.625 204.705 290.01 203.597 290.01 202.639C290 193.423 290.01 184.211 290.029 174.994C290.034 170.747 290.058 166.5 290.073 162.253C294.194 161.594 298.345 162.104 302.482 161.969C304.716 161.897 306.955 161.95 309.189 161.96C310.061 161.96 311.024 161.844 311.217 163.091L311.212 163.101Z" fill="#3A474E"/>
<path d="M400.3 338.791C400.425 345.219 400.555 351.648 400.68 358.071C400.69 358.63 400.68 359.189 400.314 359.66C388.098 359.607 375.881 359.559 363.66 359.506C365.365 358.365 367.137 357.315 368.755 356.068C373.507 352.399 376.815 347.776 377.918 341.743C378.101 340.732 378.462 339.749 378.742 338.757C385.926 338.767 393.115 338.777 400.3 338.786V338.791Z" fill="#667C89"/>
<path d="M181.746 404.784C148.454 404.784 115.161 404.934 81.8728 404.717C66.512 404.616 54.0742 397.976 44.7325 385.827C36.8644 375.585 34.1004 363.744 34.9335 351.046C35.8387 337.202 41.5545 325.583 52.124 316.573C59.8188 310.01 68.8475 306.052 78.9884 305.638C107.278 304.477 135.592 305.257 163.896 305.156C204.407 305.012 244.918 305.113 285.429 305.074C296.177 305.065 305.725 308.513 314.118 315.047C326.513 324.692 332.662 337.481 332.941 353.203C333.081 361.158 332.147 368.814 328.733 376.109C322.309 389.843 311.903 398.804 297.275 402.853C292.151 404.274 286.898 404.717 281.62 404.722C248.327 404.755 215.034 404.741 181.746 404.741V404.794V404.784Z" fill="#3A474E"/>
<path d="M155.572 206.399C138.405 206.399 121.244 206.399 104.077 206.399C100.856 206.399 100.803 206.346 100.803 203.217C100.803 179.554 100.803 155.897 100.803 132.235C100.803 128.999 100.846 128.955 103.976 128.955C136.701 128.926 169.425 128.898 202.155 128.869C205.554 128.869 205.511 128.878 205.728 132.345C207.182 155.873 208.66 179.4 210.124 202.923C210.341 206.395 210.331 206.395 206.83 206.395C189.746 206.395 172.661 206.395 155.577 206.395L155.572 206.399Z" fill="#C1DCF7"/>
<path d="M67.5003 355.379C67.5581 346.283 74.8051 339.147 83.9445 339.176C93.1417 339.21 100.365 346.519 100.312 355.736C100.259 364.697 92.8143 372.035 83.8193 372.006C74.6559 371.973 67.4426 364.62 67.5003 355.379Z" fill="#F4C244"/>
<path d="M216.773 339.162C225.883 339.137 233.169 346.307 233.241 355.36C233.313 364.485 225.955 371.963 216.874 371.987C207.782 372.016 200.381 364.596 200.41 355.471C200.434 346.394 207.667 339.186 216.773 339.157V339.162Z" fill="#F4C244"/>
<path d="M150.318 339.19C159.438 339.186 166.719 346.399 166.758 355.476C166.796 364.601 159.347 372.05 150.241 371.992C141.198 371.934 133.942 364.596 133.951 355.519C133.961 346.404 141.189 339.195 150.318 339.186V339.19Z" fill="#F4C244"/>
<path d="M283.156 339.176C292.098 339.08 299.543 346.414 299.639 355.418C299.731 364.355 292.407 371.862 283.445 372.016C274.46 372.171 266.929 364.909 266.789 355.957C266.645 346.592 273.781 339.277 283.156 339.176Z" fill="#F4C244"/>
</svg>
