<svg width="42" height="24" viewBox="0 0 42 24" fill="none" xmlns="http://www.w3.org/2000/svg">
<path d="M0.742615 7.73416L5.9909 1.6979C5.9909 1.6979 6.56593 1.21747 7.28917 1.6979C8.01241 2.17832 13.4553 7.73416 13.4553 7.73416H0.742615Z" fill="#505050"/>
<path d="M19.434 7.59279L23.3269 3.11536C23.4662 3.01206 23.635 2.9563 23.8084 2.9563C23.9818 2.9563 24.1506 3.01206 24.2899 3.11536C24.8263 3.47169 28.8636 7.59279 28.8636 7.59279H19.434Z" fill="#6F6F6F"/>
<path d="M9.31226 7.73427L15.8074 0.264254C15.8074 0.264254 16.5193 -0.330317 17.4143 0.264254C18.3094 0.858824 25.0453 7.73463 25.0453 7.73463L9.31226 7.73427Z" fill="#505050"/>
<path d="M30.3069 3.99243H31.2035V16.1869H30.3069V3.99243Z" fill="#505050"/>
<path d="M41.3689 16.1868V12.4152L39.9487 4.66933L38.1653 3.0481H31.2581V16.1868H41.3689Z" fill="#F9C647"/>
<path d="M31.2035 10.8069H32.8175V16.1868H31.2035V10.8069Z" fill="#BE8122"/>
<path d="M34.9666 6.49512V10.8893L39.0925 11.169L38.7697 6.49512H34.9666Z" fill="#D7D8DD"/>
<path d="M37.4801 8.02734H38.5561V12.1519H37.4801V8.02734Z" fill="#505050"/>
<path d="M36.7484 16.8691H41.4477V21.7923H37.4954L36.7484 16.8691Z" fill="#F9C647"/>
<path d="M0.768066 19.8162H16.3131V21.7394H17.9877V17.1754H21.9965V21.7394H38.8324C38.8324 21.7394 38.826 19.573 38.8324 19.3594C38.8389 19.1458 38.1768 17.6294 36.9559 16.8542C36.9638 16.8362 40.9264 16.8542 40.9264 16.8542V16.1809H31.5937V18.1067H26.8078V17.1752H29.14V15.8396H0.768066V19.8162Z" fill="#505050"/>
<path d="M3.28507 24.0001C5.09936 24.0001 6.57013 22.5293 6.57013 20.715C6.57013 18.9007 5.09936 17.4299 3.28507 17.4299C1.47077 17.4299 0 18.9007 0 20.715C0 22.5293 1.47077 24.0001 3.28507 24.0001Z" fill="#505050"/>
<path d="M3.28506 21.8099C3.8898 21.8099 4.38005 21.3196 4.38005 20.7149C4.38005 20.1101 3.8898 19.6199 3.28506 19.6199C2.68031 19.6199 2.19006 20.1101 2.19006 20.7149C2.19006 21.3196 2.68031 21.8099 3.28506 21.8099Z" fill="#F9C647"/>
<path d="M10.3073 24.0001C12.1216 24.0001 13.5924 22.5293 13.5924 20.715C13.5924 18.9007 12.1216 17.4299 10.3073 17.4299C8.49299 17.4299 7.02222 18.9007 7.02222 20.715C7.02222 22.5293 8.49299 24.0001 10.3073 24.0001Z" fill="#505050"/>
<path d="M10.3073 21.8099C10.912 21.8099 11.4023 21.3196 11.4023 20.7149C11.4023 20.1101 10.912 19.6199 10.3073 19.6199C9.70253 19.6199 9.21228 20.1101 9.21228 20.7149C9.21228 21.3196 9.70253 21.8099 10.3073 21.8099Z" fill="#F9C647"/>
<path d="M22.4012 24.0001C24.2154 24.0001 25.6862 22.5293 25.6862 20.715C25.6862 18.9007 24.2154 17.4299 22.4012 17.4299C20.5869 17.4299 19.1161 18.9007 19.1161 20.715C19.1161 22.5293 20.5869 24.0001 22.4012 24.0001Z" fill="#505050"/>
<path d="M22.4011 21.8099C23.0059 21.8099 23.4961 21.3196 23.4961 20.7149C23.4961 20.1101 23.0059 19.6199 22.4011 19.6199C21.7964 19.6199 21.3062 20.1101 21.3062 20.7149C21.3062 21.3196 21.7964 21.8099 22.4011 21.8099Z" fill="#F9C647"/>
<path d="M35.271 24.0001C37.0853 24.0001 38.5561 22.5293 38.5561 20.715C38.5561 18.9007 37.0853 17.4299 35.271 17.4299C33.4567 17.4299 31.986 18.9007 31.986 20.715C31.986 22.5293 33.4567 24.0001 35.271 24.0001Z" fill="#505050"/>
<path d="M35.271 21.8099C35.8758 21.8099 36.366 21.3196 36.366 20.7149C36.366 20.1101 35.8758 19.6199 35.271 19.6199C34.6663 19.6199 34.176 20.1101 34.176 20.7149C34.176 21.3196 34.6663 21.8099 35.271 21.8099Z" fill="#F9C647"/>
<path d="M27.9756 19.0562H30.3069V22.3738H27.9756V19.0562Z" fill="#F9C647"/>
<path d="M0.805725 7.56885H28.893V15.8159H0.805725V7.56885Z" fill="#F9C647"/>
<path d="M2.80304 8.83203H9.38384V14.8181H2.80304V8.83203Z" fill="#E5AB3E"/>
<path d="M11.559 8.83203H18.1398V14.8181H11.559V8.83203Z" fill="#E5AB3E"/>
<path d="M20.315 8.83203H26.8958V14.8181H20.315V8.83203Z" fill="#E5AB3E"/>
</svg>
