<svg width="17" height="17" viewBox="0 0 17 17" fill="none" xmlns="http://www.w3.org/2000/svg">
    <rect x="0.333008" y="0.189453" width="16" height="16" rx="8" fill="#ECF4FF" />
    <path
        d="M6.88516 12.386C6.931 12.411 6.98236 12.424 7.03455 12.4239C7.12206 12.4239 7.20644 12.3896 7.26894 12.3177L11.4224 7.62354C11.5037 7.53291 11.5224 7.40165 11.4724 7.28914C11.4224 7.17663 11.3099 7.10475 11.188 7.10475H9.02221L10.1067 4.27952C10.1629 4.13888 10.1067 3.97949 9.97854 3.90136C9.84728 3.82323 9.68164 3.84823 9.58163 3.96074L5.5813 8.42673C5.54056 8.47147 5.51371 8.52709 5.50402 8.58681C5.49434 8.64654 5.50223 8.70779 5.52674 8.76311C5.55125 8.81843 5.59133 8.86542 5.64208 8.89837C5.69283 8.93131 5.75207 8.94878 5.81257 8.94865H8.10339L6.75015 11.9833C6.72861 12.0308 6.71933 12.083 6.72318 12.135C6.72703 12.1871 6.74387 12.2373 6.77217 12.2812C6.80047 12.325 6.83932 12.3611 6.88516 12.386Z"
        fill="#082EB0" />
</svg>