<svg width="512" height="512" viewBox="0 0 512 512" fill="none" xmlns="http://www.w3.org/2000/svg">
<path d="M400 99.7598V176H352V112H368C380.32 112 391.52 107.36 400 99.7598ZM288 192V293.28L256 224V192H288ZM272 112H288V144L256 160V109.28C261.04 111.04 266.4 112 272 112Z" fill="#FCD770"/>
<path d="M272 80.0002C280.8 80.0002 288 72.8002 288 64.0002C288 55.2002 280.8 48.0002 272 48.0002C263.2 48.0002 256 55.2002 256 64.0002C256 72.8002 263.2 80.0002 272 80.0002ZM344 80.0002H296C291.6 80.0002 288 83.6002 288 88.0002V112H272C266.4 112 261.04 111.04 256 109.28C237.36 102.72 224 84.8802 224 64.0002C224 50.7202 229.36 38.7202 238.08 30.0802C242.518 25.6017 247.803 22.0506 253.626 19.6334C259.449 17.2162 265.695 15.9812 272 16.0002H368C394.48 16.0002 416 37.5202 416 64.0002C416 77.2802 410.64 89.2802 401.92 97.9202C401.28 98.5602 400.64 99.1202 400 99.7602C391.214 107.657 379.813 112.018 368 112H352V88.0002C352 83.6002 348.4 80.0002 344 80.0002ZM352 64.0002C352 72.8002 359.2 80.0002 368 80.0002C376.8 80.0002 384 72.8002 384 64.0002C384 55.2002 376.8 48.0002 368 48.0002C359.2 48.0002 352 55.2002 352 64.0002Z" fill="#FFEAA7"/>
<path d="M496 256V400H432V264C432 259.6 435.6 256 440 256H480H496Z" fill="#AAB2BD"/>
<path d="M448 400H480V496H448V400ZM448 208H480V256H448V208ZM480 152V176H448V152C448 147.6 451.6 144 456 144H472C476.4 144 480 147.6 480 152Z" fill="#CCD1D9"/>
<path d="M480 176V208H352V176H448H480ZM288 144V192H240V168L256 160L288 144Z" fill="#969FAA"/>
<path d="M344 80H296C291.6 80 288 83.6 288 88L287.992 496H352V88C352 83.6 348.4 80 344 80Z" fill="#D3A06C"/>
<path d="M302.56 324.8L296.32 311.28L288 293.36V293.28L256 224H144C135.2 224 128 231.2 128 240V288H32C23.2 288 16 295.2 16 304V352C16 360.8 23.2 368 32 368H288C296.8 368 304 360.8 304 352V331.52C304 329.2 303.52 326.88 302.56 324.8Z" fill="#FF826E"/>
<path d="M160 256H240V320H160V256Z" fill="#69D6F4"/>
<path d="M112 368H176V400H112V368Z" fill="#AAB2BD"/>
<path d="M289.92 414.08C294.399 418.518 297.95 423.803 300.367 429.626C302.784 435.449 304.019 441.695 304 448C304 474.48 282.48 496 256 496H64.0002C50.7202 496 38.7202 490.64 30.0802 481.92C25.6017 477.482 22.0506 472.197 19.6334 466.374C17.2162 460.551 15.9812 454.305 16.0002 448C16.0002 421.52 37.5202 400 64.0002 400H256C268.32 400 279.52 404.64 288 412.24C288.64 412.88 289.28 413.44 289.92 414.08Z" fill="#CCD1D9"/>
<path d="M256 464C264.837 464 272 456.837 272 448C272 439.163 264.837 432 256 432C247.163 432 240 439.163 240 448C240 456.837 247.163 464 256 464Z" fill="#969FAA"/>
<path d="M192 464C200.837 464 208 456.837 208 448C208 439.163 200.837 432 192 432C183.163 432 176 439.163 176 448C176 456.837 183.163 464 192 464Z" fill="#969FAA"/>
<path d="M128 464C136.837 464 144 456.837 144 448C144 439.163 136.837 432 128 432C119.163 432 112 439.163 112 448C112 456.837 119.163 464 128 464Z" fill="#969FAA"/>
<path d="M64 464C72.8366 464 80 456.837 80 448C80 439.163 72.8366 432 64 432C55.1634 432 48 439.163 48 448C48 456.837 55.1634 464 64 464Z" fill="#969FAA"/>
<path d="M64 424C50.768 424 40 434.768 40 448C40 461.232 50.768 472 64 472C77.232 472 88 461.232 88 448C88 434.768 77.232 424 64 424ZM64 456C61.8783 456 59.8434 455.157 58.3431 453.657C56.8429 452.157 56 450.122 56 448C56 445.878 56.8429 443.843 58.3431 442.343C59.8434 440.843 61.8783 440 64 440C66.1217 440 68.1566 440.843 69.6569 442.343C71.1571 443.843 72 445.878 72 448C72 450.122 71.1571 452.157 69.6569 453.657C68.1566 455.157 66.1217 456 64 456ZM128 424C114.768 424 104 434.768 104 448C104 461.232 114.768 472 128 472C141.232 472 152 461.232 152 448C152 434.768 141.232 424 128 424ZM128 456C125.878 456 123.843 455.157 122.343 453.657C120.843 452.157 120 450.122 120 448C120 445.878 120.843 443.843 122.343 442.343C123.843 440.843 125.878 440 128 440C130.122 440 132.157 440.843 133.657 442.343C135.157 443.843 136 445.878 136 448C136 450.122 135.157 452.157 133.657 453.657C132.157 455.157 130.122 456 128 456ZM192 424C178.768 424 168 434.768 168 448C168 461.232 178.768 472 192 472C205.232 472 216 461.232 216 448C216 434.768 205.232 424 192 424ZM192 456C189.878 456 187.843 455.157 186.343 453.657C184.843 452.157 184 450.122 184 448C184 445.878 184.843 443.843 186.343 442.343C187.843 440.843 189.878 440 192 440C194.122 440 196.157 440.843 197.657 442.343C199.157 443.843 200 445.878 200 448C200 450.122 199.157 452.157 197.657 453.657C196.157 455.157 194.122 456 192 456ZM256 424C242.768 424 232 434.768 232 448C232 461.232 242.768 472 256 472C269.232 472 280 461.232 280 448C280 434.768 269.232 424 256 424ZM256 456C253.878 456 251.843 455.157 250.343 453.657C248.843 452.157 248 450.122 248 448C248 445.878 248.843 443.843 250.343 442.343C251.843 440.843 253.878 440 256 440C258.122 440 260.157 440.843 261.657 442.343C263.157 443.843 264 445.878 264 448C264 450.122 263.157 452.157 261.657 453.657C260.157 455.157 258.122 456 256 456Z" fill="black"/>
<path d="M504 408V248H488V152C488 143.176 480.824 136 472 136H456C447.176 136 440 143.176 440 152V168H408V103.112C418.255 92.6764 424 78.6308 424 64C424 33.128 398.872 8 368 8H272C241.128 8 216 33.128 216 64C216 86.28 229.112 105.504 248 114.52V155.056L232 163.056V200H248V216H144C130.768 216 120 226.768 120 240V280H40V248H24V281.472C19.3341 283.117 15.2915 286.165 12.4269 290.198C9.56221 294.232 8.01586 299.053 8 304V352C8 365.232 18.768 376 32 376H104V392H64C33.128 392 8 417.128 8 448C8 478.872 33.128 504 64 504H504V488H488V408H504ZM456 152H472V168H456V152ZM472 184V200H360V184H472ZM472 216V248H456V216H472ZM360 168V120H368C376.309 119.988 384.51 118.116 392 114.52V168H360ZM248 172.944L280 156.944V184H248V172.944ZM264 147.056V119.36C266.624 119.736 269.28 120 272 120H280V139.056L264 147.056ZM280 200V256.912L264 222.248V200H280ZM56 360H32C29.8783 360 27.8434 359.157 26.3431 357.657C24.8429 356.157 24 354.122 24 352V304C24 301.878 24.8429 299.843 26.3431 298.343C27.8434 296.843 29.8783 296 32 296H56V360ZM72 360V296H136V240C136 237.878 136.843 235.843 138.343 234.343C139.843 232.843 141.878 232 144 232H250.88L295.264 328.168C295.752 329.215 296.003 330.357 296 331.512V352C296 354.122 295.157 356.157 293.657 357.657C292.157 359.157 290.122 360 288 360H248V344H232V360H216V344H200V360H184V344H168V360H72ZM280 376V397.48C272.51 393.884 264.309 392.012 256 392H184V376H280ZM168 376V392H120V376H168ZM256 488H64C41.944 488 24 470.056 24 448C24 425.944 41.944 408 64 408H256C278.056 408 296 425.944 296 448C296 470.056 278.056 488 256 488ZM344 488H295.16C300.422 482.868 304.619 476.747 307.51 469.989C310.401 463.231 311.93 455.969 312.008 448.618C312.086 441.268 310.712 433.975 307.965 427.157C305.218 420.339 301.152 414.131 296 408.888V374.528C300.666 372.883 304.708 369.835 307.573 365.802C310.438 361.768 311.984 356.947 312 352V331.512C312 328.008 311.256 324.632 309.8 321.456L296 291.568V88H344V488ZM368 88C381.232 88 392 77.232 392 64C392 50.768 381.232 40 368 40C354.768 40 344 50.768 344 64C344 66.872 344.592 69.6 345.52 72.152C345.016 72.104 344.52 72 344 72H296C295.48 72 294.984 72.104 294.48 72.152C295.408 69.6 296 66.872 296 64C296 50.768 285.232 40 272 40C258.768 40 248 50.768 248 64C248 77.232 258.768 88 272 88C274.872 88 277.6 87.408 280.152 86.48C280.104 86.984 280 87.48 280 88V104H272C249.944 104 232 86.056 232 64C232 41.944 249.944 24 272 24H368C390.056 24 408 41.944 408 64C408 86.056 390.056 104 368 104H360V88C360 87.48 359.896 86.984 359.848 86.48C362.4 87.408 365.128 88 368 88ZM360 64C360 61.8783 360.843 59.8434 362.343 58.3431C363.843 56.8429 365.878 56 368 56C370.122 56 372.157 56.8429 373.657 58.3431C375.157 59.8434 376 61.8783 376 64C376 66.1217 375.157 68.1566 373.657 69.6569C372.157 71.1571 370.122 72 368 72C365.878 72 363.843 71.1571 362.343 69.6569C360.843 68.1566 360 66.1217 360 64ZM280 64C280 66.1217 279.157 68.1566 277.657 69.6569C276.157 71.1571 274.122 72 272 72C269.878 72 267.843 71.1571 266.343 69.6569C264.843 68.1566 264 66.1217 264 64C264 61.8783 264.843 59.8434 266.343 58.3431C267.843 56.8429 269.878 56 272 56C274.122 56 276.157 56.8429 277.657 58.3431C279.157 59.8434 280 61.8783 280 64ZM440 488H360V216H440V248C431.176 248 424 255.176 424 264V408H440V488ZM472 488H456V408H472V488ZM440 392V264H488V392H440Z" fill="black"/>
<path d="M312 168H328V184H312V168ZM312 200H328V216H312V200ZM312 232H328V248H312V232ZM312 264H328V280H312V264ZM312 296H328V312H312V296ZM312 136H328V152H312V136ZM312 104H328V120H312V104ZM88 312H120V328H88V312ZM248 248H152V328H248V248ZM232 312H168V264H232V312Z" fill="black"/>
</svg>
