<svg width="18" height="25" viewBox="0 0 18 25" fill="none" xmlns="http://www.w3.org/2000/svg">
    <path
        d="M11.5139 13.0484C11.8294 13.0484 12.0853 12.7925 12.0853 12.477C12.0853 12.1614 11.8294 11.9055 11.5139 11.9055C11.1983 11.9055 10.9424 12.1614 10.9424 12.477C10.9424 12.7925 11.1983 13.0484 11.5139 13.0484Z"
        fill="#ECF4FF" />
    <path
        d="M7.32339 9.42934C7.63898 9.42934 7.89482 9.1735 7.89482 8.85791C7.89482 8.54232 7.63898 8.28649 7.32339 8.28649C7.0078 8.28649 6.75196 8.54232 6.75196 8.85791C6.75196 9.1735 7.0078 9.42934 7.32339 9.42934Z"
        fill="#ECF4FF" />
    <path
        d="M13.6988 5.7243C11.696 2.8155 9.72443 0.740741 9.64167 0.653836C9.58831 0.597926 9.52417 0.553421 9.45311 0.523014C9.38206 0.492607 9.30558 0.476929 9.22829 0.476929C9.151 0.476929 9.07452 0.492607 9.00347 0.523014C8.93242 0.553421 8.86827 0.597926 8.81491 0.653836C8.73201 0.740741 6.76049 2.81574 4.75778 5.7243C2.03645 9.67639 0.656738 13.1018 0.656738 15.9055C0.656738 20.6318 4.50187 24.4769 9.22815 24.4769C13.9544 24.4769 17.7996 20.6318 17.7996 15.9055C17.7996 13.1018 16.4198 9.67639 13.6988 5.7243ZM13.2281 12.477C13.2281 12.816 13.1276 13.1474 12.9392 13.4294C12.7509 13.7113 12.4831 13.931 12.1699 14.0607C11.8566 14.1905 11.512 14.2244 11.1794 14.1583C10.8469 14.0922 10.5414 13.9289 10.3017 13.6891C10.0619 13.4494 9.89866 13.1439 9.83252 12.8114C9.76637 12.4789 9.80032 12.1342 9.93007 11.8209C10.0598 11.5077 10.2795 11.2399 10.5615 11.0516C10.8434 10.8632 11.1748 10.7627 11.5139 10.7627C11.9684 10.7632 12.4041 10.9439 12.7255 11.2653C13.0469 11.5867 13.2276 12.0225 13.2281 12.477ZM11.4908 7.88244C11.5982 7.77672 11.7431 7.71774 11.8938 7.71835C12.0446 7.71897 12.189 7.77912 12.2956 7.88572C12.4022 7.99231 12.4623 8.13671 12.4629 8.28745C12.4636 8.43819 12.4046 8.58308 12.2989 8.69053L6.96553 14.0239C6.85808 14.1296 6.7132 14.1886 6.56245 14.1879C6.41171 14.1873 6.26731 14.1272 6.16072 14.0206C6.05412 13.914 5.99397 13.7696 5.99336 13.6188C5.99274 13.4681 6.05172 13.3232 6.15744 13.2158L11.4908 7.88244ZM7.32339 7.14363C7.66244 7.14363 7.99388 7.24417 8.27579 7.43254C8.55771 7.62091 8.77743 7.88864 8.90718 8.20189C9.03693 8.51513 9.07088 8.85982 9.00473 9.19235C8.93859 9.52489 8.77532 9.83035 8.53557 10.0701C8.29582 10.3098 7.99037 10.4731 7.65783 10.5393C7.32529 10.6054 6.98061 10.5715 6.66736 10.4417C6.35412 10.312 6.08638 10.0922 5.89802 9.81032C5.70965 9.52841 5.60911 9.19697 5.60911 8.85791C5.60961 8.40341 5.79039 7.96767 6.11177 7.64629C6.43315 7.32491 6.86889 7.14414 7.32339 7.14363ZM9.22815 22.1912C5.7622 22.1912 2.94245 19.3715 2.94245 15.9055C2.94245 15.8415 2.94378 15.7766 2.94578 15.7113C3.38892 15.4856 3.65126 15.1436 4.44578 15.1436C5.63092 15.1436 5.63092 15.9055 6.81606 15.9055C8.0012 15.9055 8.00125 15.1436 9.18643 15.1436C10.3716 15.1436 10.3716 15.9055 11.5567 15.9055C12.7419 15.9055 12.7418 15.1436 13.9269 15.1436C14.7705 15.1436 15.0139 15.5293 15.5114 15.752C15.5127 15.8034 15.514 15.8549 15.514 15.9055C15.5138 19.3715 12.6941 22.1912 9.22815 22.1912Z"
        fill="#ECF4FF" />
</svg>