<svg width="171" height="35" viewBox="0 0 171 35" fill="none" xmlns="http://www.w3.org/2000/svg">
<path d="M60.7255 18.3006L53 26.1346L54.4985 27.6542C55.9971 29.1443 57.9612 29.9705 60.0999 30C62.2095 29.9705 64.1736 29.1738 65.6722 27.6542C67.1707 26.1346 67.9855 24.1429 68 22.0037C67.9855 20.5726 67.5926 19.2005 66.8943 18.0203C65.1338 16.5744 62.3695 16.663 60.7401 18.3006" fill="#FFC829"/>
<path d="M62 12.7383L51.3882 2.32229C49.6071 0.551866 46.4939 0.566619 44.7128 2.32229L30.3742 16.3972C27.2011 19.5102 27.2161 24.5559 30.3742 27.6837C30.7633 28.0525 31.1674 28.3771 31.6165 28.6722C32.9336 29.5574 34.4902 30 36.1216 30C38.2919 30 40.3274 29.1738 41.869 27.6837L56.0131 13.7711C57.2554 12.5613 59.5304 12.4137 62 12.7383Z" fill="#FFC829"/>
<path d="M34 12.7383L23.3835 2.32229C21.6017 0.551866 18.4871 0.566619 16.7052 2.32229L2.37523 16.3972C-0.799226 19.5102 -0.784252 24.5559 2.37523 27.6837C2.76455 28.0525 3.16884 28.3771 3.60309 28.6722C4.93576 29.5574 6.49304 30 8.11021 30C10.2814 30 12.3179 29.1738 13.8602 27.6837L27.9955 13.7711C29.2533 12.5613 31.5293 12.4137 33.985 12.7383" fill="#FFC829"/>
<path d="M71.782 19V1.24H78.694C79.974 1.24 81.062 1.48 81.958 1.96C82.87 2.424 83.558 3.064 84.022 3.88C84.502 4.68 84.742 5.584 84.742 6.592C84.742 7.728 84.438 8.744 83.83 9.64C83.222 10.52 82.342 11.16 81.19 11.56L85.27 19H81.646L77.854 11.944H75.046V19H71.782ZM78.646 4.072H75.046V9.28H78.646C79.558 9.28 80.254 9.024 80.734 8.512C81.214 7.984 81.454 7.368 81.454 6.664C81.454 5.96 81.214 5.352 80.734 4.84C80.254 4.328 79.558 4.072 78.646 4.072ZM93.2709 19.24C92.1829 19.24 91.2389 19.056 90.4389 18.688C89.6549 18.304 88.9989 17.8 88.4709 17.176C87.9589 16.536 87.5749 15.824 87.3189 15.04C87.0629 14.256 86.9349 13.456 86.9349 12.64C86.9349 11.824 87.0549 11.032 87.2949 10.264C87.5509 9.48 87.9269 8.768 88.4229 8.128C88.9349 7.488 89.5829 6.984 90.3669 6.616C91.1509 6.232 92.0789 6.04 93.1509 6.04C94.3029 6.04 95.3189 6.296 96.1989 6.808C97.0789 7.32 97.7669 8.072 98.2629 9.064C98.7589 10.04 99.0069 11.256 99.0069 12.712V13.528H90.1509C90.1989 14.392 90.4949 15.144 91.0389 15.784C91.5829 16.408 92.3269 16.72 93.2709 16.72C93.8149 16.72 94.2629 16.632 94.6149 16.456C94.9669 16.28 95.2389 16.08 95.4309 15.856C95.6229 15.616 95.7589 15.416 95.8389 15.256C95.9189 15.08 95.9589 14.992 95.9589 14.992H98.9109C98.9109 14.992 98.8709 15.136 98.7909 15.424C98.7109 15.696 98.5589 16.048 98.3349 16.48C98.1269 16.896 97.8149 17.32 97.3989 17.752C96.9829 18.168 96.4389 18.52 95.7669 18.808C95.0949 19.096 94.2629 19.24 93.2709 19.24ZM90.1509 11.44H95.9349C95.8869 10.448 95.5909 9.712 95.0469 9.232C94.5029 8.752 93.8629 8.512 93.1269 8.512C92.3109 8.512 91.6309 8.776 91.0869 9.304C90.5429 9.816 90.2309 10.528 90.1509 11.44ZM101.751 19V6.28H104.943V8.056H105.063C105.223 7.768 105.447 7.472 105.735 7.168C106.023 6.848 106.391 6.584 106.839 6.376C107.303 6.152 107.871 6.04 108.543 6.04C109.487 6.04 110.263 6.264 110.871 6.712C111.479 7.16 111.927 7.736 112.215 8.44H112.263C112.583 7.832 113.055 7.28 113.679 6.784C114.319 6.288 115.167 6.04 116.223 6.04C117.119 6.04 117.863 6.248 118.455 6.664C119.063 7.064 119.511 7.608 119.799 8.296C120.103 8.984 120.255 9.728 120.255 10.528V19H117.063V11.2C117.063 10.464 116.879 9.864 116.511 9.4C116.159 8.92 115.631 8.68 114.927 8.68C114.367 8.68 113.911 8.832 113.559 9.136C113.223 9.424 112.975 9.792 112.815 10.24C112.671 10.688 112.599 11.144 112.599 11.608V19H109.407V11.2C109.407 10.464 109.231 9.864 108.879 9.4C108.527 8.92 107.991 8.68 107.271 8.68C106.711 8.68 106.255 8.832 105.903 9.136C105.567 9.424 105.319 9.8 105.159 10.264C105.015 10.712 104.943 11.16 104.943 11.608V19H101.751ZM125.185 4.312C124.625 4.312 124.161 4.128 123.793 3.76C123.441 3.392 123.265 2.952 123.265 2.44C123.265 1.928 123.441 1.488 123.793 1.12C124.161 0.751999 124.625 0.568 125.185 0.568C125.745 0.568 126.209 0.751999 126.577 1.12C126.945 1.488 127.129 1.928 127.129 2.44C127.129 2.952 126.945 3.392 126.577 3.76C126.209 4.128 125.745 4.312 125.185 4.312ZM123.601 19V6.28H126.793V19H123.601ZM130.155 19V6.28H133.347V8.104H133.491C133.619 7.88 133.819 7.608 134.091 7.288C134.363 6.952 134.739 6.664 135.219 6.424C135.699 6.168 136.307 6.04 137.043 6.04C138.019 6.04 138.819 6.264 139.443 6.712C140.083 7.144 140.555 7.72 140.859 8.44C141.179 9.16 141.339 9.936 141.339 10.768V19H138.147V11.2C138.147 10.512 137.955 9.92 137.571 9.424C137.187 8.928 136.611 8.68 135.843 8.68C135.251 8.68 134.771 8.832 134.403 9.136C134.035 9.424 133.763 9.8 133.587 10.264C133.427 10.728 133.347 11.216 133.347 11.728V19H130.155ZM150.407 19.24C149.319 19.24 148.375 19.056 147.575 18.688C146.791 18.304 146.135 17.8 145.607 17.176C145.095 16.536 144.711 15.824 144.455 15.04C144.199 14.256 144.071 13.456 144.071 12.64C144.071 11.824 144.191 11.032 144.431 10.264C144.687 9.48 145.063 8.768 145.559 8.128C146.071 7.488 146.719 6.984 147.503 6.616C148.287 6.232 149.215 6.04 150.287 6.04C151.439 6.04 152.455 6.296 153.335 6.808C154.215 7.32 154.903 8.072 155.399 9.064C155.895 10.04 156.143 11.256 156.143 12.712V13.528H147.287C147.335 14.392 147.631 15.144 148.175 15.784C148.719 16.408 149.463 16.72 150.407 16.72C150.951 16.72 151.399 16.632 151.751 16.456C152.103 16.28 152.375 16.08 152.567 15.856C152.759 15.616 152.895 15.416 152.975 15.256C153.055 15.08 153.095 14.992 153.095 14.992H156.047C156.047 14.992 156.007 15.136 155.927 15.424C155.847 15.696 155.695 16.048 155.471 16.48C155.263 16.896 154.951 17.32 154.535 17.752C154.119 18.168 153.575 18.52 152.903 18.808C152.231 19.096 151.399 19.24 150.407 19.24ZM147.287 11.44H153.071C153.023 10.448 152.727 9.712 152.183 9.232C151.639 8.752 150.999 8.512 150.263 8.512C149.447 8.512 148.767 8.776 148.223 9.304C147.679 9.816 147.367 10.528 147.287 11.44ZM157.75 19L161.71 12.664L157.726 6.28H161.086L163.846 10.744L166.654 6.28H169.99L165.91 12.664L169.99 19H166.63L163.846 14.536L161.086 19H157.75Z" fill="white"/>
<path d="M72.2942 32V23.12H74.4662L76.6862 27.932L78.9542 23.12H81.0902V32H79.4822V25.58L77.4422 29.852H75.9302L73.9022 25.556V32H72.2942ZM85.4206 25.52C85.8286 25.52 86.1646 25.588 86.4286 25.724C86.6926 25.852 86.9006 25.996 87.0526 26.156C87.2046 26.308 87.3086 26.432 87.3646 26.528H87.4366V25.64H89.0326V32H87.4366V31.112H87.3646C87.3086 31.208 87.2046 31.336 87.0526 31.496C86.9006 31.656 86.6926 31.8 86.4286 31.928C86.1646 32.056 85.8286 32.12 85.4206 32.12C84.9486 32.12 84.5366 32.028 84.1846 31.844C83.8326 31.652 83.5366 31.4 83.2966 31.088C83.0646 30.768 82.8886 30.412 82.7686 30.02C82.6566 29.628 82.6006 29.228 82.6006 28.82C82.6006 28.412 82.6566 28.012 82.7686 27.62C82.8886 27.228 83.0646 26.876 83.2966 26.564C83.5366 26.244 83.8326 25.992 84.1846 25.808C84.5366 25.616 84.9486 25.52 85.4206 25.52ZM85.8406 26.828C85.4806 26.828 85.1766 26.928 84.9286 27.128C84.6886 27.32 84.5086 27.568 84.3886 27.872C84.2686 28.176 84.2086 28.492 84.2086 28.82C84.2086 29.148 84.2686 29.464 84.3886 29.768C84.5086 30.072 84.6886 30.324 84.9286 30.524C85.1766 30.716 85.4806 30.812 85.8406 30.812C86.2006 30.812 86.5006 30.716 86.7406 30.524C86.9806 30.324 87.1606 30.072 87.2806 29.768C87.4006 29.464 87.4606 29.148 87.4606 28.82C87.4606 28.492 87.4006 28.176 87.2806 27.872C87.1606 27.568 86.9806 27.32 86.7406 27.128C86.5006 26.928 86.2006 26.828 85.8406 26.828ZM90.594 32V25.64H92.19V26.552H92.262C92.326 26.44 92.426 26.304 92.562 26.144C92.698 25.976 92.886 25.832 93.126 25.712C93.366 25.584 93.67 25.52 94.038 25.52C94.526 25.52 94.926 25.632 95.238 25.856C95.558 26.072 95.794 26.36 95.946 26.72C96.106 27.08 96.186 27.468 96.186 27.884V32H94.59V28.1C94.59 27.756 94.494 27.46 94.302 27.212C94.11 26.964 93.822 26.84 93.438 26.84C93.142 26.84 92.902 26.916 92.718 27.068C92.534 27.212 92.398 27.4 92.31 27.632C92.23 27.864 92.19 28.108 92.19 28.364V32H90.594ZM100.395 25.52C100.803 25.52 101.139 25.588 101.403 25.724C101.667 25.852 101.875 25.996 102.027 26.156C102.179 26.308 102.283 26.432 102.339 26.528H102.411V25.64H104.007V32H102.411V31.112H102.339C102.283 31.208 102.179 31.336 102.027 31.496C101.875 31.656 101.667 31.8 101.403 31.928C101.139 32.056 100.803 32.12 100.395 32.12C99.923 32.12 99.511 32.028 99.159 31.844C98.807 31.652 98.511 31.4 98.271 31.088C98.039 30.768 97.863 30.412 97.743 30.02C97.631 29.628 97.575 29.228 97.575 28.82C97.575 28.412 97.631 28.012 97.743 27.62C97.863 27.228 98.039 26.876 98.271 26.564C98.511 26.244 98.807 25.992 99.159 25.808C99.511 25.616 99.923 25.52 100.395 25.52ZM100.815 26.828C100.455 26.828 100.151 26.928 99.903 27.128C99.663 27.32 99.483 27.568 99.363 27.872C99.243 28.176 99.183 28.492 99.183 28.82C99.183 29.148 99.243 29.464 99.363 29.768C99.483 30.072 99.663 30.324 99.903 30.524C100.151 30.716 100.455 30.812 100.815 30.812C101.175 30.812 101.475 30.716 101.715 30.524C101.955 30.324 102.135 30.072 102.255 29.768C102.375 29.464 102.435 29.148 102.435 28.82C102.435 28.492 102.375 28.176 102.255 27.872C102.135 27.568 101.955 27.32 101.715 27.128C101.475 26.928 101.175 26.828 100.815 26.828ZM108.784 34.544C108.216 34.544 107.744 34.468 107.368 34.316C107 34.172 106.708 33.992 106.492 33.776C106.276 33.568 106.116 33.356 106.012 33.14C105.908 32.924 105.84 32.744 105.808 32.6C105.776 32.456 105.76 32.384 105.76 32.384H107.32C107.32 32.384 107.336 32.428 107.368 32.516C107.4 32.604 107.464 32.704 107.56 32.816C107.664 32.936 107.812 33.04 108.004 33.128C108.196 33.216 108.452 33.26 108.772 33.26C109.332 33.26 109.736 33.1 109.984 32.78C110.232 32.46 110.356 32.072 110.356 31.616V30.908H110.284C110.196 31.044 110.068 31.192 109.9 31.352C109.74 31.512 109.528 31.648 109.264 31.76C109.008 31.872 108.696 31.928 108.328 31.928C107.856 31.928 107.444 31.836 107.092 31.652C106.74 31.468 106.444 31.224 106.204 30.92C105.964 30.616 105.784 30.276 105.664 29.9C105.552 29.516 105.496 29.124 105.496 28.724C105.496 28.324 105.552 27.936 105.664 27.56C105.784 27.176 105.964 26.832 106.204 26.528C106.444 26.216 106.74 25.972 107.092 25.796C107.444 25.612 107.856 25.52 108.328 25.52C108.696 25.52 109.008 25.576 109.264 25.688C109.528 25.8 109.74 25.936 109.9 26.096C110.068 26.248 110.196 26.392 110.284 26.528H110.356V25.64H111.952V31.604C111.952 32.156 111.836 32.652 111.604 33.092C111.372 33.54 111.02 33.892 110.548 34.148C110.084 34.412 109.496 34.544 108.784 34.544ZM108.748 30.644C109.108 30.644 109.408 30.552 109.648 30.368C109.888 30.176 110.068 29.936 110.188 29.648C110.308 29.352 110.368 29.044 110.368 28.724C110.368 28.396 110.308 28.088 110.188 27.8C110.068 27.504 109.888 27.264 109.648 27.08C109.408 26.896 109.108 26.804 108.748 26.804C108.38 26.804 108.072 26.896 107.824 27.08C107.584 27.264 107.404 27.504 107.284 27.8C107.164 28.088 107.104 28.396 107.104 28.724C107.104 29.044 107.164 29.352 107.284 29.648C107.404 29.936 107.584 30.176 107.824 30.368C108.072 30.552 108.38 30.644 108.748 30.644ZM116.421 32.12C115.877 32.12 115.405 32.028 115.005 31.844C114.613 31.652 114.285 31.4 114.021 31.088C113.765 30.768 113.573 30.412 113.445 30.02C113.317 29.628 113.253 29.228 113.253 28.82C113.253 28.412 113.313 28.016 113.433 27.632C113.561 27.24 113.749 26.884 113.997 26.564C114.253 26.244 114.577 25.992 114.969 25.808C115.361 25.616 115.825 25.52 116.361 25.52C116.937 25.52 117.445 25.648 117.885 25.904C118.325 26.16 118.669 26.536 118.917 27.032C119.165 27.52 119.289 28.128 119.289 28.856V29.264H114.861C114.885 29.696 115.033 30.072 115.305 30.392C115.577 30.704 115.949 30.86 116.421 30.86C116.693 30.86 116.917 30.816 117.093 30.728C117.269 30.64 117.405 30.54 117.501 30.428C117.597 30.308 117.665 30.208 117.705 30.128C117.745 30.04 117.765 29.996 117.765 29.996H119.241C119.241 29.996 119.221 30.068 119.181 30.212C119.141 30.348 119.065 30.524 118.953 30.74C118.849 30.948 118.693 31.16 118.485 31.376C118.277 31.584 118.005 31.76 117.669 31.904C117.333 32.048 116.917 32.12 116.421 32.12ZM114.861 28.22H117.753C117.729 27.724 117.581 27.356 117.309 27.116C117.037 26.876 116.717 26.756 116.349 26.756C115.941 26.756 115.601 26.888 115.329 27.152C115.057 27.408 114.901 27.764 114.861 28.22ZM120.683 32V25.64H122.279V26.528H122.339C122.419 26.384 122.531 26.236 122.675 26.084C122.819 25.924 123.003 25.792 123.227 25.688C123.459 25.576 123.743 25.52 124.079 25.52C124.551 25.52 124.939 25.632 125.243 25.856C125.547 26.08 125.771 26.368 125.915 26.72H125.939C126.099 26.416 126.335 26.14 126.647 25.892C126.967 25.644 127.391 25.52 127.919 25.52C128.367 25.52 128.739 25.624 129.035 25.832C129.339 26.032 129.563 26.304 129.707 26.648C129.859 26.992 129.935 27.364 129.935 27.764V32H128.339V28.1C128.339 27.732 128.247 27.432 128.063 27.2C127.887 26.96 127.623 26.84 127.271 26.84C126.991 26.84 126.763 26.916 126.587 27.068C126.419 27.212 126.295 27.396 126.215 27.62C126.143 27.844 126.107 28.072 126.107 28.304V32H124.511V28.1C124.511 27.732 124.423 27.432 124.247 27.2C124.071 26.96 123.803 26.84 123.443 26.84C123.163 26.84 122.935 26.916 122.759 27.068C122.591 27.212 122.467 27.4 122.387 27.632C122.315 27.856 122.279 28.08 122.279 28.304V32H120.683ZM138.475 32.12C137.731 32.12 137.083 31.992 136.531 31.736C135.979 31.48 135.519 31.136 135.151 30.704C134.791 30.264 134.519 29.776 134.335 29.24C134.159 28.696 134.071 28.14 134.071 27.572C134.071 27.004 134.159 26.448 134.335 25.904C134.519 25.36 134.795 24.872 135.163 24.44C135.531 24 135.995 23.652 136.555 23.396C137.115 23.132 137.767 23 138.511 23C139.095 23 139.595 23.076 140.011 23.228C140.435 23.372 140.787 23.56 141.067 23.792C141.355 24.024 141.583 24.272 141.751 24.536C141.927 24.792 142.059 25.036 142.147 25.268C142.235 25.5 142.295 25.692 142.327 25.844C142.359 25.988 142.375 26.06 142.375 26.06H140.743C140.743 26.06 140.727 26.008 140.695 25.904C140.671 25.792 140.615 25.656 140.527 25.496C140.439 25.336 140.311 25.176 140.143 25.016C139.983 24.856 139.771 24.724 139.507 24.62C139.243 24.508 138.915 24.452 138.523 24.452C138.051 24.452 137.639 24.54 137.287 24.716C136.943 24.892 136.655 25.128 136.423 25.424C136.191 25.72 136.019 26.052 135.907 26.42C135.795 26.788 135.739 27.164 135.739 27.548C135.739 28.068 135.843 28.568 136.051 29.048C136.259 29.528 136.567 29.92 136.975 30.224C137.391 30.528 137.903 30.68 138.511 30.68C139.215 30.68 139.771 30.488 140.179 30.104C140.595 29.72 140.831 29.208 140.887 28.568H138.463V27.272H142.471V27.932C142.471 28.852 142.295 29.624 141.943 30.248C141.591 30.864 141.111 31.332 140.503 31.652C139.903 31.964 139.227 32.12 138.475 32.12ZM143.778 32V25.64H145.362V26.516H145.422C145.534 26.268 145.718 26.04 145.974 25.832C146.23 25.624 146.614 25.52 147.126 25.52C147.286 25.52 147.418 25.532 147.522 25.556C147.626 25.572 147.678 25.58 147.678 25.58V27.128C147.678 27.128 147.618 27.12 147.498 27.104C147.386 27.088 147.246 27.08 147.078 27.08C146.518 27.08 146.094 27.236 145.806 27.548C145.518 27.86 145.374 28.364 145.374 29.06V32H143.778ZM151.644 32.12C150.948 32.12 150.356 31.964 149.868 31.652C149.38 31.34 149.008 30.936 148.752 30.44C148.504 29.936 148.38 29.396 148.38 28.82C148.38 28.244 148.504 27.708 148.752 27.212C149.008 26.708 149.38 26.3 149.868 25.988C150.356 25.676 150.948 25.52 151.644 25.52C152.348 25.52 152.94 25.676 153.42 25.988C153.908 26.3 154.276 26.708 154.524 27.212C154.78 27.708 154.908 28.244 154.908 28.82C154.908 29.396 154.78 29.936 154.524 30.44C154.276 30.936 153.908 31.34 153.42 31.652C152.94 31.964 152.348 32.12 151.644 32.12ZM151.644 30.788C152.004 30.788 152.304 30.696 152.544 30.512C152.792 30.328 152.98 30.088 153.108 29.792C153.236 29.488 153.3 29.164 153.3 28.82C153.3 28.468 153.236 28.144 153.108 27.848C152.98 27.552 152.792 27.312 152.544 27.128C152.304 26.944 152.004 26.852 151.644 26.852C151.292 26.852 150.992 26.944 150.744 27.128C150.496 27.312 150.308 27.552 150.18 27.848C150.052 28.144 149.988 28.468 149.988 28.82C149.988 29.164 150.052 29.488 150.18 29.792C150.308 30.088 150.496 30.328 150.744 30.512C150.992 30.696 151.292 30.788 151.644 30.788ZM158.366 32.12C157.702 32.12 157.198 31.916 156.854 31.508C156.518 31.1 156.35 30.576 156.35 29.936V25.64H157.934V29.672C157.934 30.016 158.026 30.292 158.21 30.5C158.394 30.7 158.654 30.8 158.99 30.8C159.286 30.8 159.526 30.724 159.71 30.572C159.894 30.42 160.026 30.224 160.106 29.984C160.194 29.744 160.238 29.496 160.238 29.24V25.64H161.834V32H160.238V31.088H160.166C160.086 31.232 159.97 31.384 159.818 31.544C159.674 31.704 159.482 31.84 159.242 31.952C159.01 32.064 158.718 32.12 158.366 32.12ZM163.488 34.352V25.64H165.084V26.528H165.168C165.224 26.432 165.324 26.304 165.468 26.144C165.62 25.984 165.828 25.84 166.092 25.712C166.356 25.584 166.692 25.52 167.1 25.52C167.58 25.52 167.996 25.616 168.348 25.808C168.7 25.992 168.992 26.244 169.224 26.564C169.456 26.876 169.628 27.228 169.74 27.62C169.86 28.012 169.92 28.412 169.92 28.82C169.92 29.228 169.86 29.628 169.74 30.02C169.628 30.412 169.456 30.768 169.224 31.088C168.992 31.4 168.7 31.652 168.348 31.844C167.996 32.028 167.58 32.12 167.1 32.12C166.692 32.12 166.356 32.056 166.092 31.928C165.828 31.792 165.62 31.644 165.468 31.484C165.324 31.324 165.224 31.2 165.168 31.112H165.084V34.352H163.488ZM165.06 28.82C165.06 29.148 165.12 29.464 165.24 29.768C165.36 30.072 165.54 30.324 165.78 30.524C166.02 30.716 166.32 30.812 166.68 30.812C167.048 30.812 167.352 30.716 167.592 30.524C167.832 30.324 168.012 30.072 168.132 29.768C168.252 29.464 168.312 29.148 168.312 28.82C168.312 28.492 168.252 28.176 168.132 27.872C168.012 27.568 167.832 27.32 167.592 27.128C167.352 26.928 167.048 26.828 166.68 26.828C166.32 26.828 166.02 26.928 165.78 27.128C165.54 27.32 165.36 27.568 165.24 27.872C165.12 28.176 165.06 28.492 165.06 28.82Z" fill="white" fill-opacity="0.67"/>
</svg>
