<svg width="170" height="32" viewBox="0 0 170 32" fill="none" xmlns="http://www.w3.org/2000/svg">
<g clip-path="url(#clip0_1823_61)">
<path d="M60.7255 17.3006L53 25.1346L54.4985 26.6542C55.9971 28.1443 57.9612 28.9705 60.0999 29C62.2095 28.9705 64.1736 28.1738 65.6722 26.6542C67.1707 25.1346 67.9855 23.1429 68 21.0037C67.9855 19.5726 67.5926 18.2005 66.8943 17.0203C65.1338 15.5744 62.3695 15.663 60.7401 17.3006" fill="#F5A81C"/>
<path d="M62 11.7383L51.3882 1.32229C49.6071 -0.448134 46.4939 -0.43338 44.7128 1.32229L30.3742 15.3972C27.2011 18.5102 27.2161 23.5559 30.3742 26.6837C30.7633 27.0525 31.1674 27.3771 31.6165 27.6722C32.9336 28.5574 34.4902 29 36.1216 29C38.2919 29 40.3274 28.1738 41.869 26.6837L56.0131 12.7711C57.2554 11.5613 59.5304 11.4137 62 11.7383Z" fill="#F5A81C"/>
<path d="M34 11.7383L23.3835 1.32229C21.6017 -0.448134 18.4871 -0.433381 16.7052 1.32229L2.37523 15.3972C-0.799226 18.5102 -0.784252 23.5559 2.37523 26.6837C2.76455 27.0525 3.16884 27.3771 3.60309 27.6722C4.93576 28.5574 6.49304 29 8.11021 29C10.2814 29 12.3179 28.1738 13.8602 26.6837L27.9955 12.7711C29.2533 11.5613 31.5293 11.4137 33.985 11.7383" fill="#F5A81C"/>
<path d="M72 16.8324V3.03833H75.8996L78.9844 13.8059L82.0808 3.03833H85.992V16.8324H83.7337V5.51778H83.4311L80.1601 16.262H77.8087L74.5377 5.51778H74.235V16.8324H72Z" fill="white"/>
<path d="M91.4506 12.3624C90.5194 12.4439 90.0537 12.9444 90.0537 13.8756C90.0537 14.8069 90.4612 15.2609 91.2876 15.2609C91.9628 15.2609 92.6729 15.1561 93.4295 14.9349L93.7904 14.8185V12.1412L91.4506 12.3624ZM95.9788 9.87128V14.4577C95.9904 14.7487 96.0719 14.9699 96.2116 15.1095C96.3513 15.2492 96.5725 15.3424 96.8751 15.3773L96.8169 17.0419C95.6529 17.0419 94.7682 16.7974 94.1279 16.2969C93.057 16.7974 91.9744 17.0419 90.8802 17.0419C88.878 17.0419 87.877 15.971 87.877 13.8407C87.877 12.8164 88.1563 12.083 88.6918 11.629C89.2389 11.175 90.077 10.8957 91.2062 10.8025L93.8137 10.5814V9.85964C93.8137 9.32417 93.6973 8.95167 93.4528 8.7305C93.22 8.52097 92.8708 8.41621 92.4168 8.41621C91.5554 8.41621 90.4728 8.47441 89.1807 8.57917L88.5288 8.62574L88.4473 7.07754C89.9141 6.72832 91.2644 6.55371 92.4983 6.55371C93.7322 6.55371 94.6169 6.82144 95.164 7.34527C95.7111 7.8691 95.9904 8.71886 95.9904 9.87128" fill="white"/>
<path d="M100.542 16.8323H98.3418V6.76316H100.519V7.39176C101.508 6.83301 102.428 6.54199 103.312 6.54199C104.663 6.54199 105.582 6.92613 106.071 7.68277C106.56 8.43941 106.805 9.69659 106.805 11.4427V16.8323H104.616V11.5009C104.616 10.4183 104.5 9.63839 104.267 9.18441C104.034 8.73042 103.545 8.49761 102.823 8.49761C102.137 8.49761 101.473 8.62566 100.845 8.90503L100.542 9.02144V16.8323Z" fill="white"/>
<path d="M111.914 12.3624C110.983 12.4439 110.517 12.9444 110.517 13.8756C110.517 14.8069 110.937 15.2609 111.751 15.2609C112.427 15.2609 113.137 15.1561 113.893 14.9349L114.254 14.8185V12.1412L111.914 12.3624ZM116.443 9.87128V14.4577C116.454 14.7487 116.536 14.9699 116.675 15.1095C116.815 15.2492 117.036 15.3424 117.327 15.3773L117.269 17.0419C116.105 17.0419 115.209 16.7974 114.58 16.2969C113.497 16.7974 112.415 17.0419 111.332 17.0419C109.33 17.0419 108.317 15.971 108.317 13.8407C108.317 12.8164 108.597 12.083 109.144 11.629C109.691 11.175 110.529 10.8957 111.658 10.8025L114.266 10.5814V9.85964C114.266 9.32417 114.149 8.95167 113.905 8.7305C113.672 8.52097 113.323 8.41621 112.869 8.41621C112.007 8.41621 110.925 8.47441 109.633 8.57917L108.993 8.62574L108.911 7.07754C110.378 6.72832 111.728 6.55371 112.962 6.55371C114.196 6.55371 115.081 6.82144 115.628 7.34527C116.175 7.8691 116.443 8.71886 116.443 9.87128Z" fill="white"/>
<path d="M121.088 11.4311C121.379 11.7221 121.868 11.8618 122.52 11.8618C123.171 11.8618 123.649 11.7221 123.94 11.4311C124.231 11.1401 124.37 10.6861 124.37 10.0692C124.37 9.45221 124.219 8.99823 123.928 8.70721C123.625 8.4162 123.148 8.27651 122.496 8.27651C121.251 8.27651 120.634 8.87018 120.634 10.0692C120.634 10.6861 120.785 11.1401 121.076 11.4311M120.471 18.4038C120.471 18.8695 120.657 19.207 121.041 19.4049C121.414 19.6028 122.066 19.7076 122.985 19.7076C124.615 19.7076 125.43 19.242 125.43 18.3223C125.43 17.7985 125.29 17.4609 124.999 17.3213C124.708 17.1816 124.138 17.1001 123.276 17.0884L121.297 16.972C121.006 17.2165 120.797 17.4377 120.669 17.6472C120.541 17.8567 120.482 18.1128 120.482 18.4038M127.63 18.2059C127.63 20.406 126.035 21.5119 122.845 21.5119C121.309 21.5119 120.168 21.3023 119.423 20.8833C118.678 20.4642 118.306 19.7076 118.306 18.6134C118.306 18.1128 118.434 17.6938 118.667 17.3329C118.911 16.972 119.295 16.5879 119.842 16.1805C119.4 15.8895 119.179 15.4006 119.179 14.7138C119.179 14.446 119.365 14.0153 119.726 13.41L119.9 13.1074C118.934 12.537 118.445 11.5242 118.445 10.0924C118.445 8.88182 118.806 7.99714 119.54 7.43839C120.261 6.87964 121.251 6.58862 122.485 6.58862C123.078 6.58862 123.66 6.65847 124.242 6.78651L124.545 6.84472L127.676 6.76323V8.42784H126C126.361 8.9051 126.547 9.45221 126.547 10.0808C126.547 11.3962 126.21 12.3042 125.546 12.8047C124.883 13.3052 123.835 13.5613 122.426 13.5613C122.077 13.5613 121.786 13.5381 121.542 13.4799C121.355 13.9338 121.262 14.2947 121.262 14.5392C121.262 14.7836 121.39 14.9582 121.635 15.0513C121.879 15.1445 122.485 15.2027 123.439 15.2143C125.046 15.2259 126.14 15.4471 126.733 15.8545C127.327 16.2736 127.618 17.0535 127.618 18.2059" fill="white"/>
<path d="M134.987 11.0353C134.987 10.0459 134.824 9.34745 134.51 8.95167C134.195 8.55589 133.66 8.358 132.903 8.358C132.147 8.358 131.599 8.56753 131.262 8.9866C130.913 9.40566 130.738 10.0808 130.726 11.0353H134.987ZM136.198 15.0164L136.768 14.9582L136.803 16.5879C135.266 16.8906 133.904 17.0535 132.729 17.0535C131.227 17.0535 130.156 16.6461 129.504 15.8313C128.852 15.0164 128.526 13.701 128.526 11.9084C128.526 8.33472 129.981 6.55371 132.915 6.55371C135.848 6.55371 137.164 8.09027 137.164 11.1634L137.024 12.7349H130.761C130.773 13.5613 130.959 14.1783 131.308 14.5741C131.658 14.9582 132.31 15.1561 133.264 15.1561C134.219 15.1561 135.208 15.1095 136.209 15.0397" fill="white"/>
<path d="M141.063 16.8323H138.863V6.76316H141.052V7.39176C142.006 6.83301 142.879 6.54199 143.682 6.54199C144.858 6.54199 145.708 6.86793 146.243 7.53144C147.466 6.87957 148.688 6.54199 149.899 6.54199C151.109 6.54199 151.959 6.91449 152.459 7.65949C152.96 8.40449 153.204 9.66167 153.204 11.431V16.8206H151.028V11.4892C151.028 10.4067 150.923 9.62675 150.69 9.17277C150.469 8.71878 150.003 8.48597 149.305 8.48597C148.7 8.48597 148.048 8.61402 147.349 8.89339L147.012 9.03308C147.116 9.30081 147.175 10.1622 147.175 11.6057V16.8206H144.998V11.6522C144.998 10.4532 144.893 9.63839 144.672 9.17277C144.462 8.71878 143.985 8.48597 143.263 8.48597C142.588 8.48597 141.96 8.61402 141.378 8.89339L141.075 9.0098V16.8206L141.063 16.8323Z" fill="white"/>
<path d="M73.6152 27.7702C73.2893 27.584 73.0332 27.3046 72.8586 26.9554C72.6839 26.5945 72.5908 26.1755 72.5908 25.6866C72.5908 25.1162 72.6839 24.6273 72.8818 24.2082C73.0797 23.7891 73.3591 23.4632 73.7316 23.2304C74.1041 22.9976 74.5348 22.8928 75.0353 22.8928C75.4078 22.8928 75.7454 22.951 76.0481 23.0558C76.3507 23.1606 76.6185 23.3235 76.828 23.5331L76.5603 23.9754C76.3391 23.7775 76.1063 23.6262 75.8618 23.5331C75.6174 23.4399 75.3496 23.3934 75.0353 23.3934C74.4533 23.3934 73.9993 23.5913 73.6734 23.9987C73.3475 24.4061 73.1845 24.9649 73.1845 25.6866C73.1845 26.2802 73.3242 26.7459 73.6152 27.0602C73.9062 27.3861 74.302 27.5374 74.8375 27.5374C75.3729 27.5374 75.8618 27.3395 76.3275 26.9554L76.5137 27.3977C76.0597 27.8284 75.4777 28.038 74.756 28.038C74.3136 28.038 73.9295 27.9448 73.6036 27.7586" fill="white"/>
<path d="M79.6556 24.3715L79.609 24.8953C79.481 24.8604 79.3646 24.8371 79.2365 24.8371C78.8873 24.8371 78.6196 24.9419 78.4333 25.1631C78.2471 25.3726 78.1423 25.6403 78.1307 25.9546L77.9561 27.9917H77.374L77.5836 25.4192C77.6068 25.0932 77.6068 24.8604 77.6068 24.6974C77.6068 24.5694 77.6068 24.4879 77.6068 24.4181H78.1539V24.9885C78.2703 24.7789 78.4333 24.616 78.6545 24.4996C78.8757 24.3832 79.0968 24.325 79.3413 24.325C79.4693 24.325 79.5741 24.3366 79.6672 24.3715" fill="white"/>
<path d="M80.8438 25.0349C80.6459 25.2095 80.5062 25.4656 80.448 25.8032H82.5666C82.5666 25.4773 82.4851 25.2212 82.3221 25.0349C82.1592 24.8603 81.9147 24.7672 81.6237 24.7672C81.3327 24.7672 81.0533 24.8603 80.8554 25.0349M80.4131 26.1874V26.327C80.4131 26.7228 80.5062 27.0255 80.7041 27.2467C80.902 27.4678 81.1814 27.5726 81.5539 27.5726C81.9962 27.5726 82.392 27.4329 82.7296 27.1652L82.9042 27.5842C82.7528 27.7239 82.555 27.8403 82.2989 27.9218C82.0428 28.0033 81.7983 28.0499 81.5422 28.0499C81.193 28.0499 80.8903 27.98 80.6343 27.8403C80.3782 27.7006 80.1803 27.4911 80.0406 27.235C79.9009 26.9789 79.8311 26.6763 79.8311 26.327C79.8311 25.9429 79.9009 25.5937 80.0522 25.291C80.1919 24.9884 80.4014 24.7556 80.6692 24.5926C80.9369 24.4296 81.2512 24.3481 81.6004 24.3481C82.0544 24.3481 82.4153 24.4762 82.683 24.7439C82.9507 25.0117 83.0788 25.3842 83.0788 25.8731C83.0788 25.9778 83.0788 26.0826 83.0555 26.199H80.4131V26.1874Z" fill="white"/>
<path d="M86.2088 27.1653C86.4183 26.8975 86.5114 26.525 86.5114 26.0594C86.5114 25.652 86.4183 25.3377 86.2321 25.1282C86.0458 24.9186 85.7781 24.8139 85.4405 24.8139C85.1029 24.8139 84.8003 24.9419 84.5907 25.2096C84.3929 25.4774 84.2881 25.8499 84.2881 26.3155C84.2881 26.7113 84.3812 27.0139 84.5791 27.2351C84.777 27.4563 85.0331 27.561 85.3823 27.561C85.7315 27.561 86.0109 27.4213 86.2204 27.1536M87.2215 24.4064L86.9305 27.9801H86.3718L86.4183 27.4097C86.3019 27.6076 86.1389 27.7589 85.9294 27.8753C85.7199 27.9801 85.4871 28.0383 85.231 28.0383C84.9283 28.0383 84.6606 27.9685 84.4278 27.8288C84.195 27.6891 84.0204 27.4912 83.8923 27.2235C83.7643 26.9674 83.7061 26.6647 83.7061 26.3039C83.7061 25.9081 83.7759 25.5705 83.9156 25.2678C84.0553 24.9652 84.2532 24.744 84.5093 24.5694C84.7654 24.4064 85.0564 24.325 85.3939 24.325C85.685 24.325 85.9294 24.3832 86.1389 24.5112C86.3485 24.6392 86.5114 24.8139 86.6162 25.035L86.6628 24.4064H87.2215Z" fill="white"/>
<path d="M88.922 26.8277V26.9441C88.922 27.1653 88.9686 27.3283 89.0617 27.4098C89.1665 27.5029 89.3062 27.5378 89.4924 27.5378C89.6321 27.5378 89.7602 27.5145 89.8649 27.4796L89.83 27.9569C89.6903 28.0034 89.5273 28.0267 89.3411 28.0267C89.0268 28.0267 88.7707 27.9452 88.5961 27.7706C88.4215 27.6076 88.3284 27.3516 88.3284 27.0256C88.3284 26.9674 88.3284 26.9209 88.3284 26.8859L88.4797 24.8605H87.7812L87.8162 24.4065H88.5146L88.5845 23.4869L89.1781 23.2773L89.0966 24.3948H90.121L90.0744 24.8488H89.0501L88.8987 26.8044L88.922 26.8277Z" fill="white"/>
<path d="M90.9825 22.9045H91.8789L91.8207 23.5564H90.9127L90.9825 22.9045ZM90.5635 27.9915L90.9243 24.4178H91.6577L91.2968 27.9915H90.5635Z" fill="white"/>
<path d="M95.1843 24.6509C95.3939 24.8604 95.4986 25.1747 95.4986 25.5705C95.4986 25.652 95.4986 25.7218 95.4986 25.7684L95.324 28.0034H94.7536L94.9282 25.8149C94.9282 25.8149 94.9282 25.7335 94.9282 25.6636C94.9282 25.1049 94.6605 24.8371 94.125 24.8371C93.7875 24.8371 93.5197 24.9303 93.3218 25.1398C93.1239 25.3377 93.0075 25.617 92.9843 25.9663L92.8213 28.015H92.2393L92.4488 25.4424C92.4721 25.2445 92.4837 25.0234 92.4837 24.7789C92.4837 24.6276 92.4837 24.5228 92.4837 24.4413H93.0308V25.035C93.1589 24.8138 93.3335 24.6509 93.543 24.5345C93.7642 24.4181 94.0086 24.3599 94.2764 24.3599C94.6721 24.3599 94.9864 24.4646 95.196 24.6742" fill="white"/>
<path d="M98.8853 27.0255C99.0948 26.7694 99.1996 26.4202 99.1996 25.9895C99.1996 25.6053 99.1065 25.3143 98.9086 25.1164C98.7107 24.9069 98.443 24.8138 98.0937 24.8138C97.7445 24.8138 97.4535 24.9418 97.244 25.1979C97.0345 25.454 96.9297 25.8032 96.9297 26.2456C96.9297 26.6297 97.0228 26.9207 97.2091 27.1186C97.3953 27.3165 97.6747 27.4213 98.0239 27.4213C98.3731 27.4213 98.6758 27.2932 98.8737 27.0371M99.8748 24.4296L99.5837 27.9684C99.5023 29.0509 98.9319 29.5864 97.8959 29.5864C97.3487 29.5864 96.8715 29.4584 96.4641 29.2139L96.6154 28.7483C96.8366 28.888 97.0461 28.9811 97.244 29.0393C97.4419 29.0975 97.663 29.1208 97.9075 29.1208C98.5827 29.1208 98.9552 28.7483 99.025 28.0033L99.0832 27.2699C98.9668 27.4678 98.8038 27.6192 98.5943 27.7356C98.3848 27.8403 98.1403 27.8985 97.8959 27.8985C97.4186 27.8985 97.0461 27.7472 96.7667 27.4445C96.4873 27.1419 96.3477 26.7461 96.3477 26.2456C96.3477 25.8731 96.4175 25.5355 96.5572 25.2561C96.6969 24.9651 96.8948 24.7439 97.1509 24.581C97.407 24.418 97.698 24.3481 98.0355 24.3481C98.3266 24.3481 98.571 24.4063 98.7922 24.5344C99.0017 24.6508 99.1647 24.8254 99.2694 25.0466L99.316 24.4296H99.8864H99.8748Z" fill="white"/>
<path d="M105.428 24.4297H106.022L104.206 27.9917H103.647L102.39 24.4297H102.983L103.973 27.3748L105.428 24.4297Z" fill="white"/>
<path d="M108.768 27.1653C108.978 26.8975 109.071 26.525 109.071 26.0594C109.071 25.652 108.978 25.3377 108.792 25.1282C108.605 24.9186 108.338 24.8139 107.988 24.8139C107.639 24.8139 107.348 24.9419 107.139 25.2096C106.941 25.4774 106.836 25.8499 106.836 26.3155C106.836 26.7113 106.929 27.0139 107.127 27.2351C107.313 27.4563 107.581 27.561 107.93 27.561C108.279 27.561 108.559 27.4213 108.768 27.1536M109.769 24.4064L109.478 27.9801H108.92L108.966 27.4097C108.85 27.6076 108.687 27.7589 108.477 27.8753C108.268 27.9801 108.035 28.0383 107.779 28.0383C107.476 28.0383 107.208 27.9685 106.976 27.8288C106.743 27.6891 106.568 27.4912 106.44 27.2235C106.312 26.9674 106.254 26.6647 106.254 26.3039C106.254 25.9081 106.324 25.5705 106.463 25.2678C106.603 24.9652 106.801 24.744 107.057 24.5694C107.313 24.4064 107.604 24.325 107.942 24.325C108.233 24.325 108.477 24.3832 108.687 24.5112C108.896 24.6392 109.059 24.8139 109.164 25.035L109.211 24.4064H109.769Z" fill="white"/>
<path d="M110.608 27.9915L111.167 22.7649H111.935L111.377 27.9915H110.608Z" fill="white"/>
<path d="M115.59 24.4181L115.311 27.9918H114.752L114.798 27.4098C114.682 27.6193 114.519 27.7706 114.309 27.8754C114.1 27.9802 113.867 28.0384 113.611 28.0384C113.227 28.0384 112.924 27.9336 112.715 27.7241C112.505 27.5145 112.4 27.2119 112.4 26.8161C112.4 26.723 112.4 26.6531 112.4 26.6066L112.575 24.4065H113.157L112.982 26.5716C112.982 26.5716 112.982 26.6531 112.982 26.723C112.982 27.2817 113.239 27.5495 113.762 27.5495C114.088 27.5495 114.344 27.4563 114.542 27.2468C114.74 27.0489 114.845 26.7695 114.88 26.4203L115.043 24.4065H115.613L115.59 24.4181Z" fill="white"/>
<path d="M117.371 25.0349C117.173 25.2095 117.033 25.4656 116.975 25.8032H119.094C119.094 25.4773 119.012 25.2212 118.849 25.0349C118.686 24.8603 118.442 24.7672 118.151 24.7672C117.86 24.7672 117.581 24.8603 117.383 25.0349M116.94 26.1874V26.327C116.94 26.7228 117.033 27.0255 117.231 27.2467C117.429 27.4678 117.709 27.5726 118.081 27.5726C118.523 27.5726 118.919 27.4329 119.257 27.1652L119.431 27.5842C119.28 27.7239 119.082 27.8403 118.826 27.9218C118.57 28.0033 118.314 28.0499 118.058 28.0499C117.709 28.0499 117.406 27.98 117.15 27.8403C116.894 27.7006 116.696 27.4911 116.556 27.235C116.417 26.9789 116.347 26.6763 116.347 26.327C116.347 25.9429 116.417 25.5937 116.568 25.291C116.708 24.9884 116.917 24.7556 117.185 24.5926C117.453 24.4296 117.767 24.3481 118.116 24.3481C118.57 24.3481 118.931 24.4762 119.199 24.7439C119.466 25.0117 119.594 25.3842 119.594 25.8731C119.594 25.9778 119.594 26.0826 119.571 26.199H116.929L116.94 26.1874Z" fill="white"/>
<path d="M124.798 27.1771C125.007 26.9093 125.1 26.5368 125.1 26.0712C125.1 25.6754 125.007 25.3611 124.809 25.1516C124.623 24.9304 124.356 24.8257 124.018 24.8257C123.68 24.8257 123.378 24.9654 123.18 25.2331C122.982 25.5008 122.877 25.8733 122.877 26.339C122.877 26.7464 122.97 27.049 123.157 27.2702C123.343 27.4797 123.611 27.5961 123.96 27.5961C124.309 27.5961 124.588 27.4681 124.798 27.2004M124.961 24.5696C125.194 24.7093 125.368 24.9188 125.496 25.1749C125.624 25.431 125.694 25.7336 125.694 26.0829C125.694 26.4786 125.624 26.8279 125.485 27.1189C125.345 27.4215 125.147 27.6543 124.891 27.8173C124.635 27.9803 124.344 28.0618 124.018 28.0618C123.727 28.0618 123.482 28.0036 123.273 27.8755C123.063 27.7591 122.9 27.5845 122.796 27.3633L122.749 28.0152H122.179L122.598 22.7886H123.18L122.994 24.977C123.11 24.7791 123.273 24.6278 123.494 24.523C123.715 24.4066 123.936 24.3601 124.193 24.3601C124.495 24.3601 124.763 24.4299 124.984 24.5696" fill="white"/>
<path d="M127.394 25.0349C127.196 25.2095 127.056 25.4656 126.998 25.8032H129.116C129.116 25.4773 129.035 25.2212 128.872 25.0349C128.709 24.8603 128.465 24.7672 128.174 24.7672C127.882 24.7672 127.603 24.8603 127.405 25.0349M126.963 26.1874V26.327C126.963 26.7228 127.056 27.0255 127.254 27.2467C127.452 27.4678 127.731 27.5726 128.104 27.5726C128.546 27.5726 128.942 27.4329 129.279 27.1652L129.454 27.5842C129.303 27.7239 129.105 27.8403 128.849 27.9218C128.593 28.0033 128.348 28.0499 128.092 28.0499C127.743 28.0499 127.44 27.98 127.184 27.8403C126.928 27.7006 126.73 27.4911 126.59 27.235C126.451 26.9789 126.381 26.6763 126.381 26.327C126.381 25.9429 126.451 25.5937 126.602 25.291C126.742 24.9884 126.951 24.7556 127.219 24.5926C127.487 24.4296 127.801 24.3481 128.15 24.3481C128.604 24.3481 128.965 24.4762 129.233 24.7439C129.501 25.0117 129.629 25.3842 129.629 25.8731C129.629 25.9778 129.629 26.0826 129.605 26.199H126.963V26.1874Z" fill="white"/>
<path d="M133.714 24.418L131.711 28.3176C131.502 28.725 131.257 29.0276 130.99 29.2139C130.722 29.4001 130.384 29.5282 129.989 29.598L129.896 29.1441C130.233 29.0626 130.501 28.9694 130.675 28.8414C130.85 28.7133 131.013 28.5271 131.153 28.271L131.327 27.9567L130.082 24.418H130.664L131.665 27.3747L133.12 24.418H133.714Z" fill="white"/>
<path d="M136.463 27.1653C136.66 26.886 136.765 26.5135 136.765 26.0478C136.765 25.6521 136.672 25.3494 136.486 25.1399C136.3 24.9303 136.032 24.8139 135.694 24.8139C135.333 24.8139 135.054 24.9536 134.845 25.233C134.635 25.5124 134.542 25.8732 134.542 26.3505C134.542 26.7579 134.635 27.0606 134.821 27.2701C135.008 27.4796 135.275 27.5844 135.624 27.5844C135.974 27.5844 136.265 27.4447 136.463 27.177M134.74 27.8405C134.495 27.7008 134.297 27.5029 134.158 27.2352C134.018 26.9791 133.948 26.6764 133.948 26.3272C133.948 25.9314 134.018 25.5822 134.169 25.2796C134.309 24.9769 134.519 24.7557 134.775 24.5811C135.042 24.4182 135.345 24.3367 135.694 24.3367C136.044 24.3367 136.323 24.4065 136.567 24.5462C136.812 24.6859 137.01 24.8954 137.149 25.1515C137.289 25.4192 137.359 25.7219 137.359 26.0711C137.359 26.4669 137.289 26.8161 137.138 27.1188C136.998 27.4214 136.789 27.6426 136.532 27.8056C136.276 27.9685 135.962 28.05 135.624 28.05C135.287 28.05 134.996 27.9802 134.751 27.8405" fill="white"/>
<path d="M141.048 24.6509C141.257 24.8604 141.362 25.1747 141.362 25.5705C141.362 25.652 141.362 25.7218 141.362 25.7684L141.187 28.0034H140.617L140.792 25.8149C140.792 25.8149 140.792 25.7335 140.792 25.6636C140.792 25.1049 140.524 24.8371 139.988 24.8371C139.651 24.8371 139.383 24.9303 139.185 25.1398C138.987 25.3377 138.871 25.617 138.836 25.9663L138.673 28.015H138.103L138.312 25.4424C138.335 25.2445 138.335 25.0234 138.335 24.7789C138.335 24.6276 138.335 24.5228 138.335 24.4413H138.882V25.035C139.011 24.8138 139.185 24.6509 139.395 24.5345C139.616 24.4181 139.86 24.3599 140.128 24.3599C140.524 24.3599 140.838 24.4646 141.048 24.6742" fill="white"/>
<path d="M144.715 27.165C144.924 26.8973 145.017 26.5248 145.017 26.0592C145.017 25.6518 144.924 25.3375 144.738 25.1279C144.552 24.9184 144.284 24.8136 143.935 24.8136C143.585 24.8136 143.294 24.9417 143.097 25.2211C142.887 25.4888 142.794 25.8496 142.794 26.3153C142.794 26.7227 142.887 27.0253 143.073 27.2465C143.26 27.4677 143.527 27.5725 143.877 27.5725C144.226 27.5725 144.517 27.4328 144.715 27.165ZM145.844 22.7649L145.425 27.9915H144.866L144.913 27.4095C144.796 27.6074 144.633 27.7587 144.424 27.8751C144.214 27.9915 143.981 28.0381 143.725 28.0381C143.423 28.0381 143.155 27.9682 142.934 27.8286C142.701 27.6889 142.526 27.491 142.398 27.2232C142.27 26.9671 142.212 26.6645 142.212 26.3153C142.212 25.9195 142.282 25.5819 142.421 25.2793C142.561 24.9766 142.759 24.7438 143.015 24.5808C143.271 24.4179 143.562 24.3364 143.9 24.3364C144.179 24.3364 144.435 24.3946 144.645 24.5226C144.854 24.6507 145.006 24.8253 145.11 25.0464L145.285 22.7765H145.855L145.844 22.7649Z" fill="white"/>
<path d="M153.48 24.6392C153.666 24.8487 153.759 25.1397 153.759 25.5355C153.759 25.6286 153.759 25.7101 153.759 25.7683L153.584 28.0033H153.014L153.189 25.8032C153.189 25.8032 153.189 25.6985 153.189 25.6053C153.189 25.3376 153.13 25.1397 153.014 25.0117C152.898 24.8836 152.723 24.8254 152.479 24.8254C152.176 24.8254 151.931 24.9185 151.757 25.1164C151.571 25.3143 151.477 25.5937 151.454 25.9662L151.291 27.9917H150.721L150.895 25.7916C150.895 25.7916 150.895 25.6868 150.895 25.5937C150.895 25.326 150.837 25.1281 150.721 25C150.604 24.872 150.43 24.8138 150.185 24.8138C149.883 24.8138 149.638 24.9069 149.464 25.1048C149.289 25.3027 149.184 25.5821 149.149 25.9546L148.986 27.98H148.404L148.614 25.4074C148.637 25.2212 148.637 25 148.637 24.7439C148.637 24.5926 148.637 24.4878 148.637 24.4064H149.173V24.9767C149.429 24.5344 149.813 24.3132 150.337 24.3132C150.907 24.3132 151.256 24.5344 151.396 24.9884C151.512 24.7789 151.687 24.6042 151.896 24.4878C152.106 24.3714 152.35 24.3132 152.618 24.3132C152.991 24.3132 153.27 24.418 153.456 24.6159" fill="white"/>
<path d="M155.11 22.9045H156.007L155.937 23.5564H155.029L155.099 22.9045H155.11ZM154.691 27.9915L155.052 24.4178H155.786L155.425 27.9915H154.691Z" fill="white"/>
<path d="M159.325 24.6509C159.534 24.8604 159.639 25.1747 159.639 25.5705C159.639 25.652 159.639 25.7218 159.639 25.7684L159.465 28.0034H158.894L159.069 25.8149C159.069 25.8149 159.069 25.7335 159.069 25.6636C159.069 25.1049 158.801 24.8371 158.266 24.8371C157.928 24.8371 157.66 24.9303 157.462 25.1398C157.265 25.3377 157.148 25.617 157.125 25.9663L156.962 28.015H156.38L156.589 25.4424C156.613 25.2445 156.624 25.0234 156.624 24.7789C156.624 24.6276 156.624 24.5228 156.624 24.4413H157.16V25.035C157.288 24.8138 157.462 24.6509 157.672 24.5345C157.893 24.4181 158.138 24.3599 158.405 24.3599C158.801 24.3599 159.104 24.4646 159.325 24.6742" fill="white"/>
<path d="M160.977 22.9045H161.873L161.803 23.5564H160.907L160.977 22.9045ZM160.558 27.9915L160.918 24.4178H161.652L161.291 27.9915H160.558Z" fill="white"/>
<path d="M165.19 24.6509C165.4 24.8604 165.504 25.1747 165.504 25.5705C165.504 25.652 165.504 25.7218 165.504 25.7684L165.33 28.0034H164.759L164.934 25.8149C164.934 25.8149 164.934 25.7335 164.934 25.6636C164.934 25.1049 164.666 24.8371 164.131 24.8371C163.793 24.8371 163.526 24.9303 163.328 25.1398C163.13 25.3377 163.013 25.617 162.99 25.9663L162.827 28.015H162.245L162.455 25.4424C162.478 25.2445 162.49 25.0234 162.49 24.7789C162.49 24.6276 162.49 24.5228 162.49 24.4413H163.025V25.035C163.153 24.8138 163.328 24.6509 163.537 24.5345C163.758 24.4181 164.003 24.3599 164.271 24.3599C164.666 24.3599 164.981 24.4646 165.19 24.6742" fill="white"/>
</g>
<path d="M168.538 27.0772C168.747 26.8211 168.852 26.4719 168.852 26.0412C168.852 25.6571 168.759 25.3661 168.561 25.1682C168.363 24.9587 168.095 24.8655 167.746 24.8655C167.397 24.8655 167.106 24.9936 166.896 25.2497C166.687 25.5058 166.582 25.855 166.582 26.2973C166.582 26.6815 166.675 26.9725 166.861 27.1704C167.048 27.3683 167.327 27.473 167.676 27.473C168.025 27.473 168.328 27.345 168.526 27.0889M169.527 24.4814L169.236 28.0201C169.155 29.1027 168.584 29.6382 167.548 29.6382C167.001 29.6382 166.524 29.5101 166.116 29.2657L166.268 28.8C166.489 28.9397 166.698 29.0329 166.896 29.0911C167.094 29.1493 167.315 29.1725 167.56 29.1725C168.235 29.1725 168.607 28.8 168.677 28.0551L168.736 27.3217C168.619 27.5196 168.456 27.6709 168.247 27.7873C168.037 27.8921 167.793 27.9503 167.548 27.9503C167.071 27.9503 166.698 27.799 166.419 27.4963C166.14 27.1936 166 26.7979 166 26.2973C166 25.9248 166.07 25.5872 166.21 25.3079C166.349 25.0169 166.547 24.7957 166.803 24.6327C167.059 24.4697 167.35 24.3999 167.688 24.3999C167.979 24.3999 168.223 24.4581 168.445 24.5862C168.654 24.7026 168.817 24.8772 168.922 25.0983L168.968 24.4814H169.539H169.527Z" fill="white"/>
<defs>
<clipPath id="clip0_1823_61">
<rect width="166" height="32" fill="white"/>
</clipPath>
</defs>
</svg>
