<svg width="512" height="512" viewBox="0 0 512 512" fill="none" xmlns="http://www.w3.org/2000/svg">
    <g clip-path="url(#clip0_820_170)">
        <path
            d="M149.276 183.518C146.082 183.518 143.492 180.928 143.492 177.734V135.103C143.492 132.572 142.239 130.218 140.14 128.805L131.525 123.006C128.875 121.222 128.173 117.628 129.957 114.978C131.74 112.328 135.335 111.626 137.985 113.41L146.6 119.209C151.898 122.775 155.061 128.717 155.061 135.104V177.735C155.06 180.928 152.471 183.518 149.276 183.518Z"
            fill="url(#paint0_linear_820_170)" />
        <path
            d="M143.491 135.103V177.734C143.491 180.928 146.081 183.518 149.275 183.518C152.469 183.518 155.059 180.928 155.059 177.734V135.103C155.059 133.43 154.837 131.79 154.421 130.213H141.693C142.836 131.565 143.491 133.285 143.491 135.103Z"
            fill="url(#paint1_linear_820_170)" />
        <path
            d="M160.926 215.351H137.627V158.79C137.627 155.625 140.192 153.06 143.357 153.06H155.196C158.361 153.06 160.926 155.625 160.926 158.79V215.351Z"
            fill="url(#paint2_linear_820_170)" />
        <path
            d="M160.926 215.351H137.627V158.79C137.627 155.625 140.192 153.06 143.357 153.06H155.196C158.361 153.06 160.926 155.625 160.926 158.79V215.351Z"
            fill="url(#paint3_linear_820_170)" />
        <path
            d="M36.7639 265.066H270.124C274.641 265.066 278.302 261.404 278.302 256.888V201.732C278.302 197.215 274.64 193.554 270.124 193.554H62.7809C43.8959 193.554 28.5859 208.864 28.5859 227.749V256.888C28.5859 261.405 32.2469 265.066 36.7639 265.066Z"
            fill="url(#paint4_linear_820_170)" />
        <path
            d="M270.124 193.554H221.502V265.066H270.124C274.641 265.066 278.302 261.404 278.302 256.888V201.732C278.303 197.216 274.641 193.554 270.124 193.554Z"
            fill="url(#paint5_linear_820_170)" />
        <path
            d="M97.4316 193.554L107.494 212.868C109.06 215.873 112.167 217.758 115.556 217.758H191.335C194.724 217.758 197.831 215.873 199.397 212.868L209.459 193.554H97.4316Z"
            fill="url(#paint6_linear_820_170)" />
        <path
            d="M278.302 234.145V256.888C278.302 261.405 274.641 265.066 270.124 265.066H36.7639C32.2469 265.066 28.5859 261.404 28.5859 256.888V234.145H278.302Z"
            fill="url(#paint7_linear_820_170)" />
        <path
            d="M270.123 193.554H128.971V265.066H270.123C274.64 265.066 278.301 261.404 278.301 256.888V201.732C278.302 197.216 274.64 193.554 270.123 193.554Z"
            fill="url(#paint8_linear_820_170)" />
        <path d="M332.493 121.253V250.99C332.493 265.362 320.842 277.013 306.47 277.013H214.86L184.195 121.253H332.493Z"
            fill="url(#paint9_linear_820_170)" />
        <path d="M332.493 121.253V250.99C332.493 265.362 320.842 277.013 306.47 277.013H214.86L184.195 121.253H332.493Z"
            fill="url(#paint10_linear_820_170)" />
        <path
            d="M315.793 187.246L309.773 204.577C309.737 204.686 309.7 204.795 309.664 204.905L299.561 189.54C299.699 189.307 299.823 189.06 299.932 188.805L306.628 173.316L315.793 187.246Z"
            fill="url(#paint11_linear_820_170)" />
        <path
            d="M293.126 193.277C295.992 193.277 298.721 191.605 299.931 188.806L309.415 166.873C311.039 163.117 309.311 158.755 305.555 157.131C301.797 155.509 297.437 157.236 295.813 160.992L286.329 182.925C284.705 186.681 286.433 191.043 290.189 192.667C291.147 193.081 292.145 193.277 293.126 193.277Z"
            fill="url(#paint12_linear_820_170)" />
        <path
            d="M265.96 235.69H244.177C239.839 235.69 236.322 232.173 236.322 227.835V192.664C236.322 188.584 233.13 185.085 229.051 185.01C224.895 184.934 221.502 188.28 221.502 192.418V250.51H265.714C269.794 250.51 273.293 247.318 273.368 243.24C273.445 239.083 270.099 235.69 265.96 235.69Z"
            fill="url(#paint13_linear_820_170)" />
        <path
            d="M315.792 187.241L309.775 204.575C307.384 211.462 307.477 218.969 310.036 225.796L318.856 249.322H332.493V184.279L327.441 182.105C322.804 180.11 317.448 182.471 315.792 187.241Z"
            fill="url(#paint14_linear_820_170)" />
        <path d="M200.93 206.246H332.494V121.253H184.197L200.93 206.246Z" fill="url(#paint15_linear_820_170)" />
        <path d="M203.422 121.253L234.087 277.012H191.21L181.473 121.253H203.422Z"
            fill="url(#paint16_linear_820_170)" />
        <path d="M203.422 121.253H181.473L185.392 183.948H215.765L203.422 121.253Z"
            fill="url(#paint17_linear_820_170)" />
        <path
            d="M340.233 117.627C340.233 110.784 334.479 104.997 326.801 104.145C281.191 99.0838 235.575 99.0828 189.965 104.145C182.287 104.997 176.533 110.785 176.533 117.627V121.199C176.533 124.313 179.388 126.838 182.91 126.838H333.857C337.379 126.838 340.234 124.313 340.234 121.199C340.233 120.008 340.233 118.818 340.233 117.627Z"
            fill="url(#paint18_linear_820_170)" />
        <path
            d="M326.8 104.145C315.483 102.889 304.166 101.947 292.848 101.314V126.837H333.855C337.377 126.837 340.232 124.313 340.232 121.198C340.232 120.007 340.232 118.817 340.232 117.626C340.232 110.784 334.478 104.997 326.8 104.145Z"
            fill="url(#paint19_linear_820_170)" />
        <path
            d="M176.531 117.627V121.199C176.531 124.313 179.386 126.838 182.908 126.838C233.224 126.838 283.539 126.839 333.855 126.838C337.377 126.838 340.232 124.314 340.232 121.199C340.232 120.008 340.232 118.818 340.232 117.627C340.232 113.877 338.496 110.451 335.671 107.973H181.092C178.267 110.451 176.531 113.877 176.531 117.627Z"
            fill="url(#paint20_linear_820_170)" />
        <path
            d="M265.908 353.621H25.4545C18.6105 353.621 13.0625 348.073 13.0625 341.229V259.808C13.0625 252.964 18.6105 247.416 25.4545 247.416H239.951C261.131 247.416 278.301 264.585 278.301 285.765V341.229C278.302 348.073 272.752 353.621 265.908 353.621Z"
            fill="url(#paint21_linear_820_170)" />
        <path
            d="M13.0625 285.765V341.229C13.0625 348.073 18.6105 353.621 25.4545 353.621H265.908C272.752 353.621 278.301 348.073 278.301 341.229V285.765H13.0625Z"
            fill="url(#paint22_linear_820_170)" />
        <path
            d="M239.952 247.416H199.932V353.621H265.909C272.753 353.621 278.301 348.073 278.301 341.229V285.765C278.302 264.586 261.132 247.416 239.952 247.416Z"
            fill="url(#paint23_linear_820_170)" />
        <path
            d="M244.753 268.615V332.422C244.753 334.965 242.691 337.027 240.148 337.027C237.605 337.027 235.543 334.965 235.543 332.422V268.615C235.543 266.072 237.605 264.01 240.148 264.01C242.691 264.01 244.753 266.072 244.753 268.615Z"
            fill="url(#paint24_linear_820_170)" />
        <path
            d="M230.937 268.615V332.422C230.937 334.965 228.875 337.027 226.332 337.027C223.789 337.027 221.727 334.965 221.727 332.422V268.615C221.727 266.072 223.789 264.01 226.332 264.01C228.875 264.01 230.937 266.072 230.937 268.615Z"
            fill="url(#paint25_linear_820_170)" />
        <path
            d="M217.122 268.615V332.422C217.122 334.965 215.06 337.027 212.517 337.027C209.974 337.027 207.912 334.965 207.912 332.422V268.615C207.912 266.072 209.974 264.01 212.517 264.01C215.06 264.01 217.122 266.072 217.122 268.615Z"
            fill="url(#paint26_linear_820_170)" />
        <path
            d="M271.713 364.324H13.07C5.852 364.324 0 358.472 0 351.254V332.866C0 325.648 5.852 319.796 13.07 319.796H271.713C278.931 319.796 284.783 325.648 284.783 332.866V351.254C284.783 358.472 278.932 364.324 271.713 364.324Z"
            fill="url(#paint27_linear_820_170)" />
        <path
            d="M284.783 335.78V351.248C284.783 358.471 278.93 364.324 271.717 364.324H13.066C5.853 364.325 0 358.472 0 351.249V335.78H284.783Z"
            fill="url(#paint28_linear_820_170)" />
        <path
            d="M271.713 319.796H155.561V364.324H271.713C278.932 364.324 284.783 358.472 284.783 351.254V332.866C284.784 325.647 278.932 319.796 271.713 319.796Z"
            fill="url(#paint29_linear_820_170)" />
        <path
            d="M141.237 341.554H141.034L141.209 341.451C143.329 340.213 144.043 337.491 142.805 335.371L133.224 318.97C132.156 317.141 129.982 316.361 128.045 316.977C128.661 315.039 127.881 312.866 126.052 311.798L109.651 302.217C107.531 300.979 104.81 301.693 103.571 303.813L103.469 303.989V303.786C103.469 301.331 101.479 299.341 99.0241 299.341H80.0291C77.5741 299.341 75.5841 301.331 75.5841 303.786V303.989L75.4821 303.813C74.2441 301.693 71.5221 300.979 69.4021 302.217L53.0011 311.798C51.1721 312.866 50.3921 315.04 51.0081 316.977C49.0701 316.361 46.8971 317.141 45.8291 318.97L36.2481 335.371C35.0101 337.491 35.7241 340.213 37.8441 341.451L38.0191 341.554H37.8161C35.3611 341.554 33.3711 343.544 33.3711 345.999V364.994C33.3711 367.449 35.3611 369.439 37.8161 369.439H38.0191L37.8441 369.541C35.7241 370.779 35.0101 373.501 36.2481 375.621L45.8291 392.022C46.8971 393.851 49.0711 394.631 51.0081 394.015C50.3921 395.953 51.1721 398.126 53.0011 399.194L69.4021 408.775C71.5221 410.013 74.2441 409.299 75.4821 407.179L75.5841 407.004V407.207C75.5841 409.662 77.5741 411.652 80.0291 411.652H99.0241C101.479 411.652 103.469 409.662 103.469 407.207V407.004L103.571 407.179C104.809 409.299 107.531 410.013 109.651 408.775L126.052 399.194C127.881 398.126 128.66 395.952 128.045 394.015C129.983 394.631 132.156 393.851 133.224 392.022L142.805 375.621C144.043 373.501 143.329 370.779 141.209 369.541L141.034 369.439H141.237C143.692 369.439 145.682 367.449 145.682 364.994V345.999C145.681 343.544 143.691 341.554 141.237 341.554Z"
            fill="url(#paint30_linear_820_170)" />
        <path
            d="M89.5254 394.955C111.318 394.955 128.984 377.288 128.984 355.496C128.984 333.703 111.318 316.037 89.5254 316.037C67.7328 316.037 50.0664 333.703 50.0664 355.496C50.0664 377.288 67.7328 394.955 89.5254 394.955Z"
            fill="url(#paint31_linear_820_170)" />
        <path
            d="M33.3711 352.408V364.994C33.3711 367.449 35.3611 369.439 37.8161 369.439H38.0191L37.8441 369.541C35.7241 370.779 35.0101 373.501 36.2481 375.621L45.8291 392.022C46.8971 393.851 49.0711 394.631 51.0081 394.015C50.3921 395.953 51.1721 398.126 53.0011 399.194L69.4021 408.775C71.5221 410.013 74.2441 409.299 75.4821 407.179L75.5841 407.004V407.207C75.5841 409.662 77.5741 411.652 80.0291 411.652H99.0241C101.479 411.652 103.469 409.662 103.469 407.207V407.004L103.571 407.179C104.809 409.299 107.531 410.013 109.651 408.775L126.052 399.194C127.881 398.126 128.66 395.952 128.045 394.015C129.983 394.631 132.156 393.851 133.224 392.022L142.805 375.621C144.043 373.501 143.329 370.779 141.209 369.541L141.034 369.439H141.237C143.692 369.439 145.682 367.449 145.682 364.994V352.408H33.3711Z"
            fill="url(#paint32_linear_820_170)" />
        <path
            d="M141.237 341.554H141.034L141.209 341.451C143.329 340.213 144.043 337.491 142.805 335.371L133.224 318.97C132.156 317.141 129.982 316.361 128.045 316.977C128.457 315.679 128.241 314.276 127.505 313.17L47.2012 393.474C48.3082 394.21 49.7102 394.427 51.0082 394.014C50.3922 395.952 51.1722 398.125 53.0012 399.193L69.4022 408.774C71.5222 410.012 74.2442 409.298 75.4822 407.178L75.5842 407.003V407.206C75.5842 409.661 77.5742 411.651 80.0292 411.651H99.0242C101.479 411.651 103.469 409.661 103.469 407.206V407.003L103.571 407.178C104.809 409.298 107.531 410.012 109.651 408.774L126.052 399.193C127.881 398.125 128.66 395.951 128.045 394.014C129.983 394.63 132.156 393.85 133.224 392.021L142.805 375.62C144.043 373.5 143.329 370.778 141.209 369.54L141.034 369.438H141.237C143.692 369.438 145.682 367.448 145.682 364.993V345.998C145.681 343.544 143.691 341.554 141.237 341.554Z"
            fill="url(#paint33_linear_820_170)" />
        <path
            d="M128.045 394.014C129.983 394.63 132.156 393.85 133.224 392.021L142.805 375.62C142.83 375.577 142.85 375.532 142.873 375.489L106.203 338.819L72.8496 372.173L109.52 408.843C109.564 408.82 109.608 408.8 109.651 408.775L126.052 399.194C127.882 398.125 128.661 395.952 128.045 394.014Z"
            fill="url(#paint34_linear_820_170)" />
        <path
            d="M89.5264 379.081C102.552 379.081 113.111 368.521 113.111 355.496C113.111 342.47 102.552 331.911 89.5264 331.911C76.5008 331.911 65.9414 342.47 65.9414 355.496C65.9414 368.521 76.5008 379.081 89.5264 379.081Z"
            fill="url(#paint35_linear_820_170)" />
        <path
            d="M65.9414 355.496C65.9414 368.521 76.5004 379.081 89.5264 379.081C102.552 379.081 113.111 368.522 113.111 355.496C113.111 353.6 112.881 351.759 112.459 349.993H66.5944C66.1714 351.759 65.9414 353.6 65.9414 355.496Z"
            fill="url(#paint36_linear_820_170)" />
        <path
            d="M113.111 355.496C113.111 347.698 109.324 340.786 103.491 336.492L70.5234 369.46C74.8174 375.293 81.7284 379.08 89.5264 379.08C102.552 379.081 113.111 368.522 113.111 355.496Z"
            fill="url(#paint37_linear_820_170)" />
        <path
            d="M253.548 341.554H253.345L253.52 341.451C255.64 340.213 256.354 337.491 255.116 335.371L245.535 318.97C244.467 317.141 242.293 316.361 240.356 316.977C240.972 315.039 240.192 312.866 238.363 311.798L221.962 302.217C219.842 300.979 217.121 301.693 215.882 303.813L215.78 303.989V303.786C215.78 301.331 213.79 299.341 211.335 299.341H192.34C189.885 299.341 187.895 301.331 187.895 303.786V303.989L187.793 303.813C186.555 301.693 183.833 300.979 181.713 302.217L165.312 311.798C163.483 312.866 162.703 315.04 163.319 316.977C161.381 316.361 159.208 317.141 158.14 318.97L148.559 335.371C147.321 337.491 148.035 340.213 150.155 341.451L150.33 341.554H150.127C147.672 341.554 145.682 343.544 145.682 345.999V364.994C145.682 367.449 147.672 369.439 150.127 369.439H150.33L150.155 369.541C148.035 370.779 147.321 373.501 148.559 375.621L158.14 392.022C159.208 393.851 161.382 394.631 163.319 394.015C162.703 395.953 163.483 398.126 165.312 399.194L181.713 408.775C183.833 410.013 186.555 409.299 187.793 407.179L187.895 407.004V407.207C187.895 409.662 189.885 411.652 192.34 411.652H211.335C213.79 411.652 215.78 409.662 215.78 407.207V407.004L215.882 407.179C217.12 409.299 219.842 410.013 221.962 408.775L238.363 399.194C240.192 398.126 240.971 395.952 240.356 394.015C242.294 394.631 244.467 393.851 245.535 392.022L255.116 375.621C256.354 373.501 255.64 370.779 253.52 369.541L253.345 369.439H253.548C256.003 369.439 257.993 367.449 257.993 364.994V345.999C257.992 343.544 256.003 341.554 253.548 341.554Z"
            fill="url(#paint38_linear_820_170)" />
        <path
            d="M201.836 394.955C223.629 394.955 241.295 377.288 241.295 355.496C241.295 333.703 223.629 316.037 201.836 316.037C180.043 316.037 162.377 333.703 162.377 355.496C162.377 377.288 180.043 394.955 201.836 394.955Z"
            fill="url(#paint39_linear_820_170)" />
        <path
            d="M145.682 352.408V364.994C145.682 367.449 147.672 369.439 150.127 369.439H150.33L150.155 369.541C148.035 370.779 147.321 373.501 148.559 375.621L158.14 392.022C159.208 393.851 161.382 394.631 163.319 394.015C162.703 395.953 163.483 398.126 165.312 399.194L181.713 408.775C183.833 410.013 186.555 409.299 187.793 407.179L187.895 407.004V407.207C187.895 409.662 189.885 411.652 192.34 411.652H211.335C213.79 411.652 215.78 409.662 215.78 407.207V407.004L215.882 407.179C217.12 409.299 219.842 410.013 221.962 408.775L238.363 399.194C240.192 398.126 240.971 395.952 240.356 394.015C242.294 394.631 244.467 393.851 245.535 392.022L255.116 375.621C256.354 373.501 255.64 370.779 253.52 369.541L253.345 369.439H253.548C256.003 369.439 257.993 367.449 257.993 364.994V352.408H145.682Z"
            fill="url(#paint40_linear_820_170)" />
        <path
            d="M253.548 341.554H253.345L253.52 341.451C255.64 340.213 256.354 337.491 255.116 335.371L245.535 318.97C244.467 317.141 242.293 316.361 240.356 316.977C240.768 315.679 240.552 314.276 239.816 313.17L159.512 393.474C160.619 394.21 162.021 394.427 163.319 394.014C162.703 395.952 163.483 398.125 165.312 399.193L181.713 408.774C183.833 410.012 186.555 409.298 187.793 407.178L187.895 407.003V407.206C187.895 409.661 189.885 411.651 192.34 411.651H211.335C213.79 411.651 215.78 409.661 215.78 407.206V407.003L215.882 407.178C217.12 409.298 219.842 410.012 221.962 408.774L238.363 399.193C240.192 398.125 240.971 395.951 240.356 394.014C242.294 394.63 244.467 393.85 245.535 392.021L255.116 375.62C256.354 373.5 255.64 370.778 253.52 369.54L253.345 369.438H253.548C256.003 369.438 257.993 367.448 257.993 364.993V345.998C257.992 343.544 256.003 341.554 253.548 341.554Z"
            fill="url(#paint41_linear_820_170)" />
        <path
            d="M240.356 394.014C242.294 394.63 244.467 393.85 245.535 392.021L255.116 375.62C255.141 375.577 255.161 375.532 255.184 375.489L218.514 338.819L185.16 372.173L221.83 408.843C221.874 408.82 221.918 408.8 221.961 408.775L238.362 399.194C240.192 398.125 240.971 395.952 240.356 394.014Z"
            fill="url(#paint42_linear_820_170)" />
        <path
            d="M201.837 379.081C214.863 379.081 225.422 368.521 225.422 355.496C225.422 342.47 214.863 331.911 201.837 331.911C188.811 331.911 178.252 342.47 178.252 355.496C178.252 368.521 188.811 379.081 201.837 379.081Z"
            fill="url(#paint43_linear_820_170)" />
        <path
            d="M178.252 355.496C178.252 368.521 188.811 379.081 201.837 379.081C214.863 379.081 225.422 368.522 225.422 355.496C225.422 353.6 225.192 351.759 224.77 349.993H178.905C178.482 351.759 178.252 353.6 178.252 355.496Z"
            fill="url(#paint44_linear_820_170)" />
        <path
            d="M225.422 355.496C225.422 347.698 221.635 340.786 215.802 336.492L182.834 369.46C187.128 375.293 194.039 379.08 201.837 379.08C214.863 379.081 225.422 368.522 225.422 355.496Z"
            fill="url(#paint45_linear_820_170)" />
        <path
            d="M256.973 331.459C247.987 322.957 247.595 308.781 256.097 299.796L310.412 242.391C314.63 237.933 320.496 235.408 326.633 235.408H434.556C440.511 235.408 446.22 237.787 450.413 242.016L479.184 271.032C497.694 289.699 497.567 319.838 478.9 338.348L431.849 275.634C426.925 269.071 419.198 265.208 410.993 265.208H350.604C342.366 265.208 334.612 269.101 329.692 275.709L290.331 328.568C282.321 339.324 266.716 340.677 256.973 331.459Z"
            fill="url(#paint46_linear_820_170)" />
        <path
            d="M478.902 338.347C484.653 332.645 488.637 325.837 490.866 318.603L444.632 261.777C439.158 255.049 430.945 251.143 422.271 251.143H340.036C331.688 251.143 323.75 254.762 318.275 261.064L257.055 331.531C266.803 340.668 282.344 339.295 290.333 328.567L329.694 275.708C334.614 269.1 342.368 265.207 350.606 265.207H410.995C419.2 265.207 426.927 269.069 431.851 275.633L478.902 338.347Z"
            fill="url(#paint47_linear_820_170)" />
        <path
            d="M450.415 242.015C446.222 237.786 440.513 235.407 434.558 235.407H401.902V265.207H410.995C419.2 265.207 426.927 269.069 431.851 275.633L478.902 338.347C497.569 319.837 497.697 289.698 479.186 271.031L450.415 242.015Z"
            fill="url(#paint48_linear_820_170)" />
        <path
            d="M273.483 329.935C281.823 329.935 288.585 323.174 288.585 314.833C288.585 306.492 281.823 299.731 273.483 299.731C265.142 299.731 258.381 306.492 258.381 314.833C258.381 323.174 265.142 329.935 273.483 329.935Z"
            fill="url(#paint49_linear_820_170)" />
        <path
            d="M276.259 278.487L256.097 299.796C247.595 308.781 247.987 322.958 256.973 331.459C266.716 340.677 282.321 339.324 290.331 328.567L327.623 278.487H276.259Z"
            fill="url(#paint50_linear_820_170)" />
        <path d="M362.586 235.407H401.902V265.207H362.586V235.407Z" fill="url(#paint51_linear_820_170)" />
        <path
            d="M501.747 357.787H469.732L473.308 254.079C474.213 244.379 481.488 236.48 491.08 234.781L505.535 232.22C508.907 231.623 512 234.216 512 237.64V347.533C512 353.196 507.409 357.787 501.747 357.787Z"
            fill="url(#paint52_linear_820_170)" />
        <path
            d="M505.536 232.22L491.201 234.76V357.787H501.748C507.411 357.787 512.001 353.196 512.001 347.534V237.64C512.001 234.216 508.908 231.622 505.536 232.22Z"
            fill="url(#paint53_linear_820_170)" />
        <path
            d="M366.858 313.17H358.312V233.583C358.312 231.223 360.225 229.31 362.585 229.31C364.945 229.31 366.858 231.223 366.858 233.583V313.17Z"
            fill="url(#paint54_linear_820_170)" />
        <path
            d="M472.751 320.376C472.751 325.582 468.672 329.874 463.473 330.14L340.372 336.428C331.185 336.897 323.479 329.575 323.479 320.376C323.479 311.177 331.185 303.855 340.372 304.324L463.473 310.612C468.672 310.878 472.751 315.17 472.751 320.376Z"
            fill="url(#paint55_linear_820_170)" />
        <path
            d="M472.751 320.375C472.751 325.58 468.672 329.873 463.473 330.139L365.812 335.128L369.874 331.067C376.719 324.222 386.003 320.376 395.684 320.376H472.751V320.375Z"
            fill="url(#paint56_linear_820_170)" />
        <path
            d="M417.605 308.269L463.472 310.612C468.671 310.878 472.75 315.17 472.75 320.376C472.75 325.581 468.671 329.874 463.472 330.14L417.605 332.483V308.269Z"
            fill="url(#paint57_linear_820_170)" />
        <path
            d="M334.337 327.066C330.643 323.372 330.643 317.381 334.337 313.686C338.031 309.991 344.022 309.991 347.717 313.686C349.564 315.533 350.488 317.954 350.488 320.376C350.488 322.797 349.564 325.219 347.717 327.066C344.022 330.761 338.032 330.761 334.337 327.066Z"
            fill="url(#paint58_linear_820_170)" />
        <path
            d="M337.828 323.574C336.062 321.808 336.062 318.944 337.828 317.178C339.594 315.412 342.458 315.412 344.224 317.178C345.107 318.061 345.549 319.218 345.549 320.376C345.549 321.534 345.107 322.691 344.224 323.574C342.458 325.34 339.594 325.34 337.828 323.574Z"
            fill="url(#paint59_linear_820_170)" />
        <path d="M368.074 335.013L349.586 316.524L342.572 323.537V336.315L368.074 335.013Z"
            fill="url(#paint60_linear_820_170)" />
        <path
            d="M500.943 341.554H500.74L500.915 341.451C503.035 340.213 503.749 337.491 502.511 335.371L492.93 318.97C491.861 317.141 489.688 316.361 487.751 316.977C488.367 315.039 487.587 312.866 485.758 311.798L469.357 302.217C467.237 300.979 464.516 301.693 463.277 303.813L463.174 303.989V303.786C463.174 301.331 461.184 299.341 458.729 299.341H439.734C437.279 299.341 435.289 301.331 435.289 303.786V303.989L435.187 303.813C433.949 301.693 431.227 300.979 429.107 302.217L412.706 311.798C410.877 312.866 410.097 315.04 410.713 316.977C408.775 316.361 406.602 317.141 405.534 318.97L395.953 335.371C394.715 337.491 395.429 340.213 397.549 341.451L397.724 341.554H397.521C395.066 341.554 393.076 343.544 393.076 345.999V364.994C393.076 367.449 395.066 369.439 397.521 369.439H397.724L397.549 369.541C395.429 370.779 394.715 373.501 395.953 375.621L405.534 392.022C406.602 393.851 408.776 394.631 410.713 394.015C410.097 395.953 410.877 398.126 412.706 399.194L429.107 408.775C431.227 410.013 433.948 409.299 435.187 407.179L435.289 407.004V407.207C435.289 409.662 437.279 411.652 439.734 411.652H458.729C461.184 411.652 463.174 409.662 463.174 407.207V407.004L463.277 407.179C464.515 409.299 467.237 410.013 469.357 408.775L485.758 399.194C487.587 398.126 488.366 395.952 487.751 394.015C489.689 394.631 491.862 393.851 492.93 392.022L502.511 375.621C503.749 373.501 503.035 370.779 500.915 369.541L500.74 369.439H500.943C503.398 369.439 505.388 367.449 505.388 364.994V345.999C505.388 343.544 503.398 341.554 500.943 341.554Z"
            fill="url(#paint61_linear_820_170)" />
        <path
            d="M449.232 394.955C471.025 394.955 488.691 377.288 488.691 355.496C488.691 333.703 471.025 316.037 449.232 316.037C427.44 316.037 409.773 333.703 409.773 355.496C409.773 377.288 427.44 394.955 449.232 394.955Z"
            fill="url(#paint62_linear_820_170)" />
        <path
            d="M393.078 352.408V364.994C393.078 367.449 395.068 369.439 397.523 369.439H397.726L397.551 369.541C395.431 370.779 394.717 373.501 395.955 375.621L405.536 392.022C406.604 393.851 408.778 394.631 410.715 394.015C410.099 395.953 410.879 398.126 412.708 399.194L429.109 408.775C431.229 410.013 433.95 409.299 435.189 407.179L435.291 407.004V407.207C435.291 409.662 437.281 411.652 439.736 411.652H458.731C461.186 411.652 463.176 409.662 463.176 407.207V407.004L463.279 407.179C464.517 409.299 467.239 410.013 469.359 408.775L485.76 399.194C487.589 398.126 488.368 395.952 487.753 394.015C489.691 394.631 491.864 393.851 492.932 392.022L502.513 375.621C503.751 373.501 503.037 370.779 500.917 369.541L500.742 369.439H500.945C503.4 369.439 505.39 367.449 505.39 364.994V352.408H393.078Z"
            fill="url(#paint63_linear_820_170)" />
        <path
            d="M500.942 341.554H500.739L500.914 341.451C503.034 340.213 503.748 337.491 502.51 335.371L492.929 318.97C491.86 317.141 489.687 316.361 487.75 316.977C488.162 315.679 487.946 314.276 487.21 313.17L406.906 393.474C408.013 394.21 409.415 394.427 410.713 394.014C410.097 395.952 410.877 398.125 412.706 399.193L429.107 408.774C431.227 410.012 433.948 409.298 435.187 407.178L435.289 407.003V407.206C435.289 409.661 437.279 411.651 439.734 411.651H458.729C461.184 411.651 463.174 409.661 463.174 407.206V407.003L463.277 407.178C464.515 409.298 467.237 410.012 469.357 408.774L485.758 399.193C487.587 398.125 488.366 395.951 487.751 394.014C489.689 394.63 491.862 393.85 492.93 392.021L502.511 375.62C503.749 373.5 503.035 370.778 500.915 369.54L500.74 369.438H500.943C503.398 369.438 505.388 367.448 505.388 364.993V345.998C505.387 343.544 503.397 341.554 500.942 341.554Z"
            fill="url(#paint64_linear_820_170)" />
        <path
            d="M487.751 394.014C489.689 394.63 491.862 393.85 492.93 392.021L502.511 375.62C502.536 375.577 502.555 375.532 502.579 375.489L465.909 338.819L432.555 372.173L469.225 408.843C469.269 408.82 469.313 408.8 469.356 408.775L485.757 399.194C487.587 398.125 488.367 395.952 487.751 394.014Z"
            fill="url(#paint65_linear_820_170)" />
        <path
            d="M449.233 379.081C462.259 379.081 472.818 368.521 472.818 355.496C472.818 342.47 462.259 331.911 449.233 331.911C436.208 331.911 425.648 342.47 425.648 355.496C425.648 368.521 436.208 379.081 449.233 379.081Z"
            fill="url(#paint66_linear_820_170)" />
        <path
            d="M425.648 355.496C425.648 368.521 436.207 379.081 449.233 379.081C462.259 379.081 472.818 368.522 472.818 355.496C472.818 353.6 472.588 351.759 472.166 349.993H426.3C425.878 351.759 425.648 353.6 425.648 355.496Z"
            fill="url(#paint67_linear_820_170)" />
        <path
            d="M472.818 355.496C472.818 347.698 469.031 340.786 463.198 336.492L430.23 369.46C434.524 375.293 441.435 379.08 449.233 379.08C462.258 379.081 472.818 368.522 472.818 355.496Z"
            fill="url(#paint68_linear_820_170)" />
        <path
            d="M330.825 319.469L323.503 336.519C317.634 350.186 322.378 366.089 334.768 374.31L362.317 392.579C364.414 393.969 367.26 393.123 368.253 390.809L368.255 390.805C372.585 380.721 369.085 368.984 359.939 362.919C347.548 354.697 342.804 338.795 348.672 325.131L350.069 321.877C351.693 318.095 348.862 313.9 344.746 313.991L338.743 314.125C335.283 314.201 332.191 316.289 330.825 319.469Z"
            fill="url(#paint69_linear_820_170)" />
        <path
            d="M351.083 353.939C353.328 357.426 356.3 360.505 359.938 362.919C369.084 368.984 372.585 380.721 368.254 390.805L368.252 390.809C367.259 393.123 364.412 393.969 362.316 392.579L334.767 374.31C323.827 367.051 318.854 353.806 321.877 341.398L351.083 353.939Z"
            fill="url(#paint70_linear_820_170)" />
    </g>
    <defs>
        <linearGradient id="paint0_linear_820_170" x1="142.953" y1="147.778" x2="155.415" y2="145.213"
            gradientUnits="userSpaceOnUse">
            <stop stop-color="#9E9797" />
            <stop offset="1" stop-color="#766E6E" />
        </linearGradient>
        <linearGradient id="paint1_linear_820_170" x1="148.377" y1="141.575" x2="148.377" y2="158.069"
            gradientUnits="userSpaceOnUse">
            <stop stop-color="#766E6E" stop-opacity="0" />
            <stop offset="1" stop-color="#444444" />
        </linearGradient>
        <linearGradient id="paint2_linear_820_170" x1="142.937" y1="184.205" x2="159.833" y2="184.205"
            gradientUnits="userSpaceOnUse">
            <stop stop-color="#9E9797" />
            <stop offset="1" stop-color="#766E6E" />
        </linearGradient>
        <linearGradient id="paint3_linear_820_170" x1="146.655" y1="171.621" x2="150.321" y2="192.879"
            gradientUnits="userSpaceOnUse">
            <stop stop-color="#766E6E" stop-opacity="0" />
            <stop offset="1" stop-color="#444444" />
        </linearGradient>
        <linearGradient id="paint4_linear_820_170" x1="142.044" y1="180.288" x2="157.59" y2="247.139"
            gradientUnits="userSpaceOnUse">
            <stop stop-color="#FEE45A" />
            <stop offset="1" stop-color="#FEA613" />
        </linearGradient>
        <linearGradient id="paint5_linear_820_170" x1="255.316" y1="229.31" x2="276.918" y2="229.31"
            gradientUnits="userSpaceOnUse">
            <stop stop-color="#FEA613" stop-opacity="0" />
            <stop offset="1" stop-color="#E94444" />
        </linearGradient>
        <linearGradient id="paint6_linear_820_170" x1="153.445" y1="213.694" x2="153.445" y2="183.922"
            gradientUnits="userSpaceOnUse">
            <stop stop-color="#FEE45A" />
            <stop offset="1" stop-color="#FEA613" />
        </linearGradient>
        <linearGradient id="paint7_linear_820_170" x1="153.444" y1="252.763" x2="153.444" y2="265.946"
            gradientUnits="userSpaceOnUse">
            <stop stop-color="#FEA613" stop-opacity="0" />
            <stop offset="1" stop-color="#E94444" />
        </linearGradient>
        <linearGradient id="paint8_linear_820_170" x1="161.709" y1="233.115" x2="199.411" y2="229.345"
            gradientUnits="userSpaceOnUse">
            <stop stop-color="#FEA613" stop-opacity="0" />
            <stop offset="1" stop-color="#E94444" />
        </linearGradient>
        <linearGradient id="paint9_linear_820_170" x1="223.584" y1="162.921" x2="312.886" y2="227.477"
            gradientUnits="userSpaceOnUse">
            <stop stop-color="#EAF9FA" />
            <stop offset="1" stop-color="#B3DAFE" />
        </linearGradient>
        <linearGradient id="paint10_linear_820_170" x1="274.191" y1="193.906" x2="218.391" y2="204.463"
            gradientUnits="userSpaceOnUse">
            <stop stop-color="#B3DAFE" stop-opacity="0" />
            <stop offset="0.3085" stop-color="#B1D9FE" stop-opacity="0.309" />
            <stop offset="0.5065" stop-color="#A8D5FE" stop-opacity="0.506" />
            <stop offset="0.6735" stop-color="#99CFFE" stop-opacity="0.674" />
            <stop offset="0.8231" stop-color="#84C6FE" stop-opacity="0.823" />
            <stop offset="0.96" stop-color="#6ABBFF" stop-opacity="0.96" />
            <stop offset="1" stop-color="#60B7FF" />
        </linearGradient>
        <linearGradient id="paint11_linear_820_170" x1="324.284" y1="167.227" x2="303.875" y2="194.901"
            gradientUnits="userSpaceOnUse">
            <stop stop-color="#B3DAFE" stop-opacity="0" />
            <stop offset="0.3085" stop-color="#B1D9FE" stop-opacity="0.309" />
            <stop offset="0.5065" stop-color="#A8D5FE" stop-opacity="0.506" />
            <stop offset="0.6735" stop-color="#99CFFE" stop-opacity="0.674" />
            <stop offset="0.8231" stop-color="#84C6FE" stop-opacity="0.823" />
            <stop offset="0.96" stop-color="#6ABBFF" stop-opacity="0.96" />
            <stop offset="1" stop-color="#60B7FF" />
        </linearGradient>
        <linearGradient id="paint12_linear_820_170" x1="262.534" y1="127.106" x2="304.735" y2="184.182"
            gradientUnits="userSpaceOnUse">
            <stop stop-color="#B3DAFE" stop-opacity="0" />
            <stop offset="0.3085" stop-color="#B1D9FE" stop-opacity="0.309" />
            <stop offset="0.5065" stop-color="#A8D5FE" stop-opacity="0.506" />
            <stop offset="0.6735" stop-color="#99CFFE" stop-opacity="0.674" />
            <stop offset="0.8231" stop-color="#84C6FE" stop-opacity="0.823" />
            <stop offset="0.96" stop-color="#6ABBFF" stop-opacity="0.96" />
            <stop offset="1" stop-color="#60B7FF" />
        </linearGradient>
        <linearGradient id="paint13_linear_820_170" x1="288.196" y1="123.082" x2="236.655" y2="242.769"
            gradientUnits="userSpaceOnUse">
            <stop stop-color="#B3DAFE" stop-opacity="0" />
            <stop offset="0.3085" stop-color="#B1D9FE" stop-opacity="0.309" />
            <stop offset="0.5065" stop-color="#A8D5FE" stop-opacity="0.506" />
            <stop offset="0.6735" stop-color="#99CFFE" stop-opacity="0.674" />
            <stop offset="0.8231" stop-color="#84C6FE" stop-opacity="0.823" />
            <stop offset="0.96" stop-color="#6ABBFF" stop-opacity="0.96" />
            <stop offset="1" stop-color="#60B7FF" />
        </linearGradient>
        <linearGradient id="paint14_linear_820_170" x1="385.677" y1="175.018" x2="309.575" y2="227.251"
            gradientUnits="userSpaceOnUse">
            <stop stop-color="#B3DAFE" stop-opacity="0" />
            <stop offset="0.3085" stop-color="#B1D9FE" stop-opacity="0.309" />
            <stop offset="0.5065" stop-color="#A8D5FE" stop-opacity="0.506" />
            <stop offset="0.6735" stop-color="#99CFFE" stop-opacity="0.674" />
            <stop offset="0.8231" stop-color="#84C6FE" stop-opacity="0.823" />
            <stop offset="0.96" stop-color="#6ABBFF" stop-opacity="0.96" />
            <stop offset="1" stop-color="#60B7FF" />
        </linearGradient>
        <linearGradient id="paint15_linear_820_170" x1="258.345" y1="161.259" x2="258.345" y2="125.69"
            gradientUnits="userSpaceOnUse">
            <stop stop-color="#B3DAFE" stop-opacity="0" />
            <stop offset="0.3085" stop-color="#B1D9FE" stop-opacity="0.309" />
            <stop offset="0.5065" stop-color="#A8D5FE" stop-opacity="0.506" />
            <stop offset="0.6735" stop-color="#99CFFE" stop-opacity="0.674" />
            <stop offset="0.8231" stop-color="#84C6FE" stop-opacity="0.823" />
            <stop offset="0.96" stop-color="#6ABBFF" stop-opacity="0.96" />
            <stop offset="1" stop-color="#60B7FF" />
        </linearGradient>
        <linearGradient id="paint16_linear_820_170" x1="213.683" y1="197.736" x2="179.603" y2="205.796"
            gradientUnits="userSpaceOnUse">
            <stop stop-color="#FEE45A" />
            <stop offset="1" stop-color="#FEA613" />
        </linearGradient>
        <linearGradient id="paint17_linear_820_170" x1="198.619" y1="150.386" x2="198.619" y2="120.506"
            gradientUnits="userSpaceOnUse">
            <stop stop-color="#FEA613" stop-opacity="0" />
            <stop offset="1" stop-color="#E94444" />
        </linearGradient>
        <linearGradient id="paint18_linear_820_170" x1="258.383" y1="103.949" x2="258.383" y2="129.02"
            gradientUnits="userSpaceOnUse">
            <stop stop-color="#FEE45A" />
            <stop offset="1" stop-color="#FEA613" />
        </linearGradient>
        <linearGradient id="paint19_linear_820_170" x1="320.89" y1="114.076" x2="345.982" y2="114.076"
            gradientUnits="userSpaceOnUse">
            <stop stop-color="#FEA613" stop-opacity="0" />
            <stop offset="1" stop-color="#E94444" />
        </linearGradient>
        <linearGradient id="paint20_linear_820_170" x1="258.382" y1="116.75" x2="258.382" y2="129.821"
            gradientUnits="userSpaceOnUse">
            <stop stop-color="#FEA613" stop-opacity="0" />
            <stop offset="1" stop-color="#E94444" />
        </linearGradient>
        <linearGradient id="paint21_linear_820_170" x1="133.277" y1="236.022" x2="155.788" y2="374.689"
            gradientUnits="userSpaceOnUse">
            <stop stop-color="#FEE45A" />
            <stop offset="1" stop-color="#FEA613" />
        </linearGradient>
        <linearGradient id="paint22_linear_820_170" x1="145.682" y1="298.181" x2="145.682" y2="323.863"
            gradientUnits="userSpaceOnUse">
            <stop stop-color="#FEA613" stop-opacity="0" />
            <stop offset="1" stop-color="#E94444" />
        </linearGradient>
        <linearGradient id="paint23_linear_820_170" x1="254.126" y1="300.519" x2="283.077" y2="300.519"
            gradientUnits="userSpaceOnUse">
            <stop stop-color="#FEA613" stop-opacity="0" />
            <stop offset="1" stop-color="#E94444" />
        </linearGradient>
        <linearGradient id="paint24_linear_820_170" x1="243.146" y1="300.518" x2="236.544" y2="300.518"
            gradientUnits="userSpaceOnUse">
            <stop stop-color="#FEE45A" />
            <stop offset="1" stop-color="#FEA613" />
        </linearGradient>
        <linearGradient id="paint25_linear_820_170" x1="229.331" y1="300.518" x2="222.728" y2="300.518"
            gradientUnits="userSpaceOnUse">
            <stop stop-color="#FEE45A" />
            <stop offset="1" stop-color="#FEA613" />
        </linearGradient>
        <linearGradient id="paint26_linear_820_170" x1="215.516" y1="300.518" x2="208.913" y2="300.518"
            gradientUnits="userSpaceOnUse">
            <stop stop-color="#FEE45A" />
            <stop offset="1" stop-color="#FEA613" />
        </linearGradient>
        <linearGradient id="paint27_linear_820_170" x1="142.237" y1="327.497" x2="142.657" y2="366.972"
            gradientUnits="userSpaceOnUse">
            <stop stop-color="#9E9797" />
            <stop offset="1" stop-color="#766E6E" />
        </linearGradient>
        <linearGradient id="paint28_linear_820_170" x1="142.392" y1="351.348" x2="142.392" y2="365.161"
            gradientUnits="userSpaceOnUse">
            <stop stop-color="#766E6E" stop-opacity="0" />
            <stop offset="1" stop-color="#444444" />
        </linearGradient>
        <linearGradient id="paint29_linear_820_170" x1="266.041" y1="342.06" x2="284.529" y2="342.06"
            gradientUnits="userSpaceOnUse">
            <stop stop-color="#766E6E" stop-opacity="0" />
            <stop offset="1" stop-color="#444444" />
        </linearGradient>
        <linearGradient id="paint30_linear_820_170" x1="65.8821" y1="331.852" x2="121.074" y2="387.044"
            gradientUnits="userSpaceOnUse">
            <stop stop-color="#5A5A5A" />
            <stop offset="1" stop-color="#444444" />
        </linearGradient>
        <linearGradient id="paint31_linear_820_170" x1="120.633" y1="386.604" x2="65.9854" y2="331.956"
            gradientUnits="userSpaceOnUse">
            <stop stop-color="#5A5A5A" />
            <stop offset="1" stop-color="#444444" />
        </linearGradient>
        <linearGradient id="paint32_linear_820_170" x1="89.5261" y1="389.688" x2="89.5261" y2="411.782"
            gradientUnits="userSpaceOnUse">
            <stop stop-color="#433F43" stop-opacity="0" />
            <stop offset="1" stop-color="#1A1A1A" />
        </linearGradient>
        <linearGradient id="paint33_linear_820_170" x1="115.192" y1="374.905" x2="134.171" y2="389.139"
            gradientUnits="userSpaceOnUse">
            <stop stop-color="#433F43" stop-opacity="0" />
            <stop offset="1" stop-color="#1A1A1A" />
        </linearGradient>
        <linearGradient id="paint34_linear_820_170" x1="115.649" y1="381.618" x2="89.4666" y2="355.436"
            gradientUnits="userSpaceOnUse">
            <stop stop-color="#433F43" stop-opacity="0" />
            <stop offset="1" stop-color="#1A1A1A" />
        </linearGradient>
        <linearGradient id="paint35_linear_820_170" x1="80.5714" y1="346.541" x2="98.2464" y2="364.216"
            gradientUnits="userSpaceOnUse">
            <stop stop-color="#FEE45A" />
            <stop offset="1" stop-color="#FEA613" />
        </linearGradient>
        <linearGradient id="paint36_linear_820_170" x1="89.5264" y1="356.814" x2="89.5264" y2="377.174"
            gradientUnits="userSpaceOnUse">
            <stop stop-color="#FEA613" stop-opacity="0" />
            <stop offset="1" stop-color="#E94444" />
        </linearGradient>
        <linearGradient id="paint37_linear_820_170" x1="92.0594" y1="357.229" x2="109.004" y2="368.752"
            gradientUnits="userSpaceOnUse">
            <stop stop-color="#FEA613" stop-opacity="0" />
            <stop offset="1" stop-color="#E94444" />
        </linearGradient>
        <linearGradient id="paint38_linear_820_170" x1="178.194" y1="331.852" x2="233.385" y2="387.044"
            gradientUnits="userSpaceOnUse">
            <stop stop-color="#5A5A5A" />
            <stop offset="1" stop-color="#444444" />
        </linearGradient>
        <linearGradient id="paint39_linear_820_170" x1="232.944" y1="386.604" x2="178.296" y2="331.956"
            gradientUnits="userSpaceOnUse">
            <stop stop-color="#5A5A5A" />
            <stop offset="1" stop-color="#444444" />
        </linearGradient>
        <linearGradient id="paint40_linear_820_170" x1="201.837" y1="389.688" x2="201.837" y2="411.782"
            gradientUnits="userSpaceOnUse">
            <stop stop-color="#433F43" stop-opacity="0" />
            <stop offset="1" stop-color="#1A1A1A" />
        </linearGradient>
        <linearGradient id="paint41_linear_820_170" x1="227.503" y1="374.905" x2="246.482" y2="389.139"
            gradientUnits="userSpaceOnUse">
            <stop stop-color="#433F43" stop-opacity="0" />
            <stop offset="1" stop-color="#1A1A1A" />
        </linearGradient>
        <linearGradient id="paint42_linear_820_170" x1="227.959" y1="381.618" x2="201.777" y2="355.436"
            gradientUnits="userSpaceOnUse">
            <stop stop-color="#433F43" stop-opacity="0" />
            <stop offset="1" stop-color="#1A1A1A" />
        </linearGradient>
        <linearGradient id="paint43_linear_820_170" x1="192.882" y1="346.541" x2="210.558" y2="364.216"
            gradientUnits="userSpaceOnUse">
            <stop stop-color="#FEE45A" />
            <stop offset="1" stop-color="#FEA613" />
        </linearGradient>
        <linearGradient id="paint44_linear_820_170" x1="201.837" y1="356.814" x2="201.837" y2="377.174"
            gradientUnits="userSpaceOnUse">
            <stop stop-color="#FEA613" stop-opacity="0" />
            <stop offset="1" stop-color="#E94444" />
        </linearGradient>
        <linearGradient id="paint45_linear_820_170" x1="204.37" y1="357.229" x2="221.315" y2="368.752"
            gradientUnits="userSpaceOnUse">
            <stop stop-color="#FEA613" stop-opacity="0" />
            <stop offset="1" stop-color="#E94444" />
        </linearGradient>
        <linearGradient id="paint46_linear_820_170" x1="366.251" y1="231.06" x2="374.169" y2="349.824"
            gradientUnits="userSpaceOnUse">
            <stop stop-color="#FEE45A" />
            <stop offset="1" stop-color="#FEA613" />
        </linearGradient>
        <linearGradient id="paint47_linear_820_170" x1="373.96" y1="271.537" x2="373.96" y2="231.773"
            gradientUnits="userSpaceOnUse">
            <stop stop-color="#FEA613" stop-opacity="0" />
            <stop offset="1" stop-color="#E94444" />
        </linearGradient>
        <linearGradient id="paint48_linear_820_170" x1="458.345" y1="275.866" x2="480.464" y2="262.293"
            gradientUnits="userSpaceOnUse">
            <stop stop-color="#FEA613" stop-opacity="0" />
            <stop offset="1" stop-color="#E94444" />
        </linearGradient>
        <linearGradient id="paint49_linear_820_170" x1="279.218" y1="320.567" x2="267.899" y2="309.249"
            gradientUnits="userSpaceOnUse">
            <stop stop-color="#FEE45A" />
            <stop offset="1" stop-color="#FEA613" />
        </linearGradient>
        <linearGradient id="paint50_linear_820_170" x1="288.599" y1="300.448" x2="286.588" y2="340.162"
            gradientUnits="userSpaceOnUse">
            <stop stop-color="#FEA613" stop-opacity="0" />
            <stop offset="1" stop-color="#E94444" />
        </linearGradient>
        <linearGradient id="paint51_linear_820_170" x1="379.176" y1="250.307" x2="362.288" y2="250.307"
            gradientUnits="userSpaceOnUse">
            <stop stop-color="#FEA613" stop-opacity="0" />
            <stop offset="1" stop-color="#E94444" />
        </linearGradient>
        <linearGradient id="paint52_linear_820_170" x1="464.426" y1="287.658" x2="514.194" y2="302.739"
            gradientUnits="userSpaceOnUse">
            <stop stop-color="#FEE45A" />
            <stop offset="1" stop-color="#FEA613" />
        </linearGradient>
        <linearGradient id="paint53_linear_820_170" x1="505.116" y1="294.96" x2="512.748" y2="294.96"
            gradientUnits="userSpaceOnUse">
            <stop stop-color="#FEA613" stop-opacity="0" />
            <stop offset="1" stop-color="#E94444" />
        </linearGradient>
        <linearGradient id="paint54_linear_820_170" x1="366.104" y1="271.24" x2="356.802" y2="271.24"
            gradientUnits="userSpaceOnUse">
            <stop stop-color="#FEE45A" />
            <stop offset="1" stop-color="#FEA613" />
        </linearGradient>
        <linearGradient id="paint55_linear_820_170" x1="398.115" y1="313.063" x2="398.115" y2="331.753"
            gradientUnits="userSpaceOnUse">
            <stop stop-color="#FEE45A" />
            <stop offset="1" stop-color="#FEA613" />
        </linearGradient>
        <linearGradient id="paint56_linear_820_170" x1="419.282" y1="336.626" x2="419.282" y2="318.179"
            gradientUnits="userSpaceOnUse">
            <stop stop-color="#FEE45A" />
            <stop offset="1" stop-color="#FEA613" />
        </linearGradient>
        <linearGradient id="paint57_linear_820_170" x1="455.424" y1="320.388" x2="475.197" y2="320.388"
            gradientUnits="userSpaceOnUse">
            <stop stop-color="#FEA613" stop-opacity="0" />
            <stop offset="1" stop-color="#E94444" />
        </linearGradient>
        <linearGradient id="paint58_linear_820_170" x1="348.846" y1="328.195" x2="330.856" y2="310.206"
            gradientUnits="userSpaceOnUse">
            <stop stop-color="#FEE45A" />
            <stop offset="1" stop-color="#FEA613" />
        </linearGradient>
        <linearGradient id="paint59_linear_820_170" x1="338.241" y1="317.824" x2="343.604" y2="322.739"
            gradientUnits="userSpaceOnUse">
            <stop stop-color="#EAF9FA" />
            <stop offset="1" stop-color="#B3DAFE" />
        </linearGradient>
        <linearGradient id="paint60_linear_820_170" x1="360.25" y1="331.399" x2="346.3" y2="326.497"
            gradientUnits="userSpaceOnUse">
            <stop stop-color="#FEA613" stop-opacity="0" />
            <stop offset="1" stop-color="#E94444" />
        </linearGradient>
        <linearGradient id="paint61_linear_820_170" x1="425.589" y1="331.852" x2="480.781" y2="387.044"
            gradientUnits="userSpaceOnUse">
            <stop stop-color="#5A5A5A" />
            <stop offset="1" stop-color="#444444" />
        </linearGradient>
        <linearGradient id="paint62_linear_820_170" x1="480.34" y1="386.604" x2="425.691" y2="331.956"
            gradientUnits="userSpaceOnUse">
            <stop stop-color="#5A5A5A" />
            <stop offset="1" stop-color="#444444" />
        </linearGradient>
        <linearGradient id="paint63_linear_820_170" x1="449.233" y1="389.688" x2="449.233" y2="411.782"
            gradientUnits="userSpaceOnUse">
            <stop stop-color="#433F43" stop-opacity="0" />
            <stop offset="1" stop-color="#1A1A1A" />
        </linearGradient>
        <linearGradient id="paint64_linear_820_170" x1="474.897" y1="374.905" x2="493.876" y2="389.139"
            gradientUnits="userSpaceOnUse">
            <stop stop-color="#433F43" stop-opacity="0" />
            <stop offset="1" stop-color="#1A1A1A" />
        </linearGradient>
        <linearGradient id="paint65_linear_820_170" x1="475.355" y1="381.618" x2="449.173" y2="355.436"
            gradientUnits="userSpaceOnUse">
            <stop stop-color="#433F43" stop-opacity="0" />
            <stop offset="1" stop-color="#1A1A1A" />
        </linearGradient>
        <linearGradient id="paint66_linear_820_170" x1="440.278" y1="346.541" x2="457.953" y2="364.216"
            gradientUnits="userSpaceOnUse">
            <stop stop-color="#FEE45A" />
            <stop offset="1" stop-color="#FEA613" />
        </linearGradient>
        <linearGradient id="paint67_linear_820_170" x1="449.233" y1="356.814" x2="449.233" y2="377.174"
            gradientUnits="userSpaceOnUse">
            <stop stop-color="#FEA613" stop-opacity="0" />
            <stop offset="1" stop-color="#E94444" />
        </linearGradient>
        <linearGradient id="paint68_linear_820_170" x1="451.765" y1="357.229" x2="468.711" y2="368.752"
            gradientUnits="userSpaceOnUse">
            <stop stop-color="#FEA613" stop-opacity="0" />
            <stop offset="1" stop-color="#E94444" />
        </linearGradient>
        <linearGradient id="paint69_linear_820_170" x1="325.09" y1="347.963" x2="351.554" y2="353.004"
            gradientUnits="userSpaceOnUse">
            <stop stop-color="#5A5A5A" />
            <stop offset="1" stop-color="#444444" />
        </linearGradient>
        <linearGradient id="paint70_linear_820_170" x1="345.979" y1="364.866" x2="338.733" y2="375.263"
            gradientUnits="userSpaceOnUse">
            <stop stop-color="#433F43" stop-opacity="0" />
            <stop offset="1" stop-color="#1A1A1A" />
        </linearGradient>
        <clipPath id="clip0_820_170">
            <rect width="512" height="512" fill="white" />
        </clipPath>
    </defs>
</svg>