<svg width="512" height="512" viewBox="0 0 512 512" fill="none" xmlns="http://www.w3.org/2000/svg">
<g clip-path="url(#clip0_820_71)">
<path d="M344 480H56C43.2696 480 31.0606 474.943 22.0589 465.941C13.0571 456.939 8 444.73 8 432C8 419.27 13.0571 407.061 22.0589 398.059C31.0606 389.057 43.2696 384 56 384H344C356.73 384 368.939 389.057 377.941 398.059C386.943 407.061 392 419.27 392 432C392 444.73 386.943 456.939 377.941 465.941C368.939 474.943 356.73 480 344 480Z" fill="#596060"/>
<path d="M344 456H56C45.3562 456.003 35.0132 452.468 26.5975 445.952C18.1819 439.435 12.171 430.306 9.51 420C8.50763 423.921 8.00035 427.953 8 432C8 444.73 13.0571 456.939 22.0589 465.941C31.0606 474.943 43.2696 480 56 480H344C356.73 480 368.939 474.943 377.941 465.941C386.943 456.939 392 444.73 392 432C392 427.953 391.492 423.921 390.49 420C387.829 430.306 381.818 439.435 373.402 445.952C364.987 452.468 354.644 456.003 344 456Z" fill="#4C5657"/>
<path d="M344 488H288C285.878 488 283.843 487.157 282.343 485.657C280.843 484.157 280 482.122 280 480C280 477.878 280.843 475.843 282.343 474.343C283.843 472.843 285.878 472 288 472H344C354.609 472 364.783 467.786 372.284 460.284C379.786 452.783 384 442.609 384 432C384 421.391 379.786 411.217 372.284 403.716C364.783 396.214 354.609 392 344 392H56C45.3913 392 35.2172 396.214 27.7157 403.716C20.2143 411.217 16 421.391 16 432C16 442.609 20.2143 452.783 27.7157 460.284C35.2172 467.786 45.3913 472 56 472H256C258.122 472 260.157 472.843 261.657 474.343C263.157 475.843 264 477.878 264 480C264 482.122 263.157 484.157 261.657 485.657C260.157 487.157 258.122 488 256 488H56C41.1479 488 26.9041 482.1 16.402 471.598C5.89998 461.096 0 446.852 0 432C0 417.148 5.89998 402.904 16.402 392.402C26.9041 381.9 41.1479 376 56 376H344C358.852 376 373.096 381.9 383.598 392.402C394.1 402.904 400 417.148 400 432C400 446.852 394.1 461.096 383.598 471.598C373.096 482.1 358.852 488 344 488Z" fill="black"/>
<path d="M72 344H328V384H72V344Z" fill="#E9A648"/>
<path d="M72 344H328V368H72V344Z" fill="#D08840"/>
<path d="M328 392H72C69.8783 392 67.8434 391.157 66.3431 389.657C64.8429 388.157 64 386.122 64 384V344C64 341.878 64.8429 339.843 66.3431 338.343C67.8434 336.843 69.8783 336 72 336H328C330.122 336 332.157 336.843 333.657 338.343C335.157 339.843 336 341.878 336 344V384C336 386.122 335.157 388.157 333.657 389.657C332.157 391.157 330.122 392 328 392ZM80 376H320V352H80V376Z" fill="black"/>
<path d="M360 328V272L316.42 184.84C315.091 182.183 313.048 179.949 310.52 178.388C307.993 176.827 305.081 176 302.11 176H192C187.757 176 183.687 177.686 180.686 180.686C177.686 183.687 176 187.757 176 192V264H56C51.7565 264 47.6869 265.686 44.6863 268.686C41.6857 271.687 40 275.757 40 280V328C40 332.243 41.6857 336.313 44.6863 339.314C47.6869 342.314 51.7565 344 56 344H344C348.243 344 352.313 342.314 355.314 339.314C358.314 336.313 360 332.243 360 328Z" fill="#E9A648"/>
<path d="M344 320H56C51.7565 320 47.6869 318.314 44.6863 315.314C41.6857 312.313 40 308.243 40 304V328C40 332.243 41.6857 336.313 44.6863 339.314C47.6869 342.314 51.7565 344 56 344H344C348.243 344 352.313 342.314 355.314 339.314C358.314 336.313 360 332.243 360 328V304C360 308.243 358.314 312.313 355.314 315.314C352.313 318.314 348.243 320 344 320Z" fill="#D08840"/>
<path d="M344 352H56C49.6348 352 43.5303 349.472 39.0294 344.971C34.5286 340.47 32 334.365 32 328V280C32 273.635 34.5286 267.53 39.0294 263.03C43.5303 258.529 49.6348 256 56 256H168V192C168 185.635 170.529 179.53 175.029 175.03C179.53 170.529 185.635 168 192 168H302.11C306.571 167.984 310.948 169.218 314.743 171.564C318.538 173.909 321.6 177.272 323.58 181.27L367.16 268.42C367.711 269.533 367.999 270.758 368 272V328C368 334.365 365.471 340.47 360.971 344.971C356.47 349.472 350.365 352 344 352ZM56 272C53.8783 272 51.8434 272.843 50.3431 274.343C48.8429 275.844 48 277.878 48 280V328C48 330.122 48.8429 332.157 50.3431 333.657C51.8434 335.157 53.8783 336 56 336H344C346.122 336 348.157 335.157 349.657 333.657C351.157 332.157 352 330.122 352 328V273.89L309.27 188.42C308.605 187.091 307.583 185.973 306.318 185.193C305.053 184.412 303.596 183.999 302.11 184H192C189.878 184 187.843 184.843 186.343 186.343C184.843 187.844 184 189.878 184 192V264C184 266.122 183.157 268.157 181.657 269.657C180.157 271.157 178.122 272 176 272H56Z" fill="black"/>
<path d="M56 232H176V264H56V232Z" fill="#E9A648"/>
<path d="M176 272H56C53.8783 272 51.8434 271.157 50.3431 269.657C48.8429 268.157 48 266.122 48 264V232C48 229.878 48.8429 227.843 50.3431 226.343C51.8434 224.843 53.8783 224 56 224H144C146.122 224 148.157 224.843 149.657 226.343C151.157 227.843 152 229.878 152 232C152 234.122 151.157 236.157 149.657 237.657C148.157 239.157 146.122 240 144 240H64V256H168V232C168 229.878 168.843 227.843 170.343 226.343C171.843 224.843 173.878 224 176 224C178.122 224 180.157 224.843 181.657 226.343C183.157 227.843 184 229.878 184 232V264C184 266.122 183.157 268.157 181.657 269.657C180.157 271.157 178.122 272 176 272Z" fill="black"/>
<path d="M264 160L384 64L352 40L216 144L264 160Z" fill="#E9A648"/>
<path d="M264 168C262.15 168 265.85 169.05 213.47 151.59C212.092 151.13 210.866 150.303 209.922 149.199C208.978 148.094 208.353 146.754 208.113 145.321C207.874 143.888 208.029 142.417 208.562 141.065C209.096 139.714 209.987 138.533 211.14 137.65L347.14 33.65C348.53 32.5971 350.226 32.0273 351.97 32.0273C353.714 32.0273 355.41 32.5971 356.8 33.65L388.8 57.65C389.778 58.3822 390.574 59.3286 391.13 60.4164C391.685 61.5043 391.983 62.7048 392.003 63.9259C392.022 65.147 391.761 66.3564 391.241 67.4612C390.721 68.5661 389.954 69.5371 389 70.3L269 166.3C267.574 167.416 265.811 168.016 264 168ZM232.85 141.18L262.4 151L370.94 64.2L352.05 50L232.85 141.18Z" fill="black"/>
<path d="M280 128V176H216V144L240 128H280Z" fill="#E38343"/>
<path d="M216 152H280V176H216V152Z" fill="#DF6117"/>
<path d="M280 184H216C213.878 184 211.843 183.157 210.343 181.657C208.843 180.157 208 178.122 208 176V144C207.999 142.683 208.324 141.385 208.945 140.223C209.566 139.062 210.464 138.071 211.56 137.34L235.56 121.34C236.877 120.469 238.421 120.003 240 120H280C282.122 120 284.157 120.843 285.657 122.343C287.157 123.843 288 125.878 288 128V176C288 178.122 287.157 180.157 285.657 181.657C284.157 183.157 282.122 184 280 184ZM224 168H272V136H242.42L224 148.28V168Z" fill="black"/>
<path d="M360 272H216V176H302.11C305.081 176 307.993 176.827 310.52 178.388C313.048 179.949 315.091 182.183 316.42 184.84L360 272Z" fill="#A8EDFD"/>
<path d="M360 280H216C213.878 280 211.843 279.157 210.343 277.657C208.843 276.157 208 274.122 208 272V176C208 173.878 208.843 171.844 210.343 170.343C211.843 168.843 213.878 168 216 168H302.11C306.571 167.984 310.948 169.218 314.743 171.564C318.538 173.909 321.6 177.272 323.58 181.27L367.16 268.42C367.771 269.64 368.059 270.996 367.998 272.359C367.936 273.722 367.528 275.047 366.81 276.207C366.093 277.368 365.09 278.325 363.898 278.989C362.706 279.653 361.364 280.001 360 280ZM224 264H347.06L309.27 188.42C308.605 187.091 307.583 185.973 306.318 185.193C305.053 184.412 303.596 183.999 302.11 184H224V264Z" fill="black"/>
<path d="M504 192V248L456 304L384 248L448 240L493.09 179.88L504 192Z" fill="#596060"/>
<path d="M415.01 244.12L384 248L456 304L504 248V220L456 276L415.01 244.12Z" fill="#4C5657"/>
<path d="M451.09 310.31L379.09 254.31C377.843 253.339 376.911 252.02 376.412 250.52C375.914 249.019 375.871 247.405 376.289 245.88C376.707 244.355 377.568 242.989 378.763 241.953C379.957 240.917 381.432 240.259 383 240.06L443.63 232.48L486.68 175.08C487.389 174.134 488.299 173.357 489.345 172.805C490.39 172.253 491.544 171.939 492.725 171.887C493.906 171.834 495.084 172.044 496.174 172.501C497.265 172.958 498.24 173.651 499.03 174.53L510 186.65C511.303 188.127 512.015 190.032 512 192V248C512 249.912 511.315 251.76 510.07 253.21L462.07 309.21C460.731 310.768 458.844 311.752 456.8 311.956C454.756 312.161 452.712 311.572 451.09 310.31ZM404.16 253.54L454.89 293L496 245V195L493.65 192.39L454.4 244.8C453.756 245.66 452.944 246.381 452.015 246.921C451.085 247.46 450.057 247.807 448.99 247.94L404.16 253.54Z" fill="black"/>
<path d="M493.089 179.88L465.139 217.14L328.139 80.1402C325.461 77.4614 323.358 74.2642 321.959 70.7445C320.559 67.2248 319.892 63.4564 319.999 59.6701C320.002 54.0731 321.701 48.6083 324.873 43.9966C328.044 39.3849 332.539 35.8431 337.765 33.8384C342.991 31.8337 348.702 31.4603 354.144 32.7674C359.586 34.0745 364.504 37.0008 368.249 41.1602L493.089 179.88Z" fill="#E9A648"/>
<path d="M476.14 201.14L339.14 64.14C335.682 60.6319 333.191 56.289 331.908 51.5333C330.626 46.7776 330.595 41.771 331.82 37C328.169 39.5465 325.187 42.9378 323.129 46.885C321.071 50.8323 319.997 55.2185 320 59.67V60.54C320.001 67.8806 322.919 74.9201 328.11 80.11L465.11 217.11L493.06 179.85L492.51 179.24L476.14 201.14Z" fill="#D08840"/>
<path d="M459.48 222.8L322.48 85.8C319.146 82.4943 316.503 78.5587 314.704 74.2222C312.905 69.8858 311.986 65.2349 312 60.54C312 38.85 328.85 24 347.67 24C352.671 24.0012 357.616 25.0531 362.185 27.0876C366.753 29.1221 370.844 32.0937 374.19 35.81L499 174.53C500.239 175.908 500.961 177.673 501.043 179.524C501.125 181.376 500.562 183.198 499.45 184.68L471.5 221.94C470.813 222.851 469.938 223.605 468.935 224.15C467.932 224.695 466.824 225.019 465.686 225.1C464.547 225.182 463.404 225.019 462.334 224.622C461.264 224.225 460.291 223.604 459.48 222.8ZM347.67 40C342.456 40.0079 337.457 42.0829 333.77 45.77C330.083 49.4571 328.008 54.4556 328 59.67V60.54C327.995 63.1239 328.501 65.6834 329.49 68.0707C330.478 70.4581 331.93 72.6262 333.76 74.45L464.27 205L482.74 180.38L362.3 46.51C360.452 44.4621 358.196 42.8245 355.676 41.7032C353.156 40.5818 350.428 40.0016 347.67 40Z" fill="black"/>
<path d="M80 448C88.8366 448 96 440.837 96 432C96 423.163 88.8366 416 80 416C71.1634 416 64 423.163 64 432C64 440.837 71.1634 448 80 448Z" fill="#F6F6F6"/>
<path d="M80 456C75.2533 456 70.6131 454.592 66.6663 451.955C62.7195 449.318 59.6434 445.57 57.8269 441.184C56.0104 436.799 55.5351 431.973 56.4612 427.318C57.3872 422.662 59.673 418.386 63.0294 415.029C66.3859 411.673 70.6623 409.387 75.3178 408.461C79.9734 407.535 84.799 408.01 89.1844 409.827C93.5698 411.643 97.3181 414.72 99.9553 418.666C102.592 422.613 104 427.253 104 432C104 438.365 101.471 444.47 96.9706 448.971C92.4697 453.471 86.3652 456 80 456ZM80 424C78.4178 424 76.871 424.469 75.5554 425.348C74.2399 426.227 73.2145 427.477 72.609 428.939C72.0035 430.4 71.845 432.009 72.1537 433.561C72.4624 435.113 73.2243 436.538 74.3432 437.657C75.462 438.776 76.8874 439.538 78.4393 439.846C79.9911 440.155 81.5997 439.997 83.0615 439.391C84.5233 438.786 85.7727 437.76 86.6518 436.445C87.5308 435.129 88 433.582 88 432C88 429.878 87.1572 427.843 85.6569 426.343C84.1566 424.843 82.1217 424 80 424Z" fill="black"/>
<path d="M160 448C168.837 448 176 440.837 176 432C176 423.163 168.837 416 160 416C151.163 416 144 423.163 144 432C144 440.837 151.163 448 160 448Z" fill="#F6F6F6"/>
<path d="M160 456C155.253 456 150.613 454.592 146.666 451.955C142.72 449.318 139.643 445.57 137.827 441.184C136.01 436.799 135.535 431.973 136.461 427.318C137.387 422.662 139.673 418.386 143.029 415.029C146.386 411.673 150.662 409.387 155.318 408.461C159.973 407.535 164.799 408.01 169.184 409.827C173.57 411.643 177.318 414.72 179.955 418.666C182.592 422.613 184 427.253 184 432C184 438.365 181.471 444.47 176.971 448.971C172.47 453.471 166.365 456 160 456ZM160 424C158.418 424 156.871 424.469 155.555 425.348C154.24 426.227 153.214 427.477 152.609 428.939C152.003 430.4 151.845 432.009 152.154 433.561C152.462 435.113 153.224 436.538 154.343 437.657C155.462 438.776 156.887 439.538 158.439 439.846C159.991 440.155 161.6 439.997 163.061 439.391C164.523 438.786 165.773 437.76 166.652 436.445C167.531 435.129 168 433.582 168 432C168 429.878 167.157 427.843 165.657 426.343C164.157 424.843 162.122 424 160 424Z" fill="black"/>
<path d="M240 448C248.837 448 256 440.837 256 432C256 423.163 248.837 416 240 416C231.163 416 224 423.163 224 432C224 440.837 231.163 448 240 448Z" fill="#F6F6F6"/>
<path d="M240 456C235.253 456 230.613 454.592 226.666 451.955C222.72 449.318 219.643 445.57 217.827 441.184C216.01 436.799 215.535 431.973 216.461 427.318C217.387 422.662 219.673 418.386 223.029 415.029C226.386 411.673 230.662 409.387 235.318 408.461C239.973 407.535 244.799 408.01 249.184 409.827C253.57 411.643 257.318 414.72 259.955 418.666C262.592 422.613 264 427.253 264 432C264 438.365 261.471 444.47 256.971 448.971C252.47 453.471 246.365 456 240 456ZM240 424C238.418 424 236.871 424.469 235.555 425.348C234.24 426.227 233.214 427.477 232.609 428.939C232.003 430.4 231.845 432.009 232.154 433.561C232.462 435.113 233.224 436.538 234.343 437.657C235.462 438.776 236.887 439.538 238.439 439.846C239.991 440.155 241.6 439.997 243.061 439.391C244.523 438.786 245.773 437.76 246.652 436.445C247.531 435.129 248 433.582 248 432C248 429.878 247.157 427.843 245.657 426.343C244.157 424.843 242.122 424 240 424Z" fill="black"/>
<path d="M320 448C328.837 448 336 440.837 336 432C336 423.163 328.837 416 320 416C311.163 416 304 423.163 304 432C304 440.837 311.163 448 320 448Z" fill="#F6F6F6"/>
<path d="M320 456C315.253 456 310.613 454.592 306.666 451.955C302.72 449.318 299.643 445.57 297.827 441.184C296.01 436.799 295.535 431.973 296.461 427.318C297.387 422.662 299.673 418.386 303.029 415.029C306.386 411.673 310.662 409.387 315.318 408.461C319.973 407.535 324.799 408.01 329.184 409.827C333.57 411.643 337.318 414.72 339.955 418.666C342.592 422.613 344 427.253 344 432C344 438.365 341.471 444.47 336.971 448.971C332.47 453.471 326.365 456 320 456ZM320 424C318.418 424 316.871 424.469 315.555 425.348C314.24 426.227 313.214 427.477 312.609 428.939C312.003 430.4 311.845 432.009 312.154 433.561C312.462 435.113 313.224 436.538 314.343 437.657C315.462 438.776 316.887 439.538 318.439 439.846C319.991 440.155 321.6 439.997 323.061 439.391C324.523 438.786 325.773 437.76 326.652 436.445C327.531 435.129 328 433.582 328 432C328 429.878 327.157 427.843 325.657 426.343C324.157 424.843 322.122 424 320 424ZM72 320C69.8783 320 67.8434 319.157 66.3431 317.657C64.8429 316.157 64 314.122 64 312V296C64 293.878 64.8429 291.843 66.3431 290.343C67.8434 288.843 69.8783 288 72 288C74.1217 288 76.1566 288.843 77.6569 290.343C79.1571 291.843 80 293.878 80 296V312C80 314.122 79.1571 316.157 77.6569 317.657C76.1566 319.157 74.1217 320 72 320ZM104 320C101.878 320 99.8434 319.157 98.3431 317.657C96.8429 316.157 96 314.122 96 312V296C96 293.878 96.8429 291.843 98.3431 290.343C99.8434 288.843 101.878 288 104 288C106.122 288 108.157 288.843 109.657 290.343C111.157 291.843 112 293.878 112 296V312C112 314.122 111.157 316.157 109.657 317.657C108.157 319.157 106.122 320 104 320ZM136 320C133.878 320 131.843 319.157 130.343 317.657C128.843 316.157 128 314.122 128 312V296C128 293.878 128.843 291.843 130.343 290.343C131.843 288.843 133.878 288 136 288C138.122 288 140.157 288.843 141.657 290.343C143.157 291.843 144 293.878 144 296V312C144 314.122 143.157 316.157 141.657 317.657C140.157 319.157 138.122 320 136 320ZM360 312H336C333.878 312 331.843 311.157 330.343 309.657C328.843 308.157 328 306.122 328 304C328 301.878 328.843 299.843 330.343 298.343C331.843 296.843 333.878 296 336 296H360C362.122 296 364.157 296.843 365.657 298.343C367.157 299.843 368 301.878 368 304C368 306.122 367.157 308.157 365.657 309.657C364.157 311.157 362.122 312 360 312Z" fill="black"/>
</g>
<defs>
<clipPath id="clip0_820_71">
<rect width="512" height="512" fill="white"/>
</clipPath>
</defs>
</svg>
