<svg width="17" height="17" viewBox="0 0 17 17" fill="none" xmlns="http://www.w3.org/2000/svg">
    <path
        d="M8.55619 13.9146L11.8893 10.9148C11.96 10.8508 12 10.7615 12 10.6668L12 8.66694C11.9999 8.60255 11.9813 8.53955 11.9463 8.48551C11.9113 8.43147 11.8614 8.38868 11.8027 8.36229C11.682 8.30896 11.5414 8.33096 11.444 8.41895L8.33353 11.2181L5.2237 8.41895C5.12571 8.33096 4.98505 8.30829 4.86505 8.36229C4.74439 8.41629 4.66706 8.53561 4.66706 8.66694L4.66706 10.6668C4.66706 10.7615 4.70773 10.8508 4.77706 10.9148L8.11021 13.9146C8.23687 14.0285 8.43019 14.0285 8.55619 13.9146Z"
        fill="#ECF4FF" />
    <path
        d="M8.55619 9.5813L11.8893 6.58152C11.96 6.51753 12 6.4282 12 6.33354L12 4.33368C11.9999 4.2693 11.9813 4.2063 11.9463 4.15226C11.9113 4.09822 11.8614 4.05543 11.8027 4.02904C11.682 3.97571 11.5414 3.99771 11.444 4.0857L8.33353 6.88483L5.2237 4.0857C5.12571 3.99771 4.98505 3.97504 4.86505 4.02904C4.74439 4.08304 4.66706 4.20236 4.66706 4.33368L4.66706 6.33354C4.66706 6.4282 4.70773 6.51753 4.77706 6.58152L8.11021 9.5813C8.23687 9.69529 8.43019 9.69529 8.55619 9.5813Z"
        fill="#ECF4FF" />
</svg>