<svg width="23" height="25" viewBox="0 0 23 25" fill="none" xmlns="http://www.w3.org/2000/svg">
    <path
        d="M22.7774 6.30808L21.372 4.90267C21.3063 4.83709 21.2283 4.78517 21.1425 4.7499C20.9705 4.67884 20.7774 4.67884 20.6055 4.7499C20.5197 4.78519 20.4417 4.83711 20.376 4.90267L18.9706 6.30808C18.696 6.58272 18.696 7.0277 18.9706 7.30234C19.2453 7.57698 19.6902 7.57698 19.9649 7.30234L20.1709 7.09632V8.21143C20.1709 9.37459 19.2247 10.3208 18.0615 10.3208C17.8145 10.3208 17.5739 10.3475 17.3412 10.3962C15.8321 10.7114 14.5459 12.1296 14.5459 13.8364V15.2427C14.5459 15.6313 14.2314 15.9458 13.8428 15.9458C13.4541 15.9458 13.1396 15.6313 13.1396 15.2427V13.8364C13.1396 11.668 14.559 9.84325 16.5103 9.18915L15.0739 7.27412C16.4049 6.77298 17.3584 5.49704 17.3584 3.99269V2.87758L17.5644 3.08359C17.839 3.35823 18.284 3.35828 18.5587 3.08359C18.8333 2.80895 18.8333 2.36397 18.5587 2.08933L17.1533 0.683922C17.0876 0.618344 17.0096 0.566422 16.9238 0.531156C16.7518 0.460092 16.5587 0.460092 16.3868 0.531156C16.301 0.566445 16.223 0.618364 16.1573 0.683922L14.7519 2.08933C14.4773 2.36397 14.4773 2.80895 14.7519 3.08359C15.0265 3.35823 15.4715 3.35823 15.7462 3.08359L15.9521 2.87758V3.99269C15.9521 5.15584 15.0059 6.10206 13.8428 6.10206C11.9037 6.10206 10.3271 7.67861 10.3271 9.61768V11.0239C10.3271 11.4126 10.0127 11.7271 9.62402 11.7271C9.23538 11.7271 8.92089 11.4126 8.92089 11.0239V9.61768C8.92089 7.12773 10.7868 5.08515 13.1897 4.76181L10.1871 0.742797C9.92064 0.388469 9.32739 0.388469 9.061 0.742797L2.30712 9.76323C1.11373 11.3535 0.483398 13.2487 0.483398 15.2427C0.483398 20.2827 4.58402 24.4771 9.62402 24.4771C14.664 24.4771 18.7646 20.2827 18.7646 15.2427C18.7646 14.0133 18.4996 12.8325 18.0284 11.7304C18.0397 11.7302 18.0502 11.7271 18.0615 11.7271C20.0006 11.7271 21.5771 10.1505 21.5771 8.21143V7.09632L21.7832 7.30234C22.0578 7.57698 22.5027 7.57703 22.7774 7.30234C23.0521 7.02765 23.0521 6.58272 22.7774 6.30808Z"
        fill="#ECF4FF" />
</svg>