<svg width="119" height="104" viewBox="0 0 119 104" fill="none" xmlns="http://www.w3.org/2000/svg">
    <g clip-path="url(#clip0_712_422)">
        <path
            d="M65.4484 23.5233C66.2393 19.5392 67.0629 15.5615 68.3623 11.7038C68.8615 10.2203 69.4043 8.75397 70.1531 7.36876C70.3512 7.00374 70.4885 6.96006 70.8738 7.15193C77.1228 10.2702 79.6842 15.7767 80.7028 22.2831C80.9087 23.6013 80.9353 24.9366 81.0055 26.2672C81.0335 26.8069 80.9025 27.2452 80.4938 27.6321C79.5251 28.5478 78.5798 29.4868 77.6423 30.4337C77.3396 30.7395 77.0323 30.8455 76.619 30.7129C70.3465 28.6991 63.8776 28.4043 57.3618 28.5244C53.5696 28.5946 49.7977 28.8676 46.0898 29.7115C45.0821 29.9408 44.0838 30.2294 43.0979 30.5429C42.2618 30.8081 41.5848 30.6708 40.9733 30.0172C40.1637 29.153 39.312 28.3294 38.4712 27.4948C38.2372 27.264 38.0594 27.0269 38.0687 26.6728C38.1576 23.2534 38.4961 19.8777 39.7659 16.6565C40.8766 13.8362 42.502 11.3653 44.7436 9.32022C45.8168 8.34215 47.1911 7.82114 48.3845 7.0209C48.7308 6.78847 48.8072 7.13633 48.9257 7.33912C50.1768 9.48713 51.1283 11.7646 51.8615 14.1388C52.8458 17.3273 53.3247 20.6093 53.749 23.9055C53.8988 24.0209 53.88 24.1878 53.8847 24.3469C53.8847 24.4358 53.8847 24.5247 53.8847 24.6137C53.8847 24.6698 53.8847 24.726 53.8847 24.7837C53.8847 24.8258 53.8832 24.8445 53.8816 24.8398C53.8613 24.7572 53.9658 24.832 53.8863 24.7977C53.8863 24.6246 53.8863 24.4592 53.8863 24.2939C54.0641 22.2457 53.9502 20.2053 53.7708 18.165C53.2202 13.2575 52.0409 8.55274 49.2814 4.36748C48.9601 3.87922 49.0505 3.68891 49.5357 3.42061C55.3776 0.186898 61.3801 -0.0470898 67.5418 2.39106C68.3124 2.69525 68.9972 3.16166 69.7257 3.54384C70.0439 3.71231 70.097 3.8995 69.9098 4.20057C69.6071 4.68414 69.3092 5.1724 69.0378 5.67469C66.9771 9.48089 66.0505 13.6084 65.6184 17.8701C65.4843 19.1945 65.4063 20.5251 65.3033 21.8526C65.1832 22.358 65.2815 22.8712 65.2503 23.3782C65.255 23.8197 65.1863 24.2596 65.1816 24.6901C65.1972 24.6199 65.1879 24.5357 65.1941 24.4514C65.2799 24.141 65.1988 23.7853 65.4515 23.5233H65.4484Z"
            fill="white" />
        <path
            d="M44.65 60.1361C44.65 62.2623 44.6765 64.716 44.6406 67.1698C44.6172 68.7593 43.8966 69.5253 42.3257 69.7561C41.8874 69.8201 41.4412 69.8404 40.9982 69.8419C38.9454 69.8513 36.8941 69.8466 34.8412 69.845C34.6509 69.845 34.4606 69.8451 34.2703 69.8372C32.1785 69.739 31.3548 68.9465 31.2971 66.8562C31.2487 65.0811 31.255 63.3012 31.2893 61.526C31.3158 60.1704 30.9056 59.0208 30.0492 57.9647C26.3818 53.4487 22.7472 48.9078 19.097 44.3778C17.9926 43.0067 17.0972 41.5513 16.9802 39.723C16.9334 38.9899 17.0894 38.2941 17.2173 37.5891C17.2844 37.2162 17.3826 36.845 17.5012 36.4846C18.2515 34.19 18.5245 31.8486 18.4777 29.4276C18.3997 25.4513 18.459 21.4736 18.4746 17.4958C18.4793 16.3336 18.7881 15.2464 19.3481 14.2215C20.27 12.5321 22.8704 12.1328 24.3477 12.869C24.9498 13.1685 25.2587 13.7816 25.4334 14.4414C25.8031 15.8407 25.8623 17.2821 26.0121 18.7094C26.3444 21.8417 26.6298 24.9802 26.9637 28.1126C27.0245 28.6866 26.9091 28.8613 26.2866 28.8598C24.3211 28.8566 22.7285 29.6148 21.844 31.4555C20.8909 33.4412 20.7848 35.3943 22.2792 37.2225C23.2058 38.355 24.2244 39.3986 25.2633 40.4234C27.2803 42.4155 29.316 44.3887 31.3439 46.3683C31.4796 46.5009 31.6091 46.646 31.7651 46.7536C32.1051 46.9876 32.4717 47.0609 32.818 46.7723C33.1628 46.4853 33.1596 46.114 33.0083 45.7318C32.8789 45.4074 32.6168 45.1859 32.375 44.9488C29.6576 42.2813 26.9418 39.6123 24.2244 36.9448C23.875 36.6032 23.5661 36.2273 23.3041 35.8154C22.4602 34.4926 22.6879 32.8516 23.8797 31.6458C24.8 30.7145 26.4926 30.5414 27.6999 31.2652C28.2506 31.5943 28.6718 32.0826 29.1226 32.524C33.169 36.4956 37.1842 40.4999 41.2494 44.4511C43.9543 47.0812 44.8855 50.3149 44.6937 53.9698C44.5923 55.9165 44.703 57.8618 44.6516 60.1346L44.65 60.1361Z"
            fill="white" />
        <path
            d="M74.4426 59.2337C74.4426 56.9063 74.4379 54.5789 74.4441 52.2531C74.4535 49.3111 75.5579 46.8027 77.5874 44.7218C79.7135 42.541 81.9083 40.4274 84.0829 38.2934C86.3167 36.1001 88.5567 33.9116 90.803 31.7308C92.0088 30.5593 93.8261 30.4486 95.0179 31.4469C96.4203 32.6215 96.7057 34.4997 95.7089 35.9535C95.4079 36.3918 95.0553 36.7834 94.6778 37.1546C92.0057 39.7784 89.3336 42.4007 86.663 45.026C86.4976 45.1882 86.3245 45.3505 86.1934 45.5408C85.9283 45.9261 85.8643 46.3535 86.2231 46.6982C86.6037 47.0632 87.0498 47.0055 87.4195 46.6608C88.1933 45.9401 88.9514 45.2023 89.7064 44.4613C91.9527 42.2509 94.2442 40.0857 96.3672 37.7505C98.3202 35.6025 98.4809 32.8477 96.6964 30.5484C95.6933 29.2568 94.2723 28.8309 92.7077 28.8356C92.2459 28.8372 92.0681 28.7841 92.1211 28.2709C92.5595 24.0638 92.9728 19.8552 93.4049 15.6481C93.4393 15.3142 93.55 14.9882 93.6265 14.6591C94.0679 12.7528 95.0772 12.4955 96.5747 12.536C98.5449 12.5875 99.6259 13.4907 100.251 15.3688C100.507 16.1394 100.627 16.9287 100.629 17.7399C100.629 22.0344 100.666 26.3304 100.615 30.6233C100.596 32.2331 100.85 33.7774 101.262 35.3139C101.492 36.1719 101.704 37.0345 101.925 37.894C102.421 39.8065 101.997 41.5552 100.888 43.1323C98.9879 45.834 96.7822 48.2971 94.7418 50.8897C92.8449 53.2998 90.9091 55.6787 88.9748 58.0591C88.1948 59.0185 87.783 60.0839 87.7939 61.3256C87.8095 63.0602 87.8111 64.7948 87.7908 66.5295C87.7643 68.9863 86.9516 69.8147 84.5025 69.8412C82.1548 69.8677 79.8056 69.863 77.4579 69.8412C75.3754 69.8224 74.4753 68.9427 74.4473 66.8508C74.4129 64.3128 74.4395 61.7733 74.4395 59.2353L74.4426 59.2337Z"
            fill="white" />
        <path
            d="M60.0552 40.8242C55.4269 40.8429 51.4101 40.2611 47.5446 38.801C44.1502 37.5187 41.188 35.5751 38.6468 32.9841C37.7873 32.109 36.8904 31.2713 36.0153 30.4118C35.4007 29.8081 35.619 28.9876 35.4865 28.2606C35.4475 28.0469 35.7002 28.0235 35.8624 28.0142C36.8249 27.9643 37.7281 27.983 38.4565 28.8269C39.2427 29.7363 40.1569 30.535 40.9945 31.4008C41.3112 31.7283 41.6169 31.8173 42.0646 31.6753C47.2124 30.0389 52.5036 29.4212 57.8884 29.4493C61.5262 29.468 65.1655 29.3853 68.786 29.8502C71.3053 30.1731 73.7965 30.6458 76.2112 31.4444C77.2267 31.7814 77.9927 31.5911 78.7009 30.7877C79.3701 30.028 80.1344 29.351 80.8567 28.6397C80.9471 28.5508 81.0376 28.4603 81.1375 28.3839C81.7443 27.919 83.092 27.7927 83.3978 28.167C83.716 28.5555 83.5023 29.8954 83.0016 30.418C81.8753 31.5942 80.7178 32.7392 79.5151 33.8373C75.1583 37.8167 69.8639 39.6184 64.1577 40.481C62.6275 40.7119 61.0878 40.8055 60.0567 40.8227L60.0552 40.8242Z"
            fill="white" />
        <path
            d="M0.689811 76.5676C0.636774 76.2603 0.71477 76.0715 1.07823 76.1105C1.24514 76.1277 1.41673 76.1137 1.5852 76.1137C40.1667 76.1137 78.7481 76.1137 117.328 76.1137C117.582 76.1137 117.835 76.1105 118.089 76.1074C118.141 76.1963 118.119 76.2603 118.022 76.2977C117.729 76.3648 117.431 76.3352 117.136 76.3352C78.8323 76.3352 40.5301 76.3352 2.22633 76.3352C2.01886 76.3352 1.80671 76.3757 1.64604 76.3196C1.84571 76.3757 2.0953 76.3367 2.3402 76.3367C40.58 76.3383 78.8199 76.3383 117.058 76.343C117.412 76.343 117.78 76.2525 118.119 76.4413C118.164 76.577 118.102 76.6362 117.972 76.6472C117.782 76.6628 117.592 76.6534 117.401 76.6534C78.7419 76.6534 40.0824 76.6534 1.42297 76.6503C1.17807 76.6503 0.915999 76.7361 0.685131 76.5707L0.689811 76.5676Z"
            fill="white" />
        <path
            d="M0.764242 92.0649H118.095V92.1773H0.754883C0.758003 92.1398 0.761122 92.1024 0.764242 92.0649Z"
            fill="white" />
        <path
            d="M26.8773 99.2397C26.6044 99.2397 26.3314 99.2334 26.0584 99.2412C25.7994 99.249 25.6746 99.1523 25.6809 98.8746C25.6871 98.6219 25.8072 98.5517 26.0334 98.5549C26.5794 98.5611 27.1254 98.5627 27.6698 98.5549C27.9287 98.5502 28.0566 98.6438 28.0551 98.9183C28.0551 99.1757 27.9084 99.2397 27.6932 99.2397C27.4202 99.2397 27.1472 99.2397 26.8742 99.2397H26.8773Z"
            fill="white" />
        <path
            d="M53.7701 18.1646C53.9541 18.8197 53.9479 19.4983 53.9853 20.1659C54.0649 21.5777 54.1335 22.9909 54.0041 24.4042C53.9229 24.4807 53.8434 24.4807 53.7623 24.4042C53.756 24.2373 53.7514 24.072 53.7451 23.905C53.9651 23.7272 53.8839 23.4776 53.8855 23.2577C53.8933 21.7882 53.9089 20.3188 53.7545 18.8556C53.7311 18.6278 53.7638 18.3954 53.7701 18.1646Z"
            fill="#CAFD4E" fill-opacity="0.333333" />
        <path
            d="M65.4477 23.5227C65.4929 23.8706 65.3853 24.1966 65.3088 24.5273C64.922 24.2325 65.1825 23.8487 65.17 23.5024C65.2246 22.9534 65.1326 22.3918 65.3026 21.8521C65.4461 22.4011 65.1435 22.9892 65.4492 23.5227H65.4477Z"
            fill="white" />
        <path
            d="M62.6251 25.1556C61.3288 27.4143 57.5726 27.4549 56.4073 24.8935C56.1016 24.6611 56.1577 24.2867 56.0438 23.9778C55.8426 22.1434 56.5399 20.6708 57.9438 19.9673C60.3024 18.7833 63.0947 20.4665 63.1914 23.1308C63.1992 23.3632 63.1992 23.5957 63.1493 23.825C63.0931 24.0137 63.0541 24.2071 63.0042 24.3975C62.9075 24.6658 62.8513 24.9543 62.6236 25.1571L62.6251 25.1556Z"
            fill="#F7B92A" />
        <path
            d="M55.3985 23.1429C54.9242 20.9606 56.0552 18.8375 58.0909 18.0872C60.0923 17.3509 62.2434 18.1574 63.2963 20.0371C63.6458 20.9153 63.9999 21.792 63.7643 22.7701C63.5927 22.8106 63.5272 22.6749 63.4398 22.5751C63.2854 22.3629 63.2604 22.1055 63.1965 21.8622C62.7472 20.1354 61.309 18.903 59.5806 18.9342C58.1221 18.9592 56.609 19.6986 56.0068 21.5674C55.9351 21.7889 55.8774 22.0135 55.7791 22.2257C55.5732 22.4986 55.9148 23.0009 55.3969 23.1429H55.3985Z"
            fill="#061E8E" />
        <path
            d="M63.6633 22.7529C63.9831 21.9652 63.5853 21.2523 63.4215 20.516C63.3856 20.3569 63.2671 20.2165 63.2967 20.0371C63.8583 20.9169 64.0205 21.8669 63.7974 22.884C63.6726 22.9198 63.6368 22.8668 63.6648 22.7514L63.6633 22.7529Z"
            fill="white" />
        <path
            d="M55.3966 23.1422C55.7101 22.8629 55.3513 22.4028 55.6696 22.1235C55.9628 22.6227 55.8162 23.1983 55.9472 23.7256C55.9129 23.9003 55.9472 24.1202 55.6742 24.1389C55.5136 23.8254 55.3654 23.5072 55.3981 23.1406L55.3966 23.1422Z"
            fill="white" />
        <path
            d="M63.664 22.7512L63.7966 22.8838C63.8044 23.2473 63.7077 23.5858 63.5548 23.9103C63.3473 23.9446 63.3161 23.7901 63.2725 23.6482C63.2818 23.2489 63.2896 22.848 63.5299 22.4985C63.6359 22.55 63.6593 22.6452 63.664 22.7497V22.7512Z"
            fill="white" />
        <path
            d="M65.1692 23.501C65.2659 23.8364 65.0537 24.2123 65.308 24.5258C65.3345 24.8019 65.2846 25.0484 64.9492 25.3776C65.1177 24.6491 64.9633 24.061 65.1676 23.501H65.1692Z"
            fill="white" />
        <path
            d="M56.1845 24.044C56.2594 24.3279 56.3342 24.6103 56.4091 24.8942C56.1268 24.9519 55.9599 24.8365 55.8975 24.5573C55.9084 24.4824 55.9287 24.4091 55.9661 24.342C56.0301 24.2359 56.0613 24.1064 56.1845 24.0425V24.044Z"
            fill="white" />
        <path
            d="M56.0539 24.3874C56.0024 24.4436 55.9509 24.4997 55.8979 24.5543C55.823 24.4155 55.7497 24.2767 55.6748 24.1378C55.823 24.0411 55.7762 23.8804 55.8058 23.7432C56.1272 23.8664 56.0929 24.1253 56.0539 24.3858V24.3874Z"
            fill="white" fill-opacity="0.8" />
        <path
            d="M53.9926 25.0311C53.9957 25.1496 54.0441 25.2822 53.8569 25.3774C53.7196 25.148 53.7711 24.8985 53.7664 24.6598C54.0831 24.638 53.8522 24.9468 53.9911 25.0311H53.9926Z"
            fill="white" fill-opacity="0.866667" />
        <path
            d="M63.276 24.528C63.1497 24.7012 63.0218 24.8743 62.8954 25.0475C62.6022 24.9617 62.8689 24.8026 62.8471 24.6809C62.9095 24.5577 62.9407 24.4095 63.1013 24.3643C63.2012 24.3736 63.2402 24.4501 63.2776 24.5265L63.276 24.528Z"
            fill="white" fill-opacity="0.8" />
        <path
            d="M62.9015 24.6687C62.9389 24.795 62.7361 24.9167 62.8937 25.0462C62.8297 25.1444 62.7346 25.1647 62.627 25.1538C62.6971 24.8902 62.7018 24.6063 62.8812 24.377C62.9811 24.4674 62.9748 24.5657 62.9031 24.6671L62.9015 24.6687Z"
            fill="white" />
        <path
            d="M53.9936 25.0329C53.9187 24.9097 53.8438 24.7849 53.7689 24.6617C53.7674 24.5759 53.7643 24.4901 53.7627 24.4043C53.8438 24.4043 53.9234 24.4043 54.0045 24.4043C54.0014 24.6133 53.9982 24.8239 53.9951 25.0329H53.9936Z"
            fill="white" />
        <path
            d="M63.4013 23.6338C63.4279 23.7383 63.431 23.8584 63.5542 23.9099C63.5043 24.0316 63.4559 24.1548 63.406 24.2765C63.2032 24.3077 63.1876 24.1532 63.1533 24.0175C63.1783 23.8522 63.1362 23.6431 63.4013 23.6338Z"
            fill="white" />
        <path
            d="M63.2641 24.0027C63.2891 24.1056 63.2906 24.2211 63.4076 24.2772C63.364 24.3615 63.3203 24.4441 63.2766 24.5284C63.2298 24.4816 63.183 24.4363 63.1362 24.3896C63.0972 24.3443 63.0738 24.2913 63.0645 24.232C63.0754 24.1072 63.1035 23.9965 63.2657 24.0027H63.2641Z"
            fill="white" />
        <path
            d="M118.097 76.2158C118.108 76.2985 118.118 76.3796 118.131 76.4623H0.890625C0.912464 76.1472 1.10589 76.2377 1.22913 76.2267C1.41788 76.2111 1.60975 76.2221 1.80006 76.2221C40.3113 76.2221 78.8241 76.2221 117.335 76.2221C117.59 76.2221 117.844 76.2189 118.097 76.2174V76.2158Z"
            fill="white" />
        <path
            d="M37.9983 85.7631C37.7424 85.2764 37.5225 84.8911 38.2479 84.5916C38.591 84.4497 38.7626 84.0472 38.8734 83.6713C39.0746 82.9849 39.0653 82.297 38.8952 81.6044C38.7221 80.8993 38.2759 80.4735 37.5865 80.2816C36.8611 80.0804 36.1186 80.1287 35.3807 80.1194C34.8722 80.1194 34.3652 80.1334 33.8582 80.1147C33.5447 80.1038 33.4028 80.188 33.4043 80.5359C33.4152 82.9693 33.4184 85.4012 33.4043 87.8347C33.4012 88.5429 33.9128 88.2075 34.2155 88.2606C34.5509 88.3183 34.8363 88.2918 34.8082 87.7926C34.7661 87.0548 34.7848 86.3138 34.7911 85.5728C34.7911 85.4122 34.7427 85.225 34.8987 85.0986C35.2045 84.8506 36.4165 85.1049 36.5975 85.473C36.9406 86.175 37.3259 86.8676 37.5677 87.6054C37.7908 88.2871 38.2369 88.3183 38.7969 88.2824C39.1167 88.2621 39.137 88.1342 39.0138 87.88C38.6722 87.1764 38.3649 86.4557 38.0014 85.7631H37.9983ZM37.6426 83.3609C37.5584 83.69 37.3166 83.9146 36.9984 84.0067C36.337 84.197 35.6568 84.055 34.9861 84.0675C34.7521 84.0722 34.7692 83.8476 34.7661 83.6838C34.7599 83.3468 34.7646 83.0083 34.7646 82.7353C34.8207 81.2628 34.8254 81.3455 36.2262 81.2659C37.6847 81.1832 37.9047 82.3329 37.6426 83.3609Z"
            fill="white" />
        <path
            d="M72.6251 85.4211C72.4909 85.1496 72.4192 84.9266 72.7873 84.7597C73.8059 84.3011 73.976 82.8971 73.7233 81.7256C73.5127 80.7507 72.8591 80.2265 71.6938 80.161C70.683 80.1049 69.6659 80.1423 68.652 80.1142C68.2667 80.1033 68.198 80.2858 68.2011 80.6165C68.2136 81.8005 68.2058 82.9829 68.2058 84.1669C68.2058 85.3509 68.2339 86.5349 68.1933 87.7173C68.1746 88.2554 68.4305 88.2866 68.8438 88.2773C69.2572 88.2695 69.5879 88.2898 69.5442 87.6954C69.4928 87.0013 69.5302 86.3009 69.5333 85.6036C69.5333 85.4398 69.485 85.2526 69.6332 85.1263C69.9826 84.8283 71.2664 85.145 71.4614 85.5755C71.7671 86.2494 72.1087 86.9092 72.3536 87.605C72.5658 88.2055 72.9371 88.3506 73.5127 88.2788C73.8558 88.2352 73.9682 88.1556 73.7919 87.8109C73.3894 87.02 73.0151 86.2151 72.622 85.4195L72.6251 85.4211ZM71.4161 84.0749C71.0168 84.0951 70.6128 84.0546 70.215 84.0889C69.6534 84.1373 69.4382 83.9111 69.5146 83.3604C69.5427 83.153 69.5193 82.9393 69.5193 82.7287C69.5193 81.7698 70.0127 81.2909 70.9996 81.292C72.2367 81.292 72.6625 81.7724 72.5315 83.0141C72.4628 83.6646 72.0775 84.0437 71.4161 84.0764V84.0749Z"
            fill="white" />
        <path
            d="M31.1209 80.3542C30.6233 80.2528 30.6311 80.5679 30.6343 80.9158C30.6499 82.5849 30.6358 84.2556 30.6748 85.9247C30.6904 86.6111 30.3878 87.0026 29.7701 87.1945C29.1258 87.3941 28.4816 87.3957 27.8404 87.1648C27.2991 86.9698 27.0184 86.6157 27.0308 86.0214C27.048 85.1759 27.0355 84.3289 27.0355 83.4819C27.0402 83.4819 27.0449 83.4819 27.0496 83.4819C27.0496 82.5927 27.0402 81.7036 27.0527 80.816C27.0636 80.1218 26.5348 80.44 26.229 80.373C25.9498 80.3121 25.68 80.3277 25.6846 80.7583C25.7033 82.5147 25.6644 84.2727 25.7283 86.0261C25.7626 86.9652 26.0715 87.8325 27.0948 88.185C28.2975 88.6 29.5002 88.6031 30.6935 88.1445C31.2395 87.9339 31.6014 87.5439 31.7761 86.9808C31.9274 86.4925 32.0101 85.9933 32.0117 85.4832C32.0117 83.9592 31.982 82.4352 32.0257 80.9127C32.0491 80.1 31.4906 80.4291 31.1225 80.3542H31.1209Z"
            fill="white" />
        <path
            d="M91.3538 80.1713C90.3242 80.0995 89.2869 80.1323 88.2527 80.0964C87.858 80.0823 87.8081 80.2851 87.8112 80.6049C87.8206 81.7873 87.8159 82.9698 87.8143 84.1522C87.8143 85.3127 87.8455 86.4764 87.8003 87.6355C87.7784 88.1986 88.0015 88.2797 88.4944 88.2891C89.0279 88.2984 89.2042 88.1315 89.1621 87.6058C89.1184 87.0599 89.1543 86.5092 89.134 85.9601C89.12 85.6076 89.237 85.4609 89.6098 85.4984C90.1339 85.5514 90.6627 85.5998 91.1884 85.5826C92.0136 85.5561 92.7468 85.294 93.0697 84.4454C93.3817 83.6249 93.4909 82.7685 93.299 81.8965C93.0479 80.7531 92.5268 80.2539 91.3553 80.1713H91.3538ZM92.0854 83.327C92.0386 84.0274 91.6049 84.4548 90.9076 84.4798C90.4849 84.4954 90.0606 84.461 89.6394 84.4907C89.2292 84.5203 89.1278 84.3331 89.1496 83.9665C89.1714 83.5875 89.1543 83.2053 89.1543 82.8247C89.1543 81.7733 89.6748 81.2575 90.7158 81.2772C91.658 81.296 92.0682 81.7 92.0869 82.6281C92.0916 82.8606 92.0994 83.0945 92.0838 83.3254L92.0854 83.327Z"
            fill="white" />
        <path
            d="M80.1199 87.6581C80.1683 87.3289 79.9515 87.2806 79.6847 87.2853C79.1138 87.2931 78.5429 87.2915 77.9735 87.2853C76.0829 87.2681 76.3137 87.5255 76.2592 85.5257C76.2482 85.1295 76.3964 85.0047 76.7677 85.0015C77.571 84.9937 78.3728 84.947 79.1762 84.9392C79.5412 84.936 79.6411 84.7769 79.6348 84.4337C79.6301 84.114 79.5787 83.9018 79.1996 83.8971C78.6302 83.8909 78.0593 83.855 77.4899 83.8425C76.6205 83.8248 76.2113 83.3881 76.2623 82.5322C76.3075 81.7819 76.529 81.5557 77.2762 81.5463C78.0796 81.5354 78.8829 81.5401 79.6847 81.5463C79.9515 81.5479 80.1636 81.498 80.1199 81.1704C80.0856 80.9114 80.2619 80.5449 79.7721 80.5027C78.741 80.4123 77.7052 80.3109 76.6741 80.3733C75.6087 80.4372 75.0658 81.0175 75.0128 82.0845C74.9738 82.8645 75.005 83.6475 75.005 84.4291C75.0112 84.4291 75.0159 84.4291 75.0221 84.4291C75.0221 85.2745 74.9769 86.1216 75.0346 86.9624C75.1001 87.9342 75.4308 88.2524 76.3808 88.4318C77.5227 88.6471 78.6536 88.3835 79.7892 88.3382C80.2744 88.3195 80.0841 87.9155 80.1215 87.6581H80.1199Z"
            fill="white" />
        <path
            d="M99.3034 87.2811C98.7122 87.2983 98.1194 87.292 97.5282 87.2842C95.739 87.2608 95.9386 87.5557 95.8825 85.5886C95.87 85.1472 96.0198 84.9896 96.4612 84.9943C97.2006 85.0021 97.94 84.9506 98.6794 84.9459C99.0491 84.9428 99.2535 84.8789 99.2503 84.4202C99.2472 83.9476 99.0538 83.8493 98.6451 83.8633C98.1381 83.8789 97.6312 83.854 97.1242 83.8462C96.2641 83.8316 95.8565 83.3959 95.9012 82.539C95.9433 81.7387 96.1336 81.5547 96.9541 81.5484C97.7357 81.5422 98.5187 81.5359 99.3003 81.5515C99.6278 81.5578 99.7651 81.4408 99.7448 81.1101C99.7277 80.8184 99.8088 80.5048 99.3393 80.4924C98.3269 80.4658 97.3129 80.3567 96.3021 80.3816C95.2289 80.4081 94.7344 80.9198 94.6657 82.007C94.6143 82.8276 94.6548 83.6543 94.6548 84.478C94.6564 84.478 94.658 84.478 94.6595 84.478C94.6595 85.3234 94.6205 86.1705 94.6704 87.0113C94.7219 87.8973 95.0729 88.2452 95.9355 88.4199C97.0977 88.6539 98.2489 88.359 99.4063 88.3388C99.8478 88.331 99.7199 87.9862 99.7417 87.7319C99.7698 87.409 99.6372 87.2733 99.3049 87.2842L99.3034 87.2811Z"
            fill="white" />
        <path
            d="M51.4873 81.3098C52.311 81.2911 53.1362 81.2927 53.9598 81.3083C54.2733 81.3145 54.4449 81.2365 54.4153 80.8871C54.3903 80.6048 54.4964 80.2943 54.0144 80.2678C53.0223 80.2117 52.0317 80.1181 51.0381 80.1524C49.8915 80.1914 49.3268 80.7374 49.28 81.8777C49.2473 82.6576 49.2738 83.4407 49.2738 84.2238C49.2738 84.2238 49.2707 84.2238 49.2691 84.2238C49.2691 84.6044 49.2691 84.985 49.2691 85.3656C49.2691 85.7665 49.2598 86.169 49.2738 86.5699C49.3112 87.6166 49.6591 88.005 50.6808 88.1891C51.804 88.3919 52.9131 88.1314 54.03 88.1142C54.4917 88.1064 54.3966 87.7554 54.4153 87.47C54.4371 87.1237 54.2577 87.0379 53.9504 87.0457C53.3795 87.0581 52.8086 87.0581 52.2376 87.0472C50.425 87.0129 50.5405 87.4278 50.5202 85.2268C50.5171 84.8587 50.6652 84.7588 51.0116 84.7588C51.8352 84.7588 52.6588 84.7136 53.484 84.712C53.835 84.712 53.9192 84.5529 53.8943 84.2425C53.8724 83.9726 53.9458 83.6716 53.5121 83.6669C52.9412 83.6606 52.3718 83.631 51.8024 83.6092C50.2394 83.5499 50.5592 83.9118 50.5498 82.2318C50.5451 81.5626 50.8134 81.3254 51.4889 81.3114L51.4873 81.3098Z"
            fill="white" />
        <path
            d="M15.4307 81.3087C16.2341 81.2947 17.0374 81.2994 17.8408 81.315C18.1606 81.3212 18.2557 81.1746 18.223 80.8922C18.1949 80.6458 18.3446 80.3073 17.8922 80.2792C16.8799 80.2168 15.869 80.0904 14.852 80.1497C13.7163 80.2152 13.1938 80.705 13.1205 81.8422C13.069 82.6424 13.1111 83.4489 13.1111 84.2523C13.1049 84.2523 13.0971 84.2523 13.0908 84.2523C13.0908 84.9496 13.0908 85.6484 13.0908 86.3457C13.0908 86.4518 13.0986 86.5563 13.1064 86.6624C13.1719 87.5749 13.537 88.007 14.4292 88.1786C15.5914 88.4032 16.7473 88.1583 17.9047 88.0959C18.3446 88.0725 18.1793 87.7059 18.2074 87.4595C18.2385 87.1693 18.1122 87.0367 17.8065 87.0414C17.1092 87.0539 16.4103 87.0445 15.713 87.0445C14.8343 87.0445 14.3887 86.6161 14.3762 85.7592C14.3731 85.5907 14.3902 85.4175 14.3622 85.2522C14.2982 84.8747 14.4823 84.7764 14.8192 84.7733C15.6007 84.7655 16.3838 84.7281 17.1653 84.7203C17.4929 84.7171 17.7363 84.7047 17.7222 84.2554C17.7097 83.8483 17.6224 83.6314 17.1606 83.6455C16.6334 83.6626 16.1046 83.6143 15.5758 83.6065C14.7563 83.593 14.3559 83.178 14.3746 82.3617C14.3949 81.5162 14.5759 81.3228 15.4291 81.3072L15.4307 81.3087Z"
            fill="white" />
        <path
            d="M84.7212 83.7165C84.2984 83.7009 83.8757 83.7259 83.4529 83.7041C82.9413 83.6776 82.648 83.3983 82.5591 82.8867C82.3844 81.8805 82.7993 81.3455 83.8367 81.319C84.47 81.3034 85.1033 81.3439 85.7367 81.3689C85.9847 81.3782 86.2327 81.3985 86.2031 81.0428C86.1812 80.7761 86.3513 80.3908 85.8989 80.33C85.0004 80.2099 84.1034 80.0336 83.1893 80.1943C82.2269 80.3627 81.5389 80.8276 81.3705 81.8571C81.2784 82.4249 81.2831 82.9865 81.4251 83.5543C81.62 84.3312 82.1255 84.7461 82.8805 84.8553C83.3594 84.9239 83.8492 84.899 84.3343 84.9286C85.1345 84.977 85.4169 85.3045 85.42 86.1641C85.4231 86.8832 85.1002 87.2264 84.3327 87.2732C83.9116 87.2997 83.4873 87.2778 83.0645 87.2778C83.0645 87.2747 83.0645 87.27 83.0645 87.2669C82.6418 87.2669 82.2191 87.2732 81.7963 87.2638C81.5452 87.2576 81.3705 87.3246 81.4048 87.6132C81.4344 87.8581 81.2644 88.206 81.6871 88.2746C82.8571 88.4634 84.0192 88.6443 85.2016 88.3027C85.9285 88.0921 86.3731 87.6569 86.5447 86.9378C86.6835 86.3559 86.7007 85.771 86.54 85.1829C86.2889 84.261 85.6805 83.7555 84.7165 83.7181L84.7212 83.7165Z"
            fill="white" />
        <path
            d="M10.664 83.8476C10.1087 83.6433 9.53618 83.7181 8.96837 83.7119C8.11041 83.7025 7.79531 83.4062 7.77659 82.5903C7.75787 81.762 8.10729 81.3502 8.92625 81.3221C9.60169 81.3003 10.2787 81.3346 10.9557 81.3549C11.2131 81.3627 11.4923 81.4453 11.472 81.0288C11.458 80.7278 11.5781 80.3627 11.0836 80.3175C10.3068 80.2458 9.54086 80.0679 8.74998 80.1584C7.25246 80.33 6.54737 81.007 6.55673 82.4983C6.56609 84.0473 7.00599 84.9021 8.84357 84.9177C9.09784 84.9193 9.35211 84.9084 9.60481 84.9208C10.3349 84.9552 10.6687 85.303 10.6905 86.0377C10.7139 86.8364 10.416 87.2124 9.65785 87.2685C9.21639 87.3013 8.77026 87.2747 8.32568 87.2747C8.32568 87.2701 8.32568 87.267 8.32568 87.2623C7.90294 87.2623 7.4802 87.2669 7.05747 87.2607C6.81724 87.256 6.62225 87.3013 6.65345 87.5992C6.67841 87.8457 6.51461 88.1998 6.93579 88.2622C8.14785 88.4431 9.36302 88.6506 10.5766 88.2622C11.0852 88.0999 11.5032 87.8223 11.6795 87.2997C11.9353 86.5431 11.9837 85.7694 11.7544 84.991C11.5859 84.4248 11.2224 84.0488 10.664 83.8445V83.8476Z"
            fill="white" />
        <path
            d="M24.1769 87.2461C23.8602 87.2476 23.5436 87.2461 23.2253 87.2461C23.2253 87.257 23.2253 87.2679 23.2253 87.2773C22.8447 87.2773 22.4625 87.296 22.0835 87.2726C21.4174 87.232 20.9759 86.8421 20.8652 86.1916C20.6577 84.9717 20.6593 83.7472 20.8605 82.5289C20.9869 81.7614 21.4673 81.3605 22.2644 81.3231C22.9196 81.2919 23.5748 81.3059 24.2284 81.3964C24.4327 81.4245 24.7322 81.5789 24.7478 81.1764C24.7587 80.8785 24.8773 80.4963 24.4156 80.4105C23.5654 80.2514 22.7184 80.0502 21.8401 80.1625C20.6203 80.3185 19.9277 80.9253 19.6578 82.1202C19.3318 83.5631 19.3271 85.017 19.625 86.463C19.8778 87.6938 20.458 88.2086 21.6997 88.4472C22.5795 88.6157 23.4219 88.3645 24.2798 88.2928C24.7821 88.2507 24.7821 87.9558 24.7697 87.5971C24.7541 87.1618 24.4452 87.2445 24.1769 87.2461Z"
            fill="white" />
        <path
            d="M106.188 87.5641C106.206 87.199 105.94 87.2458 105.706 87.2489C105.008 87.2599 104.309 87.2864 103.612 87.2723C102.957 87.2599 102.575 86.8964 102.403 86.2662C102.228 85.622 102.291 84.9621 102.286 84.3116C102.286 83.867 102.261 83.4225 102.291 82.9795C102.372 81.7752 102.868 81.315 104.068 81.3275C104.595 81.3322 105.122 81.3915 105.649 81.4086C105.855 81.4149 106.164 81.5506 106.169 81.159C106.174 80.8455 106.319 80.4383 105.794 80.3681C105.021 80.2621 104.255 80.0655 103.465 80.1482C102.448 80.2543 101.603 80.6536 101.291 81.7066C100.762 83.4942 100.767 85.2959 101.335 87.0789C101.541 87.7278 101.999 88.1131 102.667 88.3113C103.746 88.631 104.804 88.4423 105.868 88.266C106.325 88.1911 106.174 87.8339 106.188 87.5641Z"
            fill="white" />
        <path
            d="M41.4672 84.1465C41.4672 82.9625 41.4485 81.777 41.475 80.593C41.4875 80.0205 41.11 80.1484 40.7918 80.136C40.4658 80.1235 40.1678 80.0845 40.1725 80.593C40.1912 82.961 40.1943 85.3305 40.171 87.7C40.1663 88.2413 40.4751 88.1929 40.8246 88.1929C41.1724 88.1929 41.4922 88.2429 41.4766 87.7C41.4438 86.516 41.4672 85.332 41.4672 84.1465Z"
            fill="white" />
        <path
            d="M110.407 88.2922C110.407 88.2922 110.412 88.2922 110.413 88.2922C110.618 88.1315 110.521 87.9053 110.521 87.7103C110.53 86.1473 110.521 84.5843 110.529 83.0212C110.53 82.4986 110.362 81.8216 110.622 81.494C110.905 81.1384 111.611 81.4176 112.131 81.3739C112.193 81.3693 112.259 81.3661 112.321 81.3739C112.841 81.4363 112.817 81.0994 112.833 80.7359C112.85 80.3257 112.714 80.1806 112.293 80.1853C110.688 80.2056 109.083 80.2071 107.478 80.1853C107.019 80.179 106.852 80.3038 106.846 80.789C106.84 81.2819 107.008 81.4192 107.468 81.3802C107.866 81.3459 108.272 81.3973 108.671 81.3661C109.092 81.3334 109.234 81.4332 109.225 81.9106C109.186 83.8745 109.206 85.8384 109.212 87.8039C109.212 88.0348 109.106 88.3733 109.501 88.3858C109.802 88.3951 110.126 88.5043 110.409 88.2968C110.409 88.2953 110.409 88.2937 110.409 88.2922"
            fill="white" />
        <path d="M110.406 88.296C110.406 88.296 110.406 88.296 110.407 88.2954L110.406 88.296Z"
            fill="white" />
        <path
            d="M59.2618 83.6063C59.9373 83.5782 60.6143 83.5985 61.2913 83.6001C61.9683 83.6001 62.6453 83.5767 63.3207 83.6094C63.7669 83.6313 63.7965 83.3973 63.7747 83.0635C63.756 82.7593 63.8667 82.4239 63.3348 82.4348C61.9823 82.4613 60.6283 82.4598 59.2759 82.4348C58.7923 82.427 58.8516 82.7219 58.8563 83.0167C58.8609 83.299 58.7642 83.6282 59.2618 83.6063Z"
            fill="white" />
        <path
            d="M63.3574 85.2306C62.0049 85.2462 60.6525 85.2447 59.3 85.2306C58.9802 85.2275 58.8383 85.318 58.8492 85.6596C58.8586 85.9653 58.8695 86.1931 59.2782 86.179C59.9536 86.1557 60.6306 86.1728 61.3061 86.1728C61.9815 86.1728 62.6585 86.1557 63.334 86.179C63.7193 86.1915 63.7879 86.0121 63.7848 85.6799C63.7832 85.3648 63.7006 85.2259 63.3558 85.2291L63.3574 85.2306Z"
            fill="white" />
        <path
            d="M46.2063 80.104C46.6145 80.1029 47.0226 80.1018 47.4306 80.1018L47.4321 80.1033C48.4695 80.1033 48.5506 80.2156 48.2917 81.2842L48.2852 81.2842C47.9176 81.4635 47.5324 81.4342 47.1507 81.4052C47.0146 81.3948 46.879 81.3845 46.7447 81.3837C46.2814 81.3822 46.1223 81.4992 46.1301 81.9858C46.1562 83.6922 46.1473 85.3986 46.1384 87.1049L46.1363 87.4986C46.136 87.549 46.1423 87.6019 46.1487 87.6554C46.1694 87.8289 46.1908 88.0088 45.9882 88.1304H44.8679C44.6927 88.0009 44.7131 87.8244 44.7328 87.654C44.739 87.6006 44.7451 87.5479 44.7451 87.4973L44.7411 86.7813C44.7321 85.2039 44.7231 83.6256 44.7529 82.0485C44.7638 81.5026 44.5813 81.3715 44.0696 81.3856C43.9552 81.3885 43.8395 81.3978 43.7233 81.4071C43.3431 81.4377 42.9575 81.4687 42.5938 81.2779H42.5902C42.4981 81.1474 42.5008 81.0043 42.5035 80.8609C42.5047 80.7952 42.506 80.7295 42.4981 80.6649C42.4435 80.2187 42.6416 80.0877 43.0769 80.094C44.1196 80.1097 45.1631 80.1068 46.2063 80.104Z"
            fill="white" />
        <path
            d="M51.8321 79.4521C52.0146 79.5988 52.3032 79.4989 52.4639 79.3273C52.818 78.9498 53.1378 78.5396 53.5199 78.0857C52.5653 77.755 52.3063 78.4086 51.9803 78.9311C51.8836 79.0871 51.595 79.2618 51.8305 79.4521H51.8321Z"
            fill="white" />
        <path
            d="M16.1944 79.3813C16.6 78.9976 16.9853 78.5858 17.2614 78.0772C16.3114 77.7309 16.1195 78.4969 15.7623 78.996C15.6703 79.1255 15.4831 79.2987 15.6126 79.4344C15.7748 79.6044 16.0509 79.5171 16.1944 79.3813Z"
            fill="white" />
        <path
            d="M110.407 88.2933L110.409 88.292C110.409 88.292 110.408 88.2926 110.408 88.2933H110.407Z"
            fill="white" />
        <path
            d="M2.79646 95.0244C2.3316 95.0213 1.86363 95.0556 1.40345 95.0151C0.859042 94.9683 0.640653 95.1414 0.671852 95.7186C0.715529 96.5407 0.682771 97.3659 0.682771 98.1895C0.687451 98.1895 0.690571 98.1895 0.695251 98.1895C0.695251 99.035 0.71085 99.8805 0.687451 100.724C0.676532 101.13 0.796645 101.3 1.22406 101.277C1.77159 101.245 2.32225 101.277 2.87134 101.267C4.11615 101.25 5.0053 100.462 5.10358 99.2237C5.15818 98.5311 5.15818 97.8276 5.10358 97.135C5.00218 95.8309 4.10211 95.0338 2.79646 95.0229V95.0244ZM4.2425 99.3922C4.02568 100.228 3.57798 100.617 2.71066 100.6C1.28178 100.572 1.44713 100.774 1.43465 99.3657C1.43153 98.9648 1.43465 98.5623 1.43465 98.1614C1.43465 97.5281 1.44557 96.8932 1.42997 96.2599C1.42217 95.912 1.54541 95.7467 1.90731 95.7748C2.16001 95.7935 2.41428 95.7841 2.66699 95.7872C3.90244 95.7997 4.21599 96.0836 4.36418 97.3222C4.44685 98.0195 4.42033 98.709 4.2425 99.3938V99.3922Z"
            fill="white" />
        <path
            d="M17.883 96.8377C16.9642 97.1201 16.9299 97.9609 16.9158 98.7143C16.8987 99.5801 16.7442 100.574 17.702 101.09C19.2432 101.92 20.6159 101.134 20.7329 99.4069C20.7423 99.2603 20.7329 99.1121 20.7329 98.9639C20.8203 96.6537 19.2978 96.4041 17.883 96.8377ZM19.329 100.574C17.844 100.911 17.6615 100.352 17.6739 99.0778C17.6739 98.9093 17.6615 98.7393 17.6755 98.5708C17.7644 97.496 18.2246 97.1575 19.2869 97.4118C20.0856 97.6037 19.9888 98.3103 19.9779 98.8594C19.9654 99.4818 20.2306 100.368 19.329 100.574Z"
            fill="white" />
        <path
            d="M8.65419 96.811C7.05995 96.3539 6.1396 96.9997 6.04288 98.6454C6.03664 98.7515 6.03976 98.856 6.0382 98.9621C6.02728 101.048 6.77449 101.661 8.8289 101.247C9.03949 101.205 9.39827 101.261 9.36551 100.956C9.32495 100.589 8.95837 100.761 8.7353 100.767C8.25017 100.781 7.76503 100.856 7.30642 100.62C6.86652 100.396 6.71365 99.9916 6.7854 99.558C6.85872 99.1165 7.26586 99.4035 7.51545 99.3365C7.59344 99.3146 7.68392 99.3333 7.76815 99.3333C7.76815 99.3287 7.76815 99.324 7.76815 99.3177C8.00058 99.3177 8.23457 99.3349 8.46544 99.3146C9.12684 99.2569 9.50434 98.9215 9.54646 98.3771C9.6073 97.5862 9.26567 96.9841 8.65419 96.8094V96.811ZM8.89597 98.4052C8.7899 98.8186 8.55747 98.9153 7.634 98.9168C7.2877 98.8498 6.66373 99.1649 6.76201 98.3194C6.8556 97.5129 7.33606 97.1401 8.16437 97.2821C8.69318 97.3725 9.02857 97.8857 8.89441 98.4068L8.89597 98.4052Z"
            fill="white" />
        <path
            d="M14.5286 98.7036C14.3601 98.7021 14.1901 98.6802 14.0216 98.6943C13.563 98.7317 13.2869 98.5866 13.301 98.0703C13.315 97.5758 13.5521 97.3278 14.0435 97.3278C14.5302 97.3278 15.0153 97.3371 15.502 97.3325C15.6408 97.3325 15.8233 97.3668 15.8577 97.1624C15.8904 96.9705 15.7407 96.9035 15.5909 96.8738C14.7954 96.7194 13.9967 96.632 13.2214 96.9471C12.7363 97.1453 12.5226 97.7255 12.6364 98.4197C12.7269 98.9688 13.0405 99.2948 13.6036 99.3354C13.9826 99.3619 14.3633 99.3635 14.7439 99.3635C15.1463 99.3635 15.3772 99.5226 15.3897 99.9593C15.4022 100.39 15.2243 100.655 14.7985 100.713C14.5068 100.752 14.2088 100.744 13.9124 100.756C13.9124 100.749 13.9124 100.742 13.9124 100.735C13.6379 100.735 13.3634 100.732 13.0888 100.735C12.9453 100.738 12.7706 100.71 12.7378 100.912C12.7004 101.139 12.8595 101.187 13.0405 101.228C13.797 101.398 14.5505 101.396 15.2992 101.196C15.7594 101.073 15.9949 100.778 16.0183 100.282C16.0745 99.0952 15.7298 98.7177 14.5302 98.7021L14.5286 98.7036Z"
            fill="white" />
        <path
            d="M22.6563 99.0671C22.6563 98.4135 22.6454 97.7599 22.661 97.1078C22.6688 96.7849 22.5565 96.6648 22.2242 96.6617C21.8748 96.6586 21.7391 96.7615 21.7453 97.1281C21.7625 98.3916 21.7609 99.6567 21.7453 100.922C21.7422 101.248 21.8389 101.365 22.1743 101.363C22.5159 101.363 22.6766 101.274 22.6626 100.902C22.6407 100.292 22.6563 99.6801 22.6563 99.0687V99.0671Z"
            fill="white" />
        <path
            d="M22.1673 96.0122C22.4809 96.0013 22.6884 95.967 22.6696 95.577C22.654 95.2634 22.6728 94.9967 22.2235 95.0216C21.9146 95.0388 21.6729 95.0606 21.7399 95.4912C21.6822 95.7938 21.7352 96.0278 22.1673 96.0122Z"
            fill="white" />
        <path
            d="M33.2185 95.0253C32.6896 95.0175 32.1608 95.0456 31.6336 95.0175C31.2202 94.9941 31.0627 95.1438 31.0705 95.5572C31.0876 96.423 31.0751 97.2903 31.0751 98.156C31.0689 98.156 31.0642 98.156 31.058 98.156C31.058 98.5788 31.0595 99.0015 31.058 99.4242C31.0549 99.8673 31.0642 100.312 31.0393 100.755C31.019 101.128 31.1391 101.295 31.5384 101.277C32.1296 101.251 32.7224 101.279 33.3136 101.268C34.4976 101.246 35.3587 100.466 35.4445 99.2854C35.4959 98.571 35.4959 97.8472 35.4538 97.1327C35.3774 95.8567 34.4976 95.0487 33.2169 95.0284L33.2185 95.0253ZM34.7347 98.0406C34.73 98.4821 34.7472 98.9266 34.6255 99.3634C34.3775 100.248 33.9485 100.608 33.0313 100.588C31.7896 100.561 31.8395 100.853 31.8395 99.4071C31.8395 98.9844 31.8395 98.5601 31.8395 98.1373H31.8426C31.8426 97.5024 31.8473 96.8675 31.8411 96.2327C31.8379 95.9207 31.9565 95.7506 32.2888 95.7787C32.309 95.7803 32.3309 95.7787 32.3527 95.7772C34.3416 95.6508 34.7565 96.0392 34.7363 98.039L34.7347 98.0406Z"
            fill="white" />
        <path
            d="M82.1936 95.1123C81.4152 94.9734 80.6353 95.0624 79.8569 95.0499C79.481 95.0436 79.4076 95.2527 79.4123 95.5771C79.4248 96.421 79.417 97.2665 79.417 98.1104C79.4217 98.1104 79.4264 98.1104 79.431 98.1104C79.431 98.9965 79.4373 99.8841 79.4279 100.77C79.4248 101.102 79.5168 101.276 79.8943 101.258C80.5901 101.229 81.2889 101.258 81.9831 101.222C82.6897 101.185 83.231 100.859 83.5009 100.171C84.0343 98.8139 84.0234 97.4475 83.4946 96.0981C83.2731 95.5334 82.8067 95.2215 82.1936 95.1123ZM83.0032 99.3084C82.7646 100.235 82.3434 100.575 81.3997 100.603C81.2312 100.608 81.0612 100.591 80.8942 100.608C80.3639 100.661 80.1205 100.477 80.1689 99.8981C80.2172 99.3116 80.1798 98.7188 80.1798 98.1276H80.1673C80.1673 97.4958 80.1751 96.8625 80.1642 96.2307C80.1595 95.9141 80.2749 95.7565 80.6072 95.783C80.796 95.7971 80.9863 95.7861 81.1766 95.783C82.6413 95.7659 83.0017 96.0857 83.1093 97.5473C83.153 98.1354 83.153 98.7282 83.0032 99.3069V99.3084Z"
            fill="white" />
        <path
            d="M106.599 100.575C105.97 100.514 105.335 100.525 104.704 100.502C104.42 100.491 104.272 100.343 104.292 100.057C104.311 99.7922 104.482 99.7064 104.727 99.7079C105.108 99.7111 105.49 99.7298 105.869 99.697C107.05 99.5956 107.546 98.8016 107.089 97.7034C106.945 97.3587 106.941 97.1965 107.352 97.1746C107.476 97.1684 107.629 97.1621 107.615 96.9812C107.599 96.769 107.423 96.7924 107.279 96.7909C106.919 96.7862 106.56 96.7909 106.2 96.7909C106.2 96.7831 106.2 96.7753 106.2 96.769C105.736 96.8018 105.267 96.8002 104.81 96.872C103.841 97.0233 103.32 97.9655 103.783 98.8188C104.011 99.24 104.261 99.5317 103.779 99.9341C103.596 100.087 103.673 100.394 103.794 100.591C103.955 100.853 103.971 100.993 103.719 101.249C103.07 101.907 103.375 102.906 104.268 103.119C105.126 103.324 105.994 103.291 106.838 103.02C107.51 102.803 107.753 102.382 107.685 101.648C107.619 100.942 107.351 100.647 106.601 100.574L106.599 100.575ZM104.309 98.0435C104.437 97.3291 105.006 97.3665 105.484 97.3993C106.557 97.4211 106.841 97.7534 106.555 98.5754C106.382 99.0746 105.516 99.3351 104.789 99.123C104.195 98.9498 104.231 98.4803 104.309 98.0435ZM106.416 102.633C105.835 102.765 105.25 102.75 104.663 102.684C104.283 102.641 104.041 102.481 104.042 102.048C104.044 101.602 104.169 101.241 104.644 101.146C104.95 101.085 105.27 101.102 105.585 101.085C105.585 101.093 105.585 101.099 105.585 101.107C105.816 101.107 106.047 101.107 106.278 101.107C106.697 101.106 106.962 101.282 106.989 101.726C107.015 102.165 106.909 102.52 106.415 102.633H106.416Z"
            fill="white" />
        <path
            d="M50.6242 97.1999C50.125 96.7101 48.4653 96.526 47.8398 96.8754C47.7181 96.9441 47.6307 97.019 47.6588 97.1672C47.6838 97.2982 47.7945 97.3153 47.9006 97.3169C48.133 97.32 48.3639 97.3107 48.5963 97.3107C48.9754 97.3107 49.3513 97.2966 49.7132 97.4651C50.125 97.6554 50.1453 98.0345 50.1281 98.3808C50.1063 98.8051 49.7195 98.6475 49.4792 98.6678C49.1017 98.7005 48.718 98.6569 48.342 98.6959C47.4841 98.7848 47.0567 99.5024 47.2517 100.48C47.3827 101.139 48.0316 101.483 48.7866 101.284C49.0924 101.203 49.3919 101.1 49.6851 100.981C49.9347 100.88 50.1516 100.772 50.2982 101.126C50.3606 101.279 50.5353 101.295 50.685 101.27C50.8707 101.239 50.8972 101.07 50.9003 100.925C50.9112 100.42 50.905 99.9126 50.905 99.4072C50.9128 99.4072 50.9206 99.4072 50.9284 99.4072C50.9284 99.0281 50.9331 98.6475 50.9284 98.2685C50.9221 97.8878 50.9268 97.4963 50.6273 97.203L50.6242 97.1999ZM49.7928 100.524C49.2671 100.632 48.7195 101.084 48.1985 100.541C47.8787 100.207 47.9942 99.7925 48.0831 99.401C48.1315 99.1888 48.3124 99.181 48.4809 99.1639C48.7741 99.1327 49.069 99.1186 49.3607 99.0703C49.955 98.9735 50.2576 99.1654 50.1391 99.6895C50.1609 100.115 50.1656 100.448 49.7912 100.524H49.7928Z"
            fill="white" />
        <path
            d="M55.2198 96.7905C54.8361 96.7999 54.861 97.0698 54.8626 97.3287C54.8657 98.0899 54.8798 98.8512 54.8704 99.6124C54.8626 100.311 54.4274 100.626 53.507 100.629C52.8238 100.631 52.6506 100.461 52.6304 99.6951C52.6085 98.8715 52.6085 98.0463 52.6038 97.2211C52.6023 96.9699 52.4993 96.8139 52.2357 96.8092C51.9846 96.803 51.9066 96.9777 51.9003 97.1836C51.8676 98.2397 51.8083 99.2989 51.9409 100.349C52.0282 101.038 52.5711 101.406 53.259 101.327C53.6147 101.286 53.9688 101.208 54.2917 101.041C54.5459 100.91 54.7768 100.77 54.9796 101.129C55.0685 101.285 55.2619 101.308 55.4351 101.258C55.6535 101.196 55.6254 101.007 55.6254 100.84C55.6254 100.247 55.6254 99.6561 55.6254 99.0633C55.6254 98.4924 55.6223 97.9215 55.6254 97.3505C55.627 97.0604 55.6332 96.7812 55.2183 96.7921L55.2198 96.7905Z"
            fill="white" />
        <path
            d="M113.26 96.7756C112.861 96.71 112.465 96.6866 112.065 96.7818C111.455 96.9269 111.058 97.2342 110.978 97.919C110.922 98.4057 110.9 98.8861 110.908 99.3713C110.931 100.756 111.429 101.229 112.912 101.19C113.181 101.17 113.538 101.145 113.897 101.117C114.059 101.104 114.271 101.139 114.254 100.88C114.24 100.655 114.053 100.638 113.878 100.635C113.435 100.625 112.99 100.622 112.546 100.613C112.114 100.605 111.817 100.399 111.703 99.9812C111.582 99.5429 111.638 99.2231 112.223 99.2761C112.538 99.3042 112.858 99.2964 113.173 99.273C114.035 99.2106 114.382 98.9095 114.419 98.22C114.464 97.3746 114.09 96.9113 113.26 96.7756ZM113.731 98.27C113.627 99.0374 113.003 98.7067 112.571 98.8315C112.274 98.6568 111.661 99.1217 111.653 98.3386C111.646 97.5976 111.909 97.3028 112.656 97.2779C113.485 97.2498 113.826 97.5633 113.731 98.27Z"
            fill="white" />
        <path
            d="M39.0818 96.8418C38.5062 96.6718 37.9119 96.6827 37.3363 96.8668C36.9322 96.9963 36.6655 97.2537 36.5641 97.7014C36.3863 98.4954 36.3239 99.2816 36.5017 100.082C36.6827 100.899 37.0976 101.277 37.9353 101.342C38.2488 101.367 38.5764 101.383 38.8806 101.319C39.1863 101.255 39.7573 101.35 39.7292 100.993C39.6886 100.49 39.1442 100.841 38.9461 100.776C38.5795 100.756 38.3268 100.746 38.0757 100.724C37.4954 100.673 37.2349 100.313 37.16 99.7714C37.121 99.4859 37.2037 99.3283 37.5235 99.3346C37.9446 99.3439 38.3674 99.3455 38.7885 99.3268C39.4578 99.2972 39.8181 98.9992 39.9023 98.4298C40.0178 97.6577 39.7136 97.0259 39.0834 96.8418H39.0818ZM39.2269 98.4829C38.9882 99.0304 38.4485 98.8588 37.9789 98.9119C37.7231 98.7917 37.2458 99.1334 37.1538 98.642C37.0726 98.213 37.1506 97.7263 37.5827 97.4642C38.046 97.1835 38.5514 97.1585 39.0023 97.5048C39.3267 97.7544 39.3782 98.1381 39.2269 98.4813V98.4829Z"
            fill="white" />
        <path
            d="M87.0591 96.7792C86.7253 96.748 86.3821 96.7449 86.0514 96.7854C85.3213 96.8743 84.9579 97.2425 84.8643 97.9647C84.7941 98.5076 84.7566 99.0489 84.8081 99.6026C84.947 101.083 86.6348 101.941 87.9311 101.172C88.0231 101.117 88.1245 101.055 88.1027 100.933C88.0746 100.783 87.942 100.752 87.8125 100.751C87.4335 100.746 87.0528 100.743 86.6738 100.751C86.3883 100.757 86.1263 100.677 85.8954 100.528C85.535 100.294 85.4149 99.9162 85.507 99.5293C85.6006 99.1393 85.9687 99.3842 86.2105 99.3296C86.29 99.3109 86.379 99.3265 86.4632 99.3265C86.6317 99.3265 86.8001 99.3296 86.9702 99.3265C87.8546 99.3047 88.2649 98.9599 88.2914 98.2205C88.3226 97.3579 87.9077 96.8587 87.0606 96.7776L87.0591 96.7792ZM87.5286 98.5528C87.3274 99.0582 86.8111 98.8554 86.3961 98.9287C86.12 98.793 85.6255 99.1643 85.5163 98.6277C85.4212 98.1628 85.5194 97.6699 85.9749 97.4078C86.3961 97.166 86.8781 97.1613 87.2837 97.4609C87.655 97.7338 87.6784 98.1769 87.5286 98.5528Z"
            fill="white" />
        <path
            d="M65.6808 96.7869C64.0882 96.4578 63.2864 97.0911 63.2458 98.7119C63.2443 98.7961 63.2458 98.8803 63.2458 98.9661H63.2505C63.2505 99.1143 63.2458 99.2625 63.2505 99.4107C63.3035 100.919 63.8433 101.421 65.3439 101.354C65.5326 101.347 65.7292 101.334 65.9086 101.28C66.1473 101.206 66.5887 101.295 66.5482 100.946C66.5076 100.587 66.0973 100.758 65.8462 100.762C65.3813 100.766 64.9243 100.801 64.475 100.609C63.9696 100.393 63.9431 99.9489 63.9961 99.5433C64.0492 99.1331 64.4454 99.3811 64.6841 99.3468C64.9539 99.3093 65.2331 99.3452 65.5077 99.3358C66.3079 99.3078 66.6698 99.0129 66.7353 98.3437C66.8165 97.5029 66.4374 96.9445 65.6808 96.7869ZM66.0349 98.5512C65.8025 99.0785 65.2737 98.8585 64.8307 98.9334C64.5717 98.8195 64.1022 99.1611 63.9946 98.6916C63.8932 98.2486 63.9306 97.7291 64.4001 97.4546C64.865 97.1832 65.3767 97.166 65.8212 97.5139C66.1644 97.7806 66.1956 98.1909 66.0365 98.5512H66.0349Z"
            fill="white" />
        <path
            d="M70.1983 98.8001C69.7599 98.6785 69.3185 98.6972 68.8754 98.7034C68.4761 98.7081 68.2874 98.5069 68.2686 98.1325C68.2484 97.7487 68.3981 97.4602 68.8162 97.4165C69.0876 97.3884 69.3653 97.4118 69.6398 97.4118C69.6398 97.4056 69.6398 97.4009 69.6398 97.3946C69.8941 97.3946 70.1468 97.3946 70.401 97.3946C70.582 97.3946 70.7505 97.3697 70.7567 97.1372C70.7614 96.9376 70.6054 96.9126 70.4572 96.883C69.8941 96.7691 69.3231 96.7145 68.7553 96.8003C67.8849 96.9313 67.5464 97.3962 67.6088 98.3134C67.6571 99.0201 68.0596 99.3617 68.9051 99.4038C69.1375 99.4147 69.3746 99.4303 69.6024 99.3945C70.0797 99.318 70.309 99.46 70.323 99.981C70.3371 100.494 70.1483 100.728 69.632 100.725C69.0829 100.722 68.5323 100.738 67.9832 100.756C67.8615 100.761 67.7117 100.795 67.6946 100.947C67.6743 101.128 67.7991 101.201 67.966 101.23C68.7428 101.368 69.5072 101.422 70.2825 101.167C70.8784 100.97 71.0468 100.569 71.0219 100.001C70.9969 99.4257 70.8253 98.9733 70.2029 98.8001H70.1983Z"
            fill="white" />
        <path
            d="M101.805 96.8519C100.139 96.3372 99.1636 97.0329 99.1262 98.7644C99.1246 98.8486 99.1246 98.9329 99.1262 99.0187C99.1667 100.85 99.5271 101.192 101.362 101.117C101.636 101.117 101.911 101.121 102.185 101.115C102.346 101.111 102.552 101.143 102.527 100.873C102.505 100.644 102.333 100.632 102.156 100.63C101.691 100.627 101.224 100.643 100.761 100.608C100.231 100.571 99.9264 100.282 99.8531 99.73C99.8032 99.3556 99.9311 99.2277 100.288 99.237C100.711 99.2495 101.134 99.2433 101.557 99.2339C102.132 99.2199 102.528 98.9843 102.608 98.3619C102.712 97.543 102.455 97.0532 101.803 96.8519H101.805ZM101.304 98.8081C101.115 98.8221 100.926 98.8096 100.736 98.8096V98.8128C100.694 98.8128 100.649 98.8237 100.61 98.8112C100.341 98.727 99.9342 99.0218 99.8094 98.5725C99.6737 98.0843 100.062 97.3979 100.519 97.3106C101.014 97.217 101.553 97.1265 101.893 97.6428C102.255 98.1903 101.956 98.7582 101.302 98.8081H101.304Z"
            fill="white" />
        <path
            d="M42.8409 98.7005C42.5882 98.6911 42.3339 98.7005 42.0796 98.6927C41.5196 98.6771 41.3371 98.4368 41.426 97.8877C41.4931 97.4775 41.8067 97.3901 42.1186 97.3605C42.6007 97.3137 43.0889 97.3309 43.5725 97.3168C43.6957 97.3137 43.8392 97.3137 43.8689 97.1499C43.9016 96.9612 43.7784 96.8738 43.6193 96.8504C43.3057 96.8036 42.9906 96.774 42.6989 96.7412C42.4634 96.7521 42.2512 96.7521 42.0422 96.774C41.1359 96.8707 40.7568 97.2965 40.774 98.1841C40.7896 99.0078 41.125 99.312 42.0796 99.3588C42.3121 99.3697 42.5445 99.3681 42.7769 99.365C43.1638 99.3588 43.482 99.3759 43.4727 99.9234C43.4633 100.449 43.2855 100.725 42.7426 100.725C42.2356 100.725 41.7287 100.73 41.2201 100.735C41.0454 100.736 40.8582 100.75 40.852 100.98C40.8473 101.162 41.0002 101.204 41.1546 101.237C41.8035 101.371 42.454 101.415 43.1045 101.273C43.9406 101.092 44.2557 100.68 44.1793 99.9047C44.0982 99.0905 43.702 98.7317 42.8393 98.702L42.8409 98.7005Z"
            fill="white" />
        <path
            d="M91.3202 98.7076C90.9848 98.6779 90.6432 98.6842 90.3063 98.6951C89.9194 98.7076 89.7728 98.4907 89.7587 98.1507C89.7416 97.7108 89.9303 97.4347 90.3936 97.3567C90.9006 97.2709 91.406 97.3442 91.9114 97.3255C92.0596 97.3192 92.225 97.3255 92.2312 97.1133C92.2359 96.9558 92.1251 96.8918 91.991 96.8731C91.2796 96.7764 90.5683 96.6656 89.8617 96.9043C89.4124 97.0572 89.1894 97.3582 89.1363 97.8371C89.0193 98.8979 89.3797 99.3315 90.4545 99.3627C90.6869 99.369 90.9209 99.3768 91.1517 99.3627C91.5963 99.3331 91.8225 99.5125 91.8365 99.9742C91.8506 100.442 91.654 100.698 91.1798 100.712C90.9053 100.72 90.6307 100.712 90.3562 100.712C90.3562 100.718 90.3562 100.726 90.3562 100.732C90.1019 100.732 89.8492 100.731 89.5949 100.732C89.4218 100.734 89.2346 100.739 89.2268 100.974C89.2206 101.163 89.3703 101.203 89.5263 101.23C90.1955 101.339 90.8647 101.43 91.537 101.249C92.3342 101.035 92.5603 100.692 92.4855 99.798C92.4293 99.1334 92.0549 98.7715 91.3155 98.706L91.3202 98.7076Z"
            fill="white" />
        <path
            d="M117.593 98.7101C117.236 98.6804 116.875 98.6991 116.516 98.6835C116.117 98.6679 115.893 98.473 115.883 98.0518C115.874 97.6478 116.05 97.3982 116.457 97.3654C116.75 97.342 117.047 97.3607 117.342 97.3607C117.342 97.3514 117.342 97.3436 117.342 97.3342C117.574 97.3342 117.807 97.3389 118.039 97.3326C118.201 97.328 118.404 97.3607 118.399 97.1002C118.396 96.8881 118.218 96.9037 118.08 96.8772C117.452 96.7524 116.825 96.729 116.195 96.8725C115.449 97.0425 115.222 97.342 115.269 98.1266C115.315 98.8926 115.554 99.1593 116.29 99.2279C116.648 99.2623 117.008 99.2841 117.365 99.2779C117.838 99.2701 117.997 99.5212 118.002 99.9471C118.008 100.385 117.819 100.624 117.364 100.626C116.835 100.626 116.307 100.629 115.779 100.633C115.587 100.635 115.359 100.633 115.357 100.899C115.357 101.144 115.587 101.094 115.743 101.117C116.373 101.217 117.005 101.189 117.635 101.112C118.357 101.025 118.679 100.655 118.669 99.9315C118.66 99.1624 118.324 98.7725 117.591 98.7116L117.593 98.7101Z"
            fill="white" />
        <path
            d="M58.4595 97.4271C58.6654 97.4411 58.9852 97.5238 58.9805 97.1541C58.9758 96.7891 58.6685 96.7828 58.4205 96.8172C57.8496 96.8967 57.7466 96.6144 57.7841 96.1261C57.7997 95.9155 57.9463 95.5614 57.5298 95.5365C57.1383 95.5115 57.1882 95.8469 57.1773 96.0809C57.157 96.5036 57.118 96.8842 56.5829 96.9622C56.4644 96.9794 56.3396 97.0714 56.3536 97.2243C56.3677 97.3787 56.4909 97.4364 56.625 97.4318C57.0727 97.4177 57.0649 97.7094 57.054 98.0277C57.0415 98.3646 57.0509 98.7031 57.0509 99.0416H57.0213C57.0213 99.3583 57.0135 99.6765 57.0213 99.9932C57.0478 100.92 57.4471 101.299 58.3675 101.264C58.5796 101.257 58.8791 101.342 58.9056 100.988C58.9275 100.692 58.6592 100.658 58.4658 100.637C57.9447 100.583 57.8043 100.249 57.795 99.8028C57.7841 99.2538 57.8324 98.6984 57.7653 98.1556C57.6936 97.5753 57.9089 97.3865 58.4564 97.4255L58.4595 97.4271Z"
            fill="white" />
        <path
            d="M109.912 100.602C109.427 100.532 109.322 100.204 109.329 99.7754C109.34 99.0563 109.332 98.3387 109.332 97.6196C109.318 97.6196 109.304 97.6196 109.29 97.6196C109.29 96.8381 109.288 96.0565 109.29 95.275C109.29 95.0332 109.238 94.871 108.942 94.8726C108.659 94.8726 108.581 95.0083 108.577 95.2625C108.553 96.888 108.435 98.515 108.583 100.139C108.658 100.966 109.035 101.235 109.861 101.136C110.023 101.117 110.229 101.139 110.244 100.902C110.258 100.683 110.091 100.627 109.911 100.602H109.912Z"
            fill="white" />
        <path
            d="M97.8776 96.7548C97.5064 96.8078 97.2069 96.9981 96.923 97.2181C96.6968 97.3928 96.4971 97.5769 96.4425 97.0933C96.416 96.8609 96.2397 96.7813 96.0291 96.7985C95.739 96.8219 95.8076 97.0605 95.8045 97.2337C95.7967 97.8233 95.8014 98.413 95.8014 99.0042C95.7967 99.0042 95.7936 99.0042 95.7889 99.0042C95.7889 99.5517 95.7889 100.099 95.7889 100.648C95.7889 100.879 95.7437 101.123 96.1087 101.132C96.4612 101.141 96.5361 100.954 96.5314 100.658C96.5205 100.13 96.5564 99.6017 96.5096 99.0775C96.4051 97.9232 96.9682 97.5769 97.9884 97.5301C98.277 97.5176 98.4158 97.4599 98.3862 97.1354C98.355 96.7954 98.1912 96.7096 97.8807 96.7548H97.8776Z"
            fill="white" />
        <path
            d="M62.0711 96.7642C61.6656 96.7766 61.3411 96.9747 61.0572 97.229C60.7811 97.4755 60.6064 97.5254 60.5159 97.0917C60.4785 96.9155 60.374 96.7751 60.1649 96.8016C59.8857 96.8375 59.9387 97.0668 59.9372 97.2446C59.9294 97.814 59.9341 98.3833 59.9341 98.9512C59.9247 98.9512 59.9153 98.9512 59.906 98.9512C59.906 99.5845 59.9013 100.216 59.9075 100.85C59.9107 101.123 60.037 101.282 60.3365 101.265C60.6407 101.247 60.6454 101.037 60.6469 100.818C60.6469 100.101 60.661 99.3833 60.6438 98.6673C60.6329 98.2289 60.8185 97.9513 61.2085 97.775C61.5002 97.6424 61.7919 97.5379 62.1195 97.5504C62.366 97.5597 62.5298 97.4599 62.5126 97.1807C62.4954 96.9077 62.3675 96.7564 62.0711 96.7657V96.7642Z"
            fill="white" />
        <path
            d="M76.0313 98.5507C75.7365 98.5569 75.4401 98.5522 75.1453 98.5522C74.8083 98.5522 74.4698 98.5585 74.1329 98.5507C73.8786 98.5444 73.8115 98.677 73.8115 98.9048C73.8115 99.1341 73.8926 99.2698 74.136 99.2698C74.7693 99.2698 75.4026 99.2698 76.036 99.2729C76.3152 99.2745 76.3916 99.1247 76.3901 98.8705C76.3901 98.6146 76.2606 98.5444 76.0344 98.5507H76.0313Z"
            fill="white" />
        <path
            d="M101.054 95.8465C100.772 95.4893 100.725 94.8497 100.074 94.9136C100.31 95.3255 100.519 95.7576 101.054 95.8465Z"
            fill="white" />
        <path
            d="M63.2648 24.0037C63.2195 24.0911 63.1743 24.1769 63.1291 24.2642C62.8343 24.2065 63.0012 24.0099 63.009 23.8633C63.0792 22.631 62.8452 21.5032 61.8624 20.653C60.7346 19.678 59.4633 19.416 58.1061 20.0743C56.7911 20.7123 56.164 21.8339 56.1328 23.2877C56.1282 23.5388 56.1656 23.7916 56.1843 24.0443C56.1453 24.1613 56.2077 24.3172 56.0533 24.3906C55.9706 24.1769 55.8879 23.9616 55.8053 23.7479C55.6415 23.2175 55.6664 22.67 55.6711 22.1256C56.0127 20.653 56.802 19.5907 58.2559 18.9979C60.1387 18.2289 62.8015 19.4051 63.3709 21.8245C63.4239 22.0507 63.4769 22.2753 63.5284 22.5015C63.4863 22.8806 63.4442 23.2581 63.4021 23.6371C63.3553 23.7604 63.31 23.882 63.2632 24.0053L63.2648 24.0037Z"
            fill="white" />
        <path
            d="M63.0088 23.8628C63.0447 23.9985 62.9963 24.1576 63.1289 24.2637C63.1367 24.3058 63.1398 24.3479 63.1351 24.39C63.0571 24.4836 62.9807 24.5772 62.9027 24.6708C62.8949 24.5741 62.8887 24.4774 62.8809 24.3807C62.8965 24.2013 62.8855 24.0157 63.0088 23.8644V23.8628Z"
            fill="white" fill-opacity="0.333333" />
    </g>
    <defs>
        <clipPath id="clip0_712_422">
            <rect width="118" height="102.502" fill="white" transform="translate(0.666016 0.749023)" />
        </clipPath>
    </defs>
</svg>
    