<svg width="32" height="24" viewBox="0 0 32 24" fill="none" xmlns="http://www.w3.org/2000/svg">
<path d="M28.0005 2.86987H22.064C21.9353 2.86987 21.8095 2.90808 21.7025 2.97966C21.5956 3.05123 21.5123 3.15295 21.4632 3.27192L18.3083 10.9208H30.53L28.631 3.36135C28.5956 3.22093 28.5144 3.09634 28.4002 3.00731C28.286 2.91828 28.1453 2.86992 28.0005 2.86987Z" fill="#FFC91D"/>
<path d="M28.6308 3.36161C28.5963 3.22477 28.5181 3.10291 28.408 3.01453C28.298 2.92614 28.1621 2.87604 28.0211 2.87183L29.7988 9.94785C29.8084 9.98619 29.8091 10.0262 29.801 10.0649C29.7928 10.1036 29.7759 10.1399 29.7516 10.171C29.7273 10.2022 29.6962 10.2274 29.6606 10.2448C29.6251 10.2621 29.5861 10.2711 29.5466 10.2711H18.5762L18.3082 10.921H30.5299L28.6308 3.36161Z" fill="#FFA91A"/>
<path d="M20.1127 10.9211V9.16423H22.6576V10.9211H23.1776V9.16423H26.0373V10.9211H26.5572V9.16423H29.1021V10.9211H29.622V8.90426C29.622 8.83531 29.5946 8.76918 29.5459 8.72043C29.4971 8.67168 29.431 8.64429 29.362 8.64429H19.8527C19.7837 8.64429 19.7176 8.67168 19.6689 8.72043C19.6201 8.76918 19.5927 8.83531 19.5927 8.90426V10.9211H20.1127Z" fill="#58595B"/>
<path d="M6.73633 15.0804V18.332H30.7899C30.9623 18.332 31.1276 18.2635 31.2495 18.1417C31.3713 18.0198 31.4398 17.8545 31.4398 17.6821V11.5708C31.4398 11.3985 31.3713 11.2331 31.2495 11.1113C31.1276 10.9894 30.9623 10.9209 30.7899 10.9209H18.3082L16.6593 15.0804H6.73633Z" fill="#7C3108"/>
<path d="M30.7899 10.9209V17.0322C30.7899 17.2045 30.7214 17.3698 30.5995 17.4917C30.4776 17.6136 30.3123 17.6821 30.14 17.6821H6.73633V18.332H30.7899C30.9623 18.332 31.1276 18.2635 31.2495 18.1417C31.3713 18.0198 31.4398 17.8545 31.4398 17.6821V11.5708C31.4398 11.3985 31.3713 11.2331 31.2495 11.1113C31.1276 10.9894 30.9623 10.9209 30.7899 10.9209Z" fill="#6D2E03"/>
<path d="M18.8281 13.0029V10.9209H30.7899C30.9623 10.9209 31.1276 10.9894 31.2495 11.1113C31.3714 11.2331 31.4398 11.3985 31.4398 11.5708V16.3825H29.3488C29.2944 16.3825 29.2415 16.3655 29.1973 16.3339C29.1532 16.3022 29.12 16.2575 29.1026 16.2061L28.1633 13.4392C28.1458 13.3878 28.1127 13.3431 28.0685 13.3115C28.0244 13.2799 27.9714 13.2628 27.9171 13.2628H19.0881C19.0191 13.2628 18.953 13.2355 18.9043 13.1867C18.8555 13.138 18.8281 13.0718 18.8281 13.0029Z" fill="#F79219"/>
<path d="M24.3972 23.9999C27.0849 23.9999 29.2716 21.8133 29.2716 19.1254C29.2716 16.4376 27.0849 14.251 24.3972 14.251C21.7093 14.251 19.5226 16.4376 19.5226 19.1254C19.5226 21.8133 21.7094 23.9999 24.3972 23.9999Z" fill="#58595B"/>
<path d="M27.5021 15.3708C28.201 16.2147 28.6218 17.297 28.6218 18.4757C28.6218 21.1635 26.4351 23.3501 23.7474 23.3501C22.5686 23.3501 21.4862 22.9294 20.6423 22.2304C21.5372 23.3108 22.8881 24.0001 24.3974 24.0001C27.0851 24.0001 29.2717 21.8134 29.2717 19.1256C29.2716 17.6165 28.5822 16.2657 27.5021 15.3708Z" fill="#414042"/>
<path d="M24.3972 21.4003C25.6516 21.4003 26.672 20.3798 26.672 19.1256C26.672 17.8713 25.6516 16.8508 24.3972 16.8508C23.1429 16.8508 22.1225 17.8713 22.1225 19.1256C22.1225 20.3798 23.1429 21.4003 24.3972 21.4003Z" fill="#D1D3D4"/>
<path d="M24.3972 19.9055C24.8272 19.9055 25.1771 19.5556 25.1771 19.1256C25.1771 18.6956 24.8273 18.3457 24.3972 18.3457C23.9671 18.3457 23.6173 18.6956 23.6173 19.1256C23.6173 19.5556 23.9671 19.9055 24.3972 19.9055Z" fill="#808285"/>
<path d="M24.3971 17.9557C24.5404 17.9557 24.657 17.8391 24.657 17.6958C24.657 17.5524 24.5404 17.4358 24.3971 17.4358C24.2537 17.4358 24.1371 17.5524 24.1371 17.6958C24.1371 17.8391 24.2538 17.9557 24.3971 17.9557ZM24.3971 20.8154C24.5404 20.8154 24.657 20.6988 24.657 20.5554C24.657 20.4121 24.5404 20.2955 24.3971 20.2955C24.2537 20.2955 24.1371 20.4121 24.1371 20.5554C24.1371 20.6988 24.2538 20.8154 24.3971 20.8154ZM25.4103 19.7105C25.3387 19.8347 25.3813 19.994 25.5054 20.0657C25.6296 20.1373 25.7889 20.0946 25.8606 19.9705C25.9322 19.8464 25.8896 19.687 25.7654 19.6154C25.6413 19.5438 25.4819 19.5864 25.4103 19.7105ZM22.9337 18.2807C22.8621 18.4048 22.9047 18.5642 23.0288 18.6358C23.153 18.7074 23.3123 18.6648 23.384 18.5407C23.4556 18.4165 23.4129 18.2572 23.2888 18.1855C23.1647 18.1139 23.0053 18.1566 22.9337 18.2807ZM23.384 19.7105C23.4556 19.8347 23.4129 19.994 23.2888 20.0657C23.1647 20.1373 23.0053 20.0946 22.9337 19.9705C22.8621 19.8464 22.9047 19.687 23.0288 19.6154C23.153 19.5438 23.3123 19.5864 23.384 19.7105ZM25.8606 18.2807C25.9322 18.4048 25.8896 18.5642 25.7654 18.6358C25.6413 18.7074 25.4819 18.6648 25.4103 18.5407C25.3387 18.4165 25.3813 18.2572 25.5054 18.1855C25.6296 18.1139 25.7888 18.1566 25.8606 18.2807Z" fill="#939598"/>
<path d="M5.15938 23.9999C7.84709 23.9999 10.0337 21.8133 10.0337 19.1254C10.0337 16.4376 7.84709 14.251 5.15938 14.251C2.47141 14.251 0.28479 16.4376 0.28479 19.1254C0.28479 21.8133 2.47154 23.9999 5.15938 23.9999Z" fill="#58595B"/>
<path d="M8.2642 15.3708C8.96314 16.2147 9.3839 17.297 9.3839 18.4757C9.3839 21.1635 7.19728 23.3501 4.50957 23.3501C3.33074 23.3501 2.24835 22.9294 1.40448 22.2304C2.2993 23.3108 3.65024 24.0001 5.1595 24.0001C7.84721 24.0001 10.0338 21.8134 10.0338 19.1256C10.0337 17.6165 9.34438 16.2657 8.2642 15.3708Z" fill="#414042"/>
<path d="M5.15939 21.4003C6.41375 21.4003 7.43414 20.3798 7.43414 19.1256C7.43414 17.8713 6.41375 16.8508 5.15939 16.8508C3.90503 16.8508 2.88464 17.8713 2.88464 19.1256C2.88464 20.3798 3.90503 21.4003 5.15939 21.4003Z" fill="#D1D3D4"/>
<path d="M5.15937 19.9055C5.58936 19.9055 5.93928 19.5556 5.93928 19.1256C5.93928 18.6956 5.58949 18.3457 5.15937 18.3457C4.72938 18.3457 4.37946 18.6956 4.37946 19.1256C4.37946 19.5556 4.72925 19.9055 5.15937 19.9055Z" fill="#808285"/>
<path d="M5.15926 17.9557C5.30264 17.9557 5.41924 17.8391 5.41924 17.6958C5.41924 17.5524 5.30264 17.4358 5.15926 17.4358C5.01589 17.4358 4.89929 17.5524 4.89929 17.6958C4.89929 17.8391 5.01602 17.9557 5.15926 17.9557ZM5.15926 20.8154C5.30264 20.8154 5.41924 20.6988 5.41924 20.5554C5.41924 20.4121 5.30264 20.2955 5.15926 20.2955C5.01589 20.2955 4.89929 20.4121 4.89929 20.5554C4.89929 20.6988 5.01602 20.8154 5.15926 20.8154ZM6.1725 19.7105C6.10088 19.8347 6.14352 19.994 6.26765 20.0657C6.39179 20.1373 6.55115 20.0946 6.62277 19.9705C6.69439 19.8464 6.65176 19.687 6.52762 19.6154C6.40349 19.5438 6.24412 19.5864 6.1725 19.7105ZM3.69589 18.2807C3.62427 18.4048 3.6669 18.5642 3.79104 18.6358C3.91517 18.7074 4.07454 18.6648 4.14616 18.5407C4.21778 18.4165 4.17514 18.2572 4.05101 18.1855C3.92687 18.1139 3.76751 18.1566 3.69589 18.2807ZM4.14616 19.7105C4.21778 19.8347 4.17514 19.994 4.05101 20.0657C3.92687 20.1373 3.76751 20.0946 3.69589 19.9705C3.62427 19.8464 3.6669 19.687 3.79104 19.6154C3.91517 19.5438 4.07454 19.5864 4.14616 19.7105ZM6.62277 18.2807C6.69439 18.4048 6.65176 18.5642 6.52762 18.6358C6.40349 18.7074 6.24412 18.6648 6.1725 18.5407C6.10088 18.4165 6.14352 18.2572 6.26765 18.1855C6.39179 18.1139 6.55102 18.1566 6.62277 18.2807Z" fill="#939598"/>
<path d="M28.772 1.10488V0.259971C28.772 0.191022 28.7446 0.124898 28.6959 0.076144C28.6471 0.02739 28.581 1.03112e-09 28.512 1.03112e-09H20.4945C20.3827 -6.29953e-06 20.2727 0.0288617 20.1752 0.08381C20.0778 0.138758 19.9962 0.217927 19.9383 0.313655L17.9182 3.65558H2.98951C2.85975 3.65559 2.73295 3.69445 2.62546 3.76714C2.51797 3.83984 2.4347 3.94305 2.38638 4.06348L0.0468998 9.89268C-0.0145323 10.0457 -0.0154892 10.2164 0.0442231 10.3701C0.103935 10.5238 0.219851 10.6491 0.368484 10.7206L9.43926 15.0805H16.078L21.4926 1.52837C21.5118 1.48011 21.5451 1.43873 21.5882 1.40959C21.6312 1.38044 21.682 1.36485 21.7339 1.36485H28.512C28.581 1.36485 28.6471 1.33746 28.6959 1.2887C28.7446 1.23995 28.772 1.17383 28.772 1.10488Z" fill="#FFA91A"/>
<path d="M1.3144 8.73916C1.27187 8.73917 1.22999 8.72874 1.19243 8.7088C1.15487 8.68885 1.12278 8.66 1.09897 8.62477C1.07515 8.58953 1.06035 8.549 1.05584 8.50671C1.05134 8.46442 1.05728 8.42168 1.07314 8.38222L2.33192 5.2458C2.3591 5.18399 2.40925 5.13518 2.47176 5.10967C2.53427 5.08416 2.60426 5.08396 2.66691 5.10911C2.72957 5.13426 2.78 5.1828 2.80752 5.24445C2.83505 5.3061 2.83753 5.37604 2.81443 5.43948L1.55565 8.5759C1.53634 8.62409 1.50304 8.6654 1.46004 8.69449C1.41704 8.72359 1.36632 8.73915 1.3144 8.73916ZM2.96053 4.6376C2.91804 4.63759 2.8762 4.62716 2.83867 4.60723C2.80114 4.5873 2.76906 4.55848 2.74526 4.52328C2.72145 4.48808 2.70663 4.44758 2.7021 4.40533C2.69758 4.36308 2.70347 4.32036 2.71928 4.28092L2.72799 4.25921C2.7542 4.19604 2.80425 4.14575 2.86729 4.11922C2.93032 4.0927 3.00127 4.09209 3.06476 4.11751C3.12825 4.14294 3.17916 4.19236 3.20646 4.25506C3.23377 4.31776 3.23526 4.3887 3.21063 4.4525L3.20192 4.47421C3.18262 4.52244 3.1493 4.56379 3.10628 4.59291C3.06325 4.62204 3.01249 4.6376 2.96053 4.6376Z" fill="#FFC91D"/>
<path d="M28.512 0H27.3825C27.3367 0.0399055 27.2777 0.0649927 27.2122 0.0649927H20.4341C20.3278 0.0649927 20.2321 0.129725 20.1927 0.228514L14.7783 13.7807H8.13941L0.0474276 9.89112L0.0467777 9.89255C-0.0146544 10.0456 -0.0156112 10.2163 0.0441011 10.37C0.103813 10.5237 0.219729 10.649 0.368362 10.7204L9.43914 15.0804H16.0779L21.4926 1.52837C21.5118 1.48011 21.5451 1.43873 21.5882 1.40959C21.6312 1.38044 21.682 1.36485 21.7339 1.36485H28.512C28.581 1.36485 28.6471 1.33746 28.6959 1.2887C28.7446 1.23995 28.772 1.17383 28.772 1.10488V0.259971C28.772 0.191022 28.7446 0.124898 28.6959 0.076144C28.6471 0.02739 28.581 0 28.512 0Z" fill="#F79219"/>
<path d="M28.5121 0H28.1221V0.454949C28.1221 0.523898 28.0947 0.590023 28.046 0.638777C27.9972 0.687531 27.9311 0.71492 27.8621 0.71492H21.084C20.9777 0.71492 20.882 0.779653 20.8427 0.878442L15.4282 14.4306H8.78936L0.00701904 10.2092C0.0321062 10.4238 0.161052 10.6207 0.368509 10.7204L9.43929 15.0804H16.078L21.4926 1.52837C21.5119 1.48011 21.5452 1.43873 21.5882 1.40959C21.6312 1.38044 21.682 1.36485 21.734 1.36485H28.5121C28.581 1.36485 28.6471 1.33746 28.6959 1.2887C28.7446 1.23995 28.772 1.17383 28.772 1.10488V0.259971C28.772 0.191022 28.7446 0.124898 28.6959 0.076144C28.6471 0.02739 28.581 0 28.5121 0Z" fill="#EF7816"/>
<path d="M24.484 7.60411H28.4552C28.4948 7.60411 28.5338 7.5951 28.5693 7.57776C28.6048 7.56042 28.6359 7.53521 28.6602 7.50404C28.6845 7.47287 28.7014 7.43656 28.7096 7.39789C28.7178 7.35921 28.717 7.31918 28.7074 7.28084L27.8469 3.85585C27.8328 3.79965 27.8003 3.74978 27.7546 3.71415C27.7089 3.67852 27.6527 3.65917 27.5947 3.65918H24.484C24.4151 3.65918 24.349 3.68657 24.3002 3.73532C24.2514 3.78408 24.2241 3.8502 24.2241 3.91915V7.34414C24.2241 7.41309 24.2514 7.47921 24.3002 7.52797C24.349 7.57672 24.4151 7.60411 24.484 7.60411Z" fill="#5E9CF7"/>
<path d="M28.7073 7.28084L27.8468 3.85585C27.8327 3.79965 27.8002 3.74978 27.7545 3.71415C27.7088 3.67852 27.6525 3.65917 27.5946 3.65918H27.3107L28.0572 6.63091C28.0668 6.66925 28.0676 6.70928 28.0594 6.74796C28.0513 6.78664 28.0344 6.82294 28.0101 6.85411C27.9857 6.88528 27.9546 6.91049 27.9191 6.92783C27.8836 6.94517 27.8446 6.95419 27.805 6.95418H24.2238V7.34414C24.2238 7.41309 24.2512 7.47921 24.3 7.52797C24.3487 7.57672 24.4148 7.60411 24.4838 7.60411H28.455C28.4945 7.60413 28.5335 7.59514 28.5691 7.5778C28.6046 7.56047 28.6357 7.53526 28.6601 7.50409C28.6844 7.47292 28.7013 7.4366 28.7095 7.39792C28.7177 7.35923 28.7169 7.31919 28.7073 7.28084Z" fill="#478CF7"/>
<path d="M23.3126 3.65942H22.5183C22.413 3.65942 22.3181 3.72299 22.2779 3.82022L20.8652 7.2452C20.8489 7.2847 20.8426 7.3276 20.8469 7.37012C20.8511 7.41264 20.8657 7.45346 20.8895 7.48897C20.9133 7.52448 20.9454 7.55358 20.9831 7.57371C21.0208 7.59383 21.0629 7.60436 21.1056 7.60435H23.3126C23.3816 7.60435 23.4477 7.57696 23.4964 7.52821C23.5452 7.47946 23.5726 7.41333 23.5726 7.34438V3.91939C23.5726 3.85045 23.5452 3.78432 23.4964 3.73557C23.4477 3.68681 23.3816 3.65942 23.3126 3.65942Z" fill="#5E9CF7"/>
<path d="M23.3126 3.65942H22.9227V6.69446C22.9227 6.7634 22.8953 6.82953 22.8465 6.87828C22.7978 6.92704 22.7316 6.95443 22.6627 6.95443H20.9852L20.8652 7.2452C20.8489 7.2847 20.8426 7.3276 20.8469 7.37012C20.8511 7.41264 20.8657 7.45346 20.8895 7.48897C20.9133 7.52448 20.9454 7.55358 20.9831 7.57371C21.0208 7.59383 21.0629 7.60436 21.1056 7.60435H23.3126C23.3816 7.60435 23.4477 7.57696 23.4964 7.52821C23.5452 7.47946 23.5726 7.41333 23.5726 7.34438V3.91939C23.5726 3.85045 23.5452 3.78432 23.4964 3.73557C23.4477 3.68681 23.3816 3.65942 23.3126 3.65942Z" fill="#478CF7"/>
<path d="M13.6275 15.0806L17.1322 5.98527C17.1473 5.94589 17.1527 5.90341 17.1478 5.86149C17.1429 5.81958 17.1278 5.7795 17.1039 5.7447C17.0801 5.70991 17.0481 5.68145 17.0107 5.66179C16.9734 5.64212 16.9318 5.63184 16.8896 5.63184H15.5621C15.5096 5.63184 15.4583 5.64776 15.415 5.67748C15.3717 5.7072 15.3384 5.74934 15.3195 5.79835L11.7428 15.0806H13.6275ZM8.09259 14.4333L9.43924 15.0806H9.72794L13.2326 5.98527C13.2478 5.94589 13.2531 5.90341 13.2482 5.86149C13.2433 5.81958 13.2282 5.7795 13.2044 5.7447C13.1805 5.70991 13.1485 5.68145 13.1112 5.66179C13.0738 5.64212 13.0323 5.63184 12.9901 5.63184H11.6624C11.6099 5.63184 11.5586 5.64776 11.5153 5.67748C11.472 5.7072 11.4387 5.74934 11.4198 5.79835L8.09259 14.4333ZM6.39264 13.6162L9.33304 5.98527C9.34822 5.94589 9.35357 5.90341 9.34865 5.86149C9.34373 5.81958 9.32868 5.7795 9.3048 5.7447C9.28092 5.70991 9.24893 5.68145 9.2116 5.66179C9.17426 5.64212 9.13269 5.63184 9.09049 5.63184H7.76282C7.7103 5.63184 7.65902 5.64776 7.61572 5.67748C7.57243 5.7072 7.53915 5.74934 7.52027 5.79835L4.8024 12.8518L6.39264 13.6162ZM1.51221 11.2703L3.10245 12.0347L5.43348 5.98527C5.44865 5.94589 5.45401 5.90341 5.44909 5.86149C5.44417 5.81958 5.42912 5.7795 5.40524 5.7447C5.38136 5.70991 5.34937 5.68145 5.31203 5.66179C5.27469 5.64212 5.23313 5.63184 5.19093 5.63184H3.86325C3.81074 5.63184 3.75945 5.64776 3.71616 5.67748C3.67286 5.7072 3.63958 5.74934 3.6207 5.79835L1.51221 11.2703Z" fill="#EF7816"/>
<path d="M18.6114 19.2555H10.9423C10.8733 19.2555 10.8072 19.2281 10.7585 19.1793C10.7097 19.1306 10.6823 19.0644 10.6823 18.9955V17.2407C10.6823 17.1717 10.7097 17.1056 10.7585 17.0569C10.8072 17.0081 10.8733 16.9807 10.9423 16.9807H18.6114C18.6804 16.9807 18.7465 17.0081 18.7953 17.0569C18.844 17.1056 18.8714 17.1717 18.8714 17.2407V18.9955C18.8714 19.0644 18.844 19.1306 18.7953 19.1793C18.7465 19.2281 18.6804 19.2555 18.6114 19.2555Z" fill="#8C3F0A"/>
<path d="M30.8518 15.4683H30.0719C30.0374 15.4683 30.0043 15.4546 29.98 15.4302C29.9556 15.4059 29.9419 15.3728 29.9419 15.3383C29.9419 15.3039 29.9556 15.2708 29.98 15.2464C30.0043 15.222 30.0374 15.2083 30.0719 15.2083H30.8518C30.8863 15.2083 30.9193 15.222 30.9437 15.2464C30.9681 15.2708 30.9818 15.3039 30.9818 15.3383C30.9818 15.3728 30.9681 15.4059 30.9437 15.4302C30.9193 15.4546 30.8863 15.4683 30.8518 15.4683ZM30.8518 14.9484H29.6819C29.6475 14.9484 29.6144 14.9347 29.59 14.9103C29.5656 14.8859 29.5519 14.8529 29.5519 14.8184C29.5519 14.7839 29.5656 14.7508 29.59 14.7265C29.6144 14.7021 29.6475 14.6884 29.6819 14.6884H30.8518C30.8863 14.6884 30.9193 14.7021 30.9437 14.7265C30.9681 14.7508 30.9818 14.7839 30.9818 14.8184C30.9818 14.8529 30.9681 14.8859 30.9437 14.9103C30.9193 14.9347 30.8863 14.9484 30.8518 14.9484ZM30.8518 14.4284H29.292C29.2575 14.4284 29.2244 14.4147 29.2001 14.3904C29.1757 14.366 29.162 14.3329 29.162 14.2984C29.162 14.264 29.1757 14.2309 29.2001 14.2065C29.2244 14.1822 29.2575 14.1685 29.292 14.1685H30.8518C30.8863 14.1685 30.9193 14.1822 30.9437 14.2065C30.9681 14.2309 30.9818 14.264 30.9818 14.2984C30.9818 14.3329 30.9681 14.366 30.9437 14.3904C30.9193 14.4147 30.8863 14.4284 30.8518 14.4284Z" fill="#EF7816"/>
<path d="M31.4399 13.172H30.7249C30.656 13.172 30.5899 13.1446 30.5411 13.0958C30.4924 13.0471 30.465 12.981 30.465 12.912V12.0671C30.465 11.9982 30.4924 11.932 30.5411 11.8833C30.5899 11.8345 30.656 11.8071 30.7249 11.8071H31.4399V13.172Z" fill="#D10028"/>
<path d="M30.7249 12.912V12.0671C30.7249 11.9982 30.7523 11.932 30.8011 11.8833C30.8498 11.8345 30.916 11.8071 30.9849 11.8071H30.7249C30.656 11.8071 30.5899 11.8345 30.5411 11.8833C30.4924 11.932 30.465 11.9982 30.465 12.0671V12.912C30.465 12.981 30.4924 13.0471 30.5411 13.0958C30.5899 13.1446 30.656 13.172 30.7249 13.172H30.9849C30.916 13.172 30.8498 13.1446 30.8011 13.0958C30.7523 13.0471 30.7249 12.981 30.7249 12.912Z" fill="#B7022D"/>
</svg>
