<svg width="91" height="90" viewBox="0 0 91 90" fill="none" xmlns="http://www.w3.org/2000/svg">
    <g clip-path="url(#clip0_140_1531)">
        <path
            d="M46.8923 0.0725352C71.1007 0.310975 91.5515 20.7752 90.8137 46.0342C90.0477 72.2997 68.344 90.8879 44.0152 89.9184C19.2838 88.9332 -0.187345 68.0145 0.875514 43.0233C1.93387 18.1344 23.082 -0.766505 46.8923 0.0725352ZM45.7777 8.50005C26.8014 8.18513 9.35589 23.9368 9.31203 44.8566C9.26929 65.0003 25.5586 81.4257 45.6798 81.4887C65.9281 81.5517 82.3085 65.2893 82.367 45.0174C82.4266 24.254 65.2893 8.22337 45.7788 8.50118L45.7777 8.50005ZM49.5837 85.6861C49.5803 84.3252 48.3859 83.1578 47.0115 83.1735C45.7608 83.1881 44.599 84.4231 44.5967 85.7401C44.5945 87.0482 45.7698 88.1819 47.1116 88.1628C48.4556 88.1436 49.5882 87.0099 49.5848 85.6861H49.5837ZM47.0767 6.56554C48.4129 6.57004 49.5995 5.43632 49.6129 4.14514C49.6264 2.80785 48.5152 1.68426 47.1633 1.66851C45.7867 1.65276 44.518 2.79998 44.5258 4.05404C44.5337 5.30473 45.8103 6.56216 47.0767 6.56554ZM86.3305 47.4322C87.7319 47.4322 88.9241 46.3322 88.9399 45.0242C88.9567 43.6385 87.8534 42.5262 86.4554 42.5172C85.0292 42.5082 84.0125 43.517 84.0091 44.9454C84.0057 46.3929 84.9752 47.4322 86.3305 47.4333V47.4322ZM4.83452 47.4164C6.19206 47.4333 7.25379 46.3536 7.27516 44.9353C7.29541 43.6025 6.29553 42.5509 4.97849 42.5217C3.50511 42.489 2.34552 43.5429 2.33427 44.9241C2.32303 46.3108 3.41513 47.3996 4.83452 47.4176V47.4164Z"
            fill="#ECF4FF" />
        <path
            d="M59.8385 43.8062C63.4252 43.8129 66.6599 44.1233 69.7079 45.4595C72.2644 46.5808 74.209 48.2803 74.8501 51.1449C75.3045 53.1762 75.0717 55.1726 74.488 57.1374C73.316 61.0841 71.0576 64.3525 68.1142 67.1756C66.4001 68.821 64.5308 70.2573 62.3118 71.1627C61.6583 71.4292 60.961 71.6317 60.2637 71.734C58.3033 72.0208 56.7455 71.1683 55.7828 69.3463C55.0731 68.0022 54.7447 66.5423 54.522 65.0543C54.3195 63.7024 54.1621 62.3426 53.918 60.9986C53.503 58.7222 52.4547 56.6819 51.4594 54.6237C51.1039 53.8881 50.9555 54.0197 51.7799 53.4574C54.9325 51.3092 56.587 48.3433 56.6173 44.5125C56.6207 44.084 56.7725 43.9692 57.1673 43.9546C58.1593 43.9175 59.1502 43.8455 59.8385 43.8062Z"
            fill="#ECF4FF" />
        <path
            d="M40.3071 35.2404C39.531 33.8547 38.7189 32.5107 38.007 31.1149C36.7147 28.5809 35.689 25.9457 35.5023 23.0676C35.2132 18.6092 37.0364 15.7749 41.1945 14.0945C43.6317 13.1093 46.1736 12.8933 48.7593 13.0429C52.9781 13.2881 56.9821 14.3004 60.5531 16.6432C61.4495 17.2314 62.2762 17.9816 62.9803 18.7925C64.3907 20.4188 64.5099 22.1959 63.2468 23.946C62.4786 25.0099 61.508 25.9558 60.5081 26.8162C59.2046 27.9376 57.7436 28.8767 56.4186 29.9756C54.7496 31.3612 53.4179 33.0674 52.2066 34.8557C51.8905 35.3225 51.6217 35.3495 51.1505 35.147C50.172 34.7286 49.198 34.2394 48.17 34.0099C45.7349 33.4678 43.3652 33.8199 41.1011 34.8692C40.866 34.9783 40.6321 35.0885 40.3082 35.2404H40.3071Z"
            fill="#ECF4FF" />
        <path
            d="M34.8503 44.2178C34.7738 46.5325 35.5352 48.5311 36.8106 50.3565C37.7104 51.6443 38.9667 52.5362 40.2782 53.3415C40.7865 53.6531 40.8349 53.9095 40.6043 54.446C39.086 57.9754 37.1323 61.2089 34.3318 63.8779C32.7785 65.3569 31.0026 66.4186 28.8116 66.6469C27.1471 66.8201 25.6152 66.3894 24.1699 65.6111C21.3593 64.0983 19.3483 61.7747 17.7388 59.0877C15.3994 55.1827 14.025 50.9875 14.2904 46.3818C14.3478 45.3943 14.5963 44.3685 14.9866 43.4597C15.6029 42.0268 16.7895 41.271 18.3934 41.2069C20.2064 41.1338 21.943 41.4836 23.6031 42.1663C27.1021 43.6048 30.7248 44.3201 34.5095 44.1874C34.5994 44.1841 34.6917 44.2032 34.8491 44.2189L34.8503 44.2178Z"
            fill="#ECF4FF" />
        <path
            d="M45.7658 52.4056C41.3569 52.7959 37.7522 48.7098 37.7735 44.6203C37.7972 40.3385 41.4874 36.5808 45.7095 36.5977C50.0262 36.6146 53.7063 40.2755 53.7445 44.5337C53.7839 48.874 49.9869 52.7565 45.7658 52.4056Z"
            fill="#ECF4FF" />
    </g>
    <defs>
        <clipPath id="clip0_140_1531">
            <rect width="90" height="89.9089" fill="white" transform="translate(0.833008 0.0455322)" />
        </clipPath>
    </defs>
</svg>