<svg width="25" height="25" viewBox="0 0 25 25" fill="none" xmlns="http://www.w3.org/2000/svg">
    <path
        d="M12.1764 11.0234C10.6162 11.0234 9.44839 12.4195 9.44839 13.9295C9.44839 15.5123 10.6722 16.7419 12.1764 16.7419C13.6787 16.7419 14.9888 15.4207 14.9888 13.8358C14.9887 12.3285 13.7392 11.0234 12.1764 11.0234Z"
        fill="#ECF4FF" />
    <path
        d="M22.4583 15.7129C21.6689 15.2573 18.8577 14.0984 16.3498 13.3899C16.3657 13.5384 16.3948 13.6831 16.3948 13.8357C16.3948 15.5528 15.3604 17.1211 13.885 17.7789C14.4071 18.2871 14.9665 18.7971 15.5324 19.2826C14.0601 20.1973 12.3052 20.4889 10.6472 20.0485C10.2729 19.9524 9.88773 20.1728 9.78751 20.5483C9.68795 20.9233 9.91178 21.3084 10.2873 21.408C12.4555 21.9825 14.6944 21.5912 16.6411 20.2052C17.0542 20.5376 17.4483 20.8462 17.7939 21.1036C15.0758 23.2108 11.3357 23.6558 8.24199 22.1413C7.89319 21.9689 7.4723 22.1145 7.30134 22.4626C7.13039 22.8114 7.27388 23.2323 7.62267 23.4032C11.3033 25.2087 15.7414 24.7502 19.0293 21.9311C20.7899 22.8849 22.8354 22.1863 23.7458 20.6088C24.7145 18.9301 24.1371 16.6824 22.4583 15.7129ZM22.6986 13.1148C22.4152 8.92461 19.6149 5.31021 15.6841 3.91717C15.6428 2.01437 14.1732 0.477051 12.2607 0.477051C10.3224 0.477051 8.74524 2.05417 8.74524 3.9925C8.74524 4.90216 9.14359 7.91464 9.77987 10.4407C10.478 9.9291 11.2464 9.61719 12.1763 9.61719C13.1073 9.61719 13.9607 9.9298 14.6592 10.4424C14.8388 9.73026 15.0015 8.984 15.139 8.25088C16.6711 9.06613 17.8215 10.4811 18.283 12.1741C18.3872 12.5572 18.7826 12.7688 19.1461 12.6678C19.521 12.5655 19.7421 12.1796 19.6397 11.8047C19.0356 9.58682 17.461 7.76506 15.3841 6.81265C15.4647 6.29187 15.5315 5.80437 15.5813 5.37869C18.794 6.67582 21.0587 9.71001 21.2951 13.2096C21.3205 13.5811 21.6295 13.8653 21.9961 13.8653C22.0119 13.8653 22.0284 13.8646 22.0442 13.8639C22.4316 13.8378 22.7247 13.5021 22.6986 13.1148ZM8.04216 13.9295C8.04216 13.7777 8.07127 13.634 8.08697 13.4862C7.38108 13.685 6.66089 13.9082 5.95218 14.1575C5.88421 12.2673 6.5939 10.5682 7.76958 9.38235C8.04286 9.1063 8.0415 8.66141 7.76546 8.38813C7.49081 8.1162 7.04588 8.1162 6.77123 8.39225C5.22492 9.95179 4.35336 12.1722 4.58882 14.6599C4.08763 14.8544 3.61982 15.0432 3.22049 15.2158C2.71016 11.5906 4.35271 8.14133 7.15913 6.25001C7.48116 6.03302 7.56633 5.59638 7.34935 5.27435C7.131 4.95161 6.69431 4.86714 6.37368 5.08413C3.04738 7.32551 1.09803 11.4791 1.90911 15.8605C0.27921 16.8574 -0.261871 18.9551 0.691289 20.6088C0.698133 20.6212 0.705727 20.6329 0.71257 20.6452C1.68509 22.2838 3.78875 22.8451 5.44537 21.923C5.46187 21.9141 5.47762 21.9044 5.49412 21.8955C5.49412 21.8955 5.49482 21.8948 5.49548 21.8948C6.285 21.4384 8.68402 19.5906 10.549 17.7773C9.07524 17.1189 8.04216 15.6453 8.04216 13.9295Z"
        fill="#ECF4FF" />
</svg>