<svg width="83" height="93" viewBox="0 0 83 93" fill="none" xmlns="http://www.w3.org/2000/svg">
<path d="M41.3281 0.417969C42.7781 0.417969 44.2273 0.769069 45.5322 1.4707L45.791 1.61523L45.792 1.61621L77.7744 20.1621V20.1611C80.519 21.7594 82.2391 24.7316 82.2393 27.9277V65.002C82.2392 68.0997 80.6405 70.9846 78.0303 72.6143L77.7754 72.7676L77.7744 72.7686L45.792 91.3145H45.791C43.0485 92.9113 39.6263 92.9116 36.8643 91.3135H36.8633L4.88184 72.7686H4.88281C2.13804 71.1703 0.418021 68.1982 0.417969 65.002V27.9277L0.422852 27.6289C0.522093 24.6455 2.10012 21.8926 4.62598 20.3154L4.88184 20.1621L36.8652 1.61621V1.61523C38.2359 0.817127 39.7816 0.418023 41.3281 0.417969Z" fill="#1344AC" stroke="white" stroke-width="0.835058"/>
</svg>
