<svg width="129" height="129" viewBox="0 0 129 129" fill="none" xmlns="http://www.w3.org/2000/svg">
    <path
        d="M13.7322 64.5615L13.7322 64.5173C13.7322 62.1532 13.9007 59.7715 14.2191 57.4427L23.0391 58.6865C22.7769 60.6007 22.6458 62.5678 22.6458 64.5173L13.7322 64.5615ZM13.8071 67.4195L22.702 66.9167C22.8144 68.875 23.0578 70.8333 23.4323 72.7476L14.6872 74.5118C14.2378 72.183 13.9382 69.8013 13.8071 67.4284L13.8071 67.4195ZM14.6872 54.6287C15.1366 52.2911 15.7546 49.9623 16.5411 47.7217L24.9491 50.7033C24.3124 52.5469 23.8068 54.4523 23.4323 56.3753L14.6872 54.6287ZM15.3239 77.2993L23.9566 75.0411C24.4435 76.9377 25.0615 78.8078 25.7918 80.6073L17.571 84.074C16.6722 81.8776 15.9232 79.6017 15.3426 77.2993L15.3239 77.2993ZM17.5336 45.0489C18.4324 42.8524 19.4811 40.7 20.6796 38.6535L28.3573 43.2493C27.3835 44.9342 26.5034 46.6984 25.7731 48.5068L17.5336 45.0577L17.5336 45.0489ZM18.7133 86.6763L26.7281 82.742C27.5708 84.4974 28.5258 86.2088 29.6119 87.8407L22.2151 92.8688C20.9043 90.8929 19.7245 88.811 18.7133 86.6763ZM22.1777 36.2276C23.4885 34.2517 24.9304 32.3463 26.4847 30.582L33.1324 36.5981C31.8591 38.0536 30.6606 39.6238 29.5932 41.2469L22.1777 36.2276ZM23.8443 95.2064L30.9602 89.7637C32.1212 91.3251 33.3946 92.8159 34.7616 94.2008L28.4696 100.596C26.8217 98.9202 25.2675 97.103 23.8443 95.2153L23.8443 95.2064ZM28.4134 28.5002C30.0613 26.8154 31.859 25.2364 33.7129 23.8073L39.0873 31.0143C37.5518 32.1875 36.0724 33.493 34.7241 34.878L28.4134 28.4914L28.4134 28.5002ZM30.5108 102.555L36.4469 95.8151C37.8888 97.1207 39.4244 98.3292 41.0348 99.423L36.0724 106.93C34.1249 105.607 32.2523 104.134 30.5108 102.555ZM36.0162 22.1578C37.9637 20.8346 40.0236 19.6349 42.1209 18.6028L45.9972 26.736C44.2744 27.5828 42.5704 28.5708 40.9786 29.6558L36.0162 22.1489L36.0162 22.1578ZM38.4694 108.456L43.0011 100.676C44.6677 101.672 46.4092 102.555 48.1882 103.304L44.78 111.649C42.6078 110.741 40.4918 109.664 38.4694 108.456ZM44.6864 17.4296C46.8586 16.5122 49.1058 15.7447 51.3716 15.1537L53.6 23.9044C51.7274 24.3983 49.8923 25.0247 48.1133 25.7745L44.6864 17.4296ZM47.4017 112.672L50.3417 104.142C52.1581 104.786 54.0495 105.307 55.9408 105.686L54.218 114.551C51.9147 114.093 49.6301 113.458 47.4204 112.672L47.4017 112.672ZM54.1244 14.5097C56.4089 14.0422 58.7684 13.7423 61.1092 13.61L61.6148 22.6341C59.686 22.7488 57.7572 22.9958 55.8659 23.3751L54.1244 14.5097ZM56.9894 115.028L58.2254 106.074C60.1354 106.348 62.0829 106.48 64.0117 106.48L64.1803 106.48L64.1803 115.513L64.0679 115.513C61.671 115.513 59.3115 115.345 57.0082 115.019L56.9894 115.028ZM63.9181 13.5218L64.0117 13.5218C66.3338 13.5218 68.6558 13.6805 70.9404 13.9981L69.7232 22.9517C67.8506 22.687 65.9218 22.5547 64.0117 22.5547L63.9181 13.5129L63.9181 13.5218ZM66.4836 106.409C68.4124 106.295 70.3411 106.039 72.2325 105.66L73.9927 114.516C71.7081 114.984 69.3487 115.292 67.0079 115.434L66.4836 106.409ZM72.0078 23.3398L73.7118 14.4745C76.0151 14.9332 78.2997 15.5595 80.5281 16.3446L77.6069 24.8835C75.7904 24.2396 73.8991 23.7279 72.0078 23.3486L72.0078 23.3398ZM74.4983 105.122C76.3522 104.628 78.2061 104.001 79.9851 103.243L83.4307 111.579C81.2584 112.496 79.0113 113.272 76.7455 113.863L74.4983 105.122ZM79.7604 25.7127L83.1498 17.359C85.322 18.2676 87.4381 19.335 89.4605 20.5435L84.9475 28.3326C83.2809 27.3358 81.5393 26.4625 79.7604 25.7127ZM82.0824 102.272C83.8052 101.417 85.4905 100.437 87.101 99.3348L92.0821 106.833C90.1346 108.165 88.0935 109.365 85.9774 110.397L82.0824 102.272ZM86.9137 29.5852L91.8574 22.0607C93.8049 23.3751 95.6775 24.8482 97.4378 26.4272L91.5203 33.1755C90.0784 31.8699 88.5429 30.6614 86.9325 29.5764L86.9137 29.5852ZM88.9923 97.9763C90.5279 96.7943 91.9885 95.4975 93.3555 94.1038L99.6662 100.473C98.0183 102.158 96.2393 103.737 94.3667 105.174L88.9923 97.9763ZM93.2057 34.7898L99.4977 28.3855C101.164 30.0704 102.719 31.8788 104.123 33.7665L97.0071 39.218C95.8461 37.6655 94.5727 36.1747 93.2057 34.7898ZM94.9285 92.3837C96.2019 90.9193 97.4003 89.358 98.4677 87.726L105.883 92.7277C104.591 94.7036 103.149 96.609 101.576 98.3821L94.9098 92.3748L94.9285 92.3837ZM98.3554 41.1322L105.752 36.0865C107.063 38.0625 108.243 40.1443 109.273 42.279L101.258 46.2221C100.415 44.4667 99.4415 42.7553 98.3741 41.1322L98.3554 41.1322ZM99.7036 85.7324C100.677 84.0476 101.539 82.2745 102.269 80.4661L110.509 83.9064C109.61 86.1029 108.561 88.2641 107.381 90.3107L99.7036 85.7324ZM102.194 48.3657L110.415 44.8813C111.314 47.0689 112.063 49.3448 112.662 51.6472L104.048 53.9319C103.561 52.0353 102.943 50.1652 102.194 48.3657ZM103.112 78.2697C103.748 76.426 104.254 74.5118 104.61 72.5976L113.355 74.3266C112.906 76.6642 112.288 78.9842 111.52 81.2336L103.093 78.2697L103.112 78.2697ZM104.572 56.2166L113.318 54.4435C113.786 56.7723 114.085 59.1629 114.216 61.5269L105.321 62.0386C105.209 60.0891 104.966 58.1308 104.591 56.2166L104.572 56.2166ZM104.984 70.2776C105.247 68.3811 105.378 66.4492 105.378 64.5262L105.378 64.3938L114.291 64.3938L114.291 64.5262C114.291 66.855 114.141 69.2014 113.823 71.5038L105.003 70.2776L104.984 70.2776Z"
        fill="#3DCBFF" />
    <path
        d="M64.501 120.875C33.3483 120.875 8.00098 95.5882 8.00098 64.501C8.00098 33.4138 33.3483 8.12695 64.501 8.12695C95.6536 8.12695 121.001 33.4138 121.001 64.501C121.001 95.5882 95.6536 120.875 64.501 120.875ZM64.501 10.5912C34.707 10.5912 10.4713 34.7786 10.4713 64.501C10.4713 94.2234 34.707 118.411 64.501 118.411C94.2949 118.411 118.531 94.2234 118.531 64.501C118.531 34.7786 94.2949 10.5912 64.501 10.5912Z"
        fill="white" />
    <path
        d="M64.5668 129H64.5054C58.1568 129 51.8872 128.073 45.8548 126.258L47.2773 121.531C52.8444 123.214 58.6397 124.065 64.5054 124.065L64.5668 129ZM70.8803 128.697L70.3973 123.8C76.2366 123.233 81.9354 121.796 87.3357 119.545L89.2236 124.102C83.3755 126.542 77.1937 128.092 70.8715 128.697H70.8803ZM39.8925 124.14C34.0445 121.72 28.5828 118.449 23.6567 114.421L26.7827 110.601C31.3312 114.326 36.3714 117.333 41.7717 119.583L39.8925 124.14ZM94.9487 121.38L92.6218 117.03C97.7761 114.27 102.5 110.752 106.645 106.611L110.131 110.091C105.644 114.591 100.533 118.373 94.9487 121.38ZM18.9677 110.185C14.4719 105.704 10.6698 100.598 7.66669 95.0198L12.0044 92.6939C14.7792 97.8373 18.2916 102.565 22.4449 106.706L18.9677 110.204V110.185ZM114.381 105.401L110.57 102.281C114.293 97.7427 117.322 92.6939 119.562 87.3047L124.119 89.1957C121.695 95.0387 118.42 100.504 114.39 105.42L114.381 105.401ZM4.94462 89.3091C2.50353 83.4661 0.949312 77.2828 0.325869 70.967L5.23439 70.4754C5.81392 76.3184 7.24521 82.0101 9.50189 87.4182L4.9534 89.3091H4.94462ZM126.244 83.2203L121.528 81.8021C123.214 76.2238 124.075 70.3997 124.075 64.5189V64.2731L129.001 64.2353V64.5189C129.001 70.8914 128.07 77.1882 126.244 83.2392V83.2203ZM0.000976562 64.6324V64.4622C0.000976562 58.1653 0.914189 51.9252 2.72305 45.912L7.44717 47.3303C5.7788 52.8707 4.93584 58.657 4.93584 64.5L0.00975765 64.6324H0.000976562ZM123.759 58.4112C123.17 52.5682 121.722 46.8764 119.456 41.4872L124.005 39.5774C126.455 45.4204 128.026 51.5849 128.667 57.9195L123.759 58.4112ZM9.39653 41.8276L4.83924 39.9556C7.25399 34.0937 10.5117 28.6288 14.5421 23.7124L18.3618 26.8325C14.6475 31.3707 11.6357 36.4195 9.40531 41.8276H9.39653ZM116.936 36.2115C114.153 31.0682 110.631 26.3597 106.46 22.2186L109.938 18.7203C114.451 23.2018 118.262 28.2885 121.274 33.8668L116.936 36.2115ZM22.2693 22.4833L18.7745 19.004C23.2528 14.5035 28.3545 10.6838 33.9303 7.67722L36.266 12.0075C31.1117 14.7872 26.4051 18.3043 22.2693 22.4644V22.4833ZM102.123 18.3043C97.5654 14.5981 92.5164 11.5915 87.1074 9.36016L88.9777 4.80299C94.8345 7.20449 100.305 10.4569 105.231 14.4846L102.114 18.3043H102.123ZM41.5434 9.51143L39.6379 4.95427C45.486 2.51495 51.6589 0.945471 57.9812 0.32146L58.4729 5.219C52.6336 5.80519 46.9436 7.2423 41.5434 9.51143ZM81.6018 7.41249C76.0786 5.74846 70.3271 4.91645 64.4966 4.91645H64.2946V0H64.4966C70.8013 0 77.0357 0.907652 83.0155 2.70405L81.6018 7.4314V7.41249Z"
        fill="white" />
    <path
        d="M64.501 102.591C43.2767 102.591 26.001 85.5023 26.001 64.5005C26.001 43.4987 43.2679 26.4099 64.501 26.4099C85.7341 26.4099 103.001 43.4987 103.001 64.5005C103.001 85.5023 85.7341 102.591 64.501 102.591ZM64.501 28.8296C44.6166 28.8296 28.4411 44.8408 28.4411 64.5005C28.4411 84.1601 44.6166 100.171 64.501 100.171C84.3854 100.171 100.561 84.1601 100.561 64.5005C100.561 44.8408 84.3854 28.8296 64.501 28.8296Z"
        fill="#3DCBFF" />
</svg>
    