<svg width="155" height="155" viewBox="0 0 155 155" fill="none" xmlns="http://www.w3.org/2000/svg">
    <g style="mix-blend-mode:screen" opacity="0.15">
        <path
            d="M77.4649 154.761H77.3856C69.7678 154.761 62.2382 153.66 55.0084 151.477L56.7189 145.82C63.3932 147.833 70.3497 148.858 77.3856 148.858L77.4649 154.78V154.761ZM85.0474 154.381L84.4655 148.497C91.4749 147.814 98.3168 146.086 104.797 143.41L107.063 148.877C100.045 151.8 92.6299 153.66 85.0474 154.4V154.381ZM47.8667 148.934C40.8485 146.029 34.2888 142.119 28.3903 137.279L32.1375 132.704C37.5951 137.165 43.6435 140.79 50.1239 143.467L47.8667 148.934ZM113.923 145.612L111.128 140.392C117.317 137.07 122.978 132.856 127.95 127.882L132.138 132.058C126.751 137.449 120.623 142.005 113.923 145.593V145.612ZM22.7563 132.172C17.3604 126.8 12.7933 120.669 9.19599 113.987L14.4068 111.178C17.7307 117.366 21.9452 123.023 26.9355 127.977L22.7563 132.172ZM137.234 126.44L132.658 122.681C137.129 117.233 140.761 111.178 143.442 104.705L148.908 106.964C145.998 113.987 142.075 120.536 137.226 126.421L137.234 126.44ZM5.92493 107.135C2.99773 100.112 1.13738 92.7085 0.379125 85.1157L6.26879 84.5273C6.96532 91.5317 8.68461 98.3652 11.3914 104.838L5.93375 107.116L5.92493 107.135ZM151.474 99.8268L145.813 98.1184C147.841 91.4178 148.864 84.4513 148.864 77.39V77.0863L154.78 77.0483V77.39C154.78 85.0398 153.669 92.5947 151.474 99.8458V99.8268ZM0 77.5419V77.352C0 69.7972 1.10211 62.2992 3.26224 55.105L8.93148 56.8134C6.93005 63.4571 5.91611 70.3856 5.91611 77.409L0 77.5608L0 77.5419ZM148.494 70.0819C147.779 63.0775 146.042 56.2439 143.336 49.7711L148.793 47.4742C151.738 54.4786 153.616 61.8816 154.383 69.4745L148.502 70.0629L148.494 70.0819ZM11.2679 50.1887L5.80149 47.9298C8.69343 40.9064 12.6081 34.3386 17.4398 28.4352L22.0157 32.1747C17.5544 37.6225 13.9395 43.6778 11.2679 50.1697V50.1887ZM140.312 43.45C136.97 37.2808 132.747 31.6242 127.747 26.6698L131.918 22.4748C137.331 27.8467 141.907 33.959 145.522 40.6407L140.32 43.45H140.312ZM26.7151 26.9925L22.5183 22.8165C27.8965 17.4066 34.0154 12.8509 40.7074 9.24428L43.5112 14.4454C37.3306 17.7672 31.679 22.0002 26.7151 26.9925ZM122.528 21.9813C117.061 17.5205 111.004 13.9139 104.515 11.2564L106.763 5.78954C113.79 8.67482 120.35 12.5851 126.266 17.4066L122.528 21.9813ZM49.8417 11.4272L47.5581 5.96038C54.5764 3.03714 61.9825 1.15791 69.565 0.398624L70.1558 6.28307C63.1552 6.98541 56.3133 8.71278 49.8417 11.4272ZM97.9112 8.92158C91.281 6.92846 84.3774 5.92241 77.3944 5.92241H77.1563V0H77.3944C84.9593 0 92.436 1.08198 99.6129 3.24594L97.9201 8.92158H97.9112Z"
            fill="url(#paint0_radial_481_6740)" />
    </g>
    <defs>
        <radialGradient id="paint0_radial_481_6740" cx="0" cy="0" r="1"
            gradientUnits="userSpaceOnUse"
            gradientTransform="translate(78.3605 155.962) rotate(-90) scale(155.774 423.978)">
            <stop stop-color="#3DCBFF" />
            <stop offset="1" stop-color="#3DCBFF" stop-opacity="0.2" />
        </radialGradient>
    </defs>
</svg>
    