<svg width="140" height="140" viewBox="0 0 140 140" fill="none" xmlns="http://www.w3.org/2000/svg">
    <g opacity="0.8">
        <path
            d="M69.6444 139.17H69.5827C66.3557 139.17 63.1111 138.942 59.937 138.505L61.6299 126.295C64.2485 126.656 66.92 126.846 69.5827 126.846L69.6444 139.17ZM73.5414 139.075L72.8537 126.751C75.5252 126.599 78.1967 126.277 80.8065 125.745L83.2135 137.841C80.0395 138.467 76.786 138.885 73.5414 139.056V139.075ZM56.0929 137.879C52.9012 137.252 49.7271 136.398 46.6676 135.315L50.7322 123.675C53.245 124.549 55.846 125.251 58.4646 125.783L56.0841 137.879H56.0929ZM87.0224 136.967L83.9365 125.023C86.5199 124.359 89.0768 123.504 91.5367 122.479L96.2625 133.872C93.2736 135.106 90.1612 136.151 87.0224 136.967ZM43.0175 133.929C40.0197 132.695 37.0749 131.233 34.2888 129.581L40.5576 118.966C42.8499 120.314 45.2658 121.529 47.7345 122.536L43.0263 133.929H43.0175ZM99.8157 132.277L94.455 121.168C96.8532 120.01 99.1897 118.662 101.412 117.181L108.28 127.435C105.582 129.239 102.743 130.872 99.8245 132.277H99.8157ZM30.9825 127.492C28.2845 125.688 25.6923 123.675 23.2765 121.529L31.485 112.32C33.4776 114.105 35.6113 115.757 37.8243 117.238L30.9736 127.492H30.9825ZM111.445 125.175L104.021 115.32C106.155 113.706 108.192 111.94 110.079 110.06L118.798 118.776C116.506 121.074 114.037 123.219 111.454 125.175H111.445ZM20.4375 118.852C18.1363 116.554 15.985 114.086 14.0364 111.503L23.8761 104.059C25.4807 106.186 27.2529 108.218 29.1485 110.117L20.4375 118.852ZM121.479 115.947L112.283 107.724C114.064 105.73 115.712 103.604 117.203 101.382L127.448 108.237C125.649 110.933 123.639 113.516 121.479 115.928V115.947ZM11.7793 108.332C9.97187 105.636 8.34075 102.787 6.93005 99.8819L18.0305 94.508C19.1943 96.9006 20.5345 99.2362 22.0157 101.458L11.7793 108.332ZM129.529 104.952L118.913 98.6666C120.271 96.3689 121.479 93.9573 122.501 91.4888L133.893 96.217C132.65 99.2172 131.186 102.142 129.529 104.952ZM5.32538 96.3309C4.07339 93.3307 3.033 90.2355 2.22185 87.0833L14.1599 83.9881C14.83 86.5706 15.6852 89.1151 16.708 91.5837L5.32538 96.3309ZM135.286 92.5711L123.648 88.5075C124.529 85.982 125.235 83.3805 125.755 80.76L137.852 83.1526C137.226 86.3428 136.362 89.5139 135.286 92.5711ZM1.34898 83.2855C0.714166 80.1144 0.299773 76.8673 0.114618 73.6201L12.423 72.9176C12.5728 75.595 12.9167 78.2724 13.4369 80.8739L1.34898 83.2855ZM138.495 79.2979L126.284 77.5888C126.654 74.9494 126.839 72.2529 126.839 69.5755V69.3476H139.174V69.5185C139.174 72.8416 138.945 76.1077 138.504 79.2979H138.495ZM0.00881622 69.7084V69.5945C0.00881622 66.3854 0.229238 63.1572 0.661265 60.0051L12.8726 61.6951C12.5111 64.2966 12.3348 66.955 12.3348 69.5945L0 69.7084H0.00881622ZM126.734 66.1575C126.575 63.48 126.231 60.8026 125.702 58.2011L137.79 55.7705C138.425 58.9417 138.848 62.1888 139.042 65.4359L126.734 66.1575ZM13.4016 58.5239L1.29608 56.1503C1.92208 52.9602 2.77731 49.789 3.84415 46.7318L15.4912 50.7764C14.6184 53.302 13.913 55.9035 13.4016 58.5239ZM124.988 55.0869C124.318 52.5044 123.454 49.9599 122.422 47.4914L133.796 42.7251C135.048 45.7254 136.097 48.8396 136.917 51.9728L124.988 55.0869ZM16.6374 47.7762L5.23722 43.0669C6.47158 40.0667 7.93517 37.1234 9.58393 34.332L20.2082 40.5984C18.8505 42.896 17.6514 45.3076 16.6374 47.7762ZM121.1 44.5671C119.936 42.1745 118.587 39.8388 117.097 37.6171L127.324 30.7241C129.141 33.4205 130.772 36.2499 132.191 39.1742L121.1 44.5671ZM21.9099 37.864L11.6471 31.0279C13.4457 28.3315 15.4471 25.73 17.6073 23.3184L26.8121 31.5217C25.0311 33.5155 23.3823 35.6423 21.9099 37.864ZM115.228 35.0156C113.614 32.8889 111.842 30.857 109.946 28.9771L118.64 20.2422C120.941 22.5399 123.101 24.9895 125.05 27.572L115.228 35.0156ZM29.0251 29.186L20.2876 20.4891C22.58 18.1914 25.0487 16.0267 27.632 14.0898L35.0647 23.9261C32.9486 25.5211 30.9119 27.3061 29.0251 29.205V29.186ZM107.61 26.7744C105.608 25.0084 103.475 23.3564 101.253 21.8753L108.086 11.6022C110.784 13.3872 113.376 15.4 115.801 17.5458L107.61 26.7554V26.7744ZM37.6745 22.0462L30.7885 11.8111C33.4864 9.98819 36.3255 8.35514 39.235 6.94995L44.6133 18.0395C42.2239 19.1978 39.8875 20.546 37.6745 22.0272V22.0462ZM98.5284 20.1663C96.2272 18.818 93.8114 17.6217 91.3427 16.5963L96.0333 5.18398C99.031 6.41826 101.976 7.88041 104.771 9.53245L98.5196 20.1663H98.5284ZM47.5405 16.7293L42.7882 5.35488C45.7771 4.10161 48.8807 3.05722 52.0195 2.2407L55.1318 14.1658C52.5485 14.8494 49.9916 15.7039 47.5317 16.7293H47.5405ZM88.345 15.476C85.8233 14.6025 83.2224 13.8999 80.6037 13.3872L82.9579 1.27226C86.1496 1.89889 89.3148 2.7534 92.3831 3.81678L88.345 15.476ZM58.2618 13.4442L55.8372 1.34822C59.0201 0.72158 62.2735 0.303823 65.5093 0.113934L66.2146 12.4188C63.5519 12.5707 60.8804 12.9125 58.2618 13.4442ZM77.4385 12.8555C74.8552 12.4947 72.2101 12.3238 69.5915 12.3238H69.4152V0H69.5915C72.7744 0 75.9749 0.208879 79.1137 0.645625L77.4473 12.8745L77.4385 12.8555Z"
            fill="url(#paint0_radial_481_6742)" />
    </g>
    <defs>
        <radialGradient id="paint0_radial_481_6742" cx="0" cy="0" r="1"
            gradientUnits="userSpaceOnUse"
            gradientTransform="translate(70.4597 140.233) rotate(-90.7872) scale(145.317 395.8)">
            <stop stop-color="#3DCBFF" />
            <stop offset="1" stop-color="#3DCBFF" stop-opacity="0.2" />
        </radialGradient>
    </defs>
</svg>
    