<svg width="61" height="55" viewBox="0 0 61 55" fill="none" xmlns="http://www.w3.org/2000/svg">
<path d="M0.504882 27.2187C0.504882 26.3694 0.697442 25.5213 1.08008 24.7471L1.25488 24.4199L1.25586 24.4189L13.3564 3.52441L13.3555 3.52441C14.357 1.80286 16.2201 0.723632 18.2217 0.723632L42.4102 0.723631C44.2885 0.723659 46.0419 1.66363 47.0781 3.20801L47.2754 3.52441L59.376 24.4189L59.376 24.4199C60.3133 26.0318 60.3731 28.0195 59.5518 29.6895L59.376 30.0186L47.2754 50.9131L47.2754 50.9141C46.2738 52.635 44.4113 53.7138 42.4102 53.7139L18.2217 53.7139C16.3433 53.7139 14.5899 52.7738 13.5537 51.2295L13.3564 50.9131L1.25586 30.0186L1.25488 30.0176C0.75543 29.1586 0.504882 28.1893 0.504882 27.2187Z" fill="#0F37A4" fill-opacity="0.4" stroke="url(#paint0_linear_4351_721)" stroke-width="1.01053"/>
<path d="M19.5684 4.31714H40.5986C42.1541 4.31714 43.6057 5.09406 44.4629 6.36987L44.626 6.63159L55.1465 24.7742V24.7751C55.9213 26.1058 55.9714 27.7479 55.292 29.1277L55.1465 29.3992L44.627 47.5408C43.7983 48.9639 42.2556 49.8562 40.5986 49.8562H19.5684C18.013 49.8561 16.5622 49.0791 15.7051 47.8035L15.541 47.5417L5.02148 29.3992L5.02051 29.3982L4.875 29.1287C4.55877 28.4896 4.40039 27.7888 4.40039 27.0867C4.4004 26.3846 4.55874 25.6838 4.875 25.0447L5.02051 24.7751L5.02148 24.7742L15.54 6.63159L15.541 6.63257C16.318 5.29856 17.722 4.43009 19.2598 4.3269L19.5684 4.31714Z" fill="#0F37A4" stroke="white" stroke-width="1.34737"/>
<path d="M34.4297 13H22.2891C20.9321 13 19.8281 14.104 19.8281 15.4609V19.6172H24.75V17.9766H34.4297C34.882 17.9766 35.25 18.3446 35.25 18.7969V28.75C35.25 29.2023 34.882 29.5703 34.4297 29.5703H23.1094V24.5391C23.1094 23.6344 23.8454 22.8984 24.75 22.8984V21.2578H19.8281V22.8984C20.7328 22.8984 21.4688 23.6344 21.4688 24.5391V29.5703H19.8281V34.4375H21.4688V36.0781H19.8281V41H24.75V39.3594H28.3055C28.5551 39.6912 28.9521 39.9062 29.3984 39.9062C30.1523 39.9062 30.7656 39.2929 30.7656 38.5391C30.7656 37.7852 30.1523 37.1719 29.3984 37.1719C28.9521 37.1719 28.5551 37.3869 28.3055 37.7188H24.75V36.0781H23.1094V34.4375H34.4297C37.5959 34.4375 40.1719 31.8616 40.1719 28.6953V18.7422C40.1719 15.5759 37.5959 13 34.4297 13Z" fill="white"/>
<defs>
<linearGradient id="paint0_linear_4351_721" x1="-11.5242" y1="28.0218" x2="74.928" y2="24.8665" gradientUnits="userSpaceOnUse">
<stop stop-color="#FFE7A3"/>
<stop offset="0.5" stop-color="#FFCA05"/>
<stop offset="1" stop-color="#FAAC18"/>
</linearGradient>
</defs>
</svg>
