<svg width="73" height="64" viewBox="0 0 73 64" fill="none" xmlns="http://www.w3.org/2000/svg">
<path d="M1.31348 32C1.31348 30.8496 1.61013 29.7007 2.20215 28.6826L1.68457 28.3818L2.20312 28.6826L2.20312 28.6816L16.543 3.91894L16.5439 3.91894C17.7308 1.87824 19.9381 0.598687 22.3105 0.598632L50.9785 0.59863C53.2045 0.59863 55.2826 1.71204 56.5107 3.54199L56.7451 3.91797L71.0859 28.6816L71.0869 28.6826C72.1977 30.5928 72.2681 32.9487 71.2949 34.9277L71.0859 35.3184L56.7451 60.082L56.7451 60.083C55.558 62.1228 53.3505 63.4014 50.9785 63.4014L22.3105 63.4014C20.0846 63.4013 18.0065 62.288 16.7783 60.458L16.5449 60.082L16.5439 60.082L2.20312 35.3184L2.20215 35.3174C1.61013 34.2993 1.31348 33.1504 1.31348 32Z" fill="#0F37A4" fill-opacity="0.4" stroke="url(#paint0_linear_4370_749)" stroke-width="1.19766"/>
<path d="M23.9082 4.85742H48.833C50.6764 4.85742 52.3962 5.7782 53.4121 7.29004L53.6064 7.59961V7.60059L66.0752 29.1025V29.1035C67.0545 30.7854 67.0564 32.8872 66.0752 34.584L53.6074 56.085C52.6253 57.7717 50.7969 58.8301 48.833 58.8301H23.9082C22.0648 58.8299 20.3449 57.9085 19.3291 56.3965L19.1357 56.0869V56.0859L6.66699 34.584L6.66602 34.583L6.49414 34.2637C6.11931 33.5063 5.93169 32.6758 5.93164 31.8438L5.94238 31.4873C5.98841 30.7758 6.17295 30.073 6.49414 29.4238L6.66602 29.1035L6.66699 29.1025L19.1357 7.60059L19.1348 7.59961C20.0557 6.0194 21.7201 4.99158 23.542 4.86914L23.9082 4.85742Z" fill="#0F37A4" stroke="white" stroke-width="1.59688"/>
<path d="M35.45 18.979L20.5 38.87L23.114 41.939L29.377 40.363L34.205 44.021L41.414 40.874L48.062 42.931L52.5 39.606L35.45 18.979ZM26.854 38.575L25.065 39.145V37.436L26.854 36.337V38.575ZM39.786 28.639L41.351 30.228L40.809 32.298L39.378 30.867L39.786 28.639ZM34.015 25.608L35.683 24.357V26.65L34.015 27.484V25.608ZM31.036 34.312L29.409 32.566L30.386 30.286L31.362 32.566L31.036 34.312ZM34.367 40.644L32.658 38.692V36.82L34.692 38.04L34.367 40.644ZM34.946 33.388L34.692 31.154L36.469 31.813L36.672 34.711L34.946 33.388ZM41.519 38.162L38.956 38.569L40.42 36.006H42.21L41.519 38.162ZM45.647 39.267L44.67 37.518L47.11 37.112L48.087 39.267H45.647Z" fill="white"/>
<defs>
<linearGradient id="paint0_linear_4370_749" x1="-12.9434" y1="32.9517" x2="89.5183" y2="29.2122" gradientUnits="userSpaceOnUse">
<stop stop-color="#FFE7A3"/>
<stop offset="0.5" stop-color="#FFCA05"/>
<stop offset="1" stop-color="#FAAC18"/>
</linearGradient>
</defs>
</svg>
