<svg width="61" height="55" viewBox="0 0 61 55" fill="none" xmlns="http://www.w3.org/2000/svg">
<path d="M0.504882 27.8437C0.504882 26.9944 0.697442 26.1463 1.08008 25.3721L1.25488 25.0449L1.25586 25.0439L13.3564 4.14941L13.3555 4.14941C14.357 2.42786 16.2201 1.34863 18.2217 1.34863L42.4102 1.34863C44.2885 1.34866 46.0419 2.28863 47.0781 3.83301L47.2754 4.14941L59.376 25.0439L59.376 25.0449C60.3133 26.6568 60.3731 28.6445 59.5518 30.3145L59.376 30.6436L47.2754 51.5381L47.2754 51.5391C46.2738 53.26 44.4113 54.3388 42.4102 54.3389L18.2217 54.3389C16.3433 54.3389 14.5899 53.3988 13.5537 51.8545L13.3564 51.5381L1.25586 30.6436L1.25488 30.6426C0.75543 29.7836 0.504882 28.8143 0.504882 27.8437Z" fill="#0F37A4" fill-opacity="0.4" stroke="url(#paint0_linear_4351_713)" stroke-width="1.01053"/>
<path d="M19.5684 4.94214H40.5986C42.1541 4.94214 43.6057 5.71906 44.4629 6.99487L44.626 7.25659L55.1465 25.3992V25.4001C55.9213 26.7308 55.9714 28.3729 55.292 29.7527L55.1465 30.0242L44.627 48.1658C43.7983 49.5889 42.2556 50.4812 40.5986 50.4812H19.5684C18.013 50.4811 16.5622 49.7041 15.7051 48.4285L15.541 48.1667L5.02148 30.0242L5.02051 30.0232L4.875 29.7537C4.55877 29.1146 4.40039 28.4138 4.40039 27.7117C4.4004 27.0096 4.55874 26.3088 4.875 25.6697L5.02051 25.4001L5.02148 25.3992L15.54 7.25659L15.541 7.25757C16.318 5.92356 17.722 5.05509 19.2598 4.9519L19.5684 4.94214Z" fill="#0F37A4" stroke="white" stroke-width="1.34737"/>
<g clip-path="url(#clip0_4351_713)">
<path d="M31.1654 33.8333C30.7769 33.8333 30.4117 33.6396 30.1947 33.3141L28.2079 30.3333H26.4987C25.8547 30.3333 25.332 29.8106 25.332 29.1666C25.332 28.5226 25.8547 28 26.4987 28H28.832C29.2217 28 29.5857 28.1948 29.8027 28.5191L31.0207 30.3461L33.6212 25.144C33.8125 24.7636 34.194 24.5163 34.6199 24.5C35.069 24.4883 35.4459 24.7006 35.6652 25.0646L38.8257 30.3333H40.4987C41.1427 30.3333 41.6654 30.856 41.6654 31.5C41.6654 32.144 41.1427 32.6666 40.4987 32.6666H38.1654C37.7559 32.6666 37.3755 32.452 37.1655 32.1008L34.7587 28.0898L32.2095 33.1893C32.0229 33.5615 31.653 33.8065 31.2377 33.8321C31.2144 33.8333 31.1899 33.8333 31.1654 33.8333Z" fill="white"/>
<path d="M38.1654 35.0001C36.9404 35.0001 35.797 34.3467 35.167 33.2967L34.9454 32.9351L34.292 34.2301C33.7437 35.3501 32.6237 36.0851 31.387 36.1551L31.1654 36.1667C29.987 36.1667 28.902 35.5834 28.2487 34.6034L26.9537 32.6667H26.4987C24.5737 32.6667 22.9987 31.0917 22.9987 29.1667C22.9987 27.2417 24.5737 25.6667 26.4987 25.6667H28.832C29.4387 25.6667 30.022 25.8184 30.5354 26.1101L31.5387 24.1034C32.1104 22.9601 33.2537 22.2134 34.537 22.1667C35.0387 22.1551 35.5287 22.2367 35.972 22.4234C33.207 18.0717 29.6954 14.5017 29.4504 14.2567C29.1237 13.9301 28.5404 13.9301 28.2137 14.2567C27.8054 14.6651 18.332 24.3017 18.332 31.4184C18.332 37.2517 23.0454 42.0001 28.832 42.0001C33.3704 42.0001 37.2554 39.0717 38.7137 35.0001H38.1654Z" fill="white"/>
</g>
<defs>
<linearGradient id="paint0_linear_4351_713" x1="-11.5242" y1="28.6468" x2="74.928" y2="25.4915" gradientUnits="userSpaceOnUse">
<stop stop-color="#FFE7A3"/>
<stop offset="0.5" stop-color="#FFCA05"/>
<stop offset="1" stop-color="#FAAC18"/>
</linearGradient>
<clipPath id="clip0_4351_713">
<rect width="28" height="28" fill="white" transform="translate(16 14)"/>
</clipPath>
</defs>
</svg>
