<svg width="73" height="64" viewBox="0 0 73 64" fill="none" xmlns="http://www.w3.org/2000/svg">
<path d="M0.79785 32C0.797851 30.8496 1.0945 29.7007 1.68652 28.6826L1.16894 28.3818L1.6875 28.6826L1.6875 28.6816L16.0273 3.91894L16.0283 3.91894C17.2152 1.87824 19.4224 0.598687 21.7949 0.598632L50.4629 0.59863C52.6889 0.59863 54.7669 1.71204 55.9951 3.54199L56.2295 3.91797L70.5703 28.6816L70.5713 28.6826C71.6821 30.5928 71.7525 32.9487 70.7793 34.9277L70.5703 35.3184L56.2295 60.082L56.2295 60.083C55.0424 62.1228 52.8348 63.4014 50.4629 63.4014L21.7949 63.4014C19.569 63.4013 17.4908 62.288 16.2627 60.458L16.0293 60.082L16.0283 60.082L1.6875 35.3184L1.68652 35.3174C1.0945 34.2993 0.79785 33.1504 0.79785 32Z" fill="#0F37A4" fill-opacity="0.4" stroke="url(#paint0_linear_4370_398)" stroke-width="1.19766"/>
<path d="M23.3926 4.85742H48.3174C50.1608 4.85742 51.8805 5.7782 52.8965 7.29004L53.0908 7.59961V7.60059L65.5596 29.1025V29.1035C66.5389 30.7854 66.5408 32.8872 65.5596 34.584L53.0918 56.085C52.1097 57.7717 50.2813 58.8301 48.3174 58.8301H23.3926C21.5492 58.8299 19.8293 57.9085 18.8135 56.3965L18.6201 56.0869V56.0859L6.15137 34.584L6.15039 34.583L5.97852 34.2637C5.60369 33.5063 5.41607 32.6758 5.41602 31.8438L5.42676 31.4873C5.47279 30.7758 5.65732 30.073 5.97852 29.4238L6.15039 29.1035L6.15137 29.1025L18.6201 7.60059L18.6191 7.59961C19.5401 6.0194 21.2045 4.99158 23.0264 4.86914L23.3926 4.85742Z" fill="#0F37A4" stroke="white" stroke-width="1.59688"/>
<g clip-path="url(#clip0_4370_398)">
<path d="M45.8208 30.742C45.7538 30.6019 45.6485 30.4837 45.517 30.4011C45.3855 30.3186 45.2333 30.275 45.0781 30.2755H37.231L41.4452 20.1359C41.4972 20.0111 41.5175 19.8755 41.5045 19.741C41.4914 19.6065 41.4454 19.4774 41.3704 19.365C41.2954 19.2526 41.1938 19.1605 41.0746 19.0968C40.9554 19.0331 40.8224 18.9999 40.6872 19H31.7546C31.578 19 31.4061 19.0571 31.2646 19.1626C31.123 19.2681 31.0192 19.4165 30.9687 19.5857L26.136 35.7672C26.0993 35.8897 26.0918 36.019 26.114 36.1449C26.1362 36.2708 26.1876 36.3897 26.2639 36.4922C26.3403 36.5948 26.4395 36.678 26.5537 36.7354C26.668 36.7928 26.794 36.8227 26.9219 36.8227H34.5015L32.1314 45.9735C32.0837 46.1553 32.0998 46.348 32.1772 46.5194C32.2546 46.6907 32.3885 46.8302 32.5564 46.9147C32.7244 46.9991 32.9162 47.0233 33.0999 46.9831C33.2835 46.943 33.4478 46.8411 33.5653 46.6943L45.7196 31.6115C45.8168 31.4909 45.8779 31.3452 45.8959 31.1913C45.9138 31.0375 45.8877 30.8817 45.8208 30.742Z" fill="white"/>
</g>
<defs>
<linearGradient id="paint0_linear_4370_398" x1="-13.4591" y1="32.9517" x2="89.0027" y2="29.2122" gradientUnits="userSpaceOnUse">
<stop stop-color="#FFE7A3"/>
<stop offset="0.5" stop-color="#FFCA05"/>
<stop offset="1" stop-color="#FAAC18"/>
</linearGradient>
<clipPath id="clip0_4370_398">
<rect width="28" height="28" fill="white" transform="translate(22 19)"/>
</clipPath>
</defs>
</svg>
