<svg width="107" height="120" viewBox="0 0 107 120" fill="none" xmlns="http://www.w3.org/2000/svg">
    <path
        d="M47.6311 2.02525L47.6304 2.02567L6.2769 25.974L6.27651 25.9742C2.68431 28.05 0.46875 31.9097 0.46875 36.0634V83.9366C0.46875 88.0889 2.7067 91.9499 6.27762 94.0264L47.63 117.974L47.6311 2.02525ZM47.6311 2.02525C49.4147 0.988069 51.4254 0.46875 53.4375 0.46875C55.4496 0.46875 57.4603 0.988069 59.2438 2.02525L59.2446 2.02567L100.597 25.9736C104.168 28.0501 106.406 31.9111 106.406 36.0634V83.9366C106.406 88.0903 104.191 91.95 100.598 94.0258L100.598 94.026L59.2446 117.974L59.2438 117.975M47.6311 2.02525L59.2438 117.975M59.2438 117.975C55.6756 120.05 51.2237 120.051 47.6304 117.974L59.2438 117.975Z"
        fill="#0F37A4" stroke="white" stroke-width="0.9375" />
    <path
        d="M48.6856 9.18625L48.6849 9.18667L12.7786 30.0078L12.7782 30.008C9.67847 31.8016 7.76611 35.137 7.76611 38.7269V80.3487C7.76611 83.9372 9.69775 87.2738 12.7793 89.0682L48.6845 109.889C51.7854 111.683 55.6271 111.682 58.7061 109.889L58.7068 109.889L94.613 89.0678L94.6134 89.0675C97.7132 87.274 99.6255 83.9386 99.6255 80.3487V38.7269C99.6255 35.1386 97.6942 31.8022 94.613 30.0078L48.6856 9.18625ZM48.6856 9.18625C50.2245 8.29017 51.9595 7.84143 53.6958 7.84143C55.4322 7.84143 57.1672 8.29017 58.7061 9.18625L58.7068 9.18667L94.6123 30.0074L48.6856 9.18625Z"
        fill="#1344AC" stroke="white" stroke-width="0.9375" />
    <path
        d="M48.6675 14.3907C50.1338 13.5469 51.7856 13.125 53.4375 13.125C55.0894 13.125 56.7412 13.5469 58.2075 14.3907L90.855 33.1003C93.7875 34.7878 95.625 37.9245 95.625 41.2995V78.7005C95.625 82.0755 93.8061 85.2122 90.855 86.8997L58.2075 105.609C55.275 107.297 51.6186 107.297 48.6675 105.609L16.02 86.8997C13.0875 85.2122 11.25 82.0755 11.25 78.7005V41.2995C11.25 37.9245 13.0689 34.7878 16.02 33.1003L48.6675 14.3907Z"
        fill="url(#paint0_radial_479_32)" />
    <defs>
        <radialGradient id="paint0_radial_479_32" cx="0" cy="0" r="1" gradientUnits="userSpaceOnUse"
            gradientTransform="translate(53.9665 107.591) rotate(-90) scale(94.3519 231.122)">
            <stop stop-color="#3DCBFF" />
            <stop offset="1" stop-color="#3DCBFF" stop-opacity="0" />
        </radialGradient>
    </defs>
</svg>
    