<svg width="61" height="55" viewBox="0 0 61 55" fill="none" xmlns="http://www.w3.org/2000/svg">
<path d="M0.504882 27.5312C0.504882 26.6819 0.697442 25.8338 1.08008 25.0596L1.25488 24.7324L1.25586 24.7314L13.3564 3.83691L13.3555 3.83691C14.357 2.11536 16.2201 1.03613 18.2217 1.03613L42.4102 1.03613C44.2885 1.03616 46.0419 1.97613 47.0781 3.52051L47.2754 3.83691L59.376 24.7314L59.376 24.7324C60.3133 26.3443 60.3731 28.332 59.5518 30.002L59.376 30.3311L47.2754 51.2256L47.2754 51.2266C46.2738 52.9475 44.4113 54.0263 42.4102 54.0264L18.2217 54.0264C16.3433 54.0264 14.5899 53.0863 13.5537 51.542L13.3564 51.2256L1.25586 30.3311L1.25488 30.3301C0.75543 29.4711 0.504882 28.5018 0.504882 27.5312Z" fill="#0F37A4" fill-opacity="0.4" stroke="url(#paint0_linear_4351_705)" stroke-width="1.01053"/>
<path d="M19.5684 4.62964H40.5986C42.1541 4.62964 43.6057 5.40656 44.4629 6.68237L44.626 6.94409L55.1465 25.0867V25.0876C55.9213 26.4183 55.9714 28.0604 55.292 29.4402L55.1465 29.7117L44.627 47.8533C43.7983 49.2764 42.2556 50.1687 40.5986 50.1687H19.5684C18.013 50.1686 16.5622 49.3916 15.7051 48.116L15.541 47.8542L5.02148 29.7117L5.02051 29.7107L4.875 29.4412C4.55877 28.8021 4.40039 28.1013 4.40039 27.3992C4.4004 26.6971 4.55874 25.9963 4.875 25.3572L5.02051 25.0876L5.02148 25.0867L15.54 6.94409L15.541 6.94507C16.318 5.61106 17.722 4.74259 19.2598 4.6394L19.5684 4.62964Z" fill="#0F37A4" stroke="white" stroke-width="1.34737"/>
<path d="M29.9991 16.36C31.6007 16.36 32.6591 16.5952 33.0735 16.78C32.6591 16.9648 31.6007 17.2 29.9991 17.2C28.3975 17.2 27.3391 16.9648 26.9247 16.78C27.3391 16.5952 28.3975 16.36 29.9991 16.36ZM38.9591 16.78C38.9591 18.1716 34.9467 19.3 29.9991 19.3C25.0515 19.3 21.0391 18.1716 21.0391 16.78C21.0391 15.3884 25.0515 14.26 29.9991 14.26C34.9467 14.26 38.9591 15.3884 38.9591 16.78ZM34.0591 16.78C34.0591 15.6096 30.9511 15.52 29.9991 15.52C29.0471 15.52 25.9391 15.6096 25.9391 16.78C25.9391 17.9504 29.0471 18.04 29.9991 18.04C30.9511 18.04 34.0591 17.9504 34.0591 16.78ZM26.2675 22.2203C25.4207 22.1218 24.6143 21.989 23.8793 21.8218V36.4146C24.5712 36.583 25.3706 36.7296 26.2675 36.8399V22.2203ZM22.9837 36.1662V21.5893C22.2062 21.3615 21.5419 21.0882 21.0391 20.7699V35.1528C21.3151 35.4894 21.9837 35.85 22.9837 36.1662ZM27.1631 22.3105V36.9345C27.9056 37.0009 28.7035 37.0428 29.5513 37.0539V22.4265C28.7454 22.416 27.9424 22.377 27.1631 22.3105ZM32.835 22.3105C32.0557 22.377 31.2527 22.416 30.4469 22.4265V37.0539C31.2946 37.0428 32.0925 37.0009 32.835 36.9345V22.3105ZM29.9991 21.534C34.907 21.534 38.245 20.5 38.9591 19.6296V18.292C37.1503 19.7144 32.8187 20.14 29.9991 20.14C27.1795 20.14 22.8479 19.7144 21.0391 18.292V19.6296C21.7531 20.5 25.0911 21.534 29.9991 21.534ZM36.1188 21.8218C35.3838 21.989 34.5774 22.1218 33.7306 22.2203V36.8399C34.6275 36.7296 35.4269 36.583 36.1188 36.4146V21.8218ZM29.9991 37.9528C26.3985 37.9528 22.7673 37.3872 21.0391 36.2932V37.22C21.0391 38.6116 25.0515 39.74 29.9991 39.74C34.9467 39.74 38.9591 38.6116 38.9591 37.22V36.2932C37.2308 37.3872 33.5997 37.9528 29.9991 37.9528ZM38.9591 35.1528V20.7699C38.4562 21.0882 37.7919 21.3614 37.0144 21.5893V36.1662C38.0144 35.85 38.683 35.4894 38.9591 35.1528Z" fill="white"/>
<defs>
<linearGradient id="paint0_linear_4351_705" x1="-11.5242" y1="28.3343" x2="74.928" y2="25.179" gradientUnits="userSpaceOnUse">
<stop stop-color="#FFE7A3"/>
<stop offset="0.5" stop-color="#FFCA05"/>
<stop offset="1" stop-color="#FAAC18"/>
</linearGradient>
</defs>
</svg>
