<svg width="73" height="64" viewBox="0 0 73 64" fill="none" xmlns="http://www.w3.org/2000/svg">
<path d="M1.16894 32C1.16894 30.8496 1.46559 29.7007 2.05762 28.6826L1.54004 28.3818L2.05859 28.6826L2.05859 28.6816L16.3984 3.91894L16.3994 3.91894C17.5863 1.87824 19.7935 0.598687 22.166 0.598632L50.834 0.59863C53.06 0.59863 55.138 1.71204 56.3662 3.54199L56.6006 3.91797L70.9414 28.6816L70.9424 28.6826C72.0532 30.5928 72.1236 32.9487 71.1504 34.9277L70.9414 35.3184L56.6006 60.082L56.6006 60.083C55.4135 62.1228 53.2059 63.4014 50.834 63.4014L22.166 63.4014C19.9401 63.4013 17.8619 62.288 16.6338 60.458L16.4004 60.082L16.3994 60.082L2.05859 35.3184L2.05762 35.3174C1.46559 34.2993 1.16894 33.1504 1.16894 32Z" fill="#0F37A4" fill-opacity="0.4" stroke="url(#paint0_linear_4381_1598)" stroke-width="1.19766"/>
<path d="M23.7637 4.85742H48.6885C50.5319 4.85742 52.2516 5.7782 53.2676 7.29004L53.4619 7.59961V7.60059L65.9307 29.1025V29.1035C66.91 30.7854 66.9119 32.8872 65.9307 34.584L53.4629 56.085C52.4808 57.7717 50.6524 58.8301 48.6885 58.8301H23.7637C21.9202 58.8299 20.2004 57.9085 19.1846 56.3965L18.9912 56.0869V56.0859L6.52246 34.584L6.52148 34.583L6.34961 34.2637C5.97478 33.5063 5.78716 32.6758 5.78711 31.8438L5.79785 31.4873C5.84388 30.7758 6.02841 30.073 6.34961 29.4238L6.52148 29.1035L6.52246 29.1025L18.9912 7.60059L18.9902 7.59961C19.9112 6.0194 21.5756 4.99158 23.3975 4.86914L23.7637 4.85742Z" fill="#0F37A4" stroke="white" stroke-width="1.59688"/>
<path d="M41.397 27.2294C41.2036 27.5134 40.889 27.6667 40.569 27.6667C40.3756 27.6667 40.1796 27.6107 40.0076 27.4934L36.7316 25.2667C36.6423 25.208 36.4996 25.2094 36.3903 25.28L33.133 27.4934C32.677 27.8054 32.0543 27.6867 31.7436 27.2294C31.433 26.772 31.5516 26.1507 32.0076 25.84L35.2836 23.6134C36.073 23.1 37.0676 23.1014 37.8396 23.6014L41.133 25.84C41.589 26.1507 41.7076 26.772 41.397 27.2294ZM41.397 32.5627C41.2036 32.8467 40.889 33 40.569 33C40.3756 33 40.1796 32.944 40.0076 32.8267L36.7316 30.6C36.6423 30.5427 36.4996 30.5414 36.3903 30.6134L33.133 32.8267C32.677 33.1374 32.0543 33.02 31.7436 32.5627C31.433 32.1054 31.5516 31.484 32.0076 31.1734L35.2836 28.9467C36.073 28.4334 37.0676 28.4347 37.8396 28.9347L41.133 31.1734C41.589 31.484 41.7076 32.1054 41.397 32.5627ZM44.5383 22.604L37.8716 18.068C37.081 17.5307 36.0583 17.5307 35.2676 18.068L28.601 22.604C27.9556 23.044 27.5703 23.776 27.5703 24.5627V39.436C27.5703 40.224 27.9556 40.956 28.601 41.396L35.2663 45.9294C35.6623 46.2014 36.117 46.336 36.5703 46.336C37.0236 46.336 37.477 46.2014 37.8716 45.9307L44.5383 41.396C45.185 40.956 45.5703 40.224 45.5703 39.436V24.5627C45.5703 23.776 45.185 23.044 44.5383 22.604Z" fill="white"/>
<defs>
<linearGradient id="paint0_linear_4381_1598" x1="-13.088" y1="32.9517" x2="89.3738" y2="29.2122" gradientUnits="userSpaceOnUse">
<stop stop-color="#FFE7A3"/>
<stop offset="0.5" stop-color="#FFCA05"/>
<stop offset="1" stop-color="#FAAC18"/>
</linearGradient>
</defs>
</svg>
