<svg width="18" height="505" viewBox="0 0 18 505" fill="none" xmlns="http://www.w3.org/2000/svg">
    <path
        d="M9.00042 375L10.5004 375L10.5004 375L9.00042 375ZM10.5004 15L17.6607 -3.78569e-07L0.340151 3.78534e-07L7.50041 15L10.5004 15ZM7.50007 489.5L0.339768 504.5L17.6603 504.5L10.5001 489.5L7.50007 489.5ZM10.5 501.465C10.5 500.636 9.82846 499.965 9.00004 499.965C8.17161 499.965 7.50003 500.636 7.50003 501.465L10.5 501.465ZM7.50006 491.348C7.50006 492.176 8.17163 492.848 9.00006 492.848C9.82849 492.848 10.5001 492.176 10.5001 491.348L7.50006 491.348ZM10.5001 485.277C10.5001 484.449 9.82851 483.777 9.00009 483.777C8.17166 483.777 7.50008 484.449 7.50008 485.277L10.5001 485.277ZM7.50011 475.16C7.50011 475.989 8.17168 476.66 9.00011 476.66C9.82854 476.66 10.5001 475.989 10.5001 475.16L7.50011 475.16ZM10.5001 469.09C10.5001 468.261 9.82856 467.59 9.00014 467.59C8.17171 467.59 7.50013 468.261 7.50013 469.09L10.5001 469.09ZM7.50016 458.973C7.50016 459.801 8.17173 460.473 9.00016 460.473C9.82858 460.473 10.5002 459.801 10.5002 458.973L7.50016 458.973ZM10.5002 452.902C10.5002 452.074 9.82861 451.402 9.00019 451.402C8.17176 451.402 7.50018 452.074 7.50018 452.902L10.5002 452.902ZM7.50021 442.785C7.50021 443.614 8.17178 444.285 9.00021 444.285C9.82863 444.285 10.5002 443.614 10.5002 442.785L7.50021 442.785ZM10.5002 436.715C10.5002 435.886 9.82866 435.215 9.00024 435.215C8.17181 435.215 7.50023 435.886 7.50023 436.715L10.5002 436.715ZM7.50026 426.598C7.50026 427.426 8.17183 428.098 9.00026 428.098C9.82868 428.098 10.5003 427.426 10.5003 426.598L7.50026 426.598ZM10.5003 420.527C10.5003 419.699 9.82871 419.027 9.00029 419.027C8.17186 419.027 7.50028 419.699 7.50028 420.527L10.5003 420.527ZM7.50031 410.41C7.50031 411.239 8.17188 411.91 9.00031 411.91C9.82873 411.91 10.5003 411.239 10.5003 410.41L7.50031 410.41ZM10.5003 404.34C10.5003 403.511 9.82876 402.84 9.00034 402.84C8.17191 402.84 7.50033 403.511 7.50033 404.34L10.5003 404.34ZM7.50036 394.223C7.50036 395.051 8.17193 395.723 9.00036 395.723C9.82878 395.723 10.5004 395.051 10.5004 394.223L7.50036 394.223ZM10.5004 388.152C10.5004 387.324 9.82881 386.652 9.00039 386.652C8.17196 386.652 7.50038 387.324 7.50038 388.152L10.5004 388.152ZM7.50041 378.035C7.50041 378.864 8.17198 379.535 9.00041 379.535C9.82883 379.535 10.5004 378.864 10.5004 378.035L7.50041 378.035ZM10.5004 372.01C10.5004 371.181 9.82885 370.51 9.00042 370.51C8.17199 370.51 7.50042 371.181 7.50042 372.01L10.5004 372.01ZM7.50042 362.043C7.50042 362.871 8.17199 363.543 9.00042 363.543C9.82885 363.543 10.5004 362.871 10.5004 362.043L7.50042 362.043ZM10.5004 356.062C10.5004 355.234 9.82885 354.562 9.00042 354.562C8.17199 354.563 7.50042 355.234 7.50042 356.063L10.5004 356.062ZM7.50042 346.095C7.50042 346.924 8.17199 347.595 9.00042 347.595C9.82885 347.595 10.5004 346.924 10.5004 346.095L7.50042 346.095ZM10.5004 340.115C10.5004 339.287 9.82885 338.615 9.00042 338.615C8.17199 338.615 7.50042 339.287 7.50042 340.115L10.5004 340.115ZM7.50042 330.148C7.50042 330.976 8.17199 331.648 9.00042 331.648C9.82885 331.648 10.5004 330.976 10.5004 330.148L7.50042 330.148ZM10.5004 324.168C10.5004 323.339 9.82885 322.668 9.00042 322.668C8.17199 322.668 7.50042 323.339 7.50042 324.168L10.5004 324.168ZM7.50042 314.201C7.50042 315.029 8.17199 315.701 9.00042 315.701C9.82885 315.701 10.5004 315.029 10.5004 314.201L7.50042 314.201ZM10.5004 308.22C10.5004 307.392 9.82885 306.72 9.00042 306.72C8.17199 306.72 7.50042 307.392 7.50042 308.22L10.5004 308.22ZM7.50042 298.253C7.50042 299.082 8.17199 299.753 9.00042 299.753C9.82885 299.753 10.5004 299.082 10.5004 298.253L7.50042 298.253ZM10.5004 292.273C10.5004 291.445 9.82884 290.773 9.00042 290.773C8.17199 290.773 7.50042 291.445 7.50042 292.273L10.5004 292.273ZM7.50042 282.306C7.50042 283.134 8.17199 283.806 9.00042 283.806C9.82884 283.806 10.5004 283.134 10.5004 282.306L7.50042 282.306ZM10.5004 276.326C10.5004 275.497 9.82884 274.826 9.00042 274.826C8.17199 274.826 7.50042 275.497 7.50042 276.326L10.5004 276.326ZM7.50042 266.359C7.50042 267.187 8.17199 267.859 9.00042 267.859C9.82884 267.859 10.5004 267.187 10.5004 266.359L7.50042 266.359ZM10.5004 260.378C10.5004 259.55 9.82884 258.878 9.00042 258.878C8.17199 258.878 7.50042 259.55 7.50042 260.378L10.5004 260.378ZM7.50042 250.411C7.50042 251.24 8.17199 251.911 9.00042 251.911C9.82884 251.911 10.5004 251.24 10.5004 250.411L7.50042 250.411ZM10.5004 244.431C10.5004 243.602 9.82884 242.931 9.00042 242.931C8.17199 242.931 7.50042 243.602 7.50042 244.431L10.5004 244.431ZM7.50042 234.464C7.50042 235.292 8.17199 235.964 9.00042 235.964C9.82884 235.964 10.5004 235.292 10.5004 234.464L7.50042 234.464ZM10.5004 228.484C10.5004 227.655 9.82884 226.984 9.00041 226.984C8.17199 226.984 7.50041 227.655 7.50041 228.484L10.5004 228.484ZM7.50041 218.516C7.50041 219.345 8.17199 220.016 9.00041 220.016C9.82884 220.016 10.5004 219.345 10.5004 218.516L7.50041 218.516ZM10.5004 212.536C10.5004 211.708 9.82884 211.036 9.00041 211.036C8.17199 211.036 7.50041 211.708 7.50041 212.536L10.5004 212.536ZM7.50041 202.569C7.50041 203.397 8.17199 204.069 9.00041 204.069C9.82884 204.069 10.5004 203.397 10.5004 202.569L7.50041 202.569ZM10.5004 196.589C10.5004 195.76 9.82884 195.089 9.00041 195.089C8.17199 195.089 7.50041 195.76 7.50041 196.589L10.5004 196.589ZM7.50041 186.622C7.50041 187.45 8.17199 188.122 9.00041 188.122C9.82884 188.122 10.5004 187.45 10.5004 186.622L7.50041 186.622ZM10.5004 180.641C10.5004 179.813 9.82884 179.141 9.00041 179.141C8.17199 179.141 7.50041 179.813 7.50041 180.641L10.5004 180.641ZM7.50041 170.674C7.50041 171.503 8.17199 172.174 9.00041 172.174C9.82884 172.174 10.5004 171.503 10.5004 170.674L7.50041 170.674ZM10.5004 164.694C10.5004 163.866 9.82884 163.194 9.00041 163.194C8.17198 163.194 7.50041 163.866 7.50041 164.694L10.5004 164.694ZM7.50041 154.727C7.50041 155.555 8.17198 156.227 9.00041 156.227C9.82884 156.227 10.5004 155.555 10.5004 154.727L7.50041 154.727ZM10.5004 148.747C10.5004 147.918 9.82884 147.247 9.00041 147.247C8.17198 147.247 7.50041 147.918 7.50041 148.747L10.5004 148.747ZM7.50041 138.78C7.50041 139.608 8.17198 140.28 9.00041 140.28C9.82884 140.28 10.5004 139.608 10.5004 138.78L7.50041 138.78ZM10.5004 132.799C10.5004 131.971 9.82884 131.299 9.00041 131.299C8.17198 131.299 7.50041 131.971 7.50041 132.799L10.5004 132.799ZM7.50041 122.832C7.50041 123.661 8.17198 124.332 9.00041 124.332C9.82884 124.332 10.5004 123.661 10.5004 122.832L7.50041 122.832ZM10.5004 116.852C10.5004 116.024 9.82884 115.352 9.00041 115.352C8.17198 115.352 7.50041 116.024 7.50041 116.852L10.5004 116.852ZM7.50041 106.885C7.50041 107.713 8.17198 108.385 9.00041 108.385C9.82884 108.385 10.5004 107.713 10.5004 106.885L7.50041 106.885ZM10.5004 100.905C10.5004 100.076 9.82884 99.4046 9.00041 99.4046C8.17198 99.4046 7.50041 100.076 7.50041 100.905L10.5004 100.905ZM7.50041 90.9375C7.50041 91.7659 8.17198 92.4375 9.00041 92.4375C9.82884 92.4375 10.5004 91.7659 10.5004 90.9375L7.50041 90.9375ZM10.5004 84.9572C10.5004 84.1288 9.82884 83.4572 9.00041 83.4572C8.17198 83.4572 7.50041 84.1288 7.50041 84.9572L10.5004 84.9572ZM7.50041 74.9901C7.50041 75.8186 8.17198 76.4901 9.00041 76.4901C9.82884 76.4901 10.5004 75.8186 10.5004 74.9901L7.50041 74.9901ZM10.5004 69.3C10.5004 68.4716 9.82884 67.8 9.00041 67.8C8.17198 67.8 7.50041 68.4716 7.50041 69.3L10.5004 69.3ZM7.50041 60.3C7.50041 61.1284 8.17198 61.8 9.00041 61.8C9.82883 61.8 10.5004 61.1284 10.5004 60.3L7.50041 60.3ZM10.5004 54.9C10.5004 54.0716 9.82883 53.4 9.00041 53.4C8.17198 53.4 7.50041 54.0716 7.50041 54.9L10.5004 54.9ZM7.50041 45.9C7.50041 46.7284 8.17198 47.4 9.00041 47.4C9.82883 47.4 10.5004 46.7284 10.5004 45.9L7.50041 45.9ZM10.5004 40.5C10.5004 39.6716 9.82883 39 9.00041 39C8.17198 39 7.50041 39.6716 7.50041 40.5L10.5004 40.5ZM7.50041 31.5C7.50041 32.3284 8.17198 33 9.00041 33C9.82883 33 10.5004 32.3284 10.5004 31.5L7.50041 31.5ZM10.5004 26.1C10.5004 25.2716 9.82883 24.6 9.00041 24.6C8.17198 24.6 7.50041 25.2716 7.50041 26.1L10.5004 26.1ZM7.50041 17.1C7.50041 17.9284 8.17198 18.6 9.00041 18.6C9.82883 18.6 10.5004 17.9284 10.5004 17.1L7.50041 17.1ZM10.5004 11.7C10.5004 10.8716 9.82883 10.2 9.00041 10.2C8.17198 10.2 7.50041 10.8716 7.50041 11.7L10.5004 11.7ZM7.50041 2.7C7.50041 3.52842 8.17198 4.2 9.00041 4.2C9.82883 4.2 10.5004 3.52842 10.5004 2.7L7.50041 2.7ZM10.5001 491.348L10.5001 485.277L7.50008 485.277L7.50006 491.348L10.5001 491.348ZM10.5001 475.16L10.5001 469.09L7.50013 469.09L7.50011 475.16L10.5001 475.16ZM10.5002 458.973L10.5002 452.902L7.50018 452.902L7.50016 458.973L10.5002 458.973ZM10.5002 442.785L10.5002 436.715L7.50023 436.715L7.50021 442.785L10.5002 442.785ZM10.5003 426.598L10.5003 420.527L7.50028 420.527L7.50026 426.598L10.5003 426.598ZM10.5003 410.41L10.5003 404.34L7.50033 404.34L7.50031 410.41L10.5003 410.41ZM10.5004 394.223L10.5004 388.152L7.50038 388.152L7.50036 394.223L10.5004 394.223ZM10.5004 378.035L10.5004 375L7.50042 375L7.50041 378.035L10.5004 378.035ZM10.5004 375L10.5004 372.01L7.50042 372.01L7.50042 375L10.5004 375ZM10.5004 362.043L10.5004 356.062L7.50042 356.063L7.50042 362.043L10.5004 362.043ZM10.5004 346.095L10.5004 340.115L7.50042 340.115L7.50042 346.095L10.5004 346.095ZM10.5004 330.148L10.5004 324.168L7.50042 324.168L7.50042 330.148L10.5004 330.148ZM10.5004 314.201L10.5004 308.22L7.50042 308.22L7.50042 314.201L10.5004 314.201ZM10.5004 298.253L10.5004 292.273L7.50042 292.273L7.50042 298.253L10.5004 298.253ZM10.5004 282.306L10.5004 276.326L7.50042 276.326L7.50042 282.306L10.5004 282.306ZM10.5004 266.359L10.5004 260.378L7.50042 260.378L7.50042 266.359L10.5004 266.359ZM10.5004 250.411L10.5004 244.431L7.50042 244.431L7.50042 250.411L10.5004 250.411ZM10.5004 234.464L10.5004 228.484L7.50041 228.484L7.50042 234.464L10.5004 234.464ZM10.5004 218.516L10.5004 212.536L7.50041 212.536L7.50041 218.516L10.5004 218.516ZM10.5004 202.569L10.5004 196.589L7.50041 196.589L7.50041 202.569L10.5004 202.569ZM10.5004 186.622L10.5004 180.641L7.50041 180.641L7.50041 186.622L10.5004 186.622ZM10.5004 170.674L10.5004 164.694L7.50041 164.694L7.50041 170.674L10.5004 170.674ZM10.5004 154.727L10.5004 148.747L7.50041 148.747L7.50041 154.727L10.5004 154.727ZM10.5004 138.78L10.5004 132.799L7.50041 132.799L7.50041 138.78L10.5004 138.78ZM10.5004 122.832L10.5004 116.852L7.50041 116.852L7.50041 122.832L10.5004 122.832ZM10.5004 106.885L10.5004 100.905L7.50041 100.905L7.50041 106.885L10.5004 106.885ZM10.5004 90.9375L10.5004 84.9572L7.50041 84.9572L7.50041 90.9375L10.5004 90.9375ZM10.5004 74.9901L10.5004 72L7.50041 72L7.50041 74.9901L10.5004 74.9901ZM10.5004 72L10.5004 69.3L7.50041 69.3L7.50041 72L10.5004 72ZM10.5004 60.3L10.5004 54.9L7.50041 54.9L7.50041 60.3L10.5004 60.3ZM10.5004 45.9L10.5004 40.5L7.50041 40.5L7.50041 45.9L10.5004 45.9ZM10.5004 31.5L10.5004 26.1L7.50041 26.1L7.50041 31.5L10.5004 31.5ZM10.5004 17.1L10.5004 11.7L7.50041 11.7L7.50041 17.1L10.5004 17.1Z"
        fill="#FFE37D" />
</svg>