<svg width="61" height="55" viewBox="0 0 61 55" fill="none" xmlns="http://www.w3.org/2000/svg">
<path d="M0.504882 27.375C0.504882 26.5256 0.697442 25.6776 1.08008 24.9033L1.25488 24.5762L1.25586 24.5752L13.3564 3.68066L13.3555 3.68066C14.357 1.95911 16.2201 0.879882 18.2217 0.879882L42.4102 0.879881C44.2885 0.879909 46.0419 1.81988 47.0781 3.36426L47.2754 3.68066L59.376 24.5752L59.376 24.5762C60.3133 26.1881 60.3731 28.1758 59.5518 29.8457L59.376 30.1748L47.2754 51.0693L47.2754 51.0703C46.2738 52.7912 44.4113 53.8701 42.4102 53.8701L18.2217 53.8701C16.3433 53.8701 14.5899 52.9301 13.5537 51.3857L13.3564 51.0693L1.25586 30.1748L1.25488 30.1738C0.75543 29.3149 0.504882 28.3456 0.504882 27.375Z" fill="#0F37A4" fill-opacity="0.4" stroke="url(#paint0_linear_4351_734)" stroke-width="1.01053"/>
<path d="M19.5684 4.47339H40.5986C42.1541 4.47339 43.6057 5.25031 44.4629 6.52612L44.626 6.78784L55.1465 24.9304V24.9314C55.9213 26.262 55.9714 27.9041 55.292 29.2839L55.1465 29.5554L44.627 47.697C43.7983 49.1201 42.2556 50.0125 40.5986 50.0125H19.5684C18.013 50.0123 16.5622 49.2353 15.7051 47.9597L15.541 47.698L5.02148 29.5554L5.02051 29.5544L4.875 29.2849C4.55877 28.6458 4.40039 27.945 4.40039 27.2429C4.4004 26.5408 4.55874 25.84 4.875 25.2009L5.02051 24.9314L5.02148 24.9304L15.54 6.78784L15.541 6.78882C16.318 5.45481 17.722 4.58634 19.2598 4.48315L19.5684 4.47339Z" fill="#0F37A4" stroke="white" stroke-width="1.34737"/>
<path d="M41.0518 31.5715H40.0256L37.6672 19.0107L37.4255 17.4148H37.8398C38.2193 17.4148 38.527 17.1072 38.527 16.7276V15.0079C38.527 14.6285 38.2193 14.3208 37.8398 14.3208H22.1569C21.7774 14.3208 21.4698 14.6285 21.4698 15.0079V16.7276C21.4698 17.1072 21.7774 17.4148 22.1569 17.4148H22.5732L22.3316 19.0107L19.9732 31.5715H18.945C18.5654 31.5715 18.2578 31.8792 18.2578 32.2587V34.102C18.2578 34.4816 18.5654 34.7892 18.945 34.7892H21.4698L23.0711 36.9562H21.8157C21.4363 36.9562 21.1286 37.2639 21.1286 37.6433V38.9921C21.1286 39.3716 21.4363 39.6793 21.8157 39.6793H38.1811C38.5605 39.6793 38.8682 39.3716 38.8682 38.9921V37.6433C38.8682 37.2639 38.5605 36.9562 38.1811 36.9562H36.9257L38.527 34.7892H41.0518C41.4313 34.7892 41.7389 34.4816 41.7389 34.102V32.2587C41.7389 31.8792 41.4313 31.5715 41.0518 31.5715ZM20.8565 33.1535H20.6277C20.381 33.1535 20.1812 32.9538 20.1812 32.707C20.1812 32.4602 20.381 32.2605 20.6277 32.2605H20.8565C21.1034 32.2605 21.303 32.4602 21.303 32.707C21.303 32.9538 21.1034 33.1535 20.8565 33.1535ZM25.8031 14.8462H28.2303C28.477 14.8462 28.6768 15.0459 28.6768 15.2926C28.6768 15.5394 28.477 15.7391 28.2303 15.7391H25.8031C25.5564 15.7391 25.3567 15.5394 25.3567 15.2926C25.3567 15.0459 25.5564 14.8462 25.8031 14.8462ZM27.0837 17.4148L25.9353 31.5715H24.8746L26.0229 17.4148H27.0837ZM24.0518 14.8462H24.2807C24.5274 14.8462 24.7272 15.0459 24.7272 15.2926C24.7272 15.5394 24.5274 15.7391 24.2807 15.7391H24.0518C23.805 15.7391 23.6053 15.5394 23.6053 15.2926C23.6053 15.0459 23.805 14.8462 24.0518 14.8462ZM23.9834 17.4148H25.0491L23.2228 31.5715H22.1567L23.9834 17.4148ZM23.4873 38.6303H22.9698C22.7231 38.6303 22.5234 38.4306 22.5234 38.1839C22.5234 37.9371 22.7231 37.7374 22.9698 37.7374H23.4873C23.734 37.7374 23.9338 37.9371 23.9338 38.1839C23.9338 38.4306 23.734 38.6303 23.4873 38.6303ZM22.379 33.1535C22.1322 33.1535 21.9326 32.9538 21.9326 32.707C21.9326 32.4602 22.1322 32.2605 22.379 32.2605H24.8061C25.053 32.2605 25.2527 32.4602 25.2527 32.707C25.2527 32.9538 25.053 33.1535 24.8061 33.1535H22.379ZM27.8181 38.6303H25.3277C25.0809 38.6303 24.8812 38.4306 24.8812 38.1839C24.8812 37.9371 25.0809 37.7374 25.3277 37.7374H27.8181C28.0648 37.7374 28.2645 37.9371 28.2645 38.1839C28.2645 38.4306 28.0648 38.6303 27.8181 38.6303ZM28.9403 31.5715H27.8835L28.2796 17.4148H29.3369L28.9403 31.5715ZM31.0569 31.5715L30.6598 17.4148H31.7171L32.1137 31.5715H31.0569ZM34.0613 31.5715L32.913 17.4148H33.9738L35.1221 31.5715H34.0613ZM36.7739 31.5715L34.9476 17.4148H36.0133L37.8399 31.5715H36.7739Z" fill="white"/>
<defs>
<linearGradient id="paint0_linear_4351_734" x1="-11.5242" y1="28.178" x2="74.928" y2="25.0228" gradientUnits="userSpaceOnUse">
<stop stop-color="#FFE7A3"/>
<stop offset="0.5" stop-color="#FFCA05"/>
<stop offset="1" stop-color="#FAAC18"/>
</linearGradient>
</defs>
</svg>
