<svg width="73" height="64" viewBox="0 0 73 64" fill="none" xmlns="http://www.w3.org/2000/svg">
<path d="M1.39941 32C1.39941 30.8496 1.69606 29.7007 2.28808 28.6826L1.77051 28.3818L2.28906 28.6826L2.28906 28.6816L16.6289 3.91894L16.6299 3.91894C17.8167 1.87824 20.024 0.598687 22.3965 0.598632L51.0645 0.59863C53.2904 0.59863 55.3685 1.71204 56.5967 3.54199L56.8311 3.91797L71.1719 28.6816L71.1729 28.6826C72.2837 30.5928 72.3541 32.9487 71.3809 34.9277L71.1719 35.3184L56.8311 60.082L56.8311 60.083C55.644 62.1228 53.4364 63.4014 51.0645 63.4014L22.3965 63.4014C20.1705 63.4013 18.0924 62.288 16.8643 60.458L16.6309 60.082L16.6299 60.082L2.28906 35.3184L2.28808 35.3174C1.69606 34.2993 1.39941 33.1504 1.39941 32Z" fill="#0F37A4" fill-opacity="0.4" stroke="url(#paint0_linear_4370_385)" stroke-width="1.19766"/>
<path d="M23.9941 4.85742H48.9189C50.7624 4.85742 52.4821 5.7782 53.498 7.29004L53.6924 7.59961V7.60059L66.1611 29.1025V29.1035C67.1405 30.7854 67.1424 32.8872 66.1611 34.584L53.6934 56.085C52.7112 57.7717 50.8829 58.8301 48.9189 58.8301H23.9941C22.1507 58.8299 20.4309 57.9085 19.415 56.3965L19.2217 56.0869V56.0859L6.75293 34.584L6.75195 34.583L6.58008 34.2637C6.20525 33.5063 6.01763 32.6758 6.01758 31.8438L6.02832 31.4873C6.07435 30.7758 6.25888 30.073 6.58008 29.4238L6.75195 29.1035L6.75293 29.1025L19.2217 7.60059L19.2207 7.59961C20.1416 6.0194 21.806 4.99158 23.6279 4.86914L23.9941 4.85742Z" fill="#0F37A4" stroke="white" stroke-width="1.59688"/>
<g clip-path="url(#clip0_4370_385)">
<path d="M34.5232 23.7766H34.144C33.6996 23.7766 33.3398 24.1067 33.3398 24.5145V27.6395H35.3279V24.5145C35.3274 24.1072 34.9676 23.7766 34.5232 23.7766Z" fill="white"/>
<path d="M39.8552 23.7766H39.4755C39.0322 23.7766 38.6719 24.1067 38.6719 24.5145V27.6395H40.6605V24.5145C40.6594 24.1072 40.2997 23.7766 39.8552 23.7766Z" fill="white"/>
<path d="M37.0003 18.3113C29.2804 18.3113 23 24.5916 23 32.3115C23 36.0386 24.4477 39.546 27.0765 42.1878C28.6331 43.752 30.5597 44.9408 32.6476 45.6214C32.7868 45.6673 32.9281 45.6889 33.0667 45.6889C33.6341 45.6889 34.1621 45.3275 34.3482 44.7584C34.5796 44.0503 34.1929 43.2887 33.4852 43.0584C31.8008 42.5077 30.2458 41.5487 28.9886 40.285C26.8662 38.1523 25.6974 35.3207 25.6974 32.3115C25.6974 26.0787 30.7679 21.0081 37.0008 21.0081C43.2337 21.0081 48.3043 26.0787 48.3043 32.3115C48.3043 35.332 47.129 38.1685 44.9958 40.3028C44.1765 41.0374 42.1447 42.5163 40.9241 42.5163C40.2974 42.5163 39.8292 42.3189 39.4484 41.896C38.4835 40.8211 38.2716 38.6448 38.2807 37.1281C40.621 37.0099 42.484 35.0806 42.484 32.7118V28.5155H31.5166V32.7118C31.5166 35.0348 33.3062 36.9361 35.5817 37.1221C35.5677 38.929 35.8212 41.8901 37.4366 43.6943C38.3276 44.6894 39.5347 45.2142 40.9241 45.2142C43.5325 45.2142 46.5022 42.5794 46.8313 42.2801L46.8744 42.2391C49.5356 39.5924 50.9995 36.0677 50.9995 32.3137C51.0005 24.5916 44.7202 18.3113 37.0003 18.3113Z" fill="white"/>
</g>
<defs>
<linearGradient id="paint0_linear_4370_385" x1="-12.8575" y1="32.9517" x2="89.6043" y2="29.2122" gradientUnits="userSpaceOnUse">
<stop stop-color="#FFE7A3"/>
<stop offset="0.5" stop-color="#FFCA05"/>
<stop offset="1" stop-color="#FAAC18"/>
</linearGradient>
<clipPath id="clip0_4370_385">
<rect width="28" height="28" fill="white" transform="translate(23 18)"/>
</clipPath>
</defs>
</svg>
