<svg width="73" height="64" viewBox="0 0 73 64" fill="none" xmlns="http://www.w3.org/2000/svg">
<path d="M0.997069 32C0.99707 30.8496 1.29372 29.7007 1.88574 28.6826L1.36816 28.3818L1.88672 28.6826L1.88672 28.6816L16.2266 3.91894L16.2275 3.91894C17.4144 1.87824 19.6216 0.598687 21.9941 0.598632L50.6621 0.59863C52.8881 0.59863 54.9662 1.71204 56.1943 3.54199L56.4287 3.91797L70.7695 28.6816L70.7705 28.6826C71.8813 30.5928 71.9517 32.9487 70.9785 34.9277L70.7695 35.3184L56.4287 60.082L56.4287 60.083C55.2416 62.1228 53.0341 63.4014 50.6621 63.4014L21.9941 63.4014C19.7682 63.4013 17.69 62.288 16.4619 60.458L16.2285 60.082L16.2275 60.082L1.88672 35.3184L1.88574 35.3174C1.29372 34.2993 0.997069 33.1504 0.997069 32Z" fill="#0F37A4" fill-opacity="0.4" stroke="url(#paint0_linear_4370_375)" stroke-width="1.19766"/>
<path d="M23.5918 4.85742H48.5166C50.36 4.85742 52.0797 5.7782 53.0957 7.29004L53.29 7.59961V7.60059L65.7588 29.1025V29.1035C66.7381 30.7854 66.74 32.8872 65.7588 34.584L53.291 56.085C52.3089 57.7717 50.4805 58.8301 48.5166 58.8301H23.5918C21.7484 58.8299 20.0285 57.9085 19.0127 56.3965L18.8193 56.0869V56.0859L6.35059 34.584L6.34961 34.583L6.17773 34.2637C5.80291 33.5063 5.61529 32.6758 5.61523 31.8438L5.62598 31.4873C5.67201 30.7758 5.85654 30.073 6.17773 29.4238L6.34961 29.1035L6.35059 29.1025L18.8193 7.60059L18.8184 7.59961C19.7393 6.0194 21.4037 4.99158 23.2256 4.86914L23.5918 4.85742Z" fill="#0F37A4" stroke="white" stroke-width="1.59688"/>
<g clip-path="url(#clip0_4370_375)">
<path d="M49.4249 18.0034C43.9591 17.9054 37.7256 20.7626 33.7799 25.1948C30.0092 25.2659 26.3377 26.8118 23.6346 29.5149C23.4771 29.6701 23.4211 29.9023 23.4899 30.1123C23.5599 30.3234 23.7419 30.4763 23.9612 30.5078L28.4576 31.1518L27.9022 31.7736C27.6957 32.0046 27.7062 32.3558 27.9256 32.5751L35.4237 40.0733C35.5369 40.1864 35.6862 40.2436 35.8367 40.2436C35.9756 40.2436 36.1144 40.1946 36.2252 40.0954L36.8471 39.5401L37.4911 44.0364C37.5226 44.2558 37.6952 44.4168 37.9041 44.4868C37.9577 44.5043 38.0137 44.5124 38.0709 44.5124C38.2366 44.5124 38.4057 44.4401 38.5224 44.3246C41.1882 41.6588 42.7341 37.9873 42.8052 34.2166C47.2421 30.2628 50.1226 24.0316 49.9954 18.5728C49.9872 18.2624 49.7364 18.0116 49.4249 18.0034ZM44.0489 28.0741C43.4807 28.6423 42.7341 28.9269 41.9862 28.9269C41.2384 28.9269 40.4917 28.6423 39.9236 28.0741C38.7872 26.9366 38.7872 25.0863 39.9236 23.9488C41.0611 22.8113 42.9114 22.8113 44.0489 23.9488C45.1864 25.0863 45.1864 26.9378 44.0489 28.0741Z" fill="white"/>
<path d="M25.1781 37.7224C23.9297 38.9707 22.2159 44.6104 22.0246 45.2486C21.9627 45.4539 22.0199 45.6767 22.1704 45.8284C22.2824 45.9404 22.4306 45.9999 22.5834 45.9999C22.6394 45.9999 22.6954 45.9917 22.7514 45.9754C23.3896 45.7841 29.0292 44.0702 30.2776 42.8219C31.6834 41.4161 31.6834 39.1282 30.2776 37.7224C28.8706 36.3166 26.5839 36.3177 25.1781 37.7224Z" fill="white"/>
</g>
<defs>
<linearGradient id="paint0_linear_4370_375" x1="-13.2598" y1="32.9517" x2="89.2019" y2="29.2122" gradientUnits="userSpaceOnUse">
<stop stop-color="#FFE7A3"/>
<stop offset="0.5" stop-color="#FFCA05"/>
<stop offset="1" stop-color="#FAAC18"/>
</linearGradient>
<clipPath id="clip0_4370_375">
<rect width="28" height="28" fill="white" transform="translate(22 18)"/>
</clipPath>
</defs>
</svg>
