<svg width="506" height="506" viewBox="0 0 506 506" fill="none" xmlns="http://www.w3.org/2000/svg">
<rect x="253" y="-3" width="362.039" height="362.039" rx="8.759" transform="rotate(45 253 -3)" fill="#FFC829"/>
<rect x="253" y="37.5134" width="304.745" height="304.745" rx="4.74446" transform="rotate(45 253 37.5134)" stroke="#181203" stroke-width="8.02908"/>
<path d="M285.056 270.373C287.978 270.373 290.819 270.941 292.767 271.915C294.39 272.808 296.663 274.432 299.829 277.598L297.394 281.331C296.095 283.36 294.716 284.983 294.391 284.984C293.985 284.984 292.766 284.253 291.549 283.36C290.25 282.468 287.978 281.494 286.436 281.25C284.163 280.844 283.107 281.169 281.159 282.792C278.968 284.659 278.806 285.146 279.536 287.176C280.186 288.961 281.971 290.342 287.409 293.102C291.224 295.131 295.201 297.484 296.257 298.377C297.231 299.27 298.692 301.462 299.504 303.248C300.316 305.034 301.046 308.361 301.046 310.553C301.046 313.231 300.315 316.073 299.017 318.914C297.637 321.836 295.932 323.865 293.578 325.407C291.224 326.949 288.871 327.68 285.705 327.924C282.945 328.086 279.536 327.762 277.101 326.95C274.909 326.22 271.662 324.434 266.873 320.294L269.795 316.073C271.337 313.719 273.042 311.771 273.448 311.771C273.935 311.771 274.26 312.176 274.26 312.582C274.26 313.069 276.208 314.369 278.562 315.424C280.834 316.56 283.513 317.534 284.406 317.534C285.299 317.534 287.004 316.803 288.303 315.91C289.763 314.774 290.494 313.475 290.494 312.015C290.575 310.797 289.926 309.173 289.114 308.442C288.302 307.712 285.136 305.845 281.971 304.222C278.886 302.598 275.315 300.407 274.179 299.433C273.042 298.377 271.5 296.511 270.851 295.131C270.12 293.832 269.308 291.234 269.064 289.448C268.74 287.662 268.903 284.578 269.39 282.549C269.796 280.601 271.419 277.597 272.88 275.893C274.341 274.188 276.613 272.321 277.912 271.672C279.292 270.941 282.458 270.373 285.056 270.373ZM199.582 281.737H180.912V294.725H197.146V305.277H180.912V327.193H170.36V271.185H199.582V281.737ZM217.439 327.193H206.888V271.185H217.439V327.193ZM240.087 271.348C251.531 271.591 252.181 271.672 255.428 273.863C257.294 275.081 259.486 277.272 260.217 278.733C260.947 280.194 261.678 283.766 261.922 286.607C262.165 290.179 261.921 293.264 261.028 295.942C260.217 298.459 258.674 300.975 254.291 304.871L256.077 308.93C256.995 311.072 259.141 315.668 263.668 325.369L264.52 327.193H258.432C252.506 327.193 252.344 327.193 251.694 325.002C251.288 323.784 249.34 319.158 247.392 314.855C243.901 307.144 243.739 306.9 238.544 306.9V327.193H227.992L228.154 271.104L240.087 271.348ZM339.197 281.656H326.21V327.112H316.469V281.656H303.481V271.104H339.197V281.656ZM238.461 281.088V297.322C246.253 296.998 247.715 296.43 249.338 294.888C250.474 293.751 251.53 291.884 251.773 290.748C251.936 289.53 251.854 287.582 251.529 286.283C251.123 284.741 249.987 283.443 248.12 282.55C246.659 281.738 243.818 281.088 241.951 281.088H238.461ZM158.104 178C160.782 178 163.866 178.568 165.814 179.461C167.6 180.273 169.873 181.897 172.714 185.225L167.844 192.529L164.354 190.5C162.487 189.445 159.727 188.471 158.266 188.471C156.723 188.471 155.019 189.121 154.045 190.095C153.152 190.988 152.421 192.286 152.421 192.936C152.421 193.585 152.745 194.883 153.232 195.776C153.719 196.669 157.21 199.024 161.106 200.972C165.084 202.92 169.224 205.598 170.441 207.06C171.74 208.44 173.12 211.118 173.607 212.985C174.094 214.933 174.337 218.099 174.094 220.128C173.85 222.157 173.038 225.08 172.227 226.622C171.496 228.164 170.035 230.112 169.143 230.924C168.169 231.735 165.977 233.115 164.191 233.927C162.406 234.82 159.32 235.551 157.291 235.551C155.262 235.551 152.015 235.063 149.986 234.333C147.957 233.684 144.872 231.979 140.002 227.839L142.681 223.78C144.142 221.508 145.44 219.641 145.44 219.479C145.523 219.398 147.308 220.372 149.58 221.751C152.502 223.618 154.613 224.349 157.291 224.349C160.213 224.349 161.269 223.943 162.405 222.482C163.217 221.427 163.866 219.966 163.866 219.316C163.785 218.667 163.38 217.449 162.812 216.638C162.243 215.826 158.428 213.472 154.45 211.28C148.606 208.115 146.739 206.653 144.953 203.812C143.736 201.864 142.437 198.617 142.193 196.588C141.95 194.559 142.113 191.393 142.6 189.445C143.087 187.579 144.547 184.738 145.765 183.114C146.982 181.41 149.256 179.624 150.798 179.056C152.34 178.487 155.668 178 158.104 178ZM196.335 178.73C201.773 178.73 202.829 178.974 203.153 180.11C203.316 180.922 204.209 184.331 205.102 187.659C205.994 190.987 208.917 202.514 211.596 213.229C214.274 223.943 216.547 233.196 216.547 233.684C216.547 234.414 214.923 234.739 205.994 234.739L203.072 221.346H189.517L188.38 226.216C187.812 228.894 187.162 231.898 186.919 232.872C186.594 234.576 186.026 234.739 181.806 234.739C179.289 234.739 177.016 234.576 176.772 234.414C176.53 234.165 179.209 222.723 182.698 209.008C186.189 195.209 189.192 182.79 189.517 181.328L189.923 178.73H196.335ZM287.247 189.283H268.578V200.646H284V211.199H268.578L268.983 223.78L287.247 224.187V234.739L258.432 234.333L258.106 178.73H287.247V189.283ZM250.72 189.201H232.051V202.189H248.285V212.741H232.051V234.658L221.904 234.252L221.417 178.649H250.72V189.201ZM364.847 181.733L364.7 182.121C363.799 184.489 360.567 192.977 352.185 214.771V234.658L342.038 234.252L341.632 223.294C341.226 212.742 341.064 212.092 337.736 203.406C335.788 198.536 333.028 191.393 329.051 180.679L328.645 189.201L316.063 189.607L315.657 234.658L305.511 234.252L305.104 189.201H292.929V178.649L339.521 179.056L343.256 191.068C345.285 197.562 347.071 202.757 347.314 202.514C347.559 202.267 349.345 196.907 355.106 179.056L365.983 178.649L364.847 181.733ZM196.333 190.095C196.008 190.095 194.871 194.397 193.897 199.592V199.673C192.842 204.868 191.868 209.658 191.706 210.145C191.463 210.956 192.762 211.199 196.252 211.199C199.742 211.199 201.041 210.956 200.798 210.145C200.636 209.658 199.743 204.868 198.769 199.592C197.795 194.397 196.739 190.095 196.333 190.095Z" fill="#181203"/>
</svg>
