<svg width="73" height="64" viewBox="0 0 73 64" fill="none" xmlns="http://www.w3.org/2000/svg">
<path d="M1.20019 32C1.20019 30.8496 1.49684 29.7007 2.08887 28.6826L1.57129 28.3818L2.08984 28.6826L2.08984 28.6816L16.4297 3.91894L16.4307 3.91894C17.6175 1.87824 19.8248 0.598687 22.1973 0.598632L50.8652 0.59863C53.0912 0.59863 55.1693 1.71204 56.3975 3.54199L56.6318 3.91797L70.9727 28.6816L70.9736 28.6826C72.0845 30.5928 72.1548 32.9487 71.1816 34.9277L70.9727 35.3184L56.6318 60.082L56.6318 60.083C55.4448 62.1228 53.2372 63.4014 50.8652 63.4014L22.1973 63.4014C19.9713 63.4013 17.8932 62.288 16.665 60.458L16.4316 60.082L16.4307 60.082L2.08984 35.3184L2.08887 35.3174C1.49684 34.2993 1.20019 33.1504 1.20019 32Z" fill="#0F37A4" fill-opacity="0.4" stroke="url(#paint0_linear_4370_411)" stroke-width="1.19766"/>
<path d="M23.7949 4.85742H48.7197C50.5631 4.85742 52.2829 5.7782 53.2988 7.29004L53.4932 7.59961V7.60059L65.9619 29.1025V29.1035C66.9412 30.7854 66.9432 32.8872 65.9619 34.584L53.4941 56.085C52.512 57.7717 50.6836 58.8301 48.7197 58.8301H23.7949C21.9515 58.8299 20.2317 57.9085 19.2158 56.3965L19.0225 56.0869V56.0859L6.55371 34.584L6.55273 34.583L6.38086 34.2637C6.00603 33.5063 5.81841 32.6758 5.81836 31.8438L5.8291 31.4873C5.87513 30.7758 6.05966 30.073 6.38086 29.4238L6.55273 29.1035L6.55371 29.1025L19.0225 7.60059L19.0215 7.59961C19.9424 6.0194 21.6068 4.99158 23.4287 4.86914L23.7949 4.85742Z" fill="#0F37A4" stroke="white" stroke-width="1.59688"/>
<g clip-path="url(#clip0_4370_411)">
<path d="M48.25 28.9375H46.0362C45.8428 28.2907 45.5817 27.666 45.2575 27.0737L46.8238 25.5075C46.9058 25.4262 46.9709 25.3294 47.0153 25.2228C47.0597 25.1161 47.0826 25.0018 47.0826 24.8863C47.0826 24.7707 47.0597 24.6564 47.0153 24.5497C46.9709 24.4431 46.9058 24.3463 46.8238 24.265L43.735 21.1762C43.6537 21.0942 43.5569 21.0291 43.4503 20.9847C43.3436 20.9403 43.2293 20.9174 43.1137 20.9174C42.9982 20.9174 42.8839 20.9403 42.7772 20.9847C42.6706 21.0291 42.5738 21.0942 42.4925 21.1762L40.9262 22.7425C40.334 22.4183 39.7093 22.1572 39.0625 21.9638V19.75C39.0625 19.5179 38.9703 19.2954 38.8062 19.1313C38.6421 18.9672 38.4196 18.875 38.1875 18.875H33.8125C33.5804 18.875 33.3579 18.9672 33.1938 19.1313C33.0297 19.2954 32.9375 19.5179 32.9375 19.75V21.9638C32.2907 22.1572 31.666 22.4183 31.0737 22.7425L29.5075 21.1762C29.4262 21.0942 29.3294 21.0291 29.2228 20.9847C29.1161 20.9403 29.0018 20.9174 28.8863 20.9174C28.7707 20.9174 28.6564 20.9403 28.5497 20.9847C28.4431 21.0291 28.3463 21.0942 28.265 21.1762L25.1762 24.265C25.0942 24.3463 25.0291 24.4431 24.9847 24.5497C24.9403 24.6564 24.9174 24.7707 24.9174 24.8863C24.9174 25.0018 24.9403 25.1161 24.9847 25.2228C25.0291 25.3294 25.0942 25.4262 25.1762 25.5075L26.7425 27.0737C26.4183 27.666 26.1572 28.2907 25.9638 28.9375H23.75C23.5179 28.9375 23.2954 29.0297 23.1313 29.1938C22.9672 29.3579 22.875 29.5804 22.875 29.8125V34.1875C22.875 34.4196 22.9672 34.6421 23.1313 34.8062C23.2954 34.9703 23.5179 35.0625 23.75 35.0625H25.9638C26.1572 35.7093 26.4183 36.334 26.7425 36.9262L25.1762 38.4925C25.0942 38.5738 25.0291 38.6706 24.9847 38.7772C24.9403 38.8839 24.9174 38.9982 24.9174 39.1137C24.9174 39.2293 24.9403 39.3436 24.9847 39.4503C25.0291 39.5569 25.0942 39.6537 25.1762 39.735L28.265 42.8238C28.3463 42.9058 28.4431 42.9709 28.5497 43.0153C28.6564 43.0597 28.7707 43.0826 28.8863 43.0826C29.0018 43.0826 29.1161 43.0597 29.2228 43.0153C29.3294 42.9709 29.4262 42.9058 29.5075 42.8238L31.0737 41.2575C31.666 41.5817 32.2907 41.8428 32.9375 42.0362V44.25C32.9375 44.4821 33.0297 44.7046 33.1938 44.8687C33.3579 45.0328 33.5804 45.125 33.8125 45.125H38.1875C38.4196 45.125 38.6421 45.0328 38.8062 44.8687C38.9703 44.7046 39.0625 44.4821 39.0625 44.25V42.0362C39.7093 41.8428 40.334 41.5817 40.9262 41.2575L42.4925 42.8238C42.5738 42.9058 42.6706 42.9709 42.7772 43.0153C42.8839 43.0597 42.9982 43.0826 43.1137 43.0826C43.2293 43.0826 43.3436 43.0597 43.4503 43.0153C43.5569 42.9709 43.6537 42.9058 43.735 42.8238L46.8238 39.735C46.9058 39.6537 46.9709 39.5569 47.0153 39.4503C47.0597 39.3436 47.0826 39.2293 47.0826 39.1137C47.0826 38.9982 47.0597 38.8839 47.0153 38.7772C46.9709 38.6706 46.9058 38.5738 46.8238 38.4925L45.2575 36.9262C45.5817 36.334 45.8428 35.7093 46.0362 35.0625H48.25C48.4821 35.0625 48.7046 34.9703 48.8687 34.8062C49.0328 34.6421 49.125 34.4196 49.125 34.1875V29.8125C49.125 29.5804 49.0328 29.3579 48.8687 29.1938C48.7046 29.0297 48.4821 28.9375 48.25 28.9375ZM36 39.875C34.4425 39.875 32.9199 39.4131 31.6249 38.5478C30.3298 37.6825 29.3205 36.4526 28.7244 35.0136C28.1284 33.5747 27.9725 31.9913 28.2763 30.4637C28.5802 28.9361 29.3302 27.5329 30.4315 26.4315C31.5329 25.3302 32.9361 24.5802 34.4637 24.2763C35.9913 23.9725 37.5747 24.1284 39.0136 24.7244C40.4526 25.3205 41.6825 26.3298 42.5478 27.6249C43.4131 28.9199 43.875 30.4425 43.875 32C43.875 34.0886 43.0453 36.0916 41.5685 37.5685C40.0916 39.0453 38.0886 39.875 36 39.875Z" fill="white"/>
<path d="M36 25.875C34.7886 25.875 33.6044 26.2342 32.5971 26.9072C31.5899 27.5803 30.8048 28.5369 30.3412 29.6561C29.8777 30.7753 29.7564 32.0068 29.9927 33.1949C30.229 34.3831 30.8124 35.4744 31.669 36.331C32.5256 37.1876 33.6169 37.771 34.8051 38.0073C35.9932 38.2436 37.2247 38.1224 38.3439 37.6588C39.4631 37.1952 40.4197 36.4101 41.0928 35.4029C41.7658 34.3956 42.125 33.2114 42.125 32C42.125 30.3755 41.4797 28.8176 40.331 27.669C39.1824 26.5203 37.6245 25.875 36 25.875ZM35.8688 34.0825C35.7058 34.2442 35.4858 34.3353 35.2563 34.3363C35.1411 34.3369 35.0269 34.3148 34.9203 34.2713C34.8137 34.2278 34.7168 34.1636 34.635 34.0825L32.5788 32L33.8125 30.7575L35.2563 32.2013L38.1875 29.2788L39.4213 30.5213L35.8688 34.0825Z" fill="white"/>
</g>
<defs>
<linearGradient id="paint0_linear_4370_411" x1="-13.0567" y1="32.9517" x2="89.4051" y2="29.2122" gradientUnits="userSpaceOnUse">
<stop stop-color="#FFE7A3"/>
<stop offset="0.5" stop-color="#FFCA05"/>
<stop offset="1" stop-color="#FAAC18"/>
</linearGradient>
<clipPath id="clip0_4370_411">
<rect width="28" height="28" fill="white" transform="translate(22 18)"/>
</clipPath>
</defs>
</svg>
