<svg width="61" height="55" viewBox="0 0 61 55" fill="none" xmlns="http://www.w3.org/2000/svg">
<path d="M0.504882 27.9062C0.504882 27.0569 0.697442 26.2088 1.08008 25.4346L1.25488 25.1074L1.25586 25.1064L13.3564 4.21191L13.3555 4.21191C14.357 2.49036 16.2201 1.41113 18.2217 1.41113L42.4102 1.41113C44.2885 1.41116 46.0419 2.35113 47.0781 3.89551L47.2754 4.21191L59.376 25.1064L59.376 25.1074C60.3133 26.7193 60.3731 28.707 59.5518 30.377L59.376 30.7061L47.2754 51.6006L47.2754 51.6016C46.2738 53.3225 44.4113 54.4013 42.4102 54.4014L18.2217 54.4014C16.3433 54.4014 14.5899 53.4613 13.5537 51.917L13.3564 51.6006L1.25586 30.7061L1.25488 30.7051C0.75543 29.8461 0.504882 28.8768 0.504882 27.9062Z" fill="#0F37A4" fill-opacity="0.4" stroke="url(#paint0_linear_4351_697)" stroke-width="1.01053"/>
<path d="M19.5684 5.00464H40.5986C42.1541 5.00464 43.6057 5.78156 44.4629 7.05737L44.626 7.31909L55.1465 25.4617V25.4626C55.9213 26.7933 55.9714 28.4354 55.292 29.8152L55.1465 30.0867L44.627 48.2283C43.7983 49.6514 42.2556 50.5437 40.5986 50.5437H19.5684C18.013 50.5436 16.5622 49.7666 15.7051 48.491L15.541 48.2292L5.02148 30.0867L5.02051 30.0857L4.875 29.8162C4.55877 29.1771 4.40039 28.4763 4.40039 27.7742C4.4004 27.0721 4.55874 26.3713 4.875 25.7322L5.02051 25.4626L5.02148 25.4617L15.54 7.31909L15.541 7.32007C16.318 5.98606 17.722 5.11759 19.2598 5.0144L19.5684 5.00464Z" fill="#0F37A4" stroke="white" stroke-width="1.34737"/>
<path d="M15 27.1357H16.3919V28.705H15V27.1357Z" fill="white"/>
<path d="M42.5401 31.3838L41.2725 32.6514C41.1718 32.7522 41.0357 32.8084 40.8937 32.8084C40.7512 32.8084 40.6151 32.7516 40.5144 32.6509L38.7175 30.8486L36.9147 32.6514C36.814 32.7522 36.6779 32.8084 36.5359 32.8084C36.394 32.8084 36.2574 32.7516 36.1572 32.6509L34.3603 30.8486L32.5575 32.6514C32.4567 32.7522 32.3207 32.8084 32.1787 32.8084C32.0362 32.8084 31.9001 32.7516 31.7994 32.6509L30.0025 30.8492L28.2056 32.6509C28.1048 32.7516 27.9688 32.8084 27.8263 32.8084C27.6843 32.8084 27.5477 32.7522 27.4475 32.6514L25.6447 30.8486L23.8478 32.6509C23.7471 32.7516 23.611 32.8084 23.469 32.8084C23.327 32.8084 23.1904 32.7522 23.0902 32.6514L21.2874 30.8486L19.4905 32.6509C19.3898 32.7516 19.2537 32.8084 19.1112 32.8084C18.9692 32.8084 18.8326 32.7522 18.7324 32.6514L17.4648 31.3838V36.2104H42.5401V31.3838Z" fill="white"/>
<path d="M43.6055 27.1357H44.9973V28.705H43.6055V27.1357Z" fill="white"/>
<path d="M42.539 29.2404V26.1309L40.8932 24.4851L39.0963 26.2874C38.9956 26.3881 38.8595 26.4449 38.7175 26.4449C38.5755 26.4449 38.4389 26.3886 38.3387 26.2879L36.5359 24.4851L34.739 26.2874C34.6383 26.3881 34.5022 26.4449 34.3597 26.4449C34.2178 26.4449 34.0811 26.3886 33.981 26.2879L32.1782 24.4851L30.3812 26.2874C30.1803 26.4888 29.8235 26.4888 29.6226 26.2874L27.8257 24.4851L26.0229 26.2879C25.9222 26.3886 25.7861 26.4449 25.6441 26.4449C25.5016 26.4449 25.3656 26.3881 25.2648 26.2874L23.4679 24.4851L21.6651 26.2879C21.5644 26.3886 21.4283 26.4449 21.2864 26.4449C21.1444 26.4449 21.0078 26.3881 20.9076 26.2874L19.1107 24.4851L17.4648 26.1309V29.8683L19.1107 31.5142L20.9076 29.7119C21.0083 29.6112 21.1444 29.5544 21.2864 29.5544C21.4283 29.5544 21.5649 29.6106 21.6651 29.7114L23.4679 31.5142L25.2648 29.7119C25.3656 29.6112 25.5016 29.5544 25.6441 29.5544C25.7861 29.5544 25.9227 29.6106 26.0229 29.7114L27.8257 31.5142L29.6226 29.7119C29.7233 29.6112 29.8594 29.5544 30.0019 29.5544C30.1444 29.5544 30.2811 29.6112 30.3812 29.7119L32.1782 31.5142L33.981 29.7114C34.0817 29.6106 34.2178 29.5544 34.3597 29.5544C34.5022 29.5544 34.6383 29.6112 34.739 29.7119L36.5359 31.5142L38.3387 29.7114C38.4395 29.6106 38.5755 29.5544 38.7175 29.5544C38.8595 29.5544 38.9961 29.6112 39.0963 29.7119L40.8932 31.5142L42.539 29.8683V29.2404Z" fill="white"/>
<path d="M42.5401 19.7898H17.4648V24.6164L18.7324 23.3488C18.8332 23.2481 18.9692 23.1918 19.1112 23.1918C19.2537 23.1918 19.3898 23.2486 19.4905 23.3493L21.2874 25.1516L23.0902 23.3488C23.1909 23.2481 23.327 23.1918 23.469 23.1918C23.611 23.1918 23.7476 23.2486 23.8478 23.3493L25.6447 25.1516L27.4475 23.3488C27.5482 23.2481 27.6843 23.1918 27.8263 23.1918C27.9688 23.1918 28.1048 23.2486 28.2056 23.3493L30.0025 25.151L31.7994 23.3493C31.9001 23.2486 32.0362 23.1918 32.1787 23.1918C32.3207 23.1918 32.4573 23.2481 32.5575 23.3488L34.3603 25.1516L36.1572 23.3493C36.2579 23.2486 36.394 23.1918 36.5359 23.1918C36.6779 23.1918 36.8145 23.2481 36.9147 23.3488L38.7175 25.1516L40.5144 23.3493C40.6151 23.2486 40.7512 23.1918 40.8937 23.1918C41.0357 23.1918 41.1723 23.2481 41.2725 23.3488L42.5401 24.6164V19.7898Z" fill="white"/>
<defs>
<linearGradient id="paint0_linear_4351_697" x1="-11.5242" y1="28.7093" x2="74.928" y2="25.554" gradientUnits="userSpaceOnUse">
<stop stop-color="#FFE7A3"/>
<stop offset="0.5" stop-color="#FFCA05"/>
<stop offset="1" stop-color="#FAAC18"/>
</linearGradient>
</defs>
</svg>
